<svg viewBox="0 0 1228 155" xmlns="http://www.w3.org/2000/svg">
  <path fill="white" d="M55.02 120.658c-8.01 0-15.36-1.4-22.06-4.201q-10.05-4.201-17.46-11.962c-4.94-5.173-8.75-11.28-11.45-18.32S.01 71.43.01 63.058q0-12.248 4.11-22.568c2.74-6.88 6.61-12.905 11.6-18.077 4.98-5.172 10.8-9.17 17.44-11.995Q43.12 6.18 54.88 6.18c5.23 0 10.41.827 15.55 2.48 5.15 1.654 9.87 3.933 14.17 6.839 4.29 2.906 7.83 6.226 10.61 9.959l-8.63 9.02a44.7 44.7 0 0 0-9.24-8.421 44.2 44.2 0 0 0-10.92-5.465c-3.83-1.288-7.68-1.932-11.54-1.932-5.99 0-11.56 1.098-16.7 3.292s-9.59 5.272-13.33 9.233q-5.625 5.943-8.79 14.092c-2.12 5.432-3.17 11.359-3.17 17.781 0 6.632 1.05 12.717 3.17 18.256q3.165 8.309 9 14.293 5.82 5.983 13.77 9.238t17.58 3.255c3.9 0 7.77-.549 11.6-1.647s7.34-2.65 10.55-4.656q4.815-3.009 8.16-6.939l6.41 10.44c-2.51 2.935-5.82 5.562-9.92 7.881q-6.15 3.479-13.5 5.479c-4.9 1.333-9.8 2-14.69 2m85.98 0q-12.39 0-22.08-5.639-9.675-5.638-15.24-15.52c-3.7-6.587-5.56-14.094-5.56-22.521 0-8.372 1.86-15.81 5.56-22.315q5.565-9.757 15.24-15.354 9.69-5.596 22.08-5.596c8.22 0 15.55 1.865 22.01 5.596 6.45 3.731 11.52 8.849 15.2 15.354 3.67 6.505 5.51 13.943 5.51 22.315 0 8.427-1.84 15.934-5.51 22.521-3.68 6.588-8.75 11.761-15.2 15.52-6.46 3.759-13.79 5.639-22.01 5.639m0-11.4c5.84 0 11.06-1.405 15.64-4.215q6.87-4.215 10.77-11.481c2.6-4.844 3.87-10.372 3.82-16.584.05-6.153-1.22-11.638-3.82-16.455q-3.9-7.226-10.77-11.319c-4.58-2.729-9.8-4.094-15.64-4.094q-8.835 0-15.75 4.133c-4.61 2.755-8.21 6.541-10.81 11.357-2.6 4.817-3.87 10.276-3.82 16.378-.05 6.212 1.22 11.74 3.82 16.584s6.2 8.671 10.81 11.481q6.915 4.215 15.75 4.215m64.33-59.605c1.15-2.038 2.65-3.971 4.51-5.798 3.1-3.036 6.79-5.486 11.08-7.348 4.3-1.863 8.77-2.794 13.42-2.794 6.12 0 11.27 1.239 15.46 3.717 4.18 2.479 7.33 6.278 9.43 11.398 2.11 5.12 3.16 11.602 3.16 19.445v50.785H250.3v-50.08c0-5.517-.74-10.069-2.21-13.658-1.48-3.588-3.68-6.24-6.63-7.956-2.94-1.716-6.61-2.522-10.99-2.419-3.7 0-7.07.618-10.13 1.852-3.05 1.234-5.72 2.923-7.99 5.067-2.28 2.144-4.05 4.609-5.3 7.395q-1.89 4.179-1.89 8.919v50.88h-12.09V35.473H205zm107.14 71.005c-7.9 0-14.94-1.893-21.13-5.678q-9.285-5.677-14.64-15.515c-3.57-6.558-5.36-13.999-5.36-22.322s1.79-15.764 5.36-22.323c3.57-6.558 8.47-11.715 14.68-15.472 6.22-3.757 13.33-5.635 21.34-5.635 7.13 0 13.63 1.423 19.49 4.27 5.85 2.847 10.52 6.772 14 11.777l-7.06 8.635c-2.03-2.673-4.47-5.009-7.3-7.008a36.4 36.4 0 0 0-9.06-4.677q-4.815-1.677-9.63-1.677-8.595 0-15.3 4.174c-4.46 2.782-8.01 6.595-10.63 11.437q-3.93 7.264-3.93 16.499 0 9.237 3.96 16.502c2.65 4.844 6.22 8.67 10.72 11.478 4.49 2.808 9.5 4.212 15.01 4.212 3.21 0 6.35-.507 9.43-1.522q4.62-1.522 8.79-4.444c2.78-1.947 5.35-4.335 7.7-7.164l7.05 8.635c-3.64 4.8-8.49 8.637-14.56 11.509q-9.105 4.31-18.93 4.309m47.4-41.088c.32 5.441 1.57 10.251 3.77 14.43 2.57 4.872 6.24 8.633 11.02 11.283 4.79 2.65 10.5 3.975 17.14 3.975 4.05 0 8.01-.665 11.89-1.996 3.87-1.331 8.17-3.976 12.88-7.934l6.17 8.7q-3.675 3.593-8.82 6.431c-3.44 1.893-7.16 3.399-11.19 4.519a46.2 46.2 0 0 1-12.45 1.68c-8.31 0-15.69-1.826-22.13-5.479-6.45-3.652-11.5-8.706-15.14-15.161-3.65-6.455-5.48-13.925-5.48-22.41 0-6.448 1.03-12.338 3.08-17.668q3.075-7.995 8.55-13.911c3.64-3.944 8.03-6.996 13.14-9.155 5.12-2.159 10.68-3.239 16.7-3.239 5.61 0 10.75.999 15.41 2.995 4.67 1.997 8.66 4.795 11.99 8.394q4.995 5.399 7.59 12.756c1.73 4.905 2.51 10.291 2.35 16.158l-.16 5.632zm.44-10.14h53.78v-1.037c-.15-3.907-1.26-7.633-3.31-11.179-2.06-3.546-4.93-6.449-8.63-8.711q-5.55-3.393-13.23-3.393c-5.92 0-11.07 1.218-15.43 3.653q-6.54 3.653-10.11 10.676c-1.48 2.904-2.5 6.234-3.07 9.991m63.39 80.983-4.75-9.663c4.38 0 7.91-.72 10.61-2.16 2.69-1.44 4.67-3.614 5.95-6.523s1.91-6.499 1.91-10.769V35.473h12.1v89.41c0 5.055-1.08 9.497-3.23 13.326q-3.225 5.744-9 8.974c-3.85 2.153-8.39 3.23-13.59 3.23M443.58 17.49q-4.365 0-6.75-2.306c-1.59-1.537-2.39-3.684-2.39-6.439q0-3.894 2.43-6.32C438.48.809 440.72 0 443.58 0c2.92 0 5.17.769 6.76 2.307 1.58 1.537 2.38 3.683 2.38 6.438 0 2.597-.81 4.704-2.42 6.32q-2.43 2.425-6.72 2.425m58.55 103.168q-12.405 0-22.08-5.639c-6.46-3.759-11.53-8.932-15.24-15.52s-5.56-14.094-5.56-22.521c0-8.372 1.85-15.81 5.56-22.315s8.78-11.623 15.24-15.354q9.675-5.596 22.08-5.596c8.22 0 15.55 1.865 22.01 5.596 6.45 3.731 11.51 8.849 15.19 15.354q5.52 9.757 5.52 22.315 0 12.64-5.52 22.521c-3.68 6.588-8.74 11.761-15.19 15.52-6.46 3.759-13.79 5.639-22.01 5.639m0-11.4q8.76 0 15.63-4.215c4.58-2.81 8.18-6.637 10.77-11.481 2.6-4.844 3.87-10.372 3.82-16.584.05-6.153-1.22-11.638-3.82-16.455-2.59-4.817-6.19-8.59-10.77-11.319q-6.87-4.094-15.63-4.094c-5.89 0-11.15 1.378-15.75 4.133-4.61 2.755-8.21 6.541-10.81 11.357-2.6 4.817-3.87 10.276-3.82 16.378-.05 6.212 1.22 11.74 3.82 16.584s6.2 8.671 10.81 11.481c4.6 2.81 9.86 4.215 15.75 4.215M607.1 28.58c.36 4.096.63 8.25.8 12.463q.48 11.28.48 26.8v51.215H595.9v-112h12.16l40.11 65.251 40.68-65.251h11.28v112h-12.48V67.843c0-9.6.16-18.24.47-25.92q.27-6.666.84-13.277l-36.98 57.922h-8.57zm170.74 76.099c-1.17 2.129-2.69 4.126-4.54 5.993-3.02 3.034-6.56 5.457-10.64 7.268-4.07 1.812-8.32 2.718-12.73 2.718q-9.63 0-16.26-3.911-6.645-3.912-10.08-11.473c-2.29-5.041-3.43-11.276-3.43-18.706V35.473h12.09v48.765c0 5.568.79 10.25 2.36 14.044q2.37 5.691 7.05 8.571c3.13 1.92 6.99 2.88 11.59 2.88q5.31 0 9.81-1.851c3-1.234 5.61-2.91 7.84-5.027a23 23 0 0 0 5.23-7.47q1.89-4.294 1.89-9.187V35.473h12.09v83.585h-11.93zm39.74-55.026c1.15-2.038 2.65-3.971 4.51-5.798 3.1-3.036 6.79-5.486 11.08-7.348 4.3-1.863 8.77-2.794 13.42-2.794 6.12 0 11.27 1.239 15.46 3.717 4.18 2.479 7.33 6.278 9.43 11.398 2.11 5.12 3.16 11.602 3.16 19.445v50.785h-12.09v-50.08c0-5.517-.74-10.069-2.21-13.658-1.48-3.588-3.68-6.24-6.63-7.956-2.94-1.716-6.61-2.522-10.99-2.419-3.7 0-7.07.618-10.13 1.852-3.05 1.234-5.72 2.923-7.99 5.067-2.28 2.144-4.05 4.609-5.3 7.395q-1.89 4.179-1.89 8.919v50.88h-12.09V35.473h11.93zm75.09 69.405V35.473h12.09v83.585zM898.6 17.49q-4.365 0-6.75-2.306c-1.59-1.537-2.38-3.684-2.38-6.439 0-2.596.8-4.703 2.42-6.32C893.5.809 895.74 0 898.6 0c2.91 0 5.17.769 6.75 2.307 1.59 1.537 2.39 3.683 2.39 6.438 0 2.597-.81 4.704-2.42 6.32q-2.43 2.425-6.72 2.425m59.62 103.168c-7.9 0-14.94-1.893-21.13-5.678q-9.285-5.677-14.64-15.515c-3.57-6.558-5.36-13.999-5.36-22.322s1.79-15.764 5.36-22.323c3.57-6.558 8.47-11.715 14.68-15.472 6.22-3.757 13.33-5.635 21.34-5.635 7.13 0 13.63 1.423 19.49 4.27s10.52 6.772 14 11.777l-7.05 8.635a33 33 0 0 0-7.31-7.008 36.4 36.4 0 0 0-9.06-4.677c-3.2-1.118-6.42-1.677-9.63-1.677-5.73 0-10.82 1.391-15.29 4.174-4.47 2.782-8.02 6.595-10.64 11.437q-3.93 7.264-3.93 16.499c0 6.158 1.32 11.659 3.97 16.502q3.96 7.266 10.71 11.478c4.49 2.808 9.5 4.212 15.01 4.212 3.21 0 6.36-.507 9.43-1.522q4.62-1.522 8.79-4.444c2.78-1.947 5.35-4.335 7.7-7.164l7.05 8.635c-3.63 4.8-8.49 8.637-14.56 11.509q-9.105 4.31-18.93 4.309m44.14-1.6V35.473h12.1v83.585zm5.94-101.568c-2.92 0-5.17-.768-6.76-2.306-1.59-1.537-2.38-3.684-2.38-6.439 0-2.596.81-4.703 2.42-6.32Q1003.995.001 1008.3 0q4.365 0 6.75 2.307c1.59 1.537 2.38 3.683 2.38 6.438 0 2.597-.8 4.704-2.42 6.32-1.61 1.617-3.85 2.425-6.71 2.425m36.52 86.823v49.945h-12.17V35.473h12l.31 15.194c1.08-1.942 2.44-3.795 4.11-5.559 3.18-3.375 7.05-6.093 11.62-8.153s9.42-3.09 14.56-3.09c7.46 0 14.17 1.867 20.12 5.6q8.925 5.601 14.16 15.36 5.25 9.76 5.25 22.4c0 8.32-1.71 15.747-5.12 22.279-3.42 6.533-8.1 11.679-14.05 15.438q-8.925 5.638-20.13 5.638c-5.29 0-10.29-1.055-14.99-3.166q-7.035-3.166-11.97-8.345a29.3 29.3 0 0 1-3.7-4.756m28.68 4.792c5.68 0 10.72-1.378 15.11-4.135s7.85-6.544 10.36-11.362q3.78-7.227 3.78-16.383 0-9.234-3.78-16.423c-2.52-4.793-5.97-8.567-10.37-11.324-4.39-2.757-9.42-4.135-15.1-4.135-5.67 0-10.72 1.365-15.14 4.096q-6.63 4.096-10.44 11.283c-2.54 4.791-3.82 10.264-3.82 16.421 0 6.213 1.29 11.715 3.86 16.506q3.855 7.187 10.44 11.321c4.4 2.757 9.43 4.135 15.1 4.135m114.37-5.035q-.525.832-1.11 1.648-3.18 4.37-7.77 7.735c-3.07 2.243-6.48 4.005-10.25 5.285-3.76 1.28-7.72 1.92-11.89 1.92-7.26 0-13.82-1.893-19.66-5.678-5.85-3.785-10.49-8.956-13.93-15.515q-5.16-9.837-5.16-22.317 0-12.64 5.28-22.438c3.52-6.531 8.26-11.664 14.21-15.397s12.6-5.6 19.96-5.6c4.32 0 8.34.64 12.08 1.92s7.06 3.067 9.98 5.36a34 34 0 0 1 7.38 8.002c.27.404.52.812.76 1.224l.29-14.746h12v83.585h-12.17zm-28.35 5.113c5.56 0 10.53-1.379 14.89-4.136 4.37-2.758 7.81-6.544 10.33-11.36 2.51-4.816 3.77-10.357 3.77-16.622 0-6.156-1.24-11.63-3.73-16.421s-5.92-8.564-10.28-11.321c-4.37-2.757-9.36-4.135-14.98-4.135-5.63 0-10.61 1.378-14.95 4.135-4.33 2.757-7.75 6.53-10.24 11.321s-3.73 10.265-3.73 16.421q0 9.231 3.69 16.497t10.2 11.443q6.51 4.178 15.03 4.178m56.05 9.875V.658h12.09v118.4z"/>
</svg>
