<?xml version="1.0" encoding="UTF-8" standalone="no"?><!DOCTYPE svg PUBLIC "-//W3C//DTD SVG 1.1//EN" "http://www.w3.org/Graphics/SVG/1.1/DTD/svg11.dtd"><svg width="100%" height="100%" viewBox="0 0 249 249" version="1.1" xmlns="http://www.w3.org/2000/svg" xmlns:xlink="http://www.w3.org/1999/xlink" xml:space="preserve" xmlns:serif="http://www.serif.com/" style="fill-rule:evenodd;clip-rule:evenodd;stroke-linejoin:round;stroke-miterlimit:2;"><rect id="Pluma" x="0" y="0" width="248.046" height="248.046" style="fill:none;"/><clipPath id="_clip1"><rect id="Pluma1" serif:id="Pluma" x="0" y="0" width="248.046" height="248.046"/></clipPath><g clip-path="url(#_clip1)"><g><path d="M248.046,124.023c0,68.497 -55.527,124.024 -124.024,124.024c-68.494,-0 -124.021,-55.527 -124.021,-124.024c0,-68.497 55.527,-124.024 124.021,-124.024c68.497,-0 124.024,55.527 124.024,124.024Zm-40.377,-73.503l0.489,-0.454l-3.067,-3.277l3.155,-2.951l3.246,3.471l0.489,-0.457l-3.795,-4.055l-8.208,7.681l3.977,4.248l0.486,-0.454l-3.429,-3.668l3.594,-3.358l3.063,3.274Zm9.554,12.798l-4.129,3.369l0.457,0.637l8.698,-7.154l-0.553,-0.773l-6.741,1.73c-1.562,0.426 -2.677,0.732 -3.682,1.101l-0.029,-0.039c0.697,-0.89 1.393,-1.86 2.237,-3.123l3.862,-5.743l-0.535,-0.745l-9.608,5.883l0.454,0.64l4.406,-2.729c1.593,-0.981 3.229,-2.047 4.319,-2.789l0.021,0.029c-0.809,0.988 -1.625,2.169 -2.68,3.703l-3.559,5.279l0.32,0.45l6.341,-1.632c1.748,-0.454 3.067,-0.844 4.298,-1.217l0.021,0.028c-1.006,0.721 -2.606,2.033 -3.918,3.095Zm-37.784,-42.099l-0.696,-0.394l-3.373,5.944c-1.706,2.999 -0.71,4.867 0.999,5.837c1.839,1.045 4.083,0.88 5.785,-2.12l3.316,-5.842l-0.696,-0.397l-3.348,5.901c-1.365,2.406 -3.074,2.817 -4.698,1.896c-1.435,-0.816 -2.051,-2.43 -0.637,-4.924l3.348,-5.901Zm47.394,102.804c0,-56.779 -46.031,-102.811 -102.81,-102.811c-56.779,-0 -102.811,46.032 -102.811,102.811c-0,56.779 46.032,102.811 102.811,102.811c56.779,0 102.81,-46.032 102.81,-102.811Zm-2.061,-59.736l-0.394,-0.696l-5.947,3.362c-3.003,1.695 -3.116,3.805 -2.149,5.518c1.041,1.842 3.049,2.852 6.053,1.157l5.845,-3.306l-0.391,-0.696l-5.904,3.337c-2.409,1.361 -4.087,0.834 -5.005,-0.791c-0.812,-1.439 -0.51,-3.137 1.987,-4.548l5.905,-3.337Zm-5.266,13.755l0.309,0.7l5.202,-2.293c1.706,-0.756 2.813,-1.263 4.044,-1.899l0.028,0.024c-0.831,1.006 -1.603,2.184 -2.44,3.464l-4.249,6.559l0.296,0.672l10.279,-4.537l-0.309,-0.703l-5.124,2.261c-1.604,0.707 -2.768,1.242 -4.108,1.963l-0.028,-0.025c0.767,-0.939 1.467,-1.959 2.378,-3.362l4.3,-6.678l-0.302,-0.686l-10.277,4.54Zm4.03,9.597l0.275,0.752l10.55,-3.861l-0.276,-0.752l-10.549,3.861Zm3.739,10.346l0.537,-0.404c-0.489,-0.531 -0.949,-1.372 -1.22,-2.283c-0.865,-2.891 0.52,-5.117 3.446,-5.993c3.1,-0.924 5.515,0.285 6.383,3.19c0.275,0.911 0.317,1.752 0.208,2.378l0.71,0.045c0.063,-0.365 0.127,-1.255 -0.285,-2.63c-1.016,-3.401 -4.044,-4.741 -7.241,-3.784c-3.819,1.143 -4.734,4.132 -3.953,6.738c0.398,1.322 0.978,2.282 1.415,2.743Zm-0.051,1.786l0.184,0.78l10.933,-2.584l-0.185,-0.781l-10.932,2.585Zm11.695,1.296l-10.927,1.973l0.141,0.788l4.727,-0.855c-0.043,0.415 0.021,0.862 0.112,1.372c0.246,1.361 0.886,2.465 1.815,3.024c0.651,0.408 1.403,0.542 2.356,0.373c0.918,-0.165 1.6,-0.612 2.012,-1.245c0.478,-0.714 0.643,-1.776 0.408,-3.088c-0.169,-0.935 -0.412,-1.723 -0.644,-2.342Zm-5.37,1.783l4.938,-0.89c0.119,0.282 0.281,0.813 0.415,1.534c0.316,1.754 -0.243,3.161 -1.984,3.474c-1.755,0.317 -2.922,-0.693 -3.278,-2.676c-0.098,-0.542 -0.154,-1.041 -0.091,-1.442Zm-0.339,7.519l0.492,4.428l-3.756,1.842l0.091,0.813l10.719,-5.272l-0.084,-0.763l-11.619,-2.799l0.091,0.812l4.066,0.939Zm1.125,4.104l-0.436,-3.928l3.914,0.956c0.739,0.155 1.34,0.271 2.005,0.363l0.003,0.035c-0.612,0.235 -1.16,0.446 -1.909,0.798l-3.577,1.776Zm6.954,4.14l-11.229,0.355l0.183,5.796l0.664,-0.018l-0.158,-5.001l10.565,-0.334l-0.025,-0.798Zm-11.117,7.684l-0.016,0.797l11.235,0.223l0.015,-0.798l-11.234,-0.222Zm11.003,4.264l-11.028,-0.951c-0.137,0.81 -0.225,1.623 -0.299,2.488c-0.187,2.156 0.299,3.906 1.294,4.98c1.027,1.107 2.465,1.684 4.111,1.825c1.695,0.148 3,-0.244 4.006,-1.062c1.058,-0.844 1.741,-2.342 1.916,-4.386c0.092,-1.062 0.074,-2.018 0,-2.894Zm-10.434,-0.095l9.766,0.841c0.056,0.492 0.081,1.178 0.007,2.042c-0.309,3.606 -2.388,5.016 -5.226,4.738c-3.239,-0.281 -5.096,-2.23 -4.786,-5.817c0.063,-0.714 0.133,-1.361 0.239,-1.804Zm2.025,11.441l-0.791,4.379l-4.122,0.696l-0.144,0.805l11.778,-1.994l0.133,-0.752l-10.332,-6l-0.148,0.805l3.626,2.061Zm-0.088,4.252l0.703,-3.886l3.475,2.033c0.668,0.355 1.206,0.64 1.818,0.918l-0.007,0.035c-0.654,0.052 -1.238,0.098 -2.054,0.221l-3.935,0.679Zm5.331,6.031l-10.653,-2.993c-0.284,0.767 -0.52,1.548 -0.756,2.385c-0.587,2.085 -0.439,3.893 0.338,5.131c0.802,1.284 2.107,2.117 3.696,2.564c1.635,0.46 2.993,0.323 4.132,-0.292c1.2,-0.633 2.149,-1.977 2.705,-3.95c0.288,-1.027 0.45,-1.969 0.538,-2.845Zm-10.227,-2.043l9.436,2.652c-0.036,0.492 -0.141,1.171 -0.377,2.008c-0.977,3.481 -3.284,4.477 -6.017,3.675c-3.13,-0.879 -4.589,-3.144 -3.615,-6.608c0.193,-0.69 0.387,-1.312 0.573,-1.727Zm5.564,16.832l-10.167,-4.379c-0.384,0.725 -0.725,1.467 -1.066,2.265c-0.858,1.991 -0.95,3.802 -0.341,5.135c0.622,1.375 1.807,2.377 3.323,3.031c1.562,0.672 2.923,0.714 4.136,0.257c1.273,-0.468 2.391,-1.674 3.204,-3.559c0.422,-0.981 0.707,-1.892 0.911,-2.75Zm-9.872,-3.38l9.003,3.879c-0.098,0.485 -0.292,1.147 -0.636,1.941c-1.432,3.324 -3.848,4.006 -6.454,2.845c-2.986,-1.283 -4.132,-3.72 -2.708,-7.026c0.285,-0.661 0.556,-1.252 0.795,-1.639Zm-2.201,15.939l0.587,0.313l2.121,-3.953l3.805,2.04l-2.244,4.188l0.588,0.317l2.623,-4.896l-9.907,-5.306l-2.75,5.127l0.588,0.317l2.37,-4.428l4.336,2.325l-2.117,3.956Zm1.223,8.601l-9.165,-6.26l-0.45,0.661l3.963,2.708c-0.323,0.264 -0.591,0.626 -0.882,1.052c-0.781,1.143 -1.101,2.377 -0.83,3.432c0.175,0.746 0.618,1.368 1.417,1.913c0.77,0.528 1.568,0.69 2.303,0.528c0.844,-0.173 1.71,-0.813 2.459,-1.913c0.538,-0.788 0.914,-1.516 1.185,-2.121Zm-5.075,-2.497l4.143,2.831c-0.116,0.285 -0.369,0.777 -0.784,1.382c-1.006,1.47 -2.392,2.082 -3.848,1.083c-1.473,-1.005 -1.596,-2.542 -0.457,-4.206c0.309,-0.457 0.619,-0.847 0.946,-1.09Zm-8.823,2.932l-0.485,0.633l8.922,6.83l0.485,-0.633l-8.922,-6.83Zm-6.711,8.703l0.63,0.239c0.186,-0.7 0.647,-1.537 1.266,-2.254c1.972,-2.283 4.596,-2.307 6.903,-0.313c2.448,2.113 2.726,4.8 0.742,7.093c-0.622,0.721 -1.308,1.207 -1.892,1.453l0.338,0.622c0.344,-0.144 1.132,-0.566 2.068,-1.649c2.321,-2.687 1.825,-5.961 -0.7,-8.138c-3.011,-2.606 -6.025,-1.773 -7.801,0.281c-0.903,1.048 -1.399,2.054 -1.554,2.666Zm5.765,9.567l0.577,-0.556l-7.787,-8.095l-0.576,0.555l3.893,4.048l-4.466,4.298l-3.894,-4.048l-0.576,0.555l7.786,8.093l0.573,-0.556l-3.429,-3.566l4.47,-4.298l3.429,3.57Zm-14.78,-1.635l-0.612,0.517l7.255,8.585l0.612,-0.517l-7.255,-8.585Zm4.232,11.091l-6.805,-8.94l-4.614,3.514l0.404,0.531l3.978,-3.028l6.4,8.408l0.637,-0.485Zm-14.004,2.969l0.366,0.559l3.752,-2.458l2.364,3.608l-3.975,2.606l0.366,0.556l4.642,-3.042l-6.154,-9.397l-4.867,3.19l0.365,0.559l4.196,-2.75l2.694,4.111l-3.749,2.458Zm-10.819,5.669l-2.77,-4.551l-0.693,0.366l5.894,9.59l0.84,-0.443l-0.792,-6.907c-0.204,-1.607 -0.355,-2.75 -0.583,-3.798l0.043,-0.025c0.784,0.813 1.652,1.639 2.781,2.645l5.159,4.611l0.813,-0.426l-4.508,-10.322l-0.693,0.366l2.096,4.734c0.749,1.712 1.586,3.478 2.17,4.659l-0.032,0.014c-0.869,-0.935 -1.924,-1.906 -3.299,-3.158l-4.74,-4.248l-0.486,0.253l0.742,6.503c0.211,1.79 0.419,3.151 0.616,4.421l-0.028,0.017c-0.577,-1.094 -1.657,-2.859 -2.529,-4.301Zm-2.019,7.348l0.746,-0.292l-2.508,-6.362c-1.266,-3.211 -3.341,-3.612 -5.17,-2.891c-1.969,0.778 -3.249,2.624 -1.983,5.835l2.462,6.253l0.745,-0.292l-2.49,-6.316c-1.013,-2.575 -0.256,-4.164 1.477,-4.847c1.537,-0.605 3.18,-0.07 4.235,2.596l2.486,6.316Zm26.133,-199.153l-6.566,8.286l0.626,0.496l6.566,-8.283l2.877,2.279l0.415,-0.524l-6.376,-5.057l-0.415,0.524l2.873,2.279Zm5.129,3.545l-7.512,8.159l0.587,0.541l3.492,-3.791l1.288,1.185c1.044,1.056 1.062,2.072 0.225,3.496c-0.739,1.249 -1.235,2.128 -1.326,2.497l0.601,0.556c0.134,-0.489 0.538,-1.249 1.446,-2.796c0.65,-1.101 0.808,-2.11 0.337,-2.93l0.025,-0.024c1.259,0.548 2.578,0.446 3.608,-0.668c0.528,-0.577 0.816,-1.333 0.777,-2.001c-0.049,-0.887 -0.52,-1.752 -1.6,-2.744c-0.577,-0.534 -1.333,-1.114 -1.948,-1.48Zm-2.993,4.431l3.197,-3.471c0.253,0.144 0.728,0.464 1.29,0.985c1.302,1.199 1.759,2.57 0.595,3.833c-1.006,1.094 -2.494,1.037 -3.77,-0.137l-1.312,-1.21Zm-26.493,-23.496l-4.786,10.167l5.247,2.469l0.285,-0.601l-4.527,-2.132l4.505,-9.562l-0.724,-0.341Zm10.355,16.94l-0.612,0.369c0.236,0.686 0.992,1.586 1.79,2.131c1.984,1.354 3.763,0.816 4.685,-0.534c0.939,-1.375 0.608,-2.631 -0.496,-4.294c-0.978,-1.435 -1.214,-2.363 -0.517,-3.38c0.499,-0.731 1.667,-1.347 3.165,-0.32c0.798,0.545 1.21,1.21 1.336,1.558l0.633,-0.394c-0.176,-0.425 -0.686,-1.097 -1.551,-1.688c-1.582,-1.08 -3.376,-0.851 -4.304,0.51c-0.858,1.252 -0.489,2.634 0.629,4.189c1.003,1.427 1.115,2.416 0.412,3.446c-0.781,1.143 -2.17,1.344 -3.559,0.394c-0.77,-0.524 -1.33,-1.27 -1.611,-1.987Zm-18.274,-8.078l0.737,0.303l4.274,-10.393l-0.738,-0.303l-4.273,10.393Z" style="fill:#fff;"/><path d="M30.647,167.104c-0.727,-1.571 -1.414,-3.164 -2.062,-4.777l18.848,-106.89c1.272,-1.421 2.584,-2.805 3.933,-4.152l158.481,27.944l-0.496,2.817l-21.632,122.683c-1.1,0.87 -2.218,1.717 -3.353,2.541l22.165,-125.72l-155.95,-27.498l-19.934,113.052Zm64.436,-141.762c-0.097,0.07 -0.21,0.121 -0.334,0.147c0.344,0.464 0.591,1.016 0.7,1.628c0.063,0.394 0.063,0.785 0.017,1.161l0.007,-0.004c-0.067,0.352 -0.077,0.721 -0.017,1.094c0.119,0.665 0.446,1.241 0.907,1.674c0.879,0.95 1.505,2.156 1.741,3.527c0.348,2.012 -0.215,3.971 -1.382,5.462l0.495,-0.088c0.468,-0.081 0.911,0.236 0.992,0.707c0.471,-0.084 0.922,0.232 0.999,0.7l0.601,3.489c-1.297,0.197 -2.588,0.422 -3.875,0.664c1.994,1.935 4.322,3.823 7.529,5.283c8.898,4.044 18.847,-2.494 18.847,-2.494l5.416,7.737c0,-0 -5.532,3.084 -10.881,2.159c-16.357,-2.841 -24.171,-18.878 -36.086,-12.073c-1.759,1.006 -5.029,3.728 -7.02,5.434l-5.511,-12.26l-0.568,-1.263c0.42,-0.277 0.843,-0.55 1.268,-0.82l0.718,1.598c1.058,-0.355 2.247,-0.735 3.457,-1.098c0.021,-0.147 0.045,-0.288 0.077,-0.432c0.211,-0.63 0.215,-1.333 -0.035,-2.008c-0.061,-0.168 -0.136,-0.326 -0.224,-0.474c0.851,-0.488 1.709,-0.965 2.575,-1.429c0.009,0.316 0.067,0.633 0.184,0.946c0.236,0.637 0.669,1.143 1.2,1.484c0.292,0.218 0.569,0.457 0.823,0.721c1.241,-0.253 2.345,-0.401 3.158,-0.373c0.439,0.022 0.858,0.057 1.269,0.099c-0.028,-0.774 0.078,-1.53 0.292,-2.247c0.267,-0.609 0.341,-1.312 0.151,-2.005c-0.098,-0.369 -0.263,-0.696 -0.474,-0.988l0,-0.004c-0.14,-0.22 -0.261,-0.459 -0.357,-0.715c1.053,-0.475 2.115,-0.934 3.186,-1.374c0.013,0.042 0.025,0.084 0.037,0.127c0.098,0.387 0.141,0.774 0.123,1.153l0.011,-0c-0.032,0.356 -0.015,0.718 0.087,1.084c0.18,0.654 0.56,1.199 1.059,1.589c0.964,0.858 1.702,1.998 2.064,3.341c0.215,0.781 0.278,1.569 0.222,2.335c1.772,1.182 3.264,2.705 4.811,4.323l-0.088,-0.486c-0.077,-0.467 0.236,-0.914 0.707,-0.995c-0.081,-0.468 0.236,-0.914 0.703,-0.999l0.493,-0.081c-1.597,-1.012 -2.779,-2.672 -3.127,-4.684c-0.228,-1.329 -0.056,-2.634 0.419,-3.798c0.33,-0.584 0.464,-1.273 0.337,-1.98c-0.063,-0.377 -0.197,-0.725 -0.38,-1.034l0.004,-0c-0.169,-0.338 -0.299,-0.704 -0.366,-1.097c-0.084,-0.492 -0.069,-0.972 0.026,-1.43c0.998,-0.326 2.002,-0.638 3.013,-0.933Zm11.957,-2.734c-0.141,0.226 -0.383,0.384 -0.668,0.405c0.031,0.468 -0.313,0.872 -0.777,0.918c0.295,0.499 0.488,1.073 0.531,1.692c0.031,0.397 -0.004,0.787 -0.088,1.153l0.007,-0c-0.106,0.345 -0.152,0.711 -0.123,1.087c0.049,0.675 0.323,1.284 0.738,1.755c0.781,1.034 1.287,2.293 1.386,3.682c0.147,2.036 -0.598,3.928 -1.91,5.3l0.503,-0.039c0.475,-0.035 0.886,0.32 0.921,0.798c0.475,-0.035 0.89,0.32 0.925,0.799l0.275,3.731c-2.022,0.127 -4.031,0.31 -6.018,0.549l-0.281,-3.844c-0.035,-0.475 0.324,-0.886 0.798,-0.922c-0.035,-0.478 0.324,-0.889 0.799,-0.925l0.506,-0.035c-1.498,-1.164 -2.514,-2.926 -2.666,-4.969c-0.095,-1.34 0.204,-2.624 0.792,-3.738c0.379,-0.546 0.583,-1.221 0.534,-1.938c-0.028,-0.38 -0.13,-0.735 -0.281,-1.062l0.003,-0c-0.137,-0.355 -0.235,-0.735 -0.256,-1.129c-0.05,-0.623 0.063,-1.217 0.285,-1.755c-0.391,0.021 -0.734,-0.221 -0.859,-0.57c1.627,-0.353 3.269,-0.668 4.924,-0.943Zm8.734,16.336l-5.186,-15.963l0.053,-0.052c0.202,-0.312 0.407,-0.623 0.613,-0.932c0.822,-0.102 1.647,-0.194 2.475,-0.276c-0.119,0.179 -0.237,0.359 -0.355,0.54l-0.046,0.049l3.858,11.876c3.738,0.081 7.501,0.348 11.282,0.816l2.393,-13.566c1.619,0.106 3.228,0.25 4.825,0.43l-3.269,18.534c-5.587,-0.932 -11.147,-1.406 -16.643,-1.456Zm0.622,1.914l-0.005,-0l-0.619,-1.914l0.002,-0l0.622,1.914Zm-0,-0c5.495,0.084 11.051,0.594 16.633,1.575c5.582,0.988 10.98,2.406 16.167,4.21l-2.486,3.182c-4.618,-1.536 -9.408,-2.76 -14.345,-3.629c-4.938,-0.872 -9.855,-1.361 -14.722,-1.498l-1.247,-3.84Zm43.266,-13.3c0.388,1.39 0.75,2.79 1.075,4.203l0.031,0.067l-10.328,13.23c-5.184,-1.836 -10.572,-3.292 -16.143,-4.326l3.287,-18.633c1.602,0.211 3.193,0.459 4.771,0.743l-2.498,14.169c3.711,0.852 7.34,1.889 10.881,3.092l7.685,-9.844l-0.025,-0.056c-0.265,-1.143 -0.553,-2.278 -0.865,-3.405c0.714,0.245 1.423,0.499 2.129,0.76Zm11.269,4.955l-0.966,2.146c-0.197,0.436 -0.71,0.629 -1.14,0.436c-0.193,0.429 -0.692,0.622 -1.125,0.439c0.028,0.584 -0.074,1.179 -0.33,1.745c-0.166,0.366 -0.377,0.689 -0.634,0.974l0.004,0.003c-0.25,0.254 -0.468,0.556 -0.622,0.904c-0.296,0.654 -0.335,1.358 -0.166,2.001c0.176,1.245 0.018,2.55 -0.538,3.784c-0.837,1.868 -2.395,3.173 -4.199,3.756l0.461,0.208c0.436,0.197 0.629,0.707 0.436,1.139c0.432,0.197 0.629,0.707 0.432,1.14l-1.579,3.517c-1.786,-0.908 -3.611,-1.766 -5.468,-2.571l1.537,-3.419c0.193,-0.432 0.703,-0.625 1.143,-0.432c0.189,-0.436 0.703,-0.63 1.139,-0.436l0.461,0.207c-0.767,-1.733 -0.823,-3.766 0.014,-5.63c0.569,-1.27 1.47,-2.279 2.564,-2.982c0.552,-0.303 1.016,-0.781 1.294,-1.4c0.154,-0.345 0.232,-0.703 0.253,-1.059l0.007,-0c0.049,-0.376 0.148,-0.752 0.309,-1.114c0.254,-0.57 0.633,-1.041 1.084,-1.407c-0.422,-0.204 -0.609,-0.707 -0.415,-1.133c-0.436,-0.197 -0.633,-0.707 -0.436,-1.139l1.022,-2.279c1.849,0.815 3.669,1.683 5.458,2.602Zm29.986,23.265l-5.743,5.897l-9.373,9.633c-1.283,-2.283 -3.429,-5.961 -4.74,-7.505c-8.873,-10.473 -21.706,1.923 -38.056,-1.003c-5.349,-0.96 -9.495,-5.75 -9.495,-5.75l7.744,-5.416c0,-0 7.114,9.545 16.863,8.789c3.517,-0.274 6.348,-1.252 8.883,-2.384c-1.122,-0.672 -2.261,-1.326 -3.411,-1.956l1.755,-3.07c0.239,-0.415 0.767,-0.559 1.178,-0.323c0.239,-0.412 0.763,-0.556 1.178,-0.321l0.44,0.25c-0.591,-1.797 -0.45,-3.826 0.562,-5.602c0.693,-1.206 1.696,-2.124 2.846,-2.715c0.576,-0.25 1.086,-0.679 1.424,-1.27c0.19,-0.327 0.302,-0.675 0.355,-1.03l0.011,0.007c0.084,-0.369 0.218,-0.735 0.415,-1.083c0.309,-0.542 0.731,-0.971 1.216,-1.294c-0.401,-0.24 -0.538,-0.757 -0.302,-1.168c-0.415,-0.239 -0.559,-0.763 -0.324,-1.178l1.266,-2.214c1.746,1.015 3.459,2.079 5.137,3.192l-1.159,2.025c-0.239,0.412 -0.767,0.556 -1.178,0.32c-0.236,0.405 -0.749,0.552 -1.157,0.327c-0.032,0.581 -0.194,1.164 -0.5,1.706c-0.2,0.345 -0.443,0.647 -0.721,0.904c-0.274,0.235 -0.524,0.506 -0.713,0.84c-0.356,0.626 -0.461,1.319 -0.359,1.98c0.056,1.256 -0.232,2.539 -0.9,3.71c-1.017,1.773 -2.698,2.93 -4.551,3.331l0.439,0.25c0.412,0.235 0.56,0.763 0.324,1.178c0.411,0.235 0.556,0.763 0.316,1.174l-0.239,0.429c2.005,-0.991 3.925,-1.909 6,-2.419c0.204,-0.739 0.538,-1.456 1.002,-2.117c0.806,-1.136 1.885,-1.952 3.088,-2.434c0.601,-0.197 1.15,-0.577 1.537,-1.129c0.218,-0.309 0.369,-0.647 0.457,-0.988l0.004,-0c0.116,-0.362 0.288,-0.71 0.513,-1.041c0.362,-0.503 0.823,-0.897 1.336,-1.171c-0.376,-0.278 -0.464,-0.805 -0.196,-1.189c-0.387,-0.274 -0.482,-0.816 -0.208,-1.206l1.081,-1.532c1.625,1.198 3.213,2.442 4.763,3.731l-0.906,1.283c-0.271,0.39 -0.813,0.485 -1.2,0.207c-0.27,0.383 -0.798,0.478 -1.185,0.218c-0.084,0.577 -0.299,1.14 -0.657,1.649c-0.233,0.328 -0.503,0.605 -0.806,0.838l0.004,-0c-0.299,0.203 -0.57,0.457 -0.788,0.77c-0.415,0.583 -0.587,1.269 -0.545,1.934c-0.039,0.749 -0.201,1.495 -0.489,2.212c0.394,0.099 0.805,0.211 1.224,0.341c0.777,0.25 1.762,0.767 2.841,1.428c0.331,-0.155 0.669,-0.288 1.02,-0.394c0.616,-0.137 1.193,-0.468 1.639,-0.981c0.239,-0.292 0.419,-0.608 0.538,-0.95l0.007,0.007c0.144,-0.344 0.352,-0.678 0.612,-0.984c0.401,-0.475 0.901,-0.82 1.428,-1.048c-0.341,-0.313 -0.38,-0.841 -0.081,-1.203c-0.362,-0.31 -0.404,-0.855 -0.098,-1.213l0.924,-1.083c1.493,1.358 2.945,2.76 4.355,4.203l-0.676,0.794c-0.309,0.362 -0.858,0.408 -1.217,0.098c-0.306,0.359 -0.837,0.405 -1.202,0.109c-0.141,0.563 -0.405,1.108 -0.806,1.583c-0.256,0.299 -0.555,0.552 -0.882,0.756l0.003,0.004c-0.313,0.168 -0.608,0.4 -0.847,0.689c-0.472,0.548 -0.707,1.213 -0.728,1.878c-0.018,0.144 -0.043,0.285 -0.071,0.429c1.017,0.752 1.998,1.523 2.877,2.219l5.901,-6.071c0.337,0.368 0.671,0.74 1.003,1.113Zm-158.258,131.101l17.652,-100.112l0.334,-1.881l1.878,0.33l60.124,10.603l1.882,0.331l60.127,10.603l1.874,0.327l-0.33,1.885l-19.122,108.446c-0.697,0.322 -1.398,0.636 -2.103,0.942l3.837,-21.759l-4.294,-4.874c-0.622,0.506 -1.761,1.364 -3.242,2.173c-3.01,1.639 -6.014,2.254 -8.676,1.787c-6.147,-1.084 -9.661,-6.753 -10.769,-8.863c-2.078,1.527 -8.612,5.318 -17.19,0.405c-5.208,-2.986 -11.204,-10.677 -13.691,-14.064l-6.647,37.683l19.325,5.335l1.038,0.095l-12.967,-9.918c-0.214,-0.158 -0.264,-0.45 -0.119,-0.672c0.137,-0.221 0.422,-0.298 0.657,-0.175l14.469,7.564l-8.191,-14.123c-0.13,-0.229 -0.07,-0.517 0.144,-0.668c0.218,-0.148 0.51,-0.109 0.679,0.094l10.473,12.524l-2.159,-16.185c-0.036,-0.26 0.137,-0.499 0.386,-0.559c0.261,-0.056 0.517,0.092 0.595,0.341l4.881,15.576l4.196,-15.773c0.07,-0.256 0.32,-0.414 0.576,-0.369c0.261,0.042 0.44,0.285 0.419,0.542l-1.456,16.262l9.917,-12.97c0.159,-0.208 0.451,-0.257 0.672,-0.12c0.218,0.141 0.299,0.429 0.179,0.661l-7.568,14.465l14.127,-8.187c0.222,-0.13 0.514,-0.067 0.662,0.147c0.154,0.215 0.112,0.507 -0.088,0.679l-12.527,10.47l16.184,-2.16c0.26,-0.035 0.5,0.134 0.559,0.394c0.057,0.253 -0.091,0.51 -0.344,0.588l-15.576,4.881l10.567,2.811c-0.618,0.188 -1.238,0.37 -1.861,0.547l-10.651,-2.834c-0.215,-0.053 -0.369,-0.246 -0.373,-0.475c-0.007,-0.221 0.141,-0.425 0.352,-0.489l11.619,-3.643l-12.066,1.611c-0.225,0.028 -0.443,-0.092 -0.531,-0.299c-0.088,-0.204 -0.032,-0.443 0.137,-0.588l9.344,-7.81l-10.536,6.105c-0.193,0.116 -0.44,0.084 -0.601,-0.071c-0.162,-0.154 -0.204,-0.397 -0.102,-0.601l5.644,-10.79l-7.396,9.675c-0.137,0.18 -0.366,0.246 -0.584,0.162c-0.207,-0.081 -0.341,-0.288 -0.32,-0.514l1.084,-12.129l-3.13,11.767c-0.057,0.218 -0.254,0.37 -0.475,0.377c-0.229,0.007 -0.426,-0.138 -0.493,-0.356l-3.643,-11.619l1.611,12.073c0.024,0.225 -0.092,0.436 -0.296,0.528c-0.204,0.091 -0.446,0.035 -0.594,-0.141l-7.807,-9.341l6.108,10.533c0.109,0.197 0.081,0.443 -0.073,0.605c-0.155,0.162 -0.401,0.2 -0.602,0.098l-10.789,-5.641l9.674,7.396c0.18,0.134 0.243,0.373 0.169,0.581c-0.084,0.211 -0.299,0.341 -0.52,0.32l-12.126,-1.084l11.763,3.134c0.215,0.056 0.373,0.253 0.377,0.475c0.003,0.221 -0.141,0.429 -0.355,0.492l-11.617,3.64l12.067,-1.607c0.225,-0.032 0.439,0.091 0.531,0.295c0.088,0.204 0.031,0.447 -0.137,0.591l-4.142,3.461c-0.513,-0.006 -1.025,-0.017 -1.536,-0.031l3.691,-3.085l-15.562,2.074c-0.377,-0.054 -0.752,-0.11 -1.127,-0.169c-0.024,-0.041 -0.041,-0.087 -0.052,-0.136c-0.056,-0.261 0.092,-0.514 0.342,-0.595l15.579,-4.881l-2.029,-0.538l-19.03,-0.957l-1.047,5.941c-0.623,-0.136 -1.243,-0.279 -1.862,-0.426l1.067,-6.046c-0.007,-0.056 -0,-0.109 0.01,-0.165l0.063,-0.25l0.317,-1.811l-8.476,3.58c-0.123,0.053 -0.253,0.067 -0.379,0.046c-0.215,-0.039 -0.408,-0.186 -0.503,-0.404c-0.145,-0.342 0.017,-0.735 0.358,-0.88l9.281,-3.921l1.871,-10.635c-1.712,0.243 -3.531,0.229 -5.37,-0.098c-2.117,-0.373 -4.062,-1.115 -5.753,-2.124c-3.602,0.474 -7.896,1.575 -12.545,3.847c-4.172,2.036 -7.096,4.389 -9.328,6.752c-0.393,-0.239 -0.784,-0.48 -1.173,-0.725c2.34,-2.524 5.431,-5.052 9.914,-7.24c4.181,-2.044 8.095,-3.162 11.51,-3.742c-3.682,-2.877 -5.722,-7.164 -4.962,-11.5c0.879,-4.955 5.177,-8.602 10.586,-9.605l-0,0.007c0.369,-0.056 0.749,-0.059 1.139,0.011c1.899,0.334 3.172,2.145 2.835,4.048c-0.334,1.899 -2.146,3.168 -4.052,2.831c-1.895,-0.331 -3.165,-2.145 -2.831,-4.045c0.039,-0.225 0.102,-0.439 0.183,-0.643c-3.415,1.449 -5.922,4.178 -6.531,7.635c-0.745,4.238 1.565,8.437 5.56,10.983c5.933,-0.71 9.999,0.204 10.681,0.369c0.053,0.011 0.348,0.067 0.689,0.13l1.899,-10.761l-9.597,4.051c-0.123,0.056 -0.25,0.067 -0.373,0.042c-0.218,-0.035 -0.415,-0.182 -0.506,-0.4c-0.148,-0.342 0.014,-0.732 0.359,-0.88l10.395,-4.396l1.622,-9.214c-0.127,0.035 -0.271,0.035 -0.408,-0.01c-0.152,-0.053 -12.225,-4.115 -27.498,4.111c-10.041,5.405 -15.264,13.174 -19.072,18.843c-0.529,0.785 -1.037,1.539 -1.532,2.248c-0.351,-0.282 -0.699,-0.567 -1.045,-0.855c0.469,-0.676 0.954,-1.396 1.458,-2.146c3.89,-5.785 9.222,-13.712 19.55,-19.275c15.847,-8.532 28.075,-4.375 28.585,-4.196c0.067,0.021 0.123,0.056 0.176,0.095l1.016,-5.768l-60.127,-10.599l-4.859,27.56c-0.536,-0.659 -1.065,-1.326 -1.585,-1.998Zm43.375,32.708c-0.542,-0.215 -1.081,-0.435 -1.618,-0.66c-0.387,-1.477 -0.47,-3.034 -0.194,-4.601c0.894,-5.064 5.356,-8.877 10.885,-9.513c0.024,-0.007 0.046,-0.007 0.074,-0.011c0.056,-0.003 0.119,-0.014 0.172,-0.021l-0,0.007c0.281,-0.017 0.577,-0.007 0.869,0.046c1.969,0.345 3.281,2.223 2.936,4.192c-0.351,1.966 -2.226,3.278 -4.188,2.933c-1.97,-0.345 -3.285,-2.223 -2.937,-4.189c0.056,-0.33 0.162,-0.636 0.292,-0.921c-3.517,1.312 -6.151,4.167 -6.78,7.709c-0.304,1.729 -0.109,3.445 0.489,5.029Zm65.586,3.501c-0.958,0.266 -1.922,0.519 -2.891,0.758l-5.941,-0.531l1.888,1.444c-0.44,0.089 -0.882,0.176 -1.324,0.261l-2.562,-1.958c-0.179,-0.141 -0.246,-0.38 -0.161,-0.588c0.077,-0.207 0.288,-0.337 0.513,-0.32l10.478,0.934Zm-26.656,3.742l3.043,-1.764c0.193,-0.112 0.439,-0.081 0.601,0.074c0.165,0.155 0.201,0.397 0.099,0.594l-0.532,1.018c-1.066,0.042 -2.137,0.068 -3.211,0.078Zm14.163,-1.098l-0.127,-0.219c-0.116,-0.194 -0.084,-0.443 0.074,-0.605c0.151,-0.158 0.398,-0.201 0.598,-0.095l1.229,0.642c-0.59,0.098 -1.181,0.19 -1.774,0.277Zm-65.25,-11.936c0.407,-0.622 0.951,-1.155 1.601,-1.55c0.316,-0.19 0.731,-0.091 0.925,0.222c0.193,0.323 0.091,0.735 -0.229,0.928c-0.445,0.271 -0.823,0.631 -1.114,1.052c-0.396,-0.215 -0.79,-0.432 -1.183,-0.652Zm40.731,-61.387l-1.664,9.446c1.646,0.197 3.193,-0.929 3.482,-2.589c0.063,-0.365 0.411,-0.608 0.781,-0.545c0.228,0.042 0.411,0.194 0.499,0.391c0.053,0.119 0.07,0.253 0.049,0.39c-0.306,1.72 0.848,3.362 2.56,3.665c1.703,0.298 3.324,-0.823 3.651,-2.504l-9.358,-8.254Zm53.505,-18.246l-4.217,-2.367c-1.199,2.22 -2.518,4.491 -3.953,6.774c-0.239,0.38 -0.475,0.745 -0.71,1.115l7.192,4.023l1.688,-9.545Zm-59.706,80.652l9.619,0.861l-13.898,-3.84l-0.999,5.669l14.162,0.71l-9.059,-2.409c-0.257,-0.066 -0.415,-0.316 -0.366,-0.576c0.046,-0.257 0.278,-0.436 0.541,-0.415Zm-57.697,-62.639l-1.273,7.259l23.792,4.196l1.269,-7.192c-0.116,-0.014 -0.228,-0.021 -0.344,-0.039c-1.594,-0.281 -2.842,-1.378 -3.405,-2.785c-0.998,1.129 -2.549,1.73 -4.146,1.449c-1.586,-0.282 -2.831,-1.379 -3.394,-2.779c-1.006,1.126 -2.553,1.731 -4.146,1.449c-1.597,-0.284 -2.845,-1.382 -3.401,-2.788c-1.009,1.132 -2.557,1.737 -4.15,1.452c-0.278,-0.049 -0.541,-0.123 -0.802,-0.222Zm60.729,18.193l60.127,10.603l1.266,-7.174c-1.498,-0.355 -2.662,-1.435 -3.179,-2.799c-1.002,1.164 -2.571,1.793 -4.196,1.505c-1.593,-0.282 -2.845,-1.375 -3.4,-2.782c-1.006,1.125 -2.55,1.727 -4.147,1.445c-1.593,-0.278 -2.841,-1.378 -3.407,-2.778c-1.003,1.125 -2.547,1.73 -4.143,1.449c-1.597,-0.281 -2.842,-1.379 -3.401,-2.785c-1.009,1.132 -2.553,1.733 -4.15,1.452c-1.621,-0.288 -2.884,-1.41 -3.429,-2.852c-1.006,1.168 -2.578,1.794 -4.199,1.505c-1.593,-0.278 -2.842,-1.378 -3.404,-2.782c-1.006,1.126 -2.55,1.731 -4.147,1.446c-1.593,-0.282 -2.841,-1.375 -3.4,-2.779c-1.003,1.126 -2.554,1.731 -4.147,1.449c-1.6,-0.281 -2.845,-1.378 -3.4,-2.788c-0.971,1.09 -2.441,1.688 -3.974,1.48l-1.27,7.185Zm53.09,-39.761l3.826,2.152l3.127,-17.746c-1.59,4.298 -3.869,9.749 -6.953,15.594Zm-60.627,71.529l0.067,-0.384c-0.464,-0.084 -0.724,-0.133 -0.78,-0.148c-0.574,-0.144 -3.616,-0.826 -8.184,-0.534c1.09,0.464 2.268,0.819 3.51,1.041c1.857,0.327 3.678,0.316 5.387,0.025Zm57.901,-34.842l-0,-0.014c0.018,-0.091 0.05,-0.176 0.095,-0.249c0.106,-0.162 0.275,-0.271 0.468,-0.299l0.566,-3.204l-14.63,-9.7c-0.531,0.56 -1.034,1.077 -1.498,1.534c-2.268,2.24 -3.963,3.587 -4.871,4.245l4.625,5.542c0.06,-0.169 0.113,-0.338 0.141,-0.513l-0,-0.022c0.045,-0.228 0.197,-0.407 0.394,-0.495c0.119,-0.057 0.253,-0.074 0.393,-0.053c0.366,0.067 0.609,0.415 0.542,0.781c-0,0.007 -0.003,0.014 -0.003,0.021c-0.292,1.712 0.861,3.341 2.563,3.643c1.709,0.299 3.334,-0.83 3.658,-2.525c-0,-0.014 -0,-0.025 0.003,-0.039c0.067,-0.365 0.419,-0.612 0.781,-0.548l0.004,0c0.369,0.067 0.615,0.415 0.548,0.78c-0.003,0.015 -0.007,0.029 -0.01,0.043c-0.278,1.705 0.868,3.32 2.57,3.618c1.713,0.303 3.348,-0.837 3.661,-2.546Zm11.261,5.174l11.258,-63.838l-10.034,-1.769l-10.99,62.343c0.383,0.999 1.266,1.776 2.392,1.976c1.719,0.303 3.362,-0.851 3.668,-2.567c0.063,-0.366 0.411,-0.608 0.777,-0.545c0.014,0.004 0.024,0.007 0.035,0.011c0.011,0.003 0.025,0 0.035,0.003c0.366,0.063 0.616,0.412 0.549,0.777c-0.289,1.629 0.735,3.194 2.31,3.609Zm-23.154,-69.904l-25.715,-4.537l-9.331,52.925c1.815,-1.119 10.776,-6.914 18.492,-16.755c10.111,-12.892 15.161,-27.241 16.554,-31.633Zm-40.349,67.473l12.756,-72.341l-14.834,-2.613c-0.489,2.483 -1.819,7.727 -4.79,11.588c-2.241,2.916 -4.671,5.163 -6.39,6.587c0.671,-0.137 1.304,-0.274 1.681,-0.373c1.072,-0.295 4.427,-1.522 4.466,-1.529c0.239,-0.092 0.513,-0.036 0.7,0.147c0.183,0.183 0.25,0.454 0.165,0.697c-0.056,0.176 -1.484,4.287 -6.52,9.305c-2.683,2.68 -6.225,4.987 -8.222,6.197c0.889,0.112 2.12,0.19 3.675,0.098c3.218,-0.186 5.31,-1.311 5.335,-1.326c0.26,-0.137 0.576,-0.098 0.787,0.106c0.211,0.2 0.268,0.513 0.145,0.781c-0.092,0.19 -2.304,4.677 -7.386,8.268c-2.124,1.501 -5.947,3.059 -8.352,3.97c1.174,0.236 2.609,0.479 3.777,0.507c3.176,0.088 6.302,-0.113 6.334,-0.116c0.295,-0.021 0.566,0.154 0.668,0.432c0.105,0.278 0.025,0.591 -0.215,0.77c-0.179,0.141 -4.452,3.426 -9.01,5.314c-3.01,1.238 -6.945,2.093 -9.263,2.525c1.927,0.929 5.405,2.286 9.759,2.613c5.223,0.394 8.388,-1.807 8.416,-1.828c0.229,-0.162 0.524,-0.169 0.756,-0.021c0.229,0.144 0.352,0.415 0.302,0.685l-2.887,16.357l18.147,3.2Zm56.617,-24.923l-7.687,-4.298c-3.471,5.251 -6.682,9.193 -9.257,12.014l13.952,9.252l2.992,-16.968Zm-33.874,16.272c0.37,0.063 0.616,0.412 0.549,0.777c-0,0.011 -0,0.014 -0.007,0.021c-0.292,1.713 0.858,3.348 2.567,3.647c1.72,0.306 3.362,-0.847 3.665,-2.563c0.042,-0.226 0.19,-0.405 0.387,-0.493l1.406,-7.99l-15.903,-9.794c-4.048,3.58 -7.487,5.894 -8.978,6.84l13.962,12.309c0.798,-0.44 1.396,-1.228 1.572,-2.188c-0,-0.003 0.003,-0.01 0.003,-0.014c0.018,-0.095 0.049,-0.179 0.095,-0.25c0.144,-0.225 0.412,-0.351 0.682,-0.302Zm10.459,-17.338l-10.269,-6.678c-2.173,2.535 -4.389,4.768 -6.481,6.682l15.108,9.309l1.642,-9.313Zm3.377,-19.146l2.729,-15.477c-1.449,3.633 -3.503,8.233 -6.239,13.153l3.51,2.324Zm-0.254,1.446l-3.917,-2.596c-2.125,3.7 -4.629,7.551 -7.555,11.275c-0.344,0.444 -0.692,0.876 -1.048,1.305l9.647,6.274l2.873,-16.258Zm-17.513,38.193l-3.088,-2.719c0.183,1.319 1.199,2.43 2.578,2.676c0.172,0.029 0.337,0.039 0.51,0.043Zm-53.818,-0.679l15.537,2.743l2.641,-14.971c-1.509,0.71 -4.262,1.635 -8.004,1.354c-3.19,-0.239 -5.905,-0.992 -7.948,-1.755l-2.226,12.629Zm31.598,-69.014l-15.544,-2.74c-0.559,2.631 -1.903,7.48 -4.692,11.117c-2.57,3.341 -5.342,5.542 -7.033,6.71c0.569,-0.004 1.297,-0.067 2.208,-0.239c3.018,-0.57 4.337,-1.435 4.347,-1.446c0.243,-0.161 0.57,-0.147 0.798,0.035c0.233,0.183 0.313,0.493 0.208,0.767c-0.067,0.176 -1.709,4.301 -7.125,8.929c-2.796,2.385 -5.652,3.735 -7.326,4.396c0.837,0.359 2.093,0.767 3.777,0.989c3.784,0.488 5.001,-0.018 5.015,-0.025c0.254,-0.127 0.552,-0.077 0.756,0.12c0.208,0.197 0.257,0.506 0.145,0.766c-0.099,0.215 -1.101,2.195 -7.013,5.982c-2.152,1.382 -5.138,2.086 -7.044,2.42c0.798,0.464 1.815,1.009 2.852,1.428c2.863,1.164 6.889,0.682 6.932,0.679c0.242,-0.032 0.481,0.07 0.626,0.267c0.144,0.197 0.169,0.453 0.067,0.679c-0.12,0.27 -3.106,6.717 -9.563,9.59c-1.888,0.844 -3.854,1.421 -5.5,1.801l9.341,1.508c-0,-0.01 -0.004,-0.017 -0,-0.024c0.059,-0.275 0.281,-0.482 0.555,-0.521c0.067,-0.014 6.587,-1.006 10.874,-2.775c2.631,-1.086 5.216,-2.697 6.876,-3.826c-1.175,0.035 -2.666,0.056 -4.171,0.018c-2.557,-0.071 -6.144,-1.02 -6.295,-1.062c-0.285,-0.078 -0.486,-0.331 -0.496,-0.63c-0.014,-0.295 0.176,-0.563 0.453,-0.658c0.074,-0.024 7.14,-2.433 10.168,-4.571c2.947,-2.082 4.888,-4.523 5.957,-6.102c-1.006,0.313 -2.356,0.622 -3.981,0.714c-3.738,0.214 -5.768,-0.464 -5.852,-0.493c-0.253,-0.088 -0.429,-0.316 -0.454,-0.58c-0.024,-0.264 0.12,-0.52 0.352,-0.65c0.056,-0.029 5.725,-3.13 9.474,-6.869c3.092,-3.084 4.769,-5.827 5.571,-7.399c-1.073,0.383 -2.434,0.854 -3.081,1.03c-1.16,0.313 -4.445,0.908 -4.582,0.932c-0.313,0.056 -0.626,-0.119 -0.746,-0.411c-0.119,-0.296 -0.014,-0.633 0.25,-0.813c0.046,-0.028 4.554,-3.084 8.37,-8.039c2.764,-3.598 4.044,-8.627 4.526,-11.004Zm52.654,43.003c8.683,-13.796 12.903,-27.227 14.046,-31.243l-21.456,-3.781l-9.752,55.309c2.617,-2.029 9.418,-7.99 17.162,-20.285Zm-96.618,-50.754l-11.236,63.724c0.25,0.117 0.514,0.201 0.791,0.25c1.717,0.303 3.362,-0.847 3.665,-2.564c0.063,-0.365 0.408,-0.612 0.777,-0.545c0.229,0.039 0.408,0.19 0.5,0.391c0.052,0.116 0.07,0.256 0.045,0.39c-0.302,1.716 0.851,3.362 2.564,3.665c1.706,0.299 3.33,-0.834 3.65,-2.526c0.008,-0.014 0.008,-0.028 0.008,-0.042c0.066,-0.365 0.418,-0.608 0.777,-0.548l0.007,0.003c0.105,0.018 0.193,0.06 0.278,0.12c0.2,0.147 0.313,0.397 0.267,0.661c-0.004,0.014 -0.007,0.025 -0.014,0.042c-0.271,1.699 0.872,3.316 2.574,3.619c1.713,0.302 3.345,-0.841 3.658,-2.546l-0,-0.014c0.01,-0.092 0.049,-0.176 0.098,-0.246c0.144,-0.229 0.408,-0.356 0.682,-0.306c0.366,0.066 0.616,0.411 0.549,0.78c-0,0.007 -0,0.011 -0.004,0.018c-0.295,1.713 0.852,3.348 2.564,3.65c0.113,0.021 0.225,0.032 0.341,0.039l0.778,-4.392c-0.338,-0.145 -0.648,-0.289 -0.929,-0.423l-15.674,-2.528c-0.327,-0.063 -0.577,-0.345 -0.567,-0.682c0.014,-0.338 0.271,-0.616 0.605,-0.651c0.05,-0.004 4.843,-0.517 9.053,-2.395c4.491,-1.998 7.234,-5.986 8.331,-7.874c-1.533,0.067 -4.189,0.017 -6.351,-0.862c-2.367,-0.963 -4.558,-2.472 -4.65,-2.532c-0.235,-0.162 -0.341,-0.454 -0.267,-0.724c0.07,-0.275 0.306,-0.475 0.587,-0.503c0.053,-0.004 5.237,-0.503 8.304,-2.466c2.915,-1.874 4.561,-3.267 5.472,-4.174c-0.89,0.049 -2.128,0.018 -3.823,-0.204c-3.763,-0.492 -5.606,-1.86 -5.683,-1.917c-0.204,-0.154 -0.306,-0.411 -0.253,-0.661c0.045,-0.253 0.228,-0.457 0.481,-0.527c0.043,-0.007 4.294,-1.221 8.3,-4.643c3.116,-2.662 4.924,-5.152 5.873,-6.72c-0.749,0.264 -1.73,0.552 -2.971,0.788c-3.155,0.594 -4.52,-0.004 -4.664,-0.071c-0.225,-0.112 -0.38,-0.341 -0.387,-0.591c-0.003,-0.253 0.137,-0.488 0.359,-0.612c0.039,-0.021 4.403,-2.416 8.194,-7.343c2.592,-3.372 3.883,-8.007 4.431,-10.533l-27.09,-4.775Zm78.96,73.842l-0.658,3.735c0.247,1.242 1.231,2.272 2.554,2.508c0.977,0.169 1.93,-0.13 2.63,-0.742l-4.526,-5.501Zm27.962,33.962l2.125,-12.052l-59.153,-10.427c2.475,3.341 8.327,10.821 13.226,13.628c4.02,2.303 7.987,2.866 11.799,1.681c2.824,-0.887 4.477,-2.438 4.495,-2.452l0.693,-0.661l0.386,0.876c0.032,0.077 3.45,7.677 10.15,8.859c5.736,1.009 11.236,-4.023 11.293,-4.076l0.502,-0.468l4.484,5.092Zm-89.966,5.843c-2.74,-0.482 -4.575,-3.105 -4.094,-5.848c0.247,-1.39 1.07,-2.606 2.241,-3.366c-0.254,-0.77 -0.327,-1.607 -0.18,-2.465c0.253,-1.428 1.108,-2.68 2.349,-3.433c0.317,-0.197 0.732,-0.091 0.922,0.225c0.193,0.317 0.095,0.732 -0.225,0.925c-0.908,0.552 -1.533,1.467 -1.716,2.518c-0.356,2.008 0.991,3.932 2.996,4.284c0.714,0.13 1.442,0.045 2.103,-0.239c0.341,-0.148 0.732,0.01 0.883,0.351c0.144,0.345 -0.018,0.739 -0.355,0.887c-0.901,0.383 -1.889,0.499 -2.86,0.327c-1.406,-0.247 -2.57,-1.059 -3.309,-2.156c-0.795,0.555 -1.347,1.407 -1.519,2.377c-0.355,2.012 0.992,3.932 3,4.287c0.925,0.162 1.867,-0.028 2.648,-0.538c0.316,-0.204 0.735,-0.112 0.935,0.204c0.201,0.31 0.109,0.721 -0.2,0.929c-1.073,0.689 -2.356,0.953 -3.619,0.731Zm-0.067,-132.672c0.13,-0.89 0.25,-1.783 0.359,-2.68c0.204,0.063 0.425,0.13 0.664,0.19c0.25,0.067 0.521,0.123 0.834,0.179c0.306,0.053 0.584,0.095 0.837,0.117c0.246,0.021 0.482,0.038 0.696,0.049c-0.207,0.882 -0.401,1.762 -0.58,2.641c-0.179,0.879 -0.369,1.885 -0.573,3.021l-0.493,2.796c-0.2,1.139 -0.365,2.152 -0.499,3.038c-0.127,0.887 -0.243,1.762 -0.341,2.62c-0.208,-0.067 -0.433,-0.116 -0.679,-0.161c-0.25,-0.046 -0.527,-0.092 -0.833,-0.148c-0.31,-0.053 -0.584,-0.102 -0.83,-0.148c-0.25,-0.042 -0.479,-0.07 -0.693,-0.077c0.2,-0.841 0.387,-1.702 0.57,-2.582c0.182,-0.875 0.369,-1.888 0.573,-3.024l0.489,-2.792c0.204,-1.14 0.369,-2.149 0.499,-3.039Zm66.523,11.73c0.134,-0.89 0.26,-1.779 0.373,-2.676c0.552,0.112 1.097,0.228 1.635,0.351c0.538,0.123 1.087,0.233 1.639,0.331c0.911,0.158 1.723,0.292 2.437,0.397c0.718,0.106 1.196,0.166 1.446,0.18c-0.088,0.214 -0.162,0.496 -0.229,0.851c-0.039,0.221 -0.063,0.394 -0.067,0.517c-0.01,0.126 -0.017,0.267 -0.021,0.418c-0.348,-0.088 -0.735,-0.183 -1.157,-0.285c-0.422,-0.105 -0.83,-0.204 -1.227,-0.302c-0.394,-0.098 -0.749,-0.183 -1.07,-0.253c-0.316,-0.071 -0.545,-0.116 -0.682,-0.141c-0.186,0.746 -0.341,1.488 -0.475,2.226c-0.137,0.739 -0.274,1.484 -0.404,2.237c0.802,0.13 1.53,0.232 2.184,0.323c0.651,0.085 1.333,0.169 2.043,0.25c-0.081,0.232 -0.14,0.405 -0.169,0.528c-0.035,0.116 -0.063,0.246 -0.087,0.383c-0.022,0.113 -0.029,0.229 -0.032,0.345c-0.004,0.119 -0.011,0.292 -0.025,0.513c-1.378,-0.369 -2.771,-0.679 -4.164,-0.921c-0.077,0.436 -0.158,0.875 -0.242,1.312c-0.085,0.436 -0.162,0.872 -0.239,1.315c-0.159,0.89 -0.292,1.748 -0.401,2.578c0.703,0.123 1.41,0.228 2.117,0.306c0.714,0.084 1.431,0.14 2.166,0.172c-0.053,0.148 -0.091,0.281 -0.13,0.404c-0.032,0.116 -0.07,0.289 -0.109,0.507c-0.039,0.221 -0.06,0.394 -0.07,0.517c-0.007,0.126 -0.007,0.232 0,0.316c-0.331,-0.074 -0.739,-0.154 -1.224,-0.242c-0.486,-0.095 -1.154,-0.215 -2.001,-0.366c-0.756,-0.134 -1.365,-0.243 -1.836,-0.324c-0.454,-0.081 -0.82,-0.144 -1.097,-0.197c-0.278,-0.045 -0.489,-0.077 -0.633,-0.098c-0.141,-0.018 -0.264,-0.028 -0.363,-0.032c0.19,-0.844 0.377,-1.705 0.553,-2.585c0.179,-0.879 0.365,-1.888 0.566,-3.024l0.496,-2.792c0.2,-1.14 0.365,-2.153 0.499,-3.039Zm-48.723,1.727c-0.127,0.285 -0.229,0.566 -0.306,0.848c-1.097,0.386 -2.402,0.446 -3.918,0.175c-1.072,-0.186 -2.001,-0.524 -2.785,-1.009c-0.788,-0.485 -1.421,-1.083 -1.896,-1.797c-0.478,-0.71 -0.798,-1.516 -0.96,-2.406c-0.158,-0.886 -0.154,-1.818 0.018,-2.792c0.25,-1.424 0.668,-2.599 1.238,-3.52c0.577,-0.922 1.255,-1.636 2.036,-2.138c0.784,-0.507 1.646,-0.827 2.581,-0.957c0.943,-0.13 1.896,-0.109 2.867,0.063c0.323,0.057 0.657,0.144 1.005,0.261c0.349,0.116 0.683,0.249 0.996,0.397c0.316,0.148 0.619,0.309 0.9,0.485c0.281,0.176 0.51,0.355 0.7,0.528c-0.187,0.32 -0.341,0.647 -0.471,0.988c-0.134,0.334 -0.24,0.682 -0.327,1.03l-0.257,-0.045c-0.352,-0.739 -0.756,-1.294 -1.192,-1.66c-0.447,-0.37 -1.003,-0.612 -1.667,-0.728c-0.493,-0.085 -1.013,-0.049 -1.558,0.109c-0.542,0.158 -1.062,0.453 -1.555,0.886c-0.496,0.436 -0.939,1.027 -1.336,1.769c-0.387,0.742 -0.679,1.663 -0.872,2.757c-0.187,1.059 -0.215,1.984 -0.092,2.775c0.13,0.791 0.359,1.459 0.686,2.005c0.331,0.545 0.739,0.974 1.224,1.283c0.485,0.313 0.995,0.514 1.523,0.609c0.295,0.052 0.605,0.07 0.928,0.049c0.32,-0.021 0.64,-0.074 0.96,-0.151c0.32,-0.078 0.626,-0.187 0.922,-0.334c0.302,-0.145 0.573,-0.313 0.808,-0.514l0.215,0.208c-0.151,0.27 -0.288,0.545 -0.415,0.826Zm-32.019,-15.964c0.126,-0.89 0.249,-1.78 0.358,-2.68c0.204,0.067 0.422,0.13 0.669,0.19c0.242,0.067 0.517,0.126 0.826,0.179c0.433,0.077 0.879,0.137 1.347,0.186c0.475,0.046 0.928,0.109 1.372,0.187c0.875,0.155 1.547,0.348 2.015,0.58c0.467,0.229 0.819,0.507 1.055,0.83c0.334,0.429 0.552,0.876 0.654,1.347c0.112,0.471 0.112,1.013 0,1.632c-0.134,0.777 -0.373,1.431 -0.707,1.952c-0.334,0.52 -0.742,0.918 -1.227,1.192c-0.489,0.274 -1.038,0.436 -1.643,0.503c-0.608,0.063 -1.259,0.035 -1.948,-0.088l-0.943,-0.169c-0.182,1.03 -0.351,2.054 -0.517,3.077c-0.165,1.024 -0.298,2.044 -0.415,3.053c-0.203,-0.063 -0.429,-0.12 -0.678,-0.162c-0.246,-0.042 -0.521,-0.095 -0.83,-0.144c-0.306,-0.056 -0.584,-0.106 -0.834,-0.148c-0.242,-0.042 -0.471,-0.07 -0.685,-0.081c0.196,-0.84 0.383,-1.702 0.566,-2.581c0.183,-0.879 0.369,-1.889 0.573,-3.024l0.492,-2.793c0.201,-1.139 0.366,-2.152 0.5,-3.038Zm5.391,0.921c-0.042,-0.376 -0.13,-0.686 -0.274,-0.928c-0.141,-0.247 -0.324,-0.437 -0.545,-0.574c-0.222,-0.137 -0.465,-0.232 -0.725,-0.278l-0.422,-0.073c-0.067,-0.011 -0.13,-0.025 -0.186,-0.032c-0.064,-0.011 -0.116,-0.014 -0.169,-0.011c-0.19,0.985 -0.373,1.952 -0.542,2.905c-0.179,0.95 -0.348,1.903 -0.517,2.863c0.306,0.056 0.63,0.077 0.967,0.063c0.345,-0.007 0.665,-0.095 0.975,-0.26c0.309,-0.165 0.583,-0.429 0.83,-0.798c0.242,-0.366 0.418,-0.876 0.534,-1.534c0.095,-0.524 0.12,-0.97 0.074,-1.343Zm52.802,9.341c0.134,-0.89 0.253,-1.783 0.362,-2.683c0.204,0.066 0.426,0.133 0.668,0.193c0.247,0.067 0.524,0.123 0.827,0.179c0.309,0.053 0.587,0.095 0.837,0.117c0.25,0.024 0.489,0.038 0.7,0.045c-0.208,0.886 -0.398,1.766 -0.584,2.645c-0.179,0.876 -0.366,1.885 -0.566,3.024l-0.493,2.796c-0.2,1.136 -0.369,2.149 -0.503,3.035c-0.126,0.886 -0.242,1.759 -0.341,2.62c-0.211,-0.063 -0.432,-0.119 -0.678,-0.165c-0.25,-0.039 -0.528,-0.088 -0.834,-0.144c-0.309,-0.056 -0.587,-0.102 -0.83,-0.148c-0.246,-0.042 -0.482,-0.07 -0.693,-0.077c0.197,-0.841 0.391,-1.702 0.57,-2.585c0.179,-0.876 0.373,-1.885 0.573,-3.021l0.493,-2.792c0.2,-1.14 0.365,-2.153 0.492,-3.039Zm35.536,13.331c-0.366,1.519 -0.732,3.032 -1.101,4.551c-0.144,-0.056 -0.292,-0.092 -0.439,-0.116c-0.148,-0.028 -0.289,-0.053 -0.426,-0.078c-0.151,-0.028 -0.292,-0.052 -0.432,-0.077c-0.145,-0.025 -0.292,-0.035 -0.444,-0.035c0.809,-2.286 1.572,-4.569 2.293,-6.84c0.721,-2.276 1.421,-4.59 2.103,-6.939c0.131,0.049 0.25,0.095 0.366,0.134c0.109,0.042 0.236,0.077 0.373,0.102c0.109,0.017 0.229,0.028 0.355,0.028c0.127,0.003 0.26,0.003 0.401,0c0.19,0.879 0.39,1.776 0.605,2.69c0.211,0.911 0.429,1.822 0.644,2.729c0.214,0.907 0.436,1.797 0.654,2.669c0.221,0.873 0.432,1.702 0.64,2.487c1.009,-1.407 2.029,-2.884 3.056,-4.431c1.03,-1.551 2.026,-3.092 2.982,-4.636c0.299,0.127 0.556,0.208 0.777,0.243c0.211,0.039 0.475,0.049 0.799,0.035c-0.088,1.203 -0.176,2.494 -0.275,3.876c-0.098,1.378 -0.193,2.729 -0.292,4.048c-0.087,1.318 -0.161,2.549 -0.225,3.699c-0.066,1.143 -0.102,2.072 -0.112,2.775c-0.243,-0.07 -0.485,-0.127 -0.739,-0.172c-0.253,-0.046 -0.499,-0.085 -0.749,-0.134c-0.246,-0.042 -0.499,-0.088 -0.756,-0.13c-0.26,-0.046 -0.52,-0.081 -0.788,-0.098c0.19,-1.421 0.356,-2.965 0.503,-4.632c0.151,-1.674 0.292,-3.327 0.429,-4.973l-0.038,-0.007c-0.989,1.495 -1.956,2.961 -2.909,4.407c-0.953,1.438 -1.902,2.89 -2.848,4.35c-0.06,-0.025 -0.116,-0.049 -0.169,-0.063c-0.053,-0.014 -0.113,-0.032 -0.173,-0.039c-0.063,-0.014 -0.123,-0.021 -0.179,-0.025c-0.053,0 -0.116,-0.003 -0.179,0c-0.398,-1.653 -0.792,-3.298 -1.178,-4.951c-0.387,-1.653 -0.799,-3.327 -1.221,-5.026l-0.038,-0.007c-0.475,1.54 -0.897,3.07 -1.27,4.586Zm21.73,8.567c-0.654,-0.306 -1.196,-0.721 -1.621,-1.238c-0.429,-0.52 -0.732,-1.146 -0.897,-1.874c-0.172,-0.732 -0.172,-1.583 -0,-2.557c0.095,-0.549 0.183,-1.034 0.267,-1.467c0.081,-0.429 0.158,-0.83 0.222,-1.199c0.067,-0.373 0.13,-0.724 0.193,-1.065c0.067,-0.342 0.134,-0.697 0.201,-1.07c0.197,-1.111 0.348,-2.008 0.46,-2.697c0.106,-0.682 0.18,-1.199 0.211,-1.547c0.243,0.07 0.489,0.14 0.746,0.207c0.253,0.063 0.506,0.116 0.753,0.162c0.246,0.046 0.499,0.081 0.763,0.102c0.263,0.028 0.52,0.049 0.773,0.063c-0.358,1.305 -0.65,2.532 -0.872,3.672c-0.228,1.136 -0.446,2.296 -0.657,3.474c-0.215,1.245 -0.317,2.265 -0.292,3.067c0.024,0.795 0.158,1.428 0.397,1.899c0.243,0.475 0.577,0.823 1.009,1.034c0.433,0.218 0.95,0.383 1.558,0.489c0.739,0.13 1.354,0.025 1.843,-0.31c0.496,-0.337 0.908,-0.83 1.245,-1.477c0.338,-0.647 0.605,-1.406 0.813,-2.282c0.204,-0.876 0.393,-1.79 0.562,-2.75c0.162,-0.946 0.32,-1.889 0.461,-2.835c0.137,-0.939 0.271,-1.888 0.387,-2.841c0.165,0.059 0.327,0.109 0.485,0.158c0.155,0.049 0.303,0.088 0.436,0.109c0.165,0.028 0.317,0.046 0.475,0.053c0.148,0.003 0.306,0.007 0.471,0.007c-0.077,0.299 -0.172,0.696 -0.288,1.199c-0.113,0.503 -0.239,1.083 -0.383,1.744c-0.141,0.661 -0.292,1.389 -0.447,2.188c-0.165,0.802 -0.324,1.642 -0.482,2.535c-0.418,2.381 -1.185,4.01 -2.289,4.882c-1.108,0.868 -2.554,1.146 -4.347,0.833c-0.788,-0.14 -1.505,-0.362 -2.156,-0.668Zm-69.246,-19.264c-0.464,-0.105 -0.928,-0.197 -1.4,-0.281c-0.464,-0.081 -0.935,-0.159 -1.41,-0.225c-0.471,-0.067 -0.942,-0.134 -1.417,-0.187l-0.204,1.171c-0.201,1.136 -0.366,2.149 -0.496,3.039c-0.13,0.886 -0.25,1.762 -0.348,2.616c-0.208,-0.063 -0.429,-0.116 -0.679,-0.161c-0.246,-0.039 -0.524,-0.088 -0.83,-0.145c-0.309,-0.056 -0.584,-0.105 -0.837,-0.147c-0.243,-0.046 -0.475,-0.071 -0.686,-0.081c0.197,-0.841 0.387,-1.702 0.566,-2.578c0.183,-0.879 0.373,-1.889 0.574,-3.025l0.492,-2.795c0.201,-1.136 0.366,-2.149 0.499,-3.039c0.131,-0.886 0.25,-1.779 0.352,-2.68c0.208,0.067 0.433,0.13 0.675,0.194c0.243,0.063 0.517,0.123 0.827,0.176c0.309,0.056 0.591,0.098 0.84,0.116c0.247,0.024 0.479,0.042 0.697,0.052c-0.218,0.88 -0.415,1.748 -0.588,2.617c-0.172,0.868 -0.358,1.871 -0.559,3.007c0.32,0.07 0.7,0.147 1.154,0.235c0.443,0.085 0.998,0.187 1.667,0.303c0.668,0.116 1.206,0.211 1.631,0.278c0.419,0.066 0.809,0.123 1.168,0.172c0.204,-1.136 0.366,-2.142 0.499,-3.014c0.127,-0.876 0.243,-1.762 0.349,-2.659c0.211,0.064 0.436,0.127 0.671,0.19c0.247,0.067 0.521,0.123 0.83,0.176c0.306,0.053 0.584,0.095 0.837,0.116c0.25,0.028 0.482,0.042 0.7,0.049c-0.204,0.883 -0.401,1.762 -0.58,2.645c-0.183,0.876 -0.373,1.885 -0.577,3.021l-0.489,2.796c-0.2,1.139 -0.365,2.152 -0.499,3.038c-0.13,0.887 -0.246,1.762 -0.345,2.617c-0.207,-0.063 -0.432,-0.116 -0.678,-0.158c-0.247,-0.046 -0.524,-0.095 -0.83,-0.148c-0.31,-0.056 -0.588,-0.102 -0.834,-0.148c-0.25,-0.042 -0.478,-0.07 -0.693,-0.081c0.201,-0.84 0.391,-1.702 0.57,-2.577c0.183,-0.88 0.373,-1.889 0.573,-3.028l0.204,-1.168c-0.468,-0.099 -0.928,-0.197 -1.396,-0.299Zm21.765,-0.909c0.134,-0.89 0.253,-1.783 0.359,-2.68c0.207,0.063 0.429,0.13 0.671,0.19c0.243,0.067 0.521,0.123 0.827,0.179c0.306,0.053 0.584,0.095 0.837,0.117c0.253,0.021 0.478,0.038 0.696,0.045c-0.204,0.886 -0.397,1.766 -0.577,2.645c-0.182,0.879 -0.372,1.885 -0.573,3.021l-0.492,2.796c-0.137,0.784 -0.267,1.537 -0.391,2.265c-0.119,0.724 -0.221,1.357 -0.302,1.892c0.703,0.126 1.403,0.228 2.117,0.313c0.707,0.084 1.432,0.14 2.163,0.168c-0.053,0.148 -0.095,0.278 -0.127,0.401c-0.038,0.12 -0.073,0.292 -0.112,0.51c-0.035,0.218 -0.063,0.394 -0.07,0.517c-0.011,0.127 -0.011,0.232 -0,0.317c-0.331,-0.071 -0.739,-0.151 -1.224,-0.246c-0.486,-0.092 -1.154,-0.211 -2.005,-0.366c-0.749,-0.13 -1.361,-0.236 -1.829,-0.32c-0.457,-0.081 -0.826,-0.144 -1.1,-0.194c-0.278,-0.049 -0.489,-0.084 -0.633,-0.102c-0.145,-0.017 -0.264,-0.031 -0.366,-0.031c0.2,-0.841 0.39,-1.702 0.57,-2.585c0.179,-0.876 0.369,-1.885 0.569,-3.021l0.496,-2.792c0.201,-1.14 0.366,-2.153 0.496,-3.039Z" style="fill:#fff;fill-opacity:0.5;"/><path d="M58.831,114.551c-0,7.944 -4.814,12.481 -11.352,12.481c-6.679,-0 -10.895,-5.096 -10.895,-12.056c-0,-7.276 4.568,-12.411 11.246,-12.411c6.925,-0 11.001,5.237 11.001,11.986Zm-17.679,0.355c-0,4.815 2.423,8.644 6.573,8.644c4.181,-0 6.538,-3.865 6.538,-8.82c-0,-4.463 -2.216,-8.683 -6.538,-8.683c-4.291,-0 -6.573,3.971 -6.573,8.859Zm21.42,-11.952l13.673,-0l0,3.552l-9.351,-0l0,6.534l8.718,-0l0,3.552l-8.718,-0l0,10.051l-4.322,-0l0,-23.689Zm17.9,0.002l4.322,-0l0,23.689l-4.322,-0l0,-23.689Zm26.26,22.984c-1.02,0.528 -3.271,1.055 -6.116,1.055c-7.522,0 -12.094,-4.709 -12.094,-11.915c-0,-7.804 5.416,-12.513 12.657,-12.513c2.845,0 4.885,0.595 5.764,1.052l-0.95,3.446c-1.125,-0.492 -2.672,-0.914 -4.638,-0.914c-4.815,0 -8.296,3.024 -8.296,8.718c-0,5.201 3.056,8.539 8.261,8.539c1.754,0 3.583,-0.348 4.709,-0.876l0.703,3.408Zm3.7,-22.984l4.322,-0l-0,23.689l-4.322,-0l-0,-23.689Zm9.285,23.688l0,-23.689l4.917,0l6.119,10.156c1.582,2.634 2.954,5.381 4.041,7.945l0.073,0c-0.281,-3.162 -0.39,-6.221 -0.39,-9.844l0,-8.257l4.009,0l0,23.689l-4.466,0l-6.183,-10.403c-1.512,-2.602 -3.094,-5.518 -4.255,-8.19l-0.106,0.035c0.176,3.059 0.211,6.182 0.211,10.09l0,8.468l-3.97,0Zm28.516,-6.713l-2.037,6.713l-4.463,0l7.593,-23.689l5.515,0l7.701,23.689l-4.642,0l-2.145,-6.713l-7.522,0Zm6.787,-3.271l-1.864,-5.831c-0.457,-1.442 -0.847,-3.06 -1.196,-4.431l-0.07,0c-0.352,1.371 -0.703,3.021 -1.125,4.431l-1.826,5.831l6.081,0Zm18.118,-13.391c1.899,-0.316 4.322,-0.492 6.889,-0.492c4.428,0 7.484,0.915 9.668,2.743c2.282,1.864 3.689,4.674 3.689,8.715c-0,4.217 -1.442,7.382 -3.689,9.422c-2.356,2.141 -6.119,3.235 -10.719,3.235c-2.532,0 -4.431,-0.141 -5.838,-0.317l-0,-23.306Zm4.322,20.071c0.598,0.106 1.516,0.106 2.391,0.106c5.624,0.035 8.965,-3.06 8.965,-9.07c0.031,-5.237 -2.989,-8.226 -8.402,-8.226c-1.371,0 -2.356,0.109 -2.954,0.249l-0,16.941Zm32.95,-7.205l-8.929,0l-0,6.96l9.984,0l-0,3.548l-14.306,0l-0,-23.689l13.779,0l-0,3.552l-9.457,0l-0,6.112l8.929,0l-0,3.517Zm-174.912,17.241l4.111,-0l0,19.089l9.263,-0l0,3.443l-13.374,-0l0,-22.532Zm21.121,16.149l-1.941,6.383l-4.245,-0l7.22,-22.532l5.247,-0l7.322,22.532l-4.413,-0l-2.04,-6.383l-7.15,-0Zm6.45,-3.112l-1.772,-5.546c-0.433,-1.375 -0.802,-2.908 -1.136,-4.213l-0.067,-0c-0.334,1.305 -0.668,2.873 -1.069,4.213l-1.741,5.546l5.785,-0Zm33.348,8.826c-0.967,0.503 -3.109,1.002 -5.817,1.002c-7.153,0 -11.503,-4.477 -11.503,-11.334c0,-7.421 5.152,-11.898 12.038,-11.898c2.708,0 4.645,0.566 5.482,1.002l-0.903,3.278c-1.069,-0.468 -2.54,-0.872 -4.414,-0.872c-4.579,0 -7.888,2.877 -7.888,8.293c0,4.948 2.908,8.12 7.856,8.12c1.671,0 3.412,-0.331 4.481,-0.834l0.668,3.243Zm7.577,-21.863l-0,13.139c-0,4.413 1.836,6.45 4.614,6.45c2.972,-0 4.744,-2.037 4.744,-6.45l-0,-13.139l4.115,-0l-0,12.872c-0,6.956 -3.58,10.03 -8.996,10.03c-5.212,-0 -8.592,-2.909 -8.592,-9.999l-0,-12.903l4.115,-0Zm18.171,-0l4.111,-0l0,19.089l9.263,-0l0,3.443l-13.374,-0l0,-22.532Zm17.543,3.444l-6.418,0l0,-3.443l17.018,0l0,3.443l-6.489,0l0,19.089l-4.111,0l0,-19.089Zm17.306,-3.444l0,13.139c0,4.413 1.836,6.45 4.614,6.45c2.972,-0 4.744,-2.037 4.744,-6.45l0,-13.139l4.115,-0l0,12.872c0,6.956 -3.58,10.03 -8.996,10.03c-5.212,-0 -8.592,-2.909 -8.592,-9.999l0,-12.903l4.115,-0Zm18.171,0.302c1.537,-0.267 3.848,-0.471 6.218,-0.471c3.243,-0 5.448,0.538 6.953,1.808c1.241,1.037 1.941,2.606 1.941,4.512c0,2.908 -1.973,4.881 -4.079,5.648l0,0.102c1.607,0.605 2.574,2.173 3.144,4.347c0.7,2.81 1.301,5.416 1.769,6.284l-4.245,-0c-0.334,-0.668 -0.869,-2.507 -1.505,-5.314c-0.633,-2.94 -1.702,-3.879 -4.045,-3.946l-2.071,-0l0,9.26l-4.08,-0l0,-22.23Zm4.08,9.96l2.437,-0c2.775,-0 4.516,-1.47 4.516,-3.71c0,-2.473 -1.741,-3.609 -4.41,-3.609c-1.305,-0 -2.142,0.099 -2.543,0.201l0,7.118Zm19.676,5.887l-1.938,6.383l-4.248,-0l7.223,-22.532l5.247,-0l7.322,22.532l-4.413,-0l-2.04,-6.383l-7.153,-0Zm6.453,-3.112l-1.772,-5.546c-0.433,-1.375 -0.802,-2.908 -1.136,-4.213l-0.067,-0c-0.334,1.305 -0.668,2.873 -1.069,4.213l-1.741,5.546l5.785,-0Z" style="fill:#fff;"/></g></g></svg>