<svg viewBox="32 16 304 318" xmlns="http://www.w3.org/2000/svg" xml:space="preserve">
  <path d="m32.629 333.333 35.934-203.771h-.012l.925-5.225 266.449 46.985v5.38L73.78 130.483l-35.766 202.85zm303.296-182.829-11.62 11.942c-2.384-4.221-6.359-11.042-8.784-13.904-16.441-19.405-40.221 3.562-70.508-1.859-9.908-1.779-17.583-10.646-17.583-10.646L241.767 126s13.183 17.683 31.242 16.283c6.516-.512 11.766-2.321 16.462-4.421a178 178 0 0 0-6.321-3.616l3.25-5.696a1.605 1.605 0 0 1 2.188-.592 1.597 1.597 0 0 1 2.175-.596l.817.467c-1.092-3.337-.834-7.096 1.045-10.383a12.76 12.76 0 0 1 5.271-5.029 5.62 5.62 0 0 0 2.638-2.355c.35-.604.562-1.25.658-1.908l.017.008a7.4 7.4 0 0 1 .775-2.004 7.1 7.1 0 0 1 2.25-2.396 1.604 1.604 0 0 1-.563-2.162 1.604 1.604 0 0 1-.596-2.183l2.909-5.084a225 225 0 0 0-8.846-4.621l-2.175 4.838a1.6 1.6 0 0 1-2.113.804 1.61 1.61 0 0 1-2.087.821 7.1 7.1 0 0 1-.608 3.229 7.2 7.2 0 0 1-1.167 1.804 5.7 5.7 0 0 0-1.15 1.679 5.54 5.54 0 0 0-.313 3.709 12.63 12.63 0 0 1-.995 7.008c-1.55 3.463-4.43 5.879-7.78 6.958l.859.384c.8.366 1.162 1.308.8 2.112a1.597 1.597 0 0 1 .804 2.117l-2.921 6.512a184 184 0 0 0-10.129-4.766l2.837-6.329a1.61 1.61 0 0 1 2.121-.805 1.59 1.59 0 0 1 2.113-.8l.858.38a12.77 12.77 0 0 1 .021-10.434 12.77 12.77 0 0 1 4.75-5.525 5.56 5.56 0 0 0 2.396-2.591 5.7 5.7 0 0 0 .475-1.967l.008.008c.083-.7.275-1.396.571-2.071a7.24 7.24 0 0 1 2.012-2.608 1.595 1.595 0 0 1-.775-2.096 1.6 1.6 0 0 1-.808-2.112l2.238-4.984a227 227 0 0 0-11.4-4.616 169 169 0 0 1 2.283 8.812l.062.121-19.137 24.508a198 198 0 0 0-29.904-8.012l15.454-87.621c-.495-.641-.974-1.281-1.461-1.914a186.4 186.4 0 0 1 30.069 55.622 239 239 0 0 1 62.979 33.238v8.849a226 226 0 0 0-3.008-2.282l-3.021 4.287a1.59 1.59 0 0 1-2.225.383 1.603 1.603 0 0 1-2.2.405 7.1 7.1 0 0 1-1.212 3.058 7.2 7.2 0 0 1-1.492 1.546l.013.004a5.5 5.5 0 0 0-1.467 1.421 5.56 5.56 0 0 0-1.013 3.587 12.5 12.5 0 0 1-.908 4.096c.738.188 1.492.392 2.275.638 1.433.458 3.258 1.42 5.263 2.645a13 13 0 0 1 1.891-.733 5.6 5.6 0 0 0 3.029-1.821 5.6 5.6 0 0 0 1.005-1.754l.008.013a7.05 7.05 0 0 1 3.062-3.41v8.13a5 5 0 0 0-.258.288 5.6 5.6 0 0 0-1.346 3.479c-.041.271-.079.529-.133.796q.88.654 1.737 1.309zM242.877 16.265c-.678.425-1.361.858-2.024 1.3l-15.454 87.62a197 197 0 0 0-30.837-2.695l-9.605-29.58.1-.091a172 172 0 0 1 5.113-7.438c-3.992.038-7.983.179-11.95.429l.404 5.45c.058.88-.6 1.646-1.479 1.713a1.605 1.605 0 0 1-1.442 1.7 7.15 7.15 0 0 1 .821 5.275h.013a5.6 5.6 0 0 0-.221 2.008 5.5 5.5 0 0 0 1.362 3.259 12.8 12.8 0 0 1 2.571 6.812 12.8 12.8 0 0 1-3.546 9.821l.938-.071a1.6 1.6 0 0 1 1.708 1.475c.879-.058 1.646.6 1.708 1.483l.509 6.917c-3.738.229-7.463.567-11.146 1.013l-.525-7.121a1.603 1.603 0 0 1 1.483-1.709 1.606 1.606 0 0 1 1.479-1.712l.934-.067a12.83 12.83 0 0 1-4.934-9.2 12.86 12.86 0 0 1 1.467-6.925 5.58 5.58 0 0 0 .467-5.562h.008a6.9 6.9 0 0 1-.475-2.096 7.1 7.1 0 0 1 .525-3.25 1.596 1.596 0 0 1-1.679-1.475 1.6 1.6 0 0 1-1.708-1.483l-.384-5.288c-3.312.375-6.616.813-9.896 1.325l.992 5.767a1.59 1.59 0 0 1-1.304 1.846 1.6 1.6 0 0 1-1.263 1.841 7.1 7.1 0 0 1 1.334 5.171l.012-.008a5.8 5.8 0 0 0-.033 2.025 5.56 5.56 0 0 0 1.679 3.104 12.76 12.76 0 0 1 3.229 6.537c.642 3.725-.4 7.355-2.566 10.113l.925-.158a1.586 1.586 0 0 1 1.833 1.304 1.596 1.596 0 0 1 1.85 1.304l1.121 6.458a196 196 0 0 0-7.188 1.238c3.696 3.579 8.013 7.079 13.95 9.783 16.488 7.496 34.921-4.617 34.921-4.617l10.038 14.334s-10.255 5.708-20.163 3.996c-30.304-5.267-44.779-34.975-66.862-22.363-3.255 1.858-9.313 6.904-12.996 10.063l-10.217-22.709-10.883-24.187c.85-.379 1.704-.742 2.546-1.104l.479-.213c30.033-12.871 62.941-19.721 96.941-19.329a186.3 186.3 0 0 1 47.32-42.033m-48.315 86.225 1.152 3.545h-.002zm1.152 3.545a194.4 194.4 0 0 1 30.818 2.921 194 194 0 0 1 29.955 7.792l-4.609 5.9a186 186 0 0 0-26.579-6.729 187 187 0 0 0-27.275-2.771zM66.726 333.333l25.081-142.241.616-3.488 3.48.613 111.391 19.641 3.488.617 111.395 19.642 3.475.612-.612 3.483-17.83 101.121h-3.589l17.936-101.737-18.584-3.275-18.513 105.012h-2.538l.005-.029-27.099-17.967a119 119 0 0 1-2.775 2.838c-4.2 4.154-7.346 6.646-9.021 7.862l6.085 7.296h-3.574l-3.965-4.825-.852 4.825h-3.095q.068-.249.113-.508c.071-.417.346-.754.709-.917l2.604-14.8-29.459-18.15c-7.5 6.634-13.87 10.929-16.633 12.684l24.605 21.691h-3.764l-3.624-3.191a5.87 5.87 0 0 0 1.524 3.191h-3.045a9 9 0 0 1-.438-.925 8 8 0 0 1-.967.925h-10.535a8.4 8.4 0 0 1-2.473-3.404c-1.804 2.013-4.529 3.121-7.366 2.733l-.119.671h-3.593l21.512-121.991-27.48-4.846c-.908 4.6-3.366 14.316-8.874 21.475-4.15 5.396-8.655 9.562-11.838 12.204 1.246-.254 2.413-.508 3.113-.696 1.991-.55 8.208-2.817 8.275-2.833a1.22 1.22 0 0 1 1.295.279c.342.333.467.833.309 1.287-.104.321-2.754 7.938-12.084 17.238-4.971 4.967-11.533 9.242-15.233 11.483 1.646.209 3.929.35 6.813.184 5.958-.342 9.841-2.43 9.883-2.459a1.26 1.26 0 0 1 1.462.196c.388.371.496.954.263 1.446-.171.35-4.263 8.667-13.683 15.317-3.93 2.783-11.013 5.67-15.475 7.358 2.179.433 4.837.883 6.999.933 5.888.171 11.671-.204 11.734-.212a1.25 1.25 0 0 1 1.246.804 1.24 1.24 0 0 1-.404 1.425c-.338.258-8.255 6.346-16.692 9.842-5.579 2.304-12.871 3.879-17.163 4.683 3.571 1.721 10.013 4.233 18.08 4.837 9.679.73 15.541-3.35 15.591-3.391a1.26 1.26 0 0 1 1.4-.034c.425.267.65.771.563 1.271l-4.273 24.2h-2.527l3.891-22.062c-2.796 1.312-7.9 3.029-14.829 2.508a54 54 0 0 1-14.725-3.25l-4.021 22.804h-2.53l2.322-13.162c-.212-.021-.421-.038-.637-.075-2.95-.521-5.267-2.559-6.305-5.159a8.33 8.33 0 0 1-7.679 2.684c-2.946-.521-5.254-2.55-6.291-5.146-1.863 2.083-4.725 3.204-7.684 2.683-2.958-.521-5.271-2.558-6.3-5.162-1.866 2.091-4.737 3.208-7.691 2.687-.513-.087-1-.229-1.48-.412l-2.366 13.454 43.184 7.608H94.462l-23.418-4.129-.728 4.129zm155.525 0a5.8 5.8 0 0 0 1.489-2.946c0-.012.004-.016.004-.029q.051-.257.184-.462c.266-.417.754-.65 1.262-.559a1.243 1.243 0 0 1 1.013 1.442.1.1 0 0 1-.013.038 5.8 5.8 0 0 0 .122 2.516zm37.091-228.7L273.58 86.4l-.046-.113c-4.388-18.891-12.204-36.679-22.859-52.541l-11.491 65.158c6.875 1.583 13.6 3.5 20.158 5.729m61.404 4.896 3.046-4.317a229 229 0 0 0-8.137-5.245l-2.863 5.012a1.607 1.607 0 0 1-2.183.592 1.595 1.595 0 0 1-2.146.608 7.2 7.2 0 0 1-.925 3.158 7.2 7.2 0 0 1-1.338 1.68 5.8 5.8 0 0 0-1.32 1.554 5.6 5.6 0 0 0-.663 3.666c.1 2.325-.433 4.705-1.671 6.88a12.86 12.86 0 0 1-8.425 6.166l.809.459a1.606 1.606 0 0 1 .6 2.183 1.59 1.59 0 0 1 .587 2.179l-.446.792c3.713-1.838 7.279-3.538 11.117-4.479a12.7 12.7 0 0 1 1.862-3.921 12.73 12.73 0 0 1 5.717-4.509 5.6 5.6 0 0 0 2.85-2.095 5.6 5.6 0 0 0 .846-1.834 7.5 7.5 0 0 1 .962-1.916 7.16 7.16 0 0 1 2.463-2.175 1.61 1.61 0 0 1-.358-2.205 1.61 1.61 0 0 1-.384-2.233M129.878 97.294a40 40 0 0 1 2.354.187c-.05-1.437.142-2.833.538-4.166a5.6 5.6 0 0 0 .287-3.713 5.7 5.7 0 0 0-.883-1.833v-.004a7.3 7.3 0 0 1-.867-1.963 7.1 7.1 0 0 1-.104-3.292 1.58 1.58 0 0 1-1.912-1.125 1.607 1.607 0 0 1-1.971-1.129l-1.371-5.058a223 223 0 0 0-8.346 2.692l1.9 5.1a1.6 1.6 0 0 1-.941 2.05c.304.82-.1 1.725-.905 2.045a7.2 7.2 0 0 1 1.834 2.73c.254.695.4 1.404.437 2.108l.009-.013a5.4 5.4 0 0 0 .35 1.992 5.52 5.52 0 0 0 2.22 2.75c.538.4 1.055.85 1.521 1.333 2.305-.466 4.35-.741 5.85-.691m88.204-2.109 11.488-65.158c-15.446 11.258-28.875 25.3-39.454 41.554l-.079.088 7.145 22.004c6.921.146 13.888.646 20.9 1.512m-61.712 9.809a12.84 12.84 0 0 1-5.8-8.675 12.83 12.83 0 0 1 .783-7.042 5.5 5.5 0 0 0 .625-3.667 5.6 5.6 0 0 0-.708-1.912h.008a7.2 7.2 0 0 1-.679-2.033 7.2 7.2 0 0 1 .208-3.284 1.597 1.597 0 0 1-1.808-1.304 1.607 1.607 0 0 1-1.846-1.308l-.983-5.684q-4.738.973-9.433 2.146l1.383 5.1a1.6 1.6 0 0 1-1.117 1.959 1.603 1.603 0 0 1-1.1 1.95 7.2 7.2 0 0 1 1.579 2.887 7.4 7.4 0 0 1 .234 2.133h.016a5.6 5.6 0 0 0 .163 2.013 5.6 5.6 0 0 0 1.958 2.942 12.7 12.7 0 0 1 3.829 6.191c.392 1.45.517 2.909.413 4.325 3.279 2.192 6.046 5.013 8.908 8.009l-.158-.896a1.6 1.6 0 0 1 1.308-1.846 1.59 1.59 0 0 1 1.304-1.846zm-40.858-4.8c.041-.267.079-.534.137-.8a5.6 5.6 0 0 0-.058-3.717 5.5 5.5 0 0 0-1.054-1.75l.008-.004a7.1 7.1 0 0 1-1.046-1.875 7.2 7.2 0 0 1-.408-3.263 1.597 1.597 0 0 1-2.017-.945 1.607 1.607 0 0 1-2.058-.946l-1.913-5.129c-2.033.808-4.062 1.65-6.075 2.512l8.075 17.958c1.959-.658 4.163-1.37 6.409-2.041M95.286 191.7 74.469 309.758a5.8 5.8 0 0 0 1.467.471c3.179.558 6.229-1.575 6.787-4.746a1.245 1.245 0 1 1 2.45.434c-.554 3.179 1.575 6.225 4.755 6.783 3.154.558 6.17-1.542 6.762-4.671.004-.029.013-.054.013-.083a1.254 1.254 0 0 1 1.437-1.013l.013.004c.195.034.362.117.516.221.375.275.584.738.496 1.221-.004.033-.012.054-.021.079-.508 3.154 1.609 6.15 4.758 6.709a5.87 5.87 0 0 0 6.784-4.717v-.025c.017-.171.087-.329.179-.463a1.23 1.23 0 0 1 1.267-.558 1.236 1.236 0 0 1 1.012 1.438c0 .016 0 .02-.004.041a5.85 5.85 0 0 0 4.75 6.759c.213.033.421.054.633.07l1.438-8.137c-.629-.267-1.2-.533-1.721-.779l-29.033-4.684c-.604-.12-1.071-.641-1.055-1.262a1.26 1.26 0 0 1 1.121-1.213c.088-.008 8.975-.954 16.767-4.429 8.325-3.704 13.404-11.091 15.438-14.596-2.842.125-7.755.034-11.767-1.595-4.383-1.78-8.442-4.575-8.613-4.688a1.248 1.248 0 0 1 .592-2.271c.096-.012 9.704-.933 15.383-4.575 5.4-3.466 8.45-6.05 10.142-7.729-1.646.088-3.946.029-7.083-.383-6.971-.913-10.388-3.442-10.525-3.55a1.22 1.22 0 0 1-.471-1.229c.087-.467.425-.842.883-.971.084-.017 7.959-2.259 15.384-8.604 5.77-4.93 9.12-9.546 10.879-12.446-1.384.491-3.205 1.016-5.509 1.458-5.837 1.104-8.37-.008-8.641-.133a1.28 1.28 0 0 1-.709-1.096 1.28 1.28 0 0 1 .663-1.129c.075-.038 8.158-4.475 15.179-13.609 4.804-6.25 7.192-14.833 8.208-19.516zm192.658 107.487-14.246-7.958c-6.429 9.721-12.375 17.029-17.141 22.254l25.85 17.146zm-30.137-78.833-47.642-8.4-17.287 98.054c3.362-2.079 19.958-12.808 34.258-31.041 18.729-23.888 28.087-50.471 30.671-58.613m-81.067-14.287-28.8-5.08c-1.037 4.871-3.521 13.859-8.7 20.596-4.758 6.192-9.888 10.267-13.021 12.434 1.054-.013 2.404-.13 4.088-.446 5.591-1.054 8.037-2.659 8.058-2.679a1.26 1.26 0 0 1 1.479.066c.425.342.575.909.379 1.421-.12.321-3.166 7.967-13.195 16.538-5.184 4.42-10.471 6.925-13.571 8.15 1.55.662 3.871 1.425 6.991 1.833 7.013.908 9.267-.033 9.292-.046a1.215 1.215 0 0 1 1.4.221c.388.367.475.937.271 1.421-.179.391-2.042 4.062-12.992 11.083-3.991 2.558-9.521 3.867-13.054 4.479 1.479.863 3.363 1.871 5.283 2.646 5.305 2.158 12.771 1.263 12.842 1.254.454-.054.896.138 1.167.5.266.363.308.838.125 1.254-.225.505-5.763 12.45-17.721 17.78-3.5 1.554-7.138 2.62-10.188 3.329l17.3 2.791c0-.016-.004-.029 0-.045a1.24 1.24 0 0 1 1.038-.967c.112-.021 12.196-1.863 20.142-5.138 4.87-2.016 9.658-5 12.733-7.087-2.171.062-4.938.108-7.725.029-4.733-.129-11.379-1.887-11.659-1.962a1.26 1.26 0 0 1-.924-1.167 1.24 1.24 0 0 1 .845-1.221c.134-.042 13.23-4.504 18.838-8.471 5.454-3.858 9.058-8.379 11.037-11.304a30.6 30.6 0 0 1-7.375 1.325c-6.925.4-10.691-.862-10.845-.917a1.26 1.26 0 0 1-.842-1.066c-.042-.5.217-.967.65-1.209.104-.054 10.608-5.8 17.554-12.729 5.733-5.708 8.833-10.796 10.325-13.704-1.996.704-4.508 1.579-5.708 1.908-2.15.584-8.238 1.684-8.492 1.721a1.25 1.25 0 0 1-1.383-.758 1.25 1.25 0 0 1 .462-1.5c.088-.058 8.442-5.717 15.509-14.9 5.125-6.667 7.495-15.983 8.387-20.383m73.608 58.354-7.262-4.809c-3.925 6.855-8.571 13.988-13.992 20.892a91 91 0 0 1-1.946 2.417l17.88 11.621zm41.179 14.483-7.808-4.392a221 221 0 0 1-7.325 12.555c-.446.704-.879 1.383-1.316 2.066l13.324 7.45zm-46.962 18.313-19.025-12.375a143 143 0 0 1-12.004 12.383l27.983 17.242zM192.403 312.7l-3.084 17.504c3.054.363 5.913-1.721 6.45-4.792a1.257 1.257 0 0 1 1.454-1.016 1.26 1.26 0 0 1 1.005 1.454c-.563 3.179 1.579 6.221 4.75 6.783a5.86 5.86 0 0 0 6.762-4.641zm58.416-50.958 5.059-28.671c-2.688 6.733-6.492 15.254-11.555 24.366zm23.471 23.991c16.092-25.558 23.908-50.446 26.021-57.879l-39.754-7.008-18.059 102.471c4.842-3.759 17.442-14.805 31.792-37.584m10.6-13.416 7.096 3.983 5.791-32.875c-2.954 7.958-7.179 18.058-12.887 28.892M100.229 151.812c.241-1.646.466-3.3.666-4.967.38.121.784.242 1.246.355.446.12.954.233 1.525.329.8.146 1.634.258 2.5.346.871.087 1.713.2 2.534.35 1.625.283 2.866.637 3.737 1.07.867.425 1.521.942 1.954 1.538.613.792 1.017 1.621 1.213 2.496q.306 1.307 0 3.021c-.246 1.445-.692 2.65-1.313 3.612-.612.963-1.375 1.704-2.271 2.213-.904.508-1.92.816-3.045.937q-1.689.171-3.609-.171l-1.746-.308a290 290 0 0 0-.954 5.7c-.308 1.9-.554 3.783-.771 5.658a8.6 8.6 0 0 0-1.254-.3c-.462-.083-.971-.175-1.537-.271q-.857-.15-1.55-.275a9 9 0 0 0-1.271-.145c.367-1.559.712-3.155 1.054-4.788.333-1.621.683-3.492 1.063-5.6l.908-5.175c.371-2.104.679-3.987.921-5.625m9.991 1.704c-.075-.696-.241-1.266-.508-1.716a2.96 2.96 0 0 0-1.012-1.067 3.8 3.8 0 0 0-1.338-.513l-.783-.137a13 13 0 0 1-.342-.063.9.9 0 0 0-.317-.008 367 367 0 0 0-1.004 5.375 503 503 0 0 0-.954 5.308 8.6 8.6 0 0 0 1.792.113 4 4 0 0 0 1.808-.483q.85-.457 1.529-1.475.675-1.021.988-2.846c.183-.967.221-1.792.141-2.488m163.665 42.006c-.679 2.813-1.354 5.621-2.041 8.434a4.2 4.2 0 0 0-.813-.221c-.271-.046-.537-.096-.791-.138q-.413-.08-.8-.145a4.4 4.4 0 0 0-.817-.063 394 394 0 0 0 4.242-12.679q2.005-6.324 3.891-12.854c.246.096.471.183.684.258a4 4 0 0 0 1.35.233q.35.008.75-.004c.345 1.634.712 3.296 1.112 4.988.396 1.696.8 3.379 1.196 5.058s.804 3.329 1.208 4.942a786 786 0 0 0 1.184 4.608 253 253 0 0 0 5.666-8.208 334 334 0 0 0 5.529-8.588q.819.351 1.438.45c.392.071.879.092 1.479.067-.162 2.225-.325 4.617-.512 7.175-.184 2.558-.359 5.062-.538 7.504a610 610 0 0 0-.421 6.85 130 130 0 0 0-.2 5.146 14 14 0 0 0-1.375-.325q-.7-.117-1.387-.242c-.454-.083-.925-.162-1.404-.246-.48-.087-.959-.15-1.459-.179.354-2.637.659-5.496.929-8.587q.421-4.639.805-9.209l-.075-.012a6143 6143 0 0 0-5.392 8.162 867 867 0 0 0-5.271 8.059c-.117-.046-.221-.088-.317-.117-.1-.025-.212-.054-.32-.075a3 3 0 0 0-.334-.037 3 3 0 0 0-.329 0c-.737-3.063-1.467-6.117-2.183-9.175a735 735 0 0 0-2.259-9.313l-.075-.012a154 154 0 0 0-2.35 8.495m-114.33-14.134a11.4 11.4 0 0 0-.566 1.571q-3.044 1.068-7.259.329c-1.983-.35-3.708-.975-5.162-1.875-1.458-.9-2.629-2.004-3.513-3.329-.879-1.317-1.475-2.804-1.775-4.454q-.444-2.469.03-5.175c.466-2.638 1.237-4.813 2.3-6.525q1.595-2.562 3.766-3.963a11.7 11.7 0 0 1 4.788-1.766c1.741-.246 3.508-.204 5.308.112.596.109 1.217.267 1.867.484a18 18 0 0 1 1.841.737c.584.279 1.142.575 1.667.9.521.329.942.658 1.296.979q-.518.887-.879 1.829a17 17 0 0 0-.6 1.909l-.475-.084c-.654-1.37-1.4-2.395-2.213-3.075-.825-.683-1.858-1.133-3.087-1.35-.909-.162-1.875-.095-2.884.2-1.004.296-1.962.842-2.883 1.65-.912.805-1.742 1.896-2.471 3.271-.721 1.375-1.258 3.084-1.616 5.109-.346 1.962-.4 3.67-.167 5.141q.354 2.194 1.267 3.713.917 1.517 2.266 2.379 1.351.869 2.821 1.125c.55.1 1.117.133 1.721.087a10 10 0 0 0 1.779-.27 8.8 8.8 0 0 0 1.708-.621 6.7 6.7 0 0 0 1.496-.959l.396.392q-.414.749-.767 1.529m90.269-3.2c.25-1.646.483-3.296.696-4.963 1.016.208 2.029.425 3.02.654q1.506.337 3.042.613c1.688.296 3.192.546 4.513.741 1.329.192 2.216.3 2.679.33-.167.395-.3.92-.421 1.579a10 10 0 0 0-.163 1.737c-.654-.171-1.366-.341-2.15-.533-.779-.196-1.533-.375-2.266-.563a69 69 0 0 0-1.988-.466 24 24 0 0 0-1.258-.263 69 69 0 0 0-.883 4.121 352 352 0 0 0-.746 4.146c1.483.242 2.837.433 4.041.6q1.807.236 3.788.466c-.15.426-.258.746-.313.967a6 6 0 0 0-.162.721 4 4 0 0 0-.058.633c-.005.225-.021.538-.046.955a89 89 0 0 0-7.717-1.713 215 215 0 0 1-.45 2.433c-.154.809-.3 1.617-.437 2.438q-.443 2.475-.742 4.775 1.95.345 3.921.571c1.321.154 2.646.258 4.008.316-.092.271-.175.521-.237.746a12.4 12.4 0 0 0-.334 1.9 3.6 3.6 0 0 0 0 .588 83 83 0 0 0-2.271-.455c-.891-.174-2.129-.395-3.704-.674l-3.404-.6-2.033-.363a170 170 0 0 0-1.171-.187 10 10 0 0 0-.671-.059 207 207 0 0 0 1.025-4.783q.494-2.441 1.05-5.609l.917-5.17c.371-2.109.675-3.988.925-5.629m-123.248-21.731c.241-1.646.458-3.296.662-4.967.379.121.792.242 1.238.354.462.125.962.233 1.537.333.571.096 1.079.171 1.55.213q.695.068 1.296.092a174 174 0 0 0-1.075 4.891c-.333 1.63-.692 3.496-1.062 5.6l-.913 5.18a208 208 0 0 0-.921 5.629 173 173 0 0 0-.641 4.854c-.38-.121-.796-.217-1.255-.3-.458-.079-.975-.175-1.545-.271q-.85-.15-1.538-.275a11 11 0 0 0-1.283-.15c.371-1.554.721-3.15 1.058-4.775s.683-3.5 1.058-5.608l.913-5.175q.557-3.156.921-5.625m59.276 19.246a61 61 0 0 0-2.592-.521 78 78 0 0 0-2.613-.417q-1.312-.188-2.625-.345l-.379 2.166a209 209 0 0 0-.921 5.629 172 172 0 0 0-.645 4.855 10 10 0 0 0-1.255-.3c-.458-.08-.97-.167-1.545-.275q-.849-.145-1.546-.271-.675-.118-1.275-.15c.375-1.55.721-3.15 1.058-4.779a200 200 0 0 0 1.058-5.6l.913-5.18q.556-3.155.925-5.629c.237-1.641.462-3.296.654-4.962.383.125.796.237 1.246.354q.68.18 1.529.329c.579.104 1.092.179 1.558.217.455.046.892.071 1.296.091a97 97 0 0 0-1.087 4.855 273 273 0 0 0-1.042 5.566c.596.129 1.296.279 2.133.434a288 288 0 0 0 6.121 1.083c.771.121 1.496.225 2.163.317.375-2.105.675-3.967.921-5.584q.35-2.432.65-4.933c.387.121.8.242 1.245.354q.673.183 1.534.329.85.154 1.55.221.694.063 1.296.088a164 164 0 0 0-1.075 4.891 243 243 0 0 0-1.067 5.604l-.908 5.18a206 206 0 0 0-.917 5.625 148 148 0 0 0-.642 4.854 12 12 0 0 0-1.258-.3c-.458-.084-.971-.171-1.542-.271l-1.541-.271a10 10 0 0 0-1.284-.146c.367-1.562.725-3.154 1.054-4.783a201 201 0 0 0 1.063-5.604l.379-2.163c-.862-.187-1.721-.366-2.587-.558m40.322-1.684c.246-1.646.471-3.296.663-4.967.383.121.796.242 1.245.354.45.125.963.234 1.53.334a21.5 21.5 0 0 0 2.85.3q-.576 2.455-1.075 4.9a200 200 0 0 0-1.063 5.6l-.912 5.175c-.255 1.45-.492 2.845-.721 4.2a283 283 0 0 0-.563 3.504c1.304.233 2.6.421 3.925.575q1.971.232 4.004.308c-.095.279-.17.521-.237.75a9 9 0 0 0-.204.946c-.067.404-.113.729-.134.958a5 5 0 0 0 0 .588c-.608-.134-1.366-.284-2.262-.459-.904-.166-2.138-.395-3.717-.675a896 896 0 0 1-3.391-.595c-.842-.15-1.53-.271-2.038-.359a19 19 0 0 0-1.171-.187 7 7 0 0 0-.675-.063 165 165 0 0 0 1.054-4.783q.502-2.437 1.059-5.604l.917-5.171c.37-2.108.679-3.988.916-5.629m87.97 37.374q-1.817-.851-3.004-2.296c-.8-.967-1.358-2.121-1.667-3.475-.316-1.35-.316-2.929 0-4.725.184-1.021.342-1.925.496-2.721s.292-1.541.413-2.225c.121-.691.241-1.341.362-1.975.121-.629.246-1.296.367-1.979.367-2.058.642-3.725.854-4.996.192-1.271.333-2.225.396-2.866.446.129.9.258 1.379.379.475.121.933.221 1.396.304.454.079.925.146 1.412.187.48.046.963.088 1.43.117a97 97 0 0 0-1.621 6.804 331 331 0 0 0-1.209 6.438c-.404 2.304-.591 4.196-.541 5.679.046 1.471.296 2.642.737 3.521q.67 1.317 1.871 1.916 1.195.606 2.883.905c1.367.241 2.505.045 3.417-.575.913-.625 1.675-1.542 2.308-2.738.621-1.2 1.117-2.608 1.5-4.229.375-1.617.73-3.317 1.042-5.096.304-1.75.596-3.496.85-5.246.258-1.737.504-3.504.721-5.266.308.104.612.204.9.291.287.092.562.159.808.204.309.05.592.084.875.096.279.009.567.013.879.013a75 75 0 0 0-.537 2.225c-.204.929-.446 2.008-.708 3.229a207 207 0 0 0-.834 4.054 174 174 0 0 0-.883 4.692c-.775 4.412-2.2 7.433-4.246 9.046-2.054 1.612-4.729 2.129-8.054 1.545-1.454-.258-2.788-.67-3.992-1.237m-106.096-40.568q.367-2.47.671-4.967c.375.121.788.242 1.238.354.45.125.962.225 1.529.334a19 19 0 0 0 1.55.208c.466.05.904.075 1.3.092a207 207 0 0 0-1.079 4.896c-.334 1.62-.68 3.495-1.055 5.6l-.908 5.179a195 195 0 0 0-.929 5.625c-.242 1.65-.454 3.262-.642 4.858a9.5 9.5 0 0 0-1.254-.304c-.462-.075-.971-.167-1.546-.267-.571-.104-1.083-.191-1.537-.275a10 10 0 0 0-1.284-.15c.371-1.554.725-3.15 1.059-4.779.333-1.625.691-3.496 1.058-5.604l.917-5.171q.556-3.164.912-5.629" style="fill:#fff; opacity: 0.25"/>
</svg>
