<svg viewBox="10 10 135 40" xmlns="http://www.w3.org/2000/svg" xml:space="preserve">
  <path d="M0 40h-125c-2.75 0-5-2.25-5-5V5c0-2.75 2.25-5 5-5H0c2.75 0 5 2.25 5 5v30c0 2.75-2.25 5-5 5" style="fill:#fff;fill-rule:nonzero" transform="translate(140 10)"/>
  <path d="M0-40h-125c-2.75 0-5 2.25-5 5v30c0 2.75 2.25 5 5 5H0c2.75 0 5-2.25 5-5v-30c0-2.75-2.25-5-5-5m0 .8c2.316 0 4.2 1.884 4.2 4.2v30C4.2-2.684 2.316-.8 0-.8h-125a4.205 4.205 0 0 1-4.2-4.2v-30c0-2.316 1.884-4.2 4.2-4.2z" style="fill:#a6a6a6;fill-rule:nonzero" transform="translate(140 50)"/>
  <path d="M116.936 28.877V16.376h1.866v12.501zm16.807-7.998h2.075l-5.131 11.789h-1.945l1.897-4.214-3.329-7.575h2.01l2.22 5.42h.064zm-10.357-.273c2.139 0 3.795 1.238 3.795 3.457v4.793h-1.801v-.965h-.064c-.434.66-1.126 1.223-2.381 1.223-1.64 0-3.104-1.078-3.104-2.751 0-1.833 1.818-2.814 3.603-2.814.885 0 1.608.289 1.946.482v-.128c-.016-1.03-.997-1.609-1.962-1.609-.692 0-1.351.226-1.705.917l-1.656-.691c.578-1.319 1.978-1.914 3.329-1.914m-.225 6.851c1.077 0 2.074-.82 2.219-1.978-.498-.241-.885-.418-1.705-.418-.917 0-1.978.37-1.978 1.334 0 .757.852 1.062 1.464 1.062m-11.355-11.081c2.068 0 4.101 1.497 4.101 3.882s-2.033 3.883-4.101 3.883H109.2v4.736h-1.865V16.376zm.048 6.025c1.395 0 2.187-1.174 2.187-2.143 0-.987-.792-2.142-2.187-2.142H109.2v4.285zm-22.286-.822v-.693h1.772v7.637c0 3.141-1.853 4.43-4.044 4.43-2.062 0-3.303-1.385-3.77-2.513l1.627-.677c.29.693.999 1.515 2.143 1.515 1.402 0 2.272-.87 2.272-2.497v-.613h-.065c-.419.516-1.224.967-2.239.967-2.127 0-4.076-1.853-4.076-4.237 0-2.401 1.949-4.269 4.076-4.269 1.015 0 1.82.451 2.239.95zm-2.143 5.88c1.273 0 2.271-1.079 2.271-2.561 0-1.498-.998-2.594-2.271-2.594-1.289 0-2.368 1.096-2.368 2.594 0 1.482 1.079 2.561 2.368 2.561m5.204 1.418V16.375h1.869v12.502zm10.423-5.542.193.483-5.687 2.353c.435.853 1.112 1.288 2.062 1.288.951 0 1.612-.467 2.095-1.176l1.45.967c-.467.693-1.595 1.885-3.545 1.885-2.416 0-4.22-1.869-4.22-4.253 0-2.53 1.82-4.253 4.011-4.253 2.207 0 3.287 1.756 3.641 2.706m-5.8 1.418 3.802-1.579c-.209-.532-.837-.902-1.579-.902-.95 0-2.271.838-2.223 2.481m-39.508-2.819h6.073c.065.322.097.708.097 1.127 0 1.354-.37 3.029-1.563 4.221-1.16 1.208-2.642 1.853-4.607 1.853-3.641 0-6.702-2.964-6.702-6.605s3.061-6.606 6.702-6.606c2.014 0 3.447.79 4.527 1.821l-1.273 1.273c-.773-.725-1.82-1.289-3.254-1.289-2.659 0-4.737 2.142-4.737 4.801 0 2.658 2.078 4.801 4.737 4.801 1.723 0 2.706-.693 3.335-1.322.515-.515.853-1.256.982-2.271h-4.317zm11.079-1.305c2.352 0 4.269 1.788 4.269 4.253 0 2.449-1.917 4.253-4.269 4.253s-4.27-1.804-4.27-4.253c0-2.465 1.917-4.253 4.27-4.253m0 6.83c1.288 0 2.4-1.063 2.4-2.577 0-1.531-1.112-2.578-2.4-2.578-1.289 0-2.401 1.047-2.401 2.578 0 1.514 1.112 2.577 2.401 2.577m9.313-6.83c2.352 0 4.269 1.788 4.269 4.253 0 2.449-1.917 4.253-4.269 4.253s-4.269-1.804-4.269-4.253c0-2.465 1.917-4.253 4.269-4.253m0 6.83c1.289 0 2.4-1.063 2.4-2.577 0-1.531-1.111-2.578-2.4-2.578s-2.401 1.047-2.401 2.578c0 1.514 1.112 2.577 2.401 2.577m-26.364-21.8h2.038q.988 0 1.726.401.74.4 1.135 1.126.396.725.396 1.66t-.396 1.659a2.76 2.76 0 0 1-1.135 1.126q-.738.4-1.726.401h-2.038zm2.02 5.42q1.068 0 1.669-.591.6-.592.601-1.642 0-1.042-.601-1.638-.601-.597-1.669-.596h-1.023v4.467zm4.192-5.42h3.871v.953h-2.874v1.762h2.59v.943h-2.59v1.762h2.874v.953h-3.871zm6.728 6.515a2.35 2.35 0 0 1-1.424-.463q-.632-.462-.872-1.299l.943-.383q.143.526.503.859.361.334.868.334.471 0 .801-.245a.79.79 0 0 0 .329-.672.82.82 0 0 0-.289-.645q-.289-.254-1.01-.512l-.401-.142a2.9 2.9 0 0 1-1.076-.641q-.437-.418-.437-1.104 0-.471.259-.872.257-.4.716-.636a2.24 2.24 0 0 1 1.037-.236q.837 0 1.335.405.499.405.667.912l-.899.383a1.15 1.15 0 0 0-.373-.534q-.276-.232-.712-.232-.437 0-.735.223a.68.68 0 0 0-.298.57q0 .329.267.542t.837.41l.4.133q.819.285 1.269.744.449.458.449 1.223 0 .623-.32 1.046a1.9 1.9 0 0 1-.815.627 2.6 2.6 0 0 1-1.019.205m6.079 0a3.35 3.35 0 0 1-1.691-.436 3.17 3.17 0 0 1-1.202-1.201 3.37 3.37 0 0 1-.436-1.691q0-.926.436-1.691A3.16 3.16 0 0 1 69.1 5.953a3.35 3.35 0 0 1 1.691-.436q.72 0 1.313.267.592.267 1.045.774l-.712.686a2.2 2.2 0 0 0-.729-.583 2.1 2.1 0 0 0-.917-.192q-.64 0-1.171.294a2.2 2.2 0 0 0-.841.832q-.31.539-.311 1.251 0 .711.311 1.25.312.538.841.832.53.294 1.171.294 1.068 0 1.815-.89l.721.694a3.2 3.2 0 0 1-1.112.846 3.3 3.3 0 0 1-1.424.302m5.224-6.515h1.139l2.394 6.373h-1.103l-.57-1.629h-2.572l-.578 1.629h-1.104zm1.522 3.818-.676-1.895-.25-.739h-.053l-.249.739-.677 1.895zm2.652-3.818h2.243q.57 0 1.041.25a1.88 1.88 0 0 1 1.015 1.699q0 .641-.414 1.14a2 2 0 0 1-1.037.667l-.009.045 1.745 2.518v.054h-1.157L81.933 9.54h-.747v2.492h-.997zm2.216 2.955q.445 0 .757-.285a.94.94 0 0 0 .311-.729 1.02 1.02 0 0 0-.48-.859 1 1 0 0 0-.552-.147h-1.255v2.02zm6.025 3.56a3.32 3.32 0 0 1-2.888-1.633 3.3 3.3 0 0 1-.449-1.695 3.28 3.28 0 0 1 1.664-2.893 3.3 3.3 0 0 1 1.673-.436q.721 0 1.344.258t1.042.721l-.695.694a2.1 2.1 0 0 0-.743-.534 2.4 2.4 0 0 0-.957-.187q-.614 0-1.148.294t-.854.837a2.4 2.4 0 0 0-.32 1.246q0 .703.32 1.246t.854.836q.534.294 1.157.294.57 0 .953-.169.382-.17.685-.454.196-.196.334-.49.138-.293.182-.64h-2.163v-.89h3.107q.044.249.044.516 0 .604-.187 1.161a2.44 2.44 0 0 1-.596.966q-.899.952-2.359.952m5.776-6.515h1.14l2.394 6.373h-1.104l-.57-1.629h-2.572l-.578 1.629h-1.104zm1.522 3.818-.676-1.895-.249-.739h-.054l-.249.739-.676 1.895zm2.652-3.818h2.243q.57 0 1.041.25.473.249.744.694t.271 1.005q0 .641-.414 1.14a2 2 0 0 1-1.037.667l-.009.045 1.745 2.518v.054h-1.157l-1.682-2.492h-.748v2.492h-.997zm2.216 2.955q.445 0 .757-.285a.94.94 0 0 0 .311-.729 1.01 1.01 0 0 0-.48-.859 1 1 0 0 0-.552-.147h-1.255v2.02zm4.869-2.955h3.871v.953h-2.875v1.762h2.59v.943h-2.59v1.762h2.875v.953h-3.871zm4.886 0h1.183l2.848 4.637h.054l-.054-1.228V5.659h.988v6.373h-1.041l-2.99-4.877h-.054l.054 1.228v3.649h-.988z" style="fill:#5f6368" transform="translate(0 11.123)"/>
  <path d="m0-13.437-10.647 11.3.002.007A2.874 2.874 0 0 0-6.409-.396l.034-.02L5.609-7.331z" style="fill:#ea4335;fill-rule:nonzero" transform="translate(30.717 42.861)"/>
  <path d="m0-5.023-.01-.007-5.174-2.999-5.829 5.187 5.85 5.848L-.017.037A2.88 2.88 0 0 0 0-5.023" style="fill:#fbbc04;fill-rule:nonzero" transform="translate(41.488 32.523)"/>
  <path d="M0-21.447a2.8 2.8 0 0 0-.098.74V-.739q0 .385.099.739l11.012-11.011z" style="fill:#4285f4;fill-rule:nonzero" transform="translate(20.07 40.724)"/>
  <path d="m0 12.86 5.51-5.509L-6.46.411a2.878 2.878 0 0 0-4.265 1.722l-.001.003z" style="fill:#34a853;fill-rule:nonzero" transform="translate(30.796 17.14)"/>
</svg>
