<svg viewBox="-25.628 -56.509 751 75" xmlns="http://www.w3.org/2000/svg" xml:space="preserve"><path d="M0-51.734h5.97L3.98-37.249h6.446v6.129H3.025L1.672-21.013h6.685v6.129H.637L-1.353 0h-6.128l2.069-14.884h-7.641L-15.122 0h-6.049l2.07-14.804h-6.527v-6.209h7.482l1.433-10.107h-6.845v-6.129h7.72l2.07-14.485h5.969l-1.99 14.485h7.72zM-10.744-31.12l-1.353 10.107h7.72l1.353-10.107zm68.13 29.528C55.078-.398 49.984.796 43.537.796c-17.032 0-27.379-10.665-27.379-26.981 0-17.67 12.257-28.334 28.653-28.334 6.447 0 11.063 1.353 13.053 2.387l-2.149 7.801c-2.547-1.115-6.049-2.071-10.506-2.071-10.904 0-18.783 6.846-18.783 19.739 0 11.779 6.924 19.341 18.703 19.341 3.98 0 8.118-.796 10.665-1.99zm43.538-18.146C100.924-5.491 90.896.876 81.027.876c-10.983 0-19.42-7.562-19.42-19.978 0-12.734 8.357-20.534 20.057-20.534 11.54 0 19.26 8.118 19.26 19.898m-29.209.397c0 7.482 3.661 13.133 9.63 13.133 5.572 0 9.472-5.492 9.472-13.291 0-6.049-2.706-12.974-9.392-12.974-6.924 0-9.71 6.686-9.71 13.132m37.251-7.879c0-4.457-.08-8.197-.318-11.541h8.595l.478 5.811h.239c1.671-3.025 5.889-6.686 12.336-6.686 6.765 0 13.769 4.377 13.769 16.635V0h-9.789v-21.888c0-5.57-2.07-9.789-7.402-9.789-3.9 0-6.606 2.785-7.641 5.73-.318.875-.398 2.07-.398 3.184V0h-9.869zm45.05 18.226c2.229 1.353 6.447 2.785 9.949 2.785 4.298 0 6.208-1.751 6.208-4.298 0-2.626-1.592-3.979-6.367-5.651-7.561-2.626-10.745-6.765-10.665-11.301 0-6.846 5.65-12.178 14.644-12.178 4.298 0 8.039 1.115 10.267 2.309l-1.91 6.924c-1.671-.955-4.775-2.229-8.198-2.229-3.502 0-5.412 1.672-5.412 4.059 0 2.468 1.831 3.662 6.765 5.412 7.004 2.547 10.267 6.129 10.347 11.859 0 7.004-5.492 12.098-15.759 12.098-4.696 0-8.914-1.114-11.779-2.706zm44.89-40.83v11.063h9.312v7.322h-9.312v17.112c0 4.696 1.273 7.163 5.014 7.163 1.672 0 2.945-.238 3.82-.477l.16 7.481c-1.433.557-3.98.955-7.084.955-3.581 0-6.606-1.193-8.436-3.183-2.07-2.229-3.025-5.731-3.025-10.825v-18.226h-5.571v-7.322h5.571v-8.754zm16.715 23.559c0-5.253-.08-8.994-.318-12.496h8.516l.318 7.402h.318c1.911-5.492 6.447-8.277 10.586-8.277.955 0 1.512.08 2.308.238v9.233c-.796-.159-1.671-.319-2.865-.319-4.696 0-7.88 3.026-8.755 7.403-.159.875-.318 1.91-.318 3.024V0h-9.79zm63.036 14.644c0 4.616.159 8.437.318 11.62h-8.595l-.478-5.89h-.159c-1.671 2.786-5.492 6.766-12.416 6.766-7.084 0-13.53-4.219-13.53-16.873v-22.764h9.789v21.092c0 6.447 2.07 10.586 7.243 10.586 3.9 0 6.447-2.786 7.481-5.254.319-.875.557-1.91.557-3.023v-23.401h9.79zm16.715-27.14 7.004 20.773c.796 2.388 1.592 5.332 2.149 7.561h.239c.636-2.229 1.353-5.094 2.069-7.641l6.049-20.693h10.506l-9.71 26.424c-5.333 14.486-8.914 20.932-13.531 24.912-3.82 3.422-7.799 4.695-10.267 5.014l-2.228-8.278c1.671-.397 3.741-1.273 5.73-2.705 1.831-1.194 3.98-3.502 5.333-6.129.398-.717.636-1.273.636-1.751 0-.397-.079-.955-.557-1.91l-14.167-35.577zm39.56 22.127c.239 7.004 5.73 10.027 11.938 10.027 4.537 0 7.8-.637 10.745-1.75l1.432 6.765C355.705-.24 351.089.795 345.517.795c-12.575 0-19.977-7.72-19.977-19.579 0-10.745 6.527-20.852 18.943-20.852 12.575 0 16.713 10.346 16.713 18.863 0 1.83-.159 3.263-.318 4.139zm17.032-6.846c.08-3.581-1.512-9.471-8.039-9.471-6.048 0-8.595 5.492-8.993 9.471zm17.114-3.74c0-4.457-.08-8.197-.318-11.541h8.595l.478 5.811h.239c1.671-3.025 5.889-6.686 12.336-6.686 6.765 0 13.769 4.377 13.769 16.635V0h-9.789v-21.888c0-5.57-2.07-9.789-7.402-9.789-3.9 0-6.606 2.785-7.641 5.73-.318.875-.398 2.07-.398 3.184V0h-9.869zm81.264-29.289v45.605c0 3.979.159 8.278.318 10.904h-8.755l-.398-6.128h-.159C439.04-1.832 434.344.875 428.693.875c-9.232 0-16.555-7.879-16.555-19.818-.079-12.973 8.039-20.693 17.351-20.693 5.333 0 9.153 2.228 10.904 5.094h.159v-21.967zm-9.79 33.905c0-.796-.08-1.751-.239-2.547-.875-3.82-3.979-6.925-8.436-6.925-6.288 0-9.79 5.573-9.79 12.815 0 7.084 3.502 12.257 9.71 12.257 3.98 0 7.482-2.706 8.437-6.925.238-.875.318-1.83.318-2.865zm57.147 2.866c0 14.247-10.028 20.614-19.897 20.614-10.983 0-19.42-7.562-19.42-19.978 0-12.734 8.357-20.534 20.057-20.534 11.54 0 19.26 8.118 19.26 19.898m-29.209.397c0 7.482 3.661 13.133 9.63 13.133 5.572 0 9.472-5.492 9.472-13.291 0-6.049-2.706-12.974-9.392-12.974-6.924 0-9.71 6.686-9.71 13.132m48.314-34.303h9.79v34.781c0 14.803-7.164 19.739-17.829 19.739-2.706 0-6.128-.479-8.197-1.274l1.194-7.88c1.591.478 3.74.955 6.048.955 5.572 0 8.994-2.547 8.994-11.858zm54.839 42.023c0 4.616.159 8.437.318 11.62h-8.595l-.478-5.89h-.159c-1.671 2.786-5.492 6.766-12.416 6.766-7.084 0-13.53-4.219-13.53-16.873v-22.764h9.789v21.092c0 6.447 2.07 10.586 7.243 10.586 3.9 0 6.447-2.786 7.481-5.254.319-.875.557-1.91.557-3.023v-23.401h9.79zm10.586-15.599c0-4.457-.08-8.197-.318-11.541h8.595l.478 5.811h.239c1.671-3.025 5.889-6.686 12.336-6.686 6.765 0 13.769 4.377 13.769 16.635V0h-9.789v-21.888c0-5.57-2.07-9.789-7.402-9.789-3.9 0-6.606 2.785-7.641 5.73-.318.875-.398 2.07-.398 3.184V0h-9.869zm56.353-22.604v11.063h9.312v7.322h-9.312v17.112c0 4.696 1.273 7.163 5.014 7.163 1.672 0 2.944-.238 3.819-.477l.161 7.481c-1.433.557-3.98.955-7.084.955-3.581 0-6.606-1.193-8.436-3.183-2.07-2.229-3.025-5.731-3.025-10.825v-18.226h-5.571v-7.322h5.571v-8.754zm53.087 30.086c0 14.247-10.028 20.614-19.897 20.614-10.983 0-19.42-7.562-19.42-19.978 0-12.734 8.357-20.534 20.057-20.534 11.54 0 19.26 8.118 19.26 19.898m-29.209.397c0 7.482 3.661 13.133 9.63 13.133 5.572 0 9.472-5.492 9.472-13.291 0-6.049-2.706-12.974-9.392-12.974-6.924 0-9.71 6.686-9.71 13.132m36.773 10.347c2.229 1.353 6.447 2.785 9.949 2.785 4.298 0 6.208-1.751 6.208-4.298 0-2.626-1.592-3.979-6.367-5.651-7.561-2.626-10.745-6.765-10.665-11.301 0-6.846 5.65-12.178 14.644-12.178 4.298 0 8.039 1.115 10.267 2.309l-1.91 6.924c-1.671-.955-4.775-2.229-8.198-2.229-3.502 0-5.412 1.672-5.412 4.059 0 2.468 1.831 3.662 6.765 5.412 7.004 2.547 10.267 6.129 10.347 11.859 0 7.004-5.492 12.098-15.759 12.098-4.696 0-8.914-1.114-11.779-2.706z" style="fill:#80cff5"/></svg>