<?xml version="1.0" encoding="UTF-8" standalone="no"?>
<!DOCTYPE svg PUBLIC "-//W3C//DTD SVG 1.1//EN" "http://www.w3.org/Graphics/SVG/1.1/DTD/svg11.dtd">
<svg width="100%" height="100%" viewBox="0 0 1034 1034" version="1.1" xmlns="http://www.w3.org/2000/svg" xmlns:xlink="http://www.w3.org/1999/xlink" xml:space="preserve" xmlns:serif="http://www.serif.com/" style="fill-rule:evenodd;clip-rule:evenodd;stroke-linejoin:round;stroke-miterlimit:2;">
    <rect id="Pluma" x="0" y="0" width="1033.53" height="1033.53" style="fill:none;"/>
    <clipPath id="_clip1">
        <rect id="Pluma1" serif:id="Pluma" x="0" y="0" width="1033.53" height="1033.53"/>
    </clipPath>
    <g clip-path="url(#_clip1)">
        <g>
            <g>
                <g transform="matrix(0,-4.16667,-4.16667,0,516.766,0.00208333)">
                    <path d="M-124.022,-124.022C-192.519,-124.022 -248.046,-68.495 -248.046,0.002C-248.046,68.496 -192.519,124.022 -124.022,124.022C-55.525,124.022 0.002,68.496 0.002,0.002C0.002,-68.495 -55.525,-124.022 -124.022,-124.022ZM-50.519,-83.645L-50.065,-84.134L-46.788,-81.067L-43.837,-84.222L-47.308,-87.468L-46.851,-87.957L-42.796,-84.162L-50.477,-75.954L-54.725,-79.931L-54.271,-80.417L-50.603,-76.988L-47.245,-80.582L-50.519,-83.645ZM-63.317,-93.2L-66.686,-89.071L-67.323,-89.528L-60.169,-98.226L-59.396,-97.673L-61.126,-90.932C-61.552,-89.37 -61.858,-88.255 -62.227,-87.25L-62.188,-87.221C-61.298,-87.918 -60.328,-88.614 -59.065,-89.458L-53.322,-93.32L-52.577,-92.785L-58.46,-83.177L-59.1,-83.631L-56.371,-88.037C-55.39,-89.63 -54.324,-91.266 -53.582,-92.356L-53.611,-92.377C-54.599,-91.568 -55.78,-90.752 -57.314,-89.697L-62.593,-86.138L-63.043,-86.458L-61.411,-92.799C-60.957,-94.547 -60.567,-95.866 -60.194,-97.097L-60.222,-97.118C-60.943,-96.112 -62.255,-94.512 -63.317,-93.2ZM-21.218,-55.415L-20.824,-54.719L-26.768,-51.346C-29.767,-49.64 -31.635,-50.636 -32.605,-52.345C-33.65,-54.184 -33.485,-56.428 -30.485,-58.13L-24.643,-61.446L-24.246,-60.75L-30.147,-57.402C-32.553,-56.037 -32.964,-54.328 -32.043,-52.704C-31.227,-51.269 -29.613,-50.653 -27.119,-52.067L-21.218,-55.415ZM-124.022,-102.81C-67.243,-102.81 -21.211,-56.778 -21.211,0.001C-21.211,56.78 -67.243,102.812 -124.022,102.812C-180.801,102.812 -226.834,56.78 -226.834,0.001C-226.834,-56.778 -180.801,-102.81 -124.022,-102.81ZM-64.286,-100.748L-63.59,-100.354L-66.952,-94.407C-68.647,-91.404 -70.757,-91.291 -72.47,-92.258C-74.312,-93.299 -75.322,-95.307 -73.627,-98.311L-70.321,-104.156L-69.625,-103.765L-72.962,-97.861C-74.323,-95.452 -73.796,-93.774 -72.171,-92.856C-70.732,-92.044 -69.034,-92.346 -67.623,-94.843L-64.286,-100.748ZM-78.041,-95.482L-78.741,-95.791L-76.448,-100.993C-75.692,-102.699 -75.185,-103.806 -74.549,-105.037L-74.573,-105.065C-75.579,-104.235 -76.757,-103.462 -78.037,-102.625L-84.596,-98.376L-85.268,-98.672L-80.731,-108.951L-80.028,-108.642L-82.289,-103.518C-82.996,-101.914 -83.531,-100.75 -84.252,-99.41L-84.227,-99.382C-83.288,-100.149 -82.268,-100.849 -80.865,-101.76L-74.187,-106.061L-73.501,-105.758L-78.041,-95.482ZM-87.639,-99.511L-88.391,-99.786L-84.53,-110.336L-83.778,-110.061L-87.639,-99.511ZM-97.985,-103.25L-97.581,-103.788C-97.05,-103.299 -96.209,-102.839 -95.298,-102.568C-92.407,-101.703 -90.181,-103.088 -89.305,-106.014C-88.381,-109.113 -89.59,-111.529 -92.495,-112.397C-93.406,-112.672 -94.247,-112.714 -94.873,-112.605L-94.918,-113.315C-94.553,-113.378 -93.663,-113.442 -92.288,-113.03C-88.887,-112.014 -87.547,-108.986 -88.504,-105.789C-89.647,-101.97 -92.636,-101.055 -95.242,-101.836C-96.564,-102.234 -97.524,-102.814 -97.985,-103.25ZM-99.77,-103.199L-100.551,-103.384L-97.966,-114.316L-97.185,-114.132L-99.77,-103.199ZM-101.067,-114.894L-103.04,-103.967L-103.828,-104.108L-102.973,-108.835C-103.388,-108.792 -103.835,-108.856 -104.345,-108.947C-105.706,-109.193 -106.81,-109.833 -107.369,-110.762C-107.777,-111.413 -107.911,-112.165 -107.742,-113.118C-107.577,-114.036 -107.13,-114.718 -106.497,-115.13C-105.783,-115.608 -104.721,-115.773 -103.409,-115.538C-102.474,-115.369 -101.686,-115.126 -101.067,-114.894ZM-102.85,-109.524L-101.96,-114.462C-102.242,-114.581 -102.773,-114.743 -103.494,-114.877C-105.248,-115.193 -106.655,-114.634 -106.968,-112.893C-107.285,-111.138 -106.275,-109.971 -104.292,-109.615C-103.75,-109.517 -103.251,-109.461 -102.85,-109.524ZM-110.369,-109.185L-114.797,-109.677L-116.639,-105.921L-117.452,-106.012L-112.18,-116.732L-111.417,-116.647L-108.618,-105.028L-109.43,-105.119L-110.369,-109.185ZM-114.473,-110.31L-110.545,-109.874L-111.501,-113.788C-111.656,-114.527 -111.772,-115.128 -111.864,-115.793L-111.899,-115.796C-112.134,-115.184 -112.345,-114.636 -112.697,-113.887L-114.473,-110.31ZM-118.613,-117.265L-118.968,-106.036L-124.764,-106.219L-124.746,-106.883L-119.745,-106.725L-119.411,-117.29L-118.613,-117.265ZM-126.296,-106.147L-127.094,-106.131L-127.316,-117.366L-126.518,-117.382L-126.296,-106.147ZM-130.56,-117.151L-129.61,-106.123C-130.419,-105.986 -131.232,-105.898 -132.097,-105.824C-134.253,-105.637 -136.004,-106.123 -137.077,-107.118C-138.184,-108.145 -138.761,-109.583 -138.902,-111.229C-139.05,-112.924 -138.659,-114.229 -137.84,-115.235C-136.996,-116.293 -135.498,-116.976 -133.454,-117.151C-132.392,-117.243 -131.436,-117.225 -130.56,-117.151ZM-130.465,-106.717L-131.306,-116.483C-131.798,-116.539 -132.484,-116.564 -133.349,-116.49C-136.954,-116.181 -138.364,-114.102 -138.086,-111.264C-137.805,-108.025 -135.856,-106.168 -132.269,-106.478C-131.555,-106.541 -130.908,-106.611 -130.465,-106.717ZM-141.906,-108.741L-146.286,-107.95L-146.981,-103.828L-147.786,-103.684L-145.792,-115.462L-145.04,-115.595L-139.04,-105.263L-139.845,-105.115L-141.906,-108.741ZM-146.158,-108.653L-142.272,-109.356L-144.306,-112.831C-144.661,-113.499 -144.945,-114.037 -145.223,-114.649L-145.258,-114.642C-145.311,-113.988 -145.356,-113.404 -145.479,-112.588L-146.158,-108.653ZM-152.19,-113.985L-149.197,-103.332C-149.964,-103.048 -150.745,-102.812 -151.582,-102.576C-153.667,-101.989 -155.475,-102.137 -156.713,-102.914C-157.997,-103.716 -158.83,-105.021 -159.277,-106.61C-159.737,-108.244 -159.6,-109.603 -158.985,-110.742C-158.352,-111.942 -157.008,-112.891 -155.035,-113.446C-154.008,-113.735 -153.066,-113.897 -152.19,-113.985ZM-150.147,-103.757L-152.799,-113.193C-153.291,-113.158 -153.97,-113.052 -154.807,-112.817C-158.288,-111.84 -159.284,-109.533 -158.482,-106.799C-157.603,-103.67 -155.338,-102.211 -151.874,-103.185C-151.184,-103.377 -150.562,-103.572 -150.147,-103.757ZM-166.979,-109.321L-162.6,-99.154C-163.325,-98.77 -164.067,-98.429 -164.865,-98.088C-166.856,-97.23 -168.667,-97.138 -170,-97.747C-171.375,-98.369 -172.377,-99.554 -173.031,-101.07C-173.703,-102.632 -173.745,-103.993 -173.288,-105.206C-172.82,-106.479 -171.614,-107.597 -169.729,-108.41C-168.748,-108.832 -167.837,-109.117 -166.979,-109.321ZM-163.599,-99.449L-167.478,-108.452C-167.963,-108.354 -168.625,-108.16 -169.419,-107.816C-172.743,-106.384 -173.425,-103.968 -172.264,-101.362C-170.981,-98.376 -168.544,-97.23 -165.238,-98.654C-164.577,-98.939 -163.986,-99.21 -163.599,-99.449ZM-179.537,-97.248L-179.85,-97.835L-175.897,-99.956L-177.937,-103.761L-182.125,-101.517L-182.442,-102.105L-177.546,-104.728L-172.24,-94.821L-177.367,-92.071L-177.684,-92.659L-173.256,-95.029L-175.581,-99.365L-179.537,-97.248ZM-188.138,-98.471L-181.878,-89.306L-182.539,-88.856L-185.247,-92.819C-185.511,-92.496 -185.873,-92.228 -186.3,-91.937C-187.443,-91.156 -188.676,-90.836 -189.731,-91.107C-190.477,-91.282 -191.099,-91.725 -191.645,-92.524C-192.173,-93.294 -192.335,-94.092 -192.173,-94.827C-191.999,-95.671 -191.359,-96.537 -190.259,-97.286C-189.472,-97.824 -188.743,-98.2 -188.138,-98.471ZM-185.642,-93.396L-188.472,-97.539C-188.758,-97.423 -189.25,-97.17 -189.854,-96.755C-191.325,-95.749 -191.936,-94.363 -190.938,-92.907C-189.932,-91.434 -188.396,-91.311 -186.731,-92.45C-186.274,-92.759 -185.885,-93.069 -185.642,-93.396ZM-188.574,-84.573L-189.207,-84.089L-196.037,-93.01L-195.403,-93.495L-188.574,-84.573ZM-197.276,-77.862L-197.515,-78.492C-196.815,-78.678 -195.978,-79.139 -195.261,-79.758C-192.978,-81.73 -192.954,-84.354 -194.948,-86.661C-197.061,-89.109 -199.748,-89.387 -202.041,-87.403C-202.762,-86.781 -203.248,-86.095 -203.494,-85.511L-204.116,-85.849C-203.972,-86.193 -203.55,-86.981 -202.467,-87.917C-199.78,-90.238 -196.506,-89.742 -194.329,-87.217C-191.723,-84.206 -192.556,-81.192 -194.61,-79.416C-195.658,-78.513 -196.664,-78.017 -197.276,-77.862ZM-206.844,-83.628L-206.288,-84.205L-198.193,-76.418L-198.748,-75.842L-202.796,-79.735L-207.094,-75.269L-203.046,-71.375L-203.601,-70.799L-211.694,-78.585L-211.138,-79.158L-207.572,-75.729L-203.274,-80.199L-206.844,-83.628ZM-205.208,-68.847L-205.725,-68.235L-214.31,-75.49L-213.793,-76.102L-205.208,-68.847ZM-216.299,-73.08L-207.359,-66.274L-210.873,-61.661L-211.404,-62.064L-208.376,-66.042L-216.784,-72.443L-216.299,-73.08ZM-219.268,-59.075L-219.827,-59.441L-217.369,-63.193L-220.977,-65.557L-223.583,-61.582L-224.139,-61.948L-221.097,-66.59L-211.7,-60.436L-214.89,-55.569L-215.449,-55.934L-212.699,-60.13L-216.81,-62.824L-219.268,-59.075ZM-224.938,-48.257L-220.386,-45.486L-220.753,-44.793L-230.342,-50.687L-229.899,-51.528L-222.993,-50.736C-221.385,-50.532 -220.243,-50.381 -219.194,-50.153L-219.169,-50.195C-219.982,-50.979 -220.808,-51.848 -221.815,-52.977L-226.426,-58.136L-225.999,-58.948L-215.677,-54.44L-216.044,-53.747L-220.778,-55.843C-222.489,-56.592 -224.256,-57.429 -225.436,-58.013L-225.451,-57.981C-224.515,-57.112 -223.544,-56.057 -222.292,-54.682L-218.045,-49.942L-218.297,-49.456L-224.801,-50.198C-226.59,-50.409 -227.951,-50.617 -229.221,-50.814L-229.238,-50.786C-228.144,-50.209 -226.379,-49.129 -224.938,-48.257ZM-232.286,-46.238L-231.994,-46.984L-225.632,-44.476C-222.421,-43.21 -222.02,-41.135 -222.741,-39.306C-223.519,-37.337 -225.365,-36.057 -228.576,-37.323L-234.829,-39.785L-234.537,-40.53L-228.221,-38.04C-225.646,-37.027 -224.057,-37.784 -223.374,-39.517C-222.769,-41.054 -223.304,-42.697 -225.97,-43.752L-232.286,-46.238ZM-33.132,-72.372L-41.418,-65.806L-41.914,-66.432L-33.631,-72.998L-35.91,-75.875L-35.386,-76.29L-30.329,-69.914L-30.853,-69.499L-33.132,-72.372ZM-36.677,-77.5L-44.836,-69.988L-45.377,-70.575L-41.586,-74.067L-42.771,-75.355C-43.827,-76.399 -44.843,-76.417 -46.267,-75.58C-47.516,-74.841 -48.395,-74.345 -48.764,-74.254L-49.32,-74.855C-48.831,-74.989 -48.071,-75.393 -46.524,-76.301C-45.423,-76.951 -44.414,-77.109 -43.594,-76.638L-43.57,-76.663C-44.118,-77.922 -44.016,-79.241 -42.902,-80.271C-42.325,-80.799 -41.569,-81.087 -40.901,-81.048C-40.014,-80.999 -39.149,-80.528 -38.157,-79.448C-37.623,-78.871 -37.043,-78.115 -36.677,-77.5ZM-41.108,-74.507L-37.637,-77.704C-37.781,-77.957 -38.101,-78.432 -38.622,-78.994C-39.821,-80.296 -41.192,-80.753 -42.455,-79.589C-43.549,-78.583 -43.492,-77.095 -42.318,-75.819L-41.108,-74.507ZM-17.613,-48.014L-27.78,-43.228L-30.249,-48.475L-29.648,-48.76L-27.516,-44.233L-17.954,-48.738L-17.613,-48.014ZM-34.553,-58.369L-34.922,-57.757C-35.608,-57.993 -36.508,-58.749 -37.053,-59.547C-38.407,-61.531 -37.869,-63.31 -36.519,-64.232C-35.144,-65.171 -33.888,-64.84 -32.225,-63.736C-30.79,-62.758 -29.862,-62.522 -28.845,-63.219C-28.114,-63.718 -27.498,-64.886 -28.525,-66.384C-29.07,-67.182 -29.735,-67.594 -30.083,-67.72L-29.689,-68.353C-29.264,-68.177 -28.592,-67.667 -28.001,-66.802C-26.921,-65.22 -27.15,-63.426 -28.511,-62.498C-29.763,-61.64 -31.145,-62.009 -32.7,-63.127C-34.127,-64.13 -35.116,-64.242 -36.146,-63.539C-37.289,-62.758 -37.49,-61.369 -36.54,-59.98C-36.016,-59.21 -35.27,-58.65 -34.553,-58.369ZM-26.474,-40.095L-26.778,-40.832L-16.384,-45.106L-16.081,-44.369L-26.474,-40.095Z" style="fill:white;"/>
                </g>
                <g transform="matrix(4.16667,0,0,4.16667,0,0)">
                    <path d="M30.647,167.104C29.92,165.533 29.233,163.94 28.585,162.327L47.433,55.437C48.705,54.016 50.017,52.632 51.366,51.285L209.847,79.229L209.351,82.046L187.719,204.729C186.619,205.599 185.501,206.446 184.366,207.27L206.531,81.55L50.581,54.052L30.647,167.104ZM95.083,25.342C94.986,25.412 94.873,25.463 94.749,25.489C95.093,25.953 95.34,26.505 95.449,27.117C95.512,27.511 95.512,27.902 95.466,28.278L95.473,28.274C95.406,28.626 95.396,28.995 95.456,29.368C95.575,30.033 95.902,30.609 96.363,31.042C97.242,31.992 97.868,33.198 98.104,34.569C98.452,36.581 97.889,38.54 96.722,40.031L97.217,39.943C97.685,39.862 98.128,40.179 98.209,40.65C98.68,40.566 99.131,40.882 99.208,41.35L99.809,44.839C98.512,45.036 97.221,45.261 95.934,45.503C97.928,47.438 100.256,49.326 103.463,50.786C112.361,54.83 122.31,48.292 122.31,48.292L127.726,56.029C127.726,56.029 122.194,59.113 116.845,58.188C100.488,55.347 92.674,39.31 80.759,46.115C79,47.121 75.73,49.843 73.739,51.549L68.228,39.289L67.66,38.026C68.08,37.749 68.503,37.476 68.928,37.206L69.646,38.804C70.704,38.449 71.893,38.069 73.103,37.706C73.124,37.559 73.148,37.418 73.18,37.274C73.391,36.644 73.395,35.941 73.145,35.266C73.084,35.098 73.009,34.94 72.921,34.792C73.772,34.304 74.63,33.827 75.496,33.363C75.505,33.679 75.563,33.996 75.68,34.309C75.916,34.946 76.349,35.452 76.88,35.793C77.172,36.011 77.449,36.25 77.703,36.514C78.944,36.261 80.048,36.113 80.861,36.141C81.3,36.163 81.719,36.198 82.13,36.24C82.102,35.466 82.208,34.71 82.422,33.993C82.689,33.384 82.763,32.681 82.573,31.988C82.475,31.619 82.31,31.292 82.099,31L82.099,30.996C81.959,30.776 81.838,30.537 81.742,30.281C82.795,29.806 83.857,29.347 84.928,28.907C84.941,28.949 84.953,28.991 84.965,29.034C85.063,29.421 85.106,29.808 85.088,30.187L85.099,30.187C85.067,30.543 85.084,30.905 85.186,31.271C85.366,31.925 85.746,32.47 86.245,32.86C87.209,33.718 87.947,34.858 88.309,36.201C88.524,36.982 88.587,37.77 88.531,38.536C90.303,39.718 91.795,41.241 93.342,42.859L93.254,42.373C93.177,41.906 93.49,41.459 93.961,41.378C93.88,40.91 94.197,40.464 94.664,40.379L95.157,40.298C93.56,39.286 92.378,37.626 92.03,35.614C91.802,34.285 91.974,32.98 92.449,31.816C92.779,31.232 92.913,30.543 92.786,29.836C92.723,29.459 92.589,29.111 92.406,28.802L92.41,28.802C92.241,28.464 92.111,28.098 92.044,27.705C91.96,27.213 91.975,26.733 92.07,26.275C93.068,25.949 94.072,25.637 95.083,25.342ZM107.04,22.608C106.899,22.834 106.657,22.992 106.372,23.013C106.403,23.481 106.059,23.885 105.595,23.931C105.89,24.43 106.083,25.004 106.126,25.623C106.157,26.02 106.122,26.41 106.038,26.776L106.045,26.776C105.939,27.121 105.893,27.487 105.922,27.863C105.971,28.538 106.245,29.147 106.66,29.618C107.441,30.652 107.947,31.911 108.046,33.3C108.193,35.336 107.448,37.228 106.136,38.6L106.639,38.561C107.114,38.526 107.525,38.881 107.56,39.359C108.035,39.324 108.45,39.679 108.485,40.158L108.76,43.889C106.738,44.016 104.729,44.199 102.742,44.438L102.461,40.594C102.426,40.119 102.785,39.708 103.259,39.672C103.224,39.194 103.583,38.783 104.058,38.747L104.564,38.712C103.066,37.548 102.05,35.786 101.898,33.743C101.803,32.403 102.102,31.119 102.69,30.005C103.069,29.459 103.273,28.784 103.224,28.067C103.196,27.687 103.094,27.332 102.943,27.005L102.946,27.005C102.809,26.65 102.711,26.27 102.69,25.876C102.64,25.253 102.753,24.659 102.975,24.121C102.584,24.142 102.241,23.9 102.116,23.551C103.743,23.198 105.385,22.883 107.04,22.608ZM115.774,38.944L110.588,22.981L110.641,22.929C110.843,22.617 111.048,22.306 111.254,21.997C112.076,21.895 112.901,21.803 113.729,21.721C113.61,21.9 113.492,22.08 113.374,22.261L113.328,22.31L117.186,34.186C120.924,34.267 124.687,34.534 128.468,35.002L130.861,21.436C132.48,21.542 134.089,21.686 135.686,21.866L132.417,40.4C126.83,39.468 121.27,38.994 115.774,38.944ZM116.396,40.858L116.391,40.858L115.772,38.944L115.774,38.944L116.396,40.858ZM116.396,40.858C121.891,40.942 127.447,41.452 133.029,42.433C138.611,43.421 144.009,44.839 149.196,46.643L146.71,49.825C142.092,48.289 137.302,47.065 132.365,46.196C127.427,45.324 122.51,44.835 117.643,44.698L116.396,40.858ZM159.662,27.558C160.05,28.948 160.412,30.348 160.737,31.761L160.768,31.828L150.44,45.058C145.256,43.222 139.868,41.766 134.297,40.732L137.584,22.099C139.186,22.31 140.777,22.558 142.355,22.842L139.857,37.011C143.568,37.863 147.197,38.9 150.738,40.103L158.423,30.259L158.398,30.203C158.133,29.06 157.845,27.925 157.533,26.798C158.247,27.043 158.956,27.297 159.662,27.558ZM170.931,32.513L169.965,34.659C169.768,35.095 169.255,35.288 168.825,35.095C168.632,35.524 168.133,35.717 167.7,35.534C167.728,36.118 167.626,36.713 167.37,37.279C167.204,37.645 166.993,37.968 166.736,38.253L166.74,38.256C166.49,38.51 166.272,38.812 166.118,39.16C165.822,39.814 165.783,40.518 165.952,41.161C166.128,42.406 165.97,43.711 165.414,44.945C164.577,46.813 163.019,48.118 161.215,48.701L161.676,48.909C162.112,49.106 162.305,49.616 162.112,50.048C162.544,50.245 162.741,50.755 162.544,51.188L160.965,54.705C159.179,53.797 157.354,52.939 155.497,52.134L157.034,48.715C157.227,48.283 157.737,48.09 158.177,48.283C158.366,47.847 158.88,47.653 159.316,47.847L159.777,48.054C159.01,46.321 158.954,44.288 159.791,42.424C160.36,41.154 161.261,40.145 162.355,39.442C162.907,39.139 163.371,38.661 163.649,38.042C163.803,37.697 163.881,37.339 163.902,36.983L163.909,36.983C163.958,36.607 164.057,36.231 164.218,35.869C164.472,35.299 164.851,34.828 165.302,34.462C164.88,34.258 164.693,33.755 164.887,33.329C164.451,33.132 164.254,32.622 164.451,32.19L165.473,29.911C167.322,30.726 169.142,31.594 170.931,32.513ZM200.917,55.778L195.174,61.675L185.801,71.308C184.518,69.025 182.372,65.347 181.061,63.803C172.188,53.33 159.355,65.726 143.005,62.8C137.656,61.84 133.51,57.05 133.51,57.05L141.254,51.634C141.254,51.634 148.368,61.179 158.117,60.423C161.634,60.149 164.465,59.171 167,58.039C165.878,57.367 164.739,56.713 163.589,56.083L165.344,53.013C165.583,52.598 166.111,52.454 166.522,52.69C166.761,52.278 167.285,52.134 167.7,52.369L168.14,52.619C167.549,50.822 167.69,48.793 168.702,47.017C169.395,45.811 170.398,44.893 171.548,44.302C172.124,44.052 172.634,43.623 172.972,43.032C173.162,42.705 173.274,42.357 173.327,42.002L173.338,42.009C173.422,41.64 173.556,41.274 173.753,40.926C174.062,40.384 174.484,39.955 174.969,39.632C174.568,39.392 174.431,38.875 174.667,38.464C174.252,38.225 174.108,37.701 174.343,37.286L175.609,35.072C177.355,36.087 179.068,37.151 180.746,38.264L179.587,40.289C179.348,40.701 178.82,40.845 178.409,40.609C178.173,41.014 177.66,41.161 177.252,40.936C177.22,41.517 177.058,42.1 176.752,42.642C176.552,42.987 176.309,43.289 176.031,43.546C175.757,43.781 175.507,44.052 175.318,44.386C174.962,45.012 174.857,45.705 174.959,46.366C175.015,47.622 174.727,48.905 174.059,50.076C173.042,51.849 171.361,53.006 169.508,53.407L169.947,53.657C170.359,53.892 170.507,54.42 170.271,54.835C170.682,55.07 170.827,55.598 170.587,56.009L170.348,56.438C172.353,55.447 174.273,54.529 176.348,54.019C176.552,53.28 176.886,52.563 177.35,51.902C178.156,50.766 179.235,49.95 180.438,49.468C181.039,49.271 181.588,48.891 181.975,48.339C182.193,48.03 182.344,47.692 182.432,47.351L182.436,47.351C182.552,46.989 182.724,46.641 182.949,46.31C183.311,45.807 183.772,45.413 184.285,45.139C183.909,44.861 183.821,44.334 184.089,43.95C183.702,43.676 183.607,43.134 183.881,42.744L184.962,41.212C186.587,42.41 188.175,43.654 189.725,44.943L188.819,46.226C188.548,46.616 188.006,46.711 187.619,46.433C187.349,46.816 186.821,46.911 186.434,46.651C186.35,47.228 186.135,47.791 185.777,48.3C185.544,48.628 185.274,48.905 184.971,49.138L184.975,49.138C184.676,49.341 184.405,49.595 184.187,49.908C183.772,50.491 183.6,51.177 183.642,51.842C183.603,52.591 183.441,53.337 183.153,54.054C183.547,54.153 183.958,54.265 184.377,54.395C185.154,54.645 186.139,55.162 187.218,55.823C187.549,55.668 187.887,55.535 188.238,55.429C188.854,55.292 189.431,54.961 189.877,54.448C190.116,54.156 190.296,53.84 190.415,53.498L190.422,53.505C190.566,53.161 190.774,52.827 191.034,52.521C191.435,52.046 191.935,51.701 192.462,51.473C192.121,51.16 192.082,50.632 192.381,50.27C192.019,49.96 191.977,49.415 192.283,49.057L193.207,47.974C194.7,49.332 196.152,50.734 197.562,52.177L196.886,52.971C196.577,53.333 196.028,53.379 195.669,53.069C195.363,53.428 194.832,53.474 194.467,53.178C194.326,53.741 194.062,54.286 193.661,54.761C193.405,55.06 193.106,55.313 192.779,55.517L192.782,55.521C192.469,55.689 192.174,55.921 191.935,56.21C191.463,56.758 191.228,57.423 191.207,58.088C191.189,58.232 191.164,58.373 191.136,58.517C192.153,59.269 193.134,60.04 194.013,60.736L199.914,54.665C200.251,55.033 200.585,55.405 200.917,55.778ZM42.659,186.879L60.311,86.767L60.645,84.886L62.523,85.216L122.647,95.819L124.529,96.15L184.656,106.753L186.53,107.08L186.2,108.965L167.078,217.411C166.381,217.733 165.68,218.047 164.975,218.353L168.812,196.594L164.518,191.72C163.896,192.226 162.757,193.084 161.276,193.893C158.266,195.532 155.262,196.147 152.6,195.68C146.453,194.596 142.939,188.927 141.831,186.817C139.753,188.344 133.219,192.135 124.641,187.222C119.433,184.236 113.437,176.545 110.95,173.158L104.303,210.841L123.628,216.176L124.666,216.271L111.699,206.353C111.485,206.195 111.435,205.903 111.58,205.681C111.717,205.46 112.002,205.383 112.237,205.506L126.706,213.07L118.515,198.947C118.385,198.718 118.445,198.43 118.659,198.279C118.877,198.131 119.169,198.17 119.338,198.373L129.811,210.897L127.652,194.712C127.616,194.452 127.789,194.213 128.038,194.153C128.299,194.097 128.555,194.245 128.633,194.494L133.514,210.07L137.71,194.297C137.78,194.041 138.03,193.883 138.286,193.928C138.547,193.97 138.726,194.213 138.705,194.47L137.249,210.732L147.166,197.762C147.325,197.554 147.617,197.505 147.838,197.642C148.056,197.783 148.137,198.071 148.017,198.303L140.449,212.768L154.576,204.581C154.798,204.451 155.09,204.514 155.238,204.728C155.392,204.943 155.35,205.235 155.15,205.407L142.623,215.877L158.807,213.717C159.067,213.682 159.307,213.851 159.366,214.111C159.423,214.364 159.275,214.621 159.022,214.699L143.446,219.58L154.013,222.391C153.395,222.579 152.775,222.761 152.152,222.938L141.501,220.104C141.286,220.051 141.132,219.858 141.128,219.629C141.121,219.408 141.269,219.204 141.48,219.14L153.099,215.497L141.033,217.108C140.808,217.136 140.59,217.016 140.502,216.809C140.414,216.605 140.47,216.366 140.639,216.221L149.983,208.411L139.447,214.516C139.254,214.632 139.007,214.6 138.846,214.445C138.684,214.291 138.642,214.048 138.744,213.844L144.388,203.054L136.992,212.729C136.855,212.909 136.626,212.975 136.408,212.891C136.201,212.81 136.067,212.603 136.088,212.377L137.172,200.248L134.042,212.015C133.985,212.233 133.788,212.385 133.567,212.392C133.338,212.399 133.141,212.254 133.074,212.036L129.431,200.417L131.042,212.49C131.066,212.715 130.95,212.926 130.746,213.018C130.542,213.109 130.3,213.053 130.152,212.877L122.345,203.536L128.453,214.069C128.562,214.266 128.534,214.512 128.38,214.674C128.225,214.836 127.979,214.874 127.778,214.772L116.989,209.131L126.663,216.527C126.843,216.661 126.906,216.9 126.832,217.108C126.748,217.319 126.533,217.449 126.312,217.428L114.186,216.344L125.949,219.478C126.164,219.534 126.322,219.731 126.326,219.953C126.329,220.174 126.185,220.382 125.971,220.445L114.354,224.085L126.421,222.478C126.646,222.446 126.86,222.569 126.952,222.773C127.04,222.977 126.983,223.22 126.815,223.364L122.673,226.825C122.16,226.819 121.648,226.808 121.137,226.794L124.828,223.709L109.266,225.783C108.889,225.729 108.514,225.673 108.139,225.614C108.115,225.573 108.098,225.527 108.087,225.478C108.031,225.217 108.179,224.964 108.429,224.883L124.008,220.002L121.979,219.464L102.949,218.507L101.902,224.448C101.279,224.312 100.659,224.169 100.04,224.022L101.107,217.976C101.1,217.92 101.107,217.867 101.117,217.811L101.18,217.561L101.497,215.75L93.021,219.33C92.898,219.383 92.768,219.397 92.642,219.376C92.427,219.337 92.234,219.19 92.139,218.972C91.994,218.63 92.156,218.237 92.497,218.092L101.778,214.171L103.649,203.536C101.937,203.779 100.118,203.765 98.279,203.438C96.162,203.065 94.217,202.323 92.526,201.314C88.924,201.788 84.63,202.889 79.981,205.161C75.809,207.197 72.885,209.55 70.653,211.913C70.26,211.674 69.869,211.433 69.48,211.188C71.82,208.664 74.911,206.136 79.394,203.948C83.575,201.904 87.489,200.786 90.904,200.206C87.222,197.329 85.182,193.042 85.942,188.706C86.821,183.751 91.119,180.104 96.528,179.101L96.528,179.108C96.897,179.052 97.277,179.049 97.667,179.119C99.566,179.453 100.839,181.264 100.502,183.167C100.168,185.066 98.356,186.335 96.45,185.998C94.555,185.667 93.285,183.853 93.619,181.953C93.658,181.728 93.721,181.514 93.802,181.31C90.387,182.759 87.88,185.488 87.271,188.945C86.526,193.183 88.836,197.382 92.831,199.928C98.764,199.218 102.83,200.132 103.512,200.297C103.565,200.308 103.86,200.364 104.201,200.427L106.1,189.666L96.503,193.717C96.38,193.773 96.253,193.784 96.13,193.759C95.912,193.724 95.715,193.577 95.624,193.359C95.476,193.017 95.638,192.627 95.983,192.479L106.378,188.083L108,178.869C107.873,178.904 107.729,178.904 107.592,178.859C107.44,178.806 95.367,174.744 80.094,182.97C70.053,188.375 64.83,196.144 61.022,201.813C60.493,202.598 59.985,203.352 59.49,204.061C59.139,203.779 58.791,203.494 58.445,203.206C58.914,202.53 59.399,201.81 59.903,201.06C63.793,195.275 69.125,187.348 79.453,181.785C95.3,173.253 107.528,177.41 108.038,177.589C108.105,177.61 108.161,177.645 108.214,177.684L109.23,171.916L49.103,161.317L44.244,188.877C43.708,188.218 43.179,187.551 42.659,186.879ZM86.034,219.587C85.492,219.372 84.953,219.152 84.416,218.927C84.029,217.45 83.946,215.893 84.222,214.326C85.116,209.262 89.578,205.449 95.107,204.813C95.131,204.806 95.153,204.806 95.181,204.802C95.237,204.799 95.3,204.788 95.353,204.781L95.353,204.788C95.634,204.771 95.93,204.781 96.222,204.834C98.191,205.179 99.503,207.057 99.158,209.026C98.807,210.992 96.932,212.304 94.97,211.959C93,211.614 91.685,209.736 92.033,207.77C92.089,207.44 92.195,207.134 92.325,206.849C88.808,208.161 86.174,211.016 85.545,214.558C85.241,216.287 85.436,218.003 86.034,219.587ZM151.62,223.088C150.662,223.354 149.698,223.607 148.729,223.846L142.788,223.315L144.676,224.759C144.236,224.848 143.794,224.935 143.352,225.02L140.79,223.062C140.611,222.921 140.544,222.682 140.629,222.474C140.706,222.267 140.917,222.137 141.142,222.154L151.62,223.088ZM124.964,226.83L128.007,225.066C128.2,224.954 128.446,224.985 128.608,225.14C128.773,225.295 128.809,225.537 128.707,225.734L128.175,226.752C127.109,226.794 126.038,226.82 124.964,226.83ZM139.127,225.732L139,225.513C138.884,225.319 138.916,225.07 139.074,224.908C139.225,224.75 139.472,224.707 139.672,224.813L140.901,225.455C140.311,225.553 139.72,225.645 139.127,225.732ZM73.877,213.796C74.284,213.174 74.828,212.641 75.478,212.246C75.794,212.056 76.209,212.155 76.403,212.468C76.596,212.791 76.494,213.203 76.174,213.396C75.729,213.667 75.351,214.027 75.06,214.448C74.664,214.233 74.27,214.016 73.877,213.796ZM114.608,152.409L112.944,161.855C114.59,162.052 116.137,160.926 116.426,159.266C116.489,158.901 116.837,158.658 117.207,158.721C117.435,158.763 117.618,158.915 117.706,159.112C117.759,159.231 117.776,159.365 117.755,159.502C117.449,161.222 118.603,162.864 120.315,163.167C122.018,163.465 123.639,162.344 123.966,160.663L114.608,152.409ZM168.113,134.163L163.896,131.796C162.697,134.016 161.378,136.287 159.943,138.57C159.704,138.95 159.468,139.315 159.233,139.685L166.425,143.708L168.113,134.163ZM108.407,214.815L118.026,215.676L104.128,211.836L103.129,217.505L117.291,218.215L108.232,215.806C107.975,215.74 107.817,215.49 107.866,215.23C107.912,214.973 108.144,214.794 108.407,214.815ZM50.71,152.176L49.437,159.435L73.229,163.631L74.498,156.439C74.382,156.425 74.27,156.418 74.154,156.4C72.56,156.119 71.312,155.022 70.749,153.615C69.751,154.744 68.2,155.345 66.603,155.064C65.017,154.782 63.772,153.685 63.209,152.285C62.203,153.411 60.656,154.016 59.063,153.734C57.466,153.45 56.218,152.352 55.662,150.946C54.653,152.078 53.105,152.683 51.512,152.398C51.234,152.349 50.971,152.275 50.71,152.176ZM111.439,170.369L171.566,180.972L172.832,173.798C171.334,173.443 170.17,172.363 169.653,170.999C168.651,172.163 167.082,172.792 165.457,172.504C163.864,172.222 162.612,171.129 162.057,169.722C161.051,170.847 159.507,171.449 157.91,171.167C156.317,170.889 155.069,169.789 154.503,168.389C153.5,169.514 151.956,170.119 150.36,169.838C148.763,169.557 147.518,168.459 146.959,167.053C145.95,168.185 144.406,168.786 142.809,168.505C141.188,168.217 139.925,167.095 139.38,165.653C138.374,166.821 136.802,167.447 135.181,167.158C133.588,166.88 132.339,165.78 131.777,164.376C130.771,165.502 129.227,166.107 127.63,165.822C126.037,165.54 124.789,164.447 124.23,163.043C123.227,164.169 121.676,164.774 120.083,164.492C118.483,164.211 117.238,163.114 116.683,161.704C115.712,162.794 114.242,163.392 112.709,163.184L111.439,170.369ZM164.529,130.608L168.355,132.76L171.482,115.014C169.892,119.312 167.613,124.763 164.529,130.608ZM103.902,202.137L103.969,201.753C103.505,201.669 103.245,201.62 103.189,201.605C102.615,201.461 99.573,200.779 95.005,201.071C96.095,201.535 97.273,201.89 98.515,202.112C100.372,202.439 102.193,202.428 103.902,202.137ZM161.803,167.295L161.803,167.281C161.821,167.19 161.853,167.105 161.898,167.032C162.004,166.87 162.173,166.761 162.366,166.733L162.932,163.529L148.302,153.829C147.771,154.389 147.268,154.906 146.804,155.363C144.536,157.603 142.841,158.95 141.933,159.608L146.558,165.15C146.618,164.981 146.671,164.812 146.699,164.637L146.699,164.615C146.744,164.387 146.896,164.208 147.093,164.12C147.212,164.063 147.346,164.046 147.486,164.067C147.852,164.134 148.095,164.482 148.028,164.848C148.028,164.855 148.025,164.862 148.025,164.869C147.733,166.581 148.886,168.21 150.588,168.512C152.297,168.811 153.922,167.682 154.246,165.987C154.246,165.973 154.246,165.962 154.249,165.948C154.316,165.583 154.668,165.336 155.03,165.4L155.034,165.4C155.403,165.467 155.649,165.815 155.582,166.18C155.579,166.195 155.575,166.209 155.572,166.223C155.294,167.928 156.44,169.543 158.142,169.841C159.855,170.144 161.49,169.004 161.803,167.295ZM173.064,172.469L184.322,108.631L174.288,106.862L163.298,169.205C163.681,170.204 164.564,170.981 165.69,171.181C167.409,171.484 169.052,170.33 169.358,168.614C169.421,168.248 169.769,168.006 170.135,168.069C170.149,168.073 170.159,168.076 170.17,168.08C170.181,168.083 170.195,168.08 170.205,168.083C170.571,168.146 170.821,168.495 170.754,168.86C170.465,170.489 171.489,172.054 173.064,172.469ZM149.91,102.565L124.195,98.028L114.864,150.953C116.679,149.834 125.64,144.039 133.356,134.198C143.467,121.306 148.517,106.957 149.91,102.565ZM109.561,170.038L122.317,97.697L107.483,95.084C106.994,97.567 105.664,102.811 102.693,106.672C100.452,109.588 98.022,111.835 96.303,113.259C96.974,113.122 97.607,112.985 97.984,112.886C99.056,112.591 102.411,111.364 102.45,111.357C102.689,111.265 102.963,111.321 103.15,111.504C103.333,111.687 103.4,111.958 103.315,112.201C103.259,112.377 101.831,116.488 96.795,121.506C94.112,124.186 90.57,126.493 88.573,127.703C89.462,127.815 90.693,127.893 92.248,127.801C95.466,127.615 97.558,126.49 97.583,126.475C97.843,126.338 98.159,126.377 98.37,126.581C98.581,126.781 98.638,127.094 98.515,127.362C98.423,127.552 96.211,132.039 91.129,135.63C89.005,137.131 85.182,138.689 82.777,139.6C83.951,139.836 85.386,140.079 86.554,140.107C89.73,140.195 92.856,139.994 92.888,139.991C93.183,139.97 93.454,140.145 93.556,140.423C93.661,140.701 93.581,141.014 93.341,141.193C93.162,141.334 88.889,144.619 84.331,146.507C81.321,147.745 77.386,148.6 75.068,149.032C76.995,149.961 80.473,151.318 84.827,151.645C90.05,152.039 93.215,149.838 93.243,149.817C93.472,149.655 93.767,149.648 93.999,149.796C94.228,149.94 94.351,150.211 94.301,150.481L91.414,166.838L109.561,170.038ZM166.178,145.115L158.491,140.817C155.02,146.068 151.809,150.01 149.234,152.831L163.186,162.083L166.178,145.115ZM132.304,161.387C132.674,161.45 132.92,161.799 132.853,162.164C132.853,162.175 132.853,162.178 132.846,162.185C132.554,163.898 133.704,165.533 135.413,165.832C137.133,166.138 138.775,164.985 139.078,163.269C139.12,163.043 139.268,162.864 139.465,162.776L140.871,154.786L124.968,144.992C120.92,148.572 117.481,150.886 115.99,151.832L129.952,164.141C130.75,163.701 131.348,162.913 131.524,161.953C131.524,161.95 131.527,161.943 131.527,161.939C131.545,161.844 131.576,161.76 131.622,161.689C131.766,161.464 132.034,161.338 132.304,161.387ZM142.763,144.049L132.494,137.371C130.321,139.906 128.105,142.139 126.013,144.053L141.121,153.362L142.763,144.049ZM146.14,124.903L148.869,109.426C147.42,113.059 145.366,117.659 142.63,122.579L146.14,124.903ZM145.886,126.349L141.969,123.753C139.844,127.453 137.34,131.304 134.414,135.028C134.07,135.472 133.722,135.904 133.366,136.333L143.013,142.607L145.886,126.349ZM128.373,164.542L125.285,161.823C125.468,163.142 126.484,164.253 127.863,164.499C128.035,164.528 128.2,164.538 128.373,164.542ZM74.555,163.863L90.092,166.606L92.733,151.635C91.224,152.345 88.471,153.27 84.729,152.989C81.539,152.75 78.824,151.997 76.781,151.234L74.555,163.863ZM106.153,94.849L90.609,92.109C90.05,94.74 88.706,99.589 85.917,103.226C83.347,106.567 80.575,108.768 78.884,109.936C79.453,109.932 80.181,109.869 81.092,109.697C84.11,109.127 85.429,108.262 85.439,108.251C85.682,108.09 86.009,108.104 86.237,108.286C86.47,108.469 86.55,108.779 86.445,109.053C86.378,109.229 84.736,113.354 79.32,117.982C76.524,120.367 73.668,121.717 71.994,122.378C72.831,122.737 74.087,123.145 75.771,123.367C79.555,123.855 80.772,123.349 80.786,123.342C81.04,123.215 81.338,123.265 81.542,123.462C81.75,123.659 81.799,123.968 81.687,124.228C81.588,124.443 80.586,126.423 74.674,130.21C72.522,131.592 69.536,132.296 67.63,132.63C68.428,133.094 69.445,133.639 70.482,134.058C73.345,135.222 77.371,134.74 77.414,134.737C77.656,134.705 77.895,134.807 78.04,135.004C78.184,135.201 78.209,135.457 78.107,135.683C77.987,135.953 75.001,142.4 68.544,145.273C66.656,146.117 64.69,146.694 63.044,147.074L72.385,148.582C72.385,148.572 72.381,148.565 72.385,148.558C72.444,148.283 72.666,148.076 72.94,148.037C73.007,148.023 79.527,147.031 83.814,145.262C86.445,144.176 89.03,142.565 90.69,141.436C89.515,141.471 88.024,141.492 86.519,141.454C83.962,141.383 80.375,140.434 80.224,140.392C79.939,140.314 79.738,140.061 79.728,139.762C79.714,139.467 79.904,139.199 80.181,139.104C80.255,139.08 87.321,136.671 90.349,134.533C93.296,132.451 95.237,130.01 96.306,128.431C95.3,128.744 93.95,129.053 92.325,129.145C88.587,129.359 86.557,128.681 86.473,128.652C86.22,128.564 86.044,128.336 86.019,128.072C85.995,127.808 86.139,127.552 86.371,127.422C86.427,127.393 92.096,124.292 95.845,120.553C98.937,117.469 100.614,114.726 101.416,113.154C100.343,113.537 98.982,114.008 98.335,114.184C97.175,114.497 93.89,115.092 93.753,115.116C93.44,115.172 93.127,114.997 93.007,114.705C92.888,114.409 92.993,114.072 93.257,113.892C93.303,113.864 97.811,110.808 101.627,105.853C104.391,102.255 105.671,97.226 106.153,94.849ZM158.807,137.852C167.49,124.056 171.71,110.625 172.853,106.609L151.397,102.828L141.645,158.137C144.262,156.108 151.063,150.147 158.807,137.852ZM62.189,87.098L50.953,150.822C51.203,150.939 51.467,151.023 51.744,151.072C53.461,151.375 55.106,150.225 55.409,148.508C55.472,148.143 55.817,147.896 56.186,147.963C56.415,148.002 56.594,148.153 56.686,148.354C56.738,148.47 56.756,148.61 56.731,148.744C56.429,150.46 57.582,152.106 59.295,152.409C61.001,152.708 62.625,151.575 62.945,149.883C62.953,149.869 62.953,149.855 62.953,149.841C63.019,149.476 63.371,149.233 63.73,149.293L63.737,149.296C63.842,149.314 63.93,149.356 64.015,149.416C64.215,149.563 64.328,149.813 64.282,150.077C64.278,150.091 64.275,150.102 64.268,150.119C63.997,151.818 65.14,153.435 66.842,153.738C68.555,154.04 70.187,152.897 70.5,151.192L70.5,151.178C70.51,151.086 70.549,151.002 70.598,150.932C70.742,150.703 71.006,150.576 71.28,150.626C71.646,150.692 71.896,151.037 71.829,151.406C71.829,151.413 71.829,151.417 71.825,151.424C71.53,153.137 72.677,154.772 74.389,155.074C74.502,155.095 74.614,155.106 74.73,155.113L75.508,150.721C75.17,150.576 74.86,150.432 74.579,150.298L58.905,147.77C58.578,147.707 58.328,147.425 58.338,147.088C58.352,146.75 58.609,146.472 58.943,146.437C58.993,146.433 63.786,145.92 67.996,144.042C72.487,142.044 75.23,138.056 76.327,136.168C74.794,136.235 72.138,136.185 69.976,135.306C67.609,134.343 65.418,132.834 65.326,132.774C65.091,132.612 64.985,132.32 65.059,132.05C65.129,131.775 65.365,131.575 65.646,131.547C65.699,131.543 70.883,131.044 73.95,129.081C76.865,127.207 78.511,125.814 79.422,124.907C78.532,124.956 77.294,124.925 75.599,124.703C71.836,124.211 69.993,122.843 69.916,122.786C69.712,122.632 69.61,122.375 69.663,122.125C69.708,121.872 69.891,121.668 70.144,121.598C70.187,121.591 74.438,120.377 78.444,116.955C81.56,114.293 83.368,111.803 84.317,110.235C83.568,110.499 82.587,110.787 81.346,111.023C78.191,111.617 76.826,111.019 76.682,110.952C76.457,110.84 76.302,110.611 76.295,110.361C76.292,110.108 76.432,109.873 76.654,109.749C76.693,109.728 81.057,107.333 84.848,102.406C87.44,99.034 88.731,94.399 89.279,91.873L62.189,87.098ZM141.149,160.94L140.491,164.675C140.738,165.917 141.722,166.947 143.045,167.183C144.022,167.352 144.975,167.053 145.675,166.441L141.149,160.94ZM169.111,194.902L171.236,182.85L112.083,172.423C114.558,175.764 120.41,183.244 125.309,186.051C129.329,188.354 133.296,188.917 137.108,187.732C139.932,186.845 141.585,185.294 141.603,185.28L142.296,184.619L142.682,185.495C142.714,185.572 146.132,193.172 152.832,194.354C158.568,195.363 164.068,190.331 164.125,190.278L164.627,189.81L169.111,194.902ZM79.145,200.745C76.405,200.263 74.57,197.64 75.051,194.897C75.298,193.507 76.121,192.291 77.292,191.531C77.038,190.761 76.965,189.924 77.112,189.066C77.365,187.638 78.22,186.386 79.461,185.633C79.778,185.436 80.193,185.542 80.383,185.858C80.576,186.175 80.478,186.59 80.158,186.783C79.25,187.335 78.625,188.25 78.442,189.301C78.086,191.309 79.433,193.233 81.438,193.585C82.152,193.715 82.88,193.63 83.541,193.346C83.882,193.198 84.273,193.356 84.424,193.697C84.568,194.042 84.406,194.436 84.069,194.584C83.168,194.967 82.18,195.083 81.209,194.911C79.803,194.664 78.639,193.852 77.9,192.755C77.105,193.31 76.553,194.162 76.381,195.132C76.026,197.144 77.373,199.064 79.381,199.419C80.306,199.581 81.248,199.391 82.029,198.881C82.345,198.677 82.764,198.769 82.964,199.085C83.165,199.395 83.073,199.806 82.764,200.014C81.691,200.703 80.408,200.967 79.145,200.745ZM79.078,68.073C79.208,67.183 79.328,66.29 79.437,65.393C79.641,65.456 79.862,65.523 80.101,65.583C80.351,65.65 80.622,65.706 80.935,65.762C81.241,65.815 81.519,65.857 81.772,65.879C82.018,65.9 82.254,65.917 82.468,65.928C82.261,66.81 82.067,67.69 81.888,68.569C81.709,69.448 81.519,70.454 81.315,71.59L80.822,74.386C80.622,75.525 80.457,76.538 80.323,77.424C80.196,78.311 80.08,79.186 79.982,80.044C79.774,79.977 79.549,79.928 79.303,79.883C79.053,79.837 78.776,79.791 78.47,79.735C78.16,79.682 77.886,79.633 77.64,79.587C77.39,79.545 77.161,79.517 76.947,79.51C77.147,78.669 77.334,77.808 77.517,76.928C77.699,76.053 77.886,75.04 78.09,73.904L78.579,71.112C78.783,69.972 78.948,68.963 79.078,68.073ZM145.601,79.803C145.735,78.913 145.861,78.024 145.974,77.127C146.526,77.239 147.071,77.355 147.609,77.478C148.147,77.601 148.696,77.711 149.248,77.809C150.159,77.967 150.971,78.101 151.685,78.206C152.403,78.312 152.881,78.372 153.131,78.386C153.043,78.6 152.969,78.882 152.902,79.237C152.863,79.458 152.839,79.631 152.835,79.754C152.825,79.88 152.818,80.021 152.814,80.172C152.466,80.084 152.079,79.989 151.657,79.887C151.235,79.782 150.827,79.683 150.43,79.585C150.036,79.487 149.681,79.402 149.36,79.332C149.044,79.261 148.815,79.216 148.678,79.191C148.492,79.937 148.337,80.679 148.203,81.417C148.066,82.156 147.929,82.901 147.799,83.654C148.601,83.784 149.329,83.886 149.983,83.977C150.634,84.062 151.316,84.146 152.026,84.227C151.945,84.459 151.886,84.632 151.857,84.755C151.822,84.871 151.794,85.001 151.77,85.138C151.748,85.251 151.741,85.367 151.738,85.483C151.734,85.602 151.727,85.775 151.713,85.996C150.335,85.627 148.942,85.317 147.549,85.075C147.472,85.511 147.391,85.95 147.307,86.387C147.222,86.823 147.145,87.259 147.068,87.702C146.909,88.592 146.776,89.45 146.667,90.28C147.37,90.403 148.077,90.508 148.784,90.586C149.498,90.67 150.215,90.726 150.95,90.758C150.897,90.906 150.859,91.039 150.82,91.162C150.788,91.278 150.75,91.451 150.711,91.669C150.672,91.89 150.651,92.063 150.641,92.186C150.634,92.312 150.634,92.418 150.641,92.502C150.31,92.428 149.902,92.348 149.417,92.26C148.931,92.165 148.263,92.045 147.416,91.894C146.66,91.76 146.051,91.651 145.58,91.57C145.126,91.489 144.76,91.426 144.483,91.373C144.205,91.328 143.994,91.296 143.85,91.275C143.709,91.257 143.586,91.247 143.487,91.243C143.677,90.399 143.864,89.538 144.04,88.658C144.219,87.779 144.405,86.77 144.606,85.634L145.102,82.842C145.302,81.702 145.467,80.689 145.601,79.803ZM96.878,81.53C96.751,81.815 96.649,82.096 96.572,82.378C95.475,82.764 94.17,82.824 92.654,82.553C91.582,82.367 90.653,82.029 89.869,81.544C89.081,81.059 88.448,80.461 87.973,79.747C87.495,79.037 87.175,78.231 87.013,77.341C86.855,76.455 86.859,75.523 87.031,74.549C87.281,73.125 87.699,71.95 88.269,71.029C88.846,70.107 89.524,69.393 90.305,68.891C91.089,68.384 91.951,68.064 92.886,67.934C93.829,67.804 94.782,67.825 95.753,67.997C96.076,68.054 96.41,68.141 96.758,68.258C97.107,68.374 97.441,68.507 97.754,68.655C98.07,68.803 98.373,68.964 98.654,69.14C98.935,69.316 99.164,69.495 99.354,69.668C99.167,69.988 99.013,70.315 98.883,70.656C98.749,70.99 98.643,71.338 98.556,71.686L98.299,71.641C97.947,70.902 97.543,70.347 97.107,69.981C96.66,69.611 96.104,69.369 95.44,69.253C94.947,69.168 94.427,69.204 93.882,69.362C93.34,69.52 92.82,69.815 92.327,70.248C91.831,70.684 91.388,71.275 90.991,72.017C90.604,72.759 90.312,73.68 90.119,74.774C89.932,75.833 89.904,76.758 90.027,77.549C90.157,78.34 90.386,79.008 90.713,79.554C91.044,80.099 91.452,80.528 91.937,80.837C92.422,81.15 92.932,81.351 93.46,81.446C93.755,81.498 94.065,81.516 94.388,81.495C94.708,81.474 95.028,81.421 95.348,81.344C95.668,81.266 95.974,81.157 96.27,81.01C96.572,80.865 96.843,80.697 97.078,80.496L97.293,80.704C97.142,80.974 97.005,81.249 96.878,81.53ZM64.859,65.566C64.985,64.676 65.108,63.786 65.217,62.886C65.421,62.953 65.639,63.016 65.886,63.076C66.128,63.143 66.403,63.202 66.712,63.255C67.145,63.332 67.591,63.392 68.059,63.441C68.534,63.487 68.987,63.55 69.431,63.628C70.306,63.783 70.978,63.976 71.446,64.208C71.913,64.437 72.265,64.715 72.501,65.038C72.835,65.467 73.053,65.914 73.155,66.385C73.267,66.856 73.267,67.398 73.155,68.017C73.021,68.794 72.782,69.448 72.448,69.969C72.114,70.489 71.706,70.887 71.221,71.161C70.732,71.435 70.183,71.597 69.578,71.664C68.97,71.727 68.319,71.699 67.63,71.576L66.687,71.407C66.505,72.437 66.336,73.461 66.17,74.484C66.005,75.508 65.872,76.528 65.755,77.537C65.552,77.474 65.326,77.417 65.077,77.375C64.831,77.333 64.556,77.28 64.247,77.231C63.941,77.175 63.663,77.125 63.413,77.083C63.171,77.041 62.942,77.013 62.728,77.002C62.924,76.162 63.111,75.3 63.294,74.421C63.477,73.542 63.663,72.532 63.867,71.397L64.359,68.604C64.56,67.465 64.725,66.452 64.859,65.566ZM70.25,66.487C70.208,66.111 70.12,65.801 69.976,65.559C69.835,65.312 69.652,65.122 69.431,64.985C69.209,64.848 68.966,64.753 68.706,64.707L68.284,64.634C68.217,64.623 68.154,64.609 68.098,64.602C68.034,64.591 67.982,64.588 67.929,64.591C67.739,65.576 67.556,66.543 67.387,67.496C67.208,68.446 67.039,69.399 66.87,70.359C67.176,70.415 67.5,70.436 67.837,70.422C68.182,70.415 68.502,70.327 68.812,70.162C69.121,69.997 69.395,69.733 69.642,69.364C69.884,68.998 70.06,68.488 70.176,67.83C70.271,67.306 70.296,66.86 70.25,66.487ZM123.052,75.828C123.186,74.938 123.305,74.045 123.414,73.145C123.618,73.211 123.84,73.278 124.082,73.338C124.329,73.405 124.606,73.461 124.909,73.517C125.218,73.57 125.496,73.612 125.746,73.634C125.996,73.658 126.235,73.672 126.446,73.679C126.238,74.565 126.048,75.445 125.862,76.324C125.683,77.2 125.496,78.209 125.296,79.348L124.803,82.144C124.603,83.28 124.434,84.293 124.3,85.179C124.174,86.065 124.058,86.938 123.959,87.799C123.748,87.736 123.527,87.68 123.281,87.634C123.031,87.595 122.753,87.546 122.447,87.49C122.138,87.434 121.86,87.388 121.617,87.342C121.371,87.3 121.135,87.272 120.924,87.265C121.121,86.424 121.315,85.563 121.494,84.68C121.673,83.804 121.867,82.795 122.067,81.659L122.56,78.867C122.76,77.727 122.925,76.714 123.052,75.828ZM158.588,89.159C158.222,90.678 157.856,92.191 157.487,93.71C157.343,93.654 157.195,93.618 157.048,93.594C156.9,93.566 156.759,93.541 156.622,93.516C156.471,93.488 156.33,93.464 156.19,93.439C156.045,93.414 155.898,93.404 155.746,93.404C156.555,91.118 157.318,88.835 158.039,86.564C158.76,84.288 159.46,81.974 160.142,79.625C160.273,79.674 160.392,79.72 160.508,79.759C160.617,79.801 160.744,79.836 160.881,79.861C160.99,79.878 161.11,79.889 161.236,79.889C161.363,79.892 161.496,79.892 161.637,79.889C161.827,80.768 162.027,81.665 162.242,82.579C162.453,83.49 162.671,84.401 162.886,85.308C163.1,86.215 163.322,87.105 163.54,87.977C163.761,88.85 163.972,89.679 164.18,90.464C165.189,89.057 166.209,87.58 167.236,86.033C168.266,84.482 169.262,82.941 170.218,81.397C170.517,81.524 170.774,81.605 170.995,81.64C171.206,81.679 171.47,81.689 171.794,81.675C171.706,82.878 171.618,84.169 171.519,85.551C171.421,86.929 171.326,88.28 171.227,89.599C171.14,90.917 171.066,92.148 171.002,93.298C170.936,94.441 170.9,95.37 170.89,96.073C170.647,96.003 170.405,95.946 170.151,95.901C169.898,95.855 169.652,95.816 169.402,95.767C169.156,95.725 168.903,95.679 168.646,95.637C168.386,95.591 168.126,95.556 167.858,95.539C168.048,94.118 168.214,92.574 168.361,90.907C168.512,89.233 168.653,87.58 168.79,85.934L168.752,85.927C167.763,87.422 166.796,88.888 165.843,90.334C164.89,91.772 163.941,93.224 162.995,94.684C162.935,94.659 162.879,94.635 162.826,94.621C162.773,94.607 162.713,94.589 162.653,94.582C162.59,94.568 162.53,94.561 162.474,94.557C162.421,94.557 162.358,94.554 162.295,94.557C161.897,92.904 161.503,91.259 161.117,89.606C160.73,87.953 160.318,86.279 159.896,84.58L159.858,84.573C159.383,86.113 158.961,87.643 158.588,89.159ZM180.318,97.726C179.664,97.42 179.122,97.005 178.697,96.488C178.268,95.968 177.965,95.342 177.8,94.614C177.628,93.882 177.628,93.031 177.8,92.057C177.895,91.508 177.983,91.023 178.067,90.59C178.148,90.161 178.225,89.76 178.289,89.391C178.356,89.018 178.419,88.667 178.482,88.326C178.549,87.984 178.616,87.629 178.683,87.256C178.88,86.145 179.031,85.248 179.143,84.559C179.249,83.877 179.323,83.36 179.354,83.012C179.597,83.082 179.843,83.152 180.1,83.219C180.353,83.282 180.606,83.335 180.853,83.381C181.099,83.427 181.352,83.462 181.616,83.483C181.879,83.511 182.136,83.532 182.389,83.546C182.031,84.851 181.739,86.078 181.517,87.218C181.289,88.354 181.071,89.514 180.86,90.692C180.645,91.937 180.543,92.957 180.568,93.759C180.592,94.554 180.726,95.187 180.965,95.658C181.208,96.133 181.542,96.481 181.974,96.692C182.407,96.91 182.924,97.075 183.532,97.181C184.271,97.311 184.886,97.206 185.375,96.871C185.871,96.534 186.283,96.041 186.62,95.394C186.958,94.747 187.225,93.988 187.433,93.112C187.637,92.236 187.826,91.322 187.995,90.362C188.157,89.416 188.315,88.473 188.456,87.527C188.593,86.588 188.727,85.639 188.843,84.686C189.008,84.745 189.17,84.795 189.328,84.844C189.483,84.893 189.631,84.932 189.764,84.953C189.929,84.981 190.081,84.999 190.239,85.006C190.387,85.009 190.545,85.013 190.71,85.013C190.633,85.312 190.538,85.709 190.422,86.212C190.309,86.715 190.183,87.295 190.039,87.956C189.898,88.617 189.747,89.345 189.592,90.144C189.427,90.946 189.268,91.786 189.11,92.679C188.692,95.06 187.925,96.689 186.821,97.561C185.713,98.429 184.267,98.707 182.474,98.394C181.686,98.254 180.969,98.032 180.318,97.726ZM111.072,78.462C110.608,78.357 110.144,78.265 109.672,78.181C109.208,78.1 108.737,78.022 108.262,77.956C107.791,77.889 107.32,77.822 106.845,77.769L106.641,78.94C106.44,80.076 106.275,81.089 106.145,81.979C106.015,82.865 105.895,83.741 105.797,84.595C105.589,84.532 105.368,84.479 105.118,84.434C104.872,84.395 104.594,84.346 104.288,84.289C103.979,84.233 103.704,84.184 103.451,84.142C103.208,84.096 102.976,84.071 102.765,84.061C102.962,83.22 103.152,82.359 103.331,81.483C103.514,80.604 103.704,79.594 103.905,78.458L104.397,75.663C104.598,74.527 104.763,73.514 104.896,72.624C105.027,71.738 105.146,70.845 105.248,69.944C105.456,70.011 105.681,70.074 105.923,70.138C106.166,70.201 106.44,70.261 106.75,70.314C107.059,70.37 107.341,70.412 107.59,70.43C107.837,70.454 108.069,70.472 108.287,70.482C108.069,71.362 107.872,72.23 107.699,73.099C107.527,73.967 107.341,74.97 107.14,76.106C107.46,76.176 107.84,76.253 108.294,76.341C108.737,76.426 109.292,76.528 109.961,76.644C110.629,76.76 111.167,76.855 111.592,76.922C112.011,76.988 112.401,77.045 112.76,77.094C112.964,75.958 113.126,74.952 113.259,74.08C113.386,73.204 113.502,72.318 113.608,71.421C113.819,71.485 114.044,71.548 114.279,71.611C114.526,71.678 114.8,71.734 115.109,71.787C115.415,71.84 115.693,71.882 115.946,71.903C116.196,71.931 116.428,71.945 116.646,71.952C116.442,72.835 116.245,73.714 116.066,74.597C115.883,75.473 115.693,76.482 115.489,77.618L115,80.414C114.8,81.553 114.635,82.566 114.501,83.452C114.371,84.339 114.255,85.214 114.156,86.069C113.949,86.006 113.724,85.953 113.478,85.911C113.231,85.865 112.954,85.816 112.648,85.763C112.338,85.707 112.06,85.661 111.814,85.615C111.564,85.573 111.336,85.545 111.121,85.534C111.322,84.694 111.512,83.832 111.691,82.957C111.874,82.077 112.064,81.068 112.264,79.929L112.468,78.761C112,78.662 111.54,78.564 111.072,78.462ZM132.837,77.553C132.97,76.663 133.09,75.77 133.195,74.873C133.403,74.936 133.624,75.003 133.867,75.063C134.11,75.13 134.388,75.186 134.694,75.242C135,75.295 135.278,75.337 135.531,75.359C135.784,75.38 136.009,75.397 136.227,75.404C136.023,76.29 135.83,77.17 135.65,78.049C135.468,78.928 135.278,79.934 135.077,81.07L134.585,83.866C134.448,84.65 134.318,85.403 134.194,86.131C134.075,86.855 133.973,87.488 133.892,88.023C134.595,88.149 135.295,88.251 136.009,88.336C136.716,88.42 137.44,88.476 138.171,88.504C138.119,88.652 138.077,88.782 138.045,88.905C138.007,89.025 137.972,89.197 137.933,89.415C137.898,89.633 137.869,89.809 137.863,89.932C137.852,90.059 137.852,90.164 137.863,90.249C137.532,90.178 137.123,90.098 136.639,90.003C136.153,89.911 135.485,89.792 134.634,89.637C133.885,89.507 133.273,89.401 132.805,89.317C132.348,89.236 131.979,89.173 131.705,89.123C131.427,89.074 131.216,89.039 131.072,89.021C130.927,89.004 130.808,88.99 130.706,88.99C130.905,88.149 131.095,87.288 131.276,86.405C131.455,85.529 131.645,84.52 131.845,83.384L132.341,80.592C132.542,79.452 132.707,78.439 132.837,77.553Z" style="fill:white;fill-opacity:0.25;"/>
                </g>
                <g transform="matrix(4.16667,0,0,4.16667,129.411,439.971)">
                    <path d="M-2.474,-1.734C-0.967,-1.961 0.824,-2.132 2.785,-2.132C6.339,-2.132 8.869,-1.307 10.547,0.256C12.252,1.819 13.247,4.037 13.247,7.136C13.247,10.262 12.281,12.821 10.489,14.584C8.698,16.374 5.742,17.341 2.018,17.341C0.256,17.341 -1.223,17.256 -2.474,17.114L-2.474,-1.734ZM0,15.209C0.625,15.323 1.535,15.351 2.502,15.351C7.789,15.351 10.66,12.395 10.66,7.221C10.688,2.701 8.13,-0.171 2.899,-0.171C1.62,-0.171 0.653,-0.057 0,0.085L0,15.209ZM26.381,8.187L18.933,8.187L18.933,15.095L27.234,15.095L27.234,17.17L16.459,17.17L16.459,-1.99L26.807,-1.99L26.807,0.085L18.933,0.085L18.933,6.141L26.381,6.141L26.381,8.187ZM30.445,-1.762C31.639,-1.961 33.203,-2.132 35.192,-2.132C37.638,-2.132 39.428,-1.563 40.565,-0.54C41.617,0.37 42.243,1.763 42.243,3.468C42.243,5.203 41.731,6.567 40.765,7.562C39.457,8.955 37.325,9.666 34.909,9.666C34.169,9.666 33.487,9.637 32.919,9.495L32.919,17.171L30.445,17.171L30.445,-1.762ZM32.919,7.477C33.458,7.619 34.141,7.676 34.965,7.676C37.95,7.676 39.769,6.226 39.769,3.582C39.769,1.052 37.979,-0.17 35.25,-0.17C34.169,-0.17 33.345,-0.085 32.919,0.029L32.919,7.477ZM46.279,11.144L44.289,17.171L41.731,17.171L48.241,-1.99L51.225,-1.99L57.764,17.171L55.12,17.171L53.074,11.144L46.279,11.144ZM52.562,9.211L50.685,3.696C50.259,2.445 49.975,1.308 49.691,0.199L49.634,0.199C49.35,1.337 49.036,2.502 48.667,3.668L46.79,9.211L52.562,9.211ZM60.578,-1.735C61.829,-1.99 63.62,-2.132 65.326,-2.132C67.97,-2.132 69.675,-1.649 70.869,-0.569C71.836,0.284 72.376,1.592 72.376,3.07C72.376,5.6 70.784,7.277 68.766,7.96L68.766,8.045C70.244,8.557 71.125,9.921 71.58,11.911C72.206,14.583 72.661,16.431 73.058,17.17L70.5,17.17C70.187,16.63 69.76,14.981 69.22,12.593C68.652,9.95 67.629,8.955 65.383,8.869L63.052,8.869L63.052,17.17L60.578,17.17L60.578,-1.735ZM63.052,6.993L65.581,6.993C68.226,6.993 69.902,5.543 69.902,3.354C69.902,0.881 68.112,-0.199 65.496,-0.228C64.302,-0.228 63.45,-0.114 63.052,-0.001L63.052,6.993ZM79.766,0.114L73.938,0.114L73.938,-1.99L88.124,-1.99L88.124,0.114L82.268,0.114L82.268,17.171L79.766,17.171L79.766,0.114ZM91.223,11.144L89.233,17.171L86.675,17.171L93.185,-1.99L96.169,-1.99L102.708,17.171L100.064,17.171L98.018,11.144L91.223,11.144ZM97.506,9.211L95.629,3.696C95.203,2.445 94.919,1.308 94.635,0.199L94.578,0.199C94.294,1.337 93.98,2.502 93.611,3.668L91.735,9.211L97.506,9.211ZM121.556,8.756C121.413,6.084 121.243,2.871 121.271,0.483L121.186,0.483C120.532,2.729 119.737,5.117 118.77,7.761L115.387,17.057L113.511,17.057L110.412,7.932C109.502,5.231 108.735,2.758 108.195,0.483L108.138,0.483C108.081,2.871 107.939,6.084 107.768,8.955L107.257,17.171L104.897,17.171L106.233,-1.99L109.388,-1.99L112.657,7.278C113.453,9.637 114.108,11.741 114.591,13.731L114.676,13.731C115.16,11.798 115.842,9.694 116.695,7.278L120.105,-1.99L123.261,-1.99L124.455,17.171L122.039,17.171L121.556,8.756ZM138.186,8.187L130.738,8.187L130.738,15.095L139.039,15.095L139.039,17.17L128.264,17.17L128.264,-1.99L138.612,-1.99L138.612,0.085L130.738,0.085L130.738,6.141L138.186,6.141L138.186,8.187ZM142.25,17.171L142.25,-1.99L144.951,-1.99L151.091,7.705C152.513,9.95 153.621,11.969 154.531,13.93L154.588,13.902C154.36,11.343 154.304,9.012 154.304,6.027L154.304,-1.99L156.635,-1.99L156.635,17.171L154.133,17.171L148.049,7.448C146.714,5.317 145.434,3.127 144.467,1.052L144.382,1.08C144.525,3.497 144.581,5.8 144.581,8.984L144.581,17.171L142.25,17.171ZM164.595,0.114L158.767,0.114L158.767,-1.99L172.953,-1.99L172.953,0.114L167.097,0.114L167.097,17.171L164.595,17.171L164.595,0.114ZM190.692,7.391C190.692,13.987 186.683,17.483 181.794,17.483C176.733,17.483 173.18,13.56 173.18,7.761C173.18,1.677 176.961,-2.303 182.077,-2.303C187.309,-2.303 190.692,1.705 190.692,7.391ZM175.824,7.704C175.824,11.797 178.041,15.464 181.936,15.464C185.859,15.464 188.076,11.854 188.076,7.505C188.076,3.695 186.086,-0.284 181.964,-0.284C177.87,-0.284 175.824,3.497 175.824,7.704ZM52.787,27.045L45.099,27.045L45.099,24.27L63.813,24.27L63.813,27.045L56.087,27.045L56.087,49.547L52.787,49.547L52.787,27.045ZM69.889,24.269L69.889,39.233C69.889,44.895 72.402,47.296 75.777,47.296C79.527,47.296 81.927,44.821 81.927,39.233L81.927,24.269L85.228,24.269L85.228,39.008C85.228,46.771 81.14,49.958 75.664,49.958C70.489,49.958 66.589,46.997 66.589,39.159L66.589,24.269L69.889,24.269ZM90.89,24.607C92.54,24.269 94.903,24.082 97.154,24.082C100.641,24.082 102.891,24.719 104.467,26.144C105.741,27.269 106.454,28.994 106.454,30.945C106.454,34.282 104.354,36.495 101.691,37.395L101.691,37.507C103.641,38.183 104.804,39.983 105.404,42.608C106.229,46.133 106.829,48.571 107.354,49.546L103.979,49.546C103.566,48.833 103.004,46.658 102.291,43.508C101.541,40.02 100.191,38.708 97.228,38.595L94.153,38.595L94.153,49.546L90.89,49.546L90.89,24.607ZM94.153,36.12L97.491,36.12C100.979,36.12 103.191,34.207 103.191,31.32C103.191,28.057 100.828,26.632 97.379,26.594C95.803,26.594 94.678,26.744 94.153,26.894L94.153,36.12ZM111.066,24.269L114.329,24.269L114.329,49.546L111.066,49.546L111.066,24.269ZM119.58,45.571C121.042,46.471 123.18,47.221 125.431,47.221C128.768,47.221 130.718,45.459 130.718,42.908C130.718,40.546 129.368,39.195 125.955,37.883C121.83,36.42 119.28,34.283 119.28,30.72C119.28,26.782 122.543,23.857 127.455,23.857C130.043,23.857 131.918,24.457 133.043,25.095L132.143,27.757C131.319,27.307 129.631,26.557 127.343,26.557C123.893,26.557 122.58,28.62 122.58,30.345C122.58,32.707 124.118,33.87 127.606,35.22C131.881,36.871 134.056,38.933 134.056,42.646C134.056,46.546 131.168,49.921 125.206,49.921C122.768,49.921 120.105,49.209 118.755,48.309L119.58,45.571ZM159.82,38.445C159.633,34.92 159.408,30.682 159.445,27.532L159.333,27.532C158.47,30.495 157.42,33.645 156.145,37.132L151.682,49.396L149.207,49.396L145.119,37.358C143.919,33.795 142.906,30.532 142.194,27.532L142.119,27.532C142.044,30.682 141.857,34.92 141.632,38.708L140.956,49.546L137.844,49.546L139.606,24.269L143.769,24.269L148.082,36.495C149.132,39.608 149.994,42.383 150.632,45.008L150.744,45.008C151.382,42.458 152.282,39.683 153.408,36.495L157.908,24.269L162.07,24.269L163.645,49.546L160.458,49.546L159.82,38.445ZM190.272,36.646C190.272,45.346 184.985,49.959 178.534,49.959C171.858,49.959 167.17,44.784 167.17,37.133C167.17,29.107 172.158,23.857 178.909,23.857C185.809,23.857 190.272,29.145 190.272,36.646ZM170.658,37.058C170.658,42.458 173.583,47.296 178.721,47.296C183.897,47.296 186.822,42.533 186.822,36.795C186.822,31.77 184.196,26.52 178.759,26.52C173.358,26.52 170.658,31.507 170.658,37.058ZM-2.473,24.572C-0.509,24.277 1.826,24.053 4.382,24.053C9.016,24.053 12.314,25.127 14.498,27.167C16.722,29.204 18.019,32.094 18.019,36.134C18.019,40.21 16.758,43.544 14.426,45.84C12.091,48.176 8.238,49.437 3.383,49.437C1.084,49.437 -0.841,49.325 -2.473,49.138L-2.473,24.572ZM0.752,46.658C1.567,46.806 2.752,46.842 4.014,46.842C10.905,46.842 14.646,42.989 14.646,36.246C14.685,30.353 11.348,26.609 4.533,26.609C2.864,26.609 1.603,26.76 0.752,26.944L0.752,46.658ZM35.153,37.504L25.444,37.504L25.444,46.507L36.263,46.507L36.263,49.214L22.218,49.214L22.218,24.238L35.708,24.238L35.708,26.944L25.444,26.944L25.444,34.837L35.153,34.837L35.153,37.504Z" style="fill:white;"/>
                </g>
            </g>
        </g>
    </g>
</svg>
