<svg fill="currentColor" xmlns="http://www.w3.org/2000/svg" viewBox="0 0 640 512"><path d="M319.9 496.1c-132.4 0-240-107.5-240-240S187.5 16 320 16a240.1 240.1 0 0 1 0 480.1m108.7-108c-11.1 31.2-26.1 57.3-43.7 76a217.6 217.6 0 0 0 108.3-76zm-281.9 0a217.6 217.6 0 0 0 108.3 76c-17.6-18.8-32.6-44.8-43.7-76zm-44.2-118.2c2 31.9 10.9 61.9 25.2 88.6h74.6A409.6 409.6 0 0 1 190 269.9zm389.2-147.7A217.6 217.6 0 0 0 384.9 48c17.2 18.4 32 43.8 43.1 74.1zm45.4 118.2a217.6 217.6 0 0 0 -26-88.6h-74c7.1 27.1 11.5 57.1 12.6 88.6zm-25 118.2a217.6 217.6 0 0 0 25.2-88.6h-87.5c-1 31.6-5.2 61.5-12.2 88.6zM128.7 151.7a217.6 217.6 0 0 0 -26 88.6H190c1.2-31.6 5.6-61.5 12.7-88.6zm83.2-29.5C223 91.9 237.8 66.4 255 48.1a217.6 217.6 0 0 0 -106.9 74.1zm93.3-83.5q-3.3 .2-6.6 .5c-24.8 11.1-46.3 41.3-61.1 83h21.1a89.6 89.6 0 0 0 -21.4 29.5h-8.6a425.6 425.6 0 0 0 -11.9 88.6h30.2a134 88.6 0 0 0 9.6 11l-3.2 18.6H216.6c.9 31.8 5 61.8 11.5 88.6a694.8 459.7 0 0 0 8.7 29.5c14.8 42.6 36.6 73.5 61.8 84.8q3.3 .3 6.6 .5v-67.8h29.5v67.8a147.9 97.9 0 0 0 6.6-.6c25.2-11.3 47-42.2 61.8-84.8a694.8 459.7 0 0 0 8.7-29.5c6.6-26.8 10.6-56.8 11.5-88.6H383l-3.2-18.6a134 88.6 0 0 0 9.6-11h33.9a425.6 425.6 0 0 0 -11.9-88.6h-12.3a89.6 89.6 0 0 0 -21.4-29.5h24.8c-14.8-41.7-36.4-71.8-61.1-83a147.9 97.9 0 0 0 -6.6-.5v62a60 39.7 0 0 0 -16.6-1.5q-6.6 0-12.9 1zM278.7 243.6a68.4 68.4 0 1 1 107.7-55.8c0 23-11.4 43.4-28.9 55.8l28.9 143.6H249.8zm25.5-11.8-26.8 133.2h81.2l-26.8-133.2a46.2 46.2 0 0 0 -13.9-90.2 46.2 46.2 0 0 0 -13.8 90.2"/></svg>