<svg fill="currentColor" xmlns="http://www.w3.org/2000/svg" viewBox="0 0 640 512"><path d="M610.1 128.3h-7.4l-1.9-5.8h-6l-1.6 5.7h-7.1l7.2-26.2h9.3zm-12-19-.7 .1-1.6 7.2h4zM264.3 205.2c0 42-.2 83.9 .2 125.9c.1 10.3-3.5 17.3-11.6 23.6c-35 27.4-69.8 55.2-104.6 82.8l-9.5 7.5c-4.6 3.7-9 3.6-13.6-.1L25.7 366Q15.7 358 5.8 350A15.3 15.3 0 0 1 .1 338q-.1-12.5 0-25.2V74.2c0-1.2-.1-2.5 0-3.7a6.6 6.6 0 0 1 6.4-6q2.2-.1 4.4-.1h243.5c7.8 0 9.9 2.1 9.9 9.9zm-113.6 49.9H76.9c-3.5 0-6.9-.1-10.4 .1c-5.1 .3-7.5 2.7-7.6 7.8c-.1 4.6 0 9.2 0 13.8v10.8h56.9v102.9h34.9zM90.6 157.5h.7l29.4 70H146c2.7-3.8 3.4-7.4 .9-11.5c-1.7-2.9-2.9-6-4.3-9.1l-43.9-97.6c-1.2-2.6-2.8-3.7-5.7-3.7c-8.4 .1-16.8 0-25.2 .1c-6.7 .1-9 2.3-9 9.2V237q.1 1.9 .3 3.8h31.4zM207.7 241c.1-1.8 .3-3.3 .3-4.7V114.4q0-1.7-.1-3.4c-.4-3.8-2-5.3-5.9-5.4H173.8c-2.8 0-4.6 1.2-5.8 3.7l-29.2 64.4a6.4 6.4 0 0 0 .1 4.4q5.2 12.1 10.7 24.2l3.9 8.4 22.4-53.1 .9 .2V241h31zm-50.4 46.4h50.4c0-8.9 .1-17.4 0-25.9c-.1-3.5-2.7-6-6.3-6.1q-21-.2-42-.3c-.6 0-1.3 .3-2.1 .5zM631.9 185.6c.6-13.6-8-17.7-23.1-11.1l-1.5-3.3c6.4-3.6 12.9-5.1 19.8-3c6.1 1.9 9.1 6.6 9.5 12.5c.5 9.5 .5 19 .7 28.5q.1 2.4 .3 5.2h-4.2l-1-5.8a18.9 18.9 0 0 1 -15.8 6.9c-5.4-.3-9.5-2.6-11.5-7.7a13.4 13.4 0 0 1 2.6-14.7c3.9-4.3 9.2-5.9 14.7-6.6c3.1-.4 6.2-.6 9.5-1m.1 4.4c-6.4-.1-12.4 .1-17.8 3.2a9.6 9.6 0 0 0 -5.1 9.5c.2 3.5 1.5 6.3 4.8 7.9c7.2 3.5 17.4-2.2 18-10.1c.3-3.3 0-6.7 0-10.5m-216.4 24.5h-3.9l-.7-7.2-2.2 2.4a17.3 17.3 0 0 1 -18 5.2 13.8 13.8 0 0 1 -10.5-13.3c-.5-10.9-.1-21.8-.1-33h4.3v3.8c.1 8.5-.1 17 .3 25.5c.5 9.2 4.7 13.6 12.1 13.4a14.4 14.4 0 0 0 14-14.3c.3-8.2 .1-16.3 .1-24.5v-3.9h4.7zm-85.1-60.7v-4.1h46.7v4h-20.8v60.7h-5V153.8zm265.7 54.9q.5 1.9 1.1 3.3c-7.7 5.8-22.5 4.3-29.4-2.9c-8-8.4-8.5-24.1-1-33.4c6.9-8.6 21.3-11.2 30.6-5.4l-1.3 3.5c-10.4-3.6-20.3-4.4-26.9 6.5a23 23 0 0 0 1.9 25.2q8.2 9.5 25 3.2m-119.8 3.6 1.3-3.1c4.3 .8 8.2 1.9 12.1 2.1a8.5 8.5 0 0 0 9-6c1.2-4.1-.5-8-4.7-10.4c-3.6-2-7.6-3.4-10.9-5.7c-7.5-5.1-7.2-14.8 .3-19.5a17 17 0 0 1 13.6-1.7c1.8 .4 3.5 1.3 5.5 2.1l-1.4 3.2c-3.9-.6-7.4-1.5-10.8-1.7a7.2 7.2 0 0 0 -7.4 5.6c-.9 3.6 .2 6.5 3.7 8.5c3.2 1.8 6.7 3.2 9.9 4.9c4.2 2.2 7.1 5.4 7.4 10.4c.4 7.3-3.2 12.2-10.4 13.9a22.2 22.2 0 0 1 -17-2.6zm41-39.9H510v-4h7.2v-8.2l5.1-2.2v10.2h12.9v4.1h-12.8v28c0 10.1 1.6 11.6 11.9 10.8l.5 3.1c-10.8 3.9-16.9-1.2-17.1-9.3c-.2-9.2-.2-18.3-.3-27.5zm-81.6 42.2h-4.9v-46h3.9l.5 7.1c2-2.1 3.8-4.7 6.1-6.2c2.4-1.4 5.4-1.9 8.7-2.9v4.8l-.5-.7c-3.3 1.8-7.1 3-9.7 5.5c-3.4 3.1-4.2 7.8-4.2 12.4v26zm28.8-46.1v46h-4.4v-46zm85.4 .1v45.9h-4.5V168.5zm-205.1-51.1 4-15.4h9.2l1.4 26.2h-6.8l-.8-16.4-.3-.1-4.5 16.1h-5.5L338 113h-.9v15.3h-6.8l1.5-26.1h9.4zm70.5 10.8h-7.2l-8.2-16.7v16.6h-6.2V102.1h8.1l7.4 15.1V102.1h6.1zm200.1-.3v-25.8c5.4-.4 10.8-1.1 16 .8c4.5 1.6 7.1 5.9 7.1 11.5c-.1 5.6-1.9 10.2-7.4 12.8a29.8 29.8 0 0 1 -15.7 .8m7.2-5.3q4.9 1 7.3-2.9c1.6-2.6 1.5-7.7-.2-9.9c-1.8-2.3-4.3-2.8-7.1-2.3zm-62.8 5.6v-23.9q.1-.9 .3-2.1c4.6 0 9.3-.5 13.7 .2c5.4 .8 8.5 4.9 9.1 10.2c.7 6.6-1.9 12.1-6.9 14.4c-5.1 2.3-10.4 1.9-16.2 1.3zm7.2-5.6c3.2 .7 5.8-.2 7.3-2.8a9 9 0 0 0 -.1-9.8c-1.7-2.6-4.4-3-7.3-2.6zM502.3 102h9.2l7.5 26.2h-7.4l-1.8-5.7h-6l-1.7 5.8H495zm4.4 5.8-1.9 9.1 4-.2zm-140.8-5.7h6.5v13.1c0 1.7-.1 3.5 .6 5c.5 1.2 2.1 2.6 3.2 2.6s3-1.4 3.3-2.5c.6-2.6 .6-5.3 .6-8c.1-3.3 0-6.6 0-10.2h6.4c0 6.4 .5 12.9-.2 19.2c-.6 5.3-4.6 7.5-10.7 7.5c-5.6-.1-9.1-2.3-9.7-7.7c-.6-6.2-.1-12.5-.1-19m108.5 0c4.2 0 8.3-.4 12.4 .1c4.3 .5 6.8 4 6.7 8.3a8.6 8.6 0 0 1 -7.6 8.8c-1.5 .3-3.1 .3-4.9 .5v8.5h-6.6zm6.7 12.8c2.2-1.2 3.8-1.8 4.9-2.9c.5-.6 .4-2.8-.2-3.3c-1.2-1-2.9-1.2-4.7-1.8zm-27.3 7.2 1 5.2c-5.5 2.9-13.2 1.6-17-2.7c-4-4.6-4.2-13-.3-18.1c3.8-5 11.5-6.6 17.8-3.6l-1.3 5.2c-3.9-.8-7.8-1.5-10.5 2.3a8.3 8.3 0 0 0 -.3 9.2c2.5 4.2 6.6 3.4 10.7 2.6m70.8-20.1h6.6v20.2h9.4v6.1h-16zm28.4 .1v26.1h-6.8v-26.1zm-85.8-.1v26.2h-6.5v-26.2zm-38.4 0v26.2h-6.4v-26.2zm33.2 59.5h-3.9l8.5-13.2h7zm89.3-6.3c0 2.6-1.4 4.1-3.9 4c-2.3 0-3.6-1.5-3.6-3.9c-.1-2.5 1.3-4.2 3.7-4.2c2.5-.1 3.7 1.6 3.8 4zM345.7 294.1a25.6 25.6 0 0 1 -15.2-4.9l3.5-7c2.7 2.3 7.6 4.4 11.9 4.4s7.2-2.6 7.2-6.1c0-9.8-21.6-5-21.6-21.2c0-7 5.5-12.7 16.4-12.7c5.4 0 10.1 1.2 13.9 3.1l-3 7.2c-2.6-1.5-6.7-2.6-11-2.6s-7 1.4-7 4.8c0 8.3 21.7 5.1 21.7 20.8c0 7.3-6.1 14.2-16.8 14.2m24.2-.7V247.3h28.7v7.6h-19.6v11.4h15l-.7 7.9h-14.3V286h19.6v7.5zm45.1 0h-9V247.2h15c9.2 0 16.6 4.3 16.6 13.9c0 6.2-3.6 10.9-8.8 13.3c3.2 6.4 6.6 12.6 9.9 19H428l-7.7-17.4c-2 .1-3.5 .1-5.4 .1zm4.5-39.2h-4.5V269h4.5c5.9 0 8.4-2.7 8.4-7.9s-2.9-6.8-8.4-6.8m47.8 39.2-14.5-36.3h-.3l.6 36.3H445V247.3h13.9l14.7 37.1h.3l-.6-37.1h8.4v46.1zm28.7 0h-8.8l12.6-46.1h15l12.2 46.1h-10.1l-2.4-10.4h-16zm9.3-38.3-5.1 20.6h12.7l-4.8-20.6zm39.2-.3v38.6H535V254.8h-11.3v-7.6H556v7.6zm52.4 21.1c0 9.7-5.3 18.1-17.6 18.1s-17.5-8.2-17.5-18.1v-28.7h9.1v28.1c0 6.8 2.7 11.1 8.5 11.1c5.8 0 8.3-4.4 8.3-11.1v-28.1h9.2zm18.2 17.4h-9V247.3h15c9.2 0 16.6 4.3 16.6 13.9c0 6.2-3.6 10.9-8.8 13.3c3.3 6.4 6.7 12.6 9.9 19h-10.7l-7.7-17.4c-2 .1-3.4 .1-5.4 .1zm4.5-39.2H615V269h4.5c5.9 0 8.4-2.7 8.4-7.9s-3-6.8-8.4-6.8M640 302.7v11.1H329.2v-11.1z"/></svg>