<svg fill="currentColor" xmlns="http://www.w3.org/2000/svg" viewBox="0 0 640 512"><path d="M560 256a240 240 0 1 1 -480 0 240 240 0 0 1 480 0m-188.4 193.5-.7 .2 2.7 10.3 .7-.2zm-145-4.6 4.8-9.3-2.1-1.2q-2.8-1.4-4.8-.7a6.4 6.4 0 0 0 -3.1 2.9 5.1 5.1 0 0 0 -.5 3.9q.5 1.9 3.2 3.3zm3.8-9.1-4.3 8.3a9.6 9.6 0 0 1 -1.8-.7c-3-1.6-3.5-3.9-2.3-6.3c1.4-2.7 3.8-3.6 6.8-2.1zm268-89.1-.4 .7 9.5 4.8 .4-.7zm-127.5 113.9-2.5-10.3-5.3 1.3 .2 .6 4.6-1.1 2.3 9.7zm17.3-5.1 .7-.2-2-6.1c-1-3.1-2.9-3.6-4.7-3c-1.9 .6-3.2 2.3-2.2 5.4l2 6 .7-.2-2-6.1c-.8-2.5 0-3.9 1.7-4.5c1.5-.5 3 .1 3.9 2.7zm131-170.3-.6-.4a4.8 4.8 0 0 0 -1.1 2.4c-.4 2.2 .8 3.6 2.3 3.8c1.5 .3 2.5-.5 3.5-2.1c.9-1.4 1.5-2 2.7-1.8c.8 .1 1.8 .9 1.6 2.6a3.2 3.2 0 0 1 -.8 1.8l.6 .4a3.8 3.8 0 0 0 .8-2c.3-1.8-.6-3.2-2.2-3.5c-1.4-.2-2.4 .6-3.3 2.2c-.8 1.4-1.6 1.9-2.8 1.7c-1.3-.2-2-1.3-1.8-2.9a4.2 4.2 0 0 1 1.1-2.2m-128.7 163.6-2.1-4.6-.7 .3 4.5 9.6 .8-.4v-6.6l-.2-3.6 .1 0q1 1.2 2.3 2.8l4.4 4.9 .8-.3-3.1-10.1-.7 .3 1.5 4.7c.5 1.7 1.1 3.4 1.5 4.6q-1.1-1.4-2.8-3.3l-4-4.5-.5 .2v6.2c0 1.7 0 3 .1 4.2c-.4-1.1-1.3-2.8-1.9-4.3m-26.9 13.5 .7-.2-1.2-6.3c-.6-3.2-2.5-3.9-4.3-3.6c-2 .4-3.5 1.9-2.8 5.1l1.2 6.2 .7-.1-1.2-6.3c-.5-2.6 .4-3.9 2.2-4.3c1.5-.3 3 .5 3.5 3.1zm59.4-34.2 .5 .4a6.4 6.4 0 0 1 1.8-1.7c2.4-1.5 4.8-.8 6.3 1.7c1.6 2.6 1.1 5.1-1.3 6.6a6.4 6.4 0 0 1 -2.1 .8l.1 .7a6.4 6.4 0 0 0 2.3-.9c2.8-1.8 3.3-4.9 1.6-7.6c-2-3.2-4.9-3.3-7.1-1.9a6.4 6.4 0 0 0 -2.2 2m94.3-114.8 .6 .2 1.1-4.1 3.9 1.1-1.2 4.3 .6 .2 1.4-5.1-10.2-2.8-1.5 5.3 .6 .2 1.3-4.6 4.5 1.2zm-14.5 24.4-.3 .7 4.9 2.3c1.6 .7 2.7 1.2 3.9 1.7q-1.9 .1-4 .4l-7.3 1.1-.3 .6 9.6 4.5 .3-.6-4.8-2.2c-1.5-.7-2.6-1.2-3.9-1.7a32 32 0 0 0 3.9-.4l7.4-1.1 .3-.6zm-12.7 30.9-2.4 3.5-3.8-1-.4 .6 10.9 2.8 .4-.6-6.7-9.2-.4 .6zm-1.7 3.6 2.1-3.1 2.2 3.1 1.2 1.5-1.9-.6zm2.7 7-8.5-6.3-3.3 4.4 .5 .4 2.8-3.8 8 5.9zm-180.2 81.8-.2-5-.8 0 .4 10.7 .9 0 2.5-6.1c.5-1.4 1-2.4 1.2-3.4h.1c.3 1.1 .6 2.1 1.1 3.5l2.1 6.2 .9 0 1.1-10.6h-.8l-.4 4.9-.4 4.9c-.3-1.2-.7-2.5-1.3-4.1l-2-5.7-.5 0-2.4 5.7c-.7 1.6-1.1 2.8-1.6 3.9c0-1.2-.1-3.1-.1-4.7m-4.6 5.3 .8 .1 .5-6.4c.3-3.3-1.3-4.4-3.2-4.6c-2-.2-3.8 .9-4.1 4.1l-.5 6.3 .8 .1 .5-6.4c.2-2.6 1.5-3.6 3.3-3.5c1.5 .1 2.7 1.2 2.5 3.9zm-8.1-11.4-.7-.1-.7 5.3c-.2 1.8-.4 2.9-.5 4.2q-.6-1.7-1.6-3.6l-3.2-6.7-.7-.1-1.3 10.6 .7 .1 .7-5.2a32 32 0 0 0 .4-4.3c.4 1.1 .9 2.1 1.6 3.6l3.3 6.8 .7 .1zM513.4 256a193.4 193.4 0 1 0 -386.8 0 193.4 193.4 0 0 0 386.8 0M232.9 150.4h173.8v189a27.2 27.2 0 0 1 -27.3 27.3h-44.8a13.1 13.1 0 0 0 -13.2 13.1h-3.2a13.1 13.1 0 0 0 -13.2-13.1h-45a27.3 27.3 0 0 1 -27.3-27.3zm170.8 189v-186H235.9v186c0 13.4 10.8 24.3 24.3 24.3h45c6.6 0 12.2 3.9 14.8 9.5a16 16 0 0 1 14.6-9.5h45a24.3 24.3 0 0 0 24.3-24.3M289.3 173.6l-.2 .9a8 8 0 0 1 -4.1 .9 9.6 9.6 0 0 1 -3.1-.5 6.4 6.4 0 0 1 -2.3-1.5 8 8 0 0 1 -2-5.2q0-2.3 .6-3.9a7.7 7.7 0 0 1 1.7-2.6 6.4 6.4 0 0 1 2.5-1.5 9.6 9.6 0 0 1 5.2-.2 9.6 9.6 0 0 1 1.9 .8l-.5 2.3H289a6.4 6.4 0 0 0 -1.6-1.5 3.2 3.2 0 0 0 -1.9-.4 3.2 3.2 0 0 0 -1.6 .4 3.2 3.2 0 0 0 -1.5 1.2 6.4 6.4 0 0 0 -1.1 2.1 9.6 9.6 0 0 0 -.4 3q0 1.7 .4 2.9q.4 1.2 1.1 2a3.2 3.2 0 0 0 1.5 1.1 6.4 6.4 0 0 0 1.7 .4q.5 0 1-.1a6.4 6.4 0 0 0 1.9-.8l.7-.7 .3 .2zm16.4 178.8-.1-1.7 .4 0 .5 0 .5 0 .4 0-.1 1.7v5.5q0 .8 .1 1.6h-1.9l.1-1.6zm-6.3 1.8-.7-1.4-.6-1.2-.4-.8 .5 0 .5 0 .5 0 .5 0 .7 1.6 .7 1.6 .9-1.6 .8-1.6 .3 0 .3 0 .3 0 .3 0-.5 .7-.6 1-.7 1.1-.6 1 .6 1.3 .7 1.4 .6 1.2 .5 .9h-2l-1.5-3.2-.9 1.6-.9 1.6h-1.2l.5-.8 .6-1 .7-1.1 .6-1.1zm-9.2 1.8h2.9v1.4h-2.9zM252.9 162.8l-.1-2.9 .7 .1 .9 0 1.4-.1 1.4-.1a6.4 6.4 0 0 1 2.2 .3q.8 .2 1.2 .7a3.2 3.2 0 0 1 1 1.3 3.2 3.2 0 0 1 .3 1.7 6.4 6.4 0 0 1 -.4 2.2 3.2 3.2 0 0 1 -1.1 1.5 4.5 4.5 0 0 1 -1.6 .8 6.4 6.4 0 0 1 -2 .3h-1l0 3.3q0 1.6 .2 3.3l-.7 0h-1.8l-.7 0 .1-2.8 .1-3.3v-3zm5.8 0a3.2 3.2 0 0 0 -.5-.9l-.7-.5-.8-.2h-.8l0 3.1 0 3.1q.5 0 1.1-.1a3.2 3.2 0 0 0 1-.4 3.2 3.2 0 0 0 .7-1 6.4 6.4 0 0 0 .1-3.1m81.1 0-.1-2.9 1.8 .1 1.8 .1 2.6 0 1.5-.1-.1 .9v.6l.1 .4-1.2-.1-1.3-.1-1.2-.1-.7 0-.1 2.4v2.4l2.3-.1 2.2-.1-.1 .6v.4l0 .4 .1 .5a32 32 0 0 0 -4.5-.2l0 1.4v1.4l.1 2.8 2.3-.1 2.3-.2-.1 .4v1.1l.1 .4-1.3 0-2.1 0h-3.2l-.7 0-.4 0 .1-6v-3zm15.3 7.4-.3 5-.5 0h-.9l-.5 0a224 224 0 0 0 2-15.2l.4 .1 .4 0 .4 0 .4-.1 1.1 2.7 1.2 2.7 1.2 2.7 1.1 2.5a160 160 0 0 0 4.6-10.6 3.2 3.2 0 0 0 1.7 0l.4 4.1 .4 4.3 .4 3.9 .4 2.9-.8 0h-1.6l-.8 0-.3-4.9-.5-5.3-2.3 5.2-2.1 5.1-.2 0h-.4l-.2 0-2.1-5-2.2-5a96 96 0 0 0 -.5 5m24.3 5a6.4 6.4 0 0 1 -1.9-1 4.8 4.8 0 0 1 -1.3-1.8 6.4 6.4 0 0 1 -.5-2.7v-1.6l0-1.3v-5.2l-.1-1.7 .8 .1 .8 0 .8 0 .8-.1-.3 4 0 3.7q0 2 .3 3.3a6.4 6.4 0 0 0 .8 1.9 3.2 3.2 0 0 0 1.2 .9 6.4 6.4 0 0 0 1.7 .2 2.6 2.6 0 0 0 1.9-.6 4.2 4.2 0 0 0 1-1.8 9.6 9.6 0 0 0 .4-2.5q.1-1.4 .1-3l0-3-.1-3 .5 .1 .5 0 .5 0 .5-.1a32 32 0 0 0 -.2 3.2l-.1 2.4 0 2.7q0 3.8-1.5 5.5q-1.5 1.6-4.4 1.7a9.6 9.6 0 0 1 -2.4-.3M274.8 357.4a9.6 9.6 0 0 0 1.6-2.8l.2-1.2-.1-.9-.3-.6-.4-.3-.4-.1a.6 .6 0 0 0 -.5 .2l-.4 .5-.2 .6-.1 .6-.1 0-.4-.4-.4-.4a2.2 2.2 0 0 1 .8-1.2 3.2 3.2 0 0 1 1.6-.5q.8 0 1.3 .2q.5 .2 .8 .5l.4 .7 .1 .8a3.2 3.2 0 0 1 -.1 .9 3.2 3.2 0 0 1 -.5 1 9.6 9.6 0 0 1 -1 1.3l-1.6 1.7h1.6l1.6-.1 0 .4 0 .4 0 .4 0 .4h-5.1v-.5zm51.3-194.5-.1-2.9 .7 .1 .9 0 .9 0 .7-.1-.1 2.9 0 3.3v5.4l0 2q1.2 0 2.3-.1l2.3-.2-.1 .4 0 .5 0 .5 .1 .4-1.3 0-2.1 0H327l-.7 0-.4 0a96 96 0 0 0 .2-6v-3zm61.4 20.9v141.5a20.2 20.2 0 0 1 -20.2 20.3h-38.4a8 8 0 0 0 -8.1 8.1h-2a8.1 8.1 0 0 0 -8.1-8.1h-38.4a20.2 20.2 0 0 1 -20.2-20.2V183.8zm-37.4 2v59.5c2.4-2.6 8.4-10.1 14.2-24.3c6.5-16 8.4-30.8 8.9-35.2zm-5.5 22.2 4.1 1.8v-16.6a128 128 0 0 1 -4.1 14.8m24.3 4.4 4.4 1.6v-19.1c-.9 4.8-2.2 10.9-4.4 17.5m-50.1 70.8v-10q-.2 .1-.4 .1c-.2 0-13.5-2-27.9 9.3c-9.5 7.5-13.5 16.5-16.4 23.2a32 32 0 0 1 -4 7.6c-1.2 1.5-2.9 1.7-4.3 1.7l-.2 0a4.8 4.8 0 0 1 -4-2.3 4.7 4.7 0 0 1 -7.3 1.1v11.4l.1 .4c0 1.9 1.5 3.4 3.4 3.4a3.4 3.4 0 0 0 3.3-3.4c0-.4 .4-.7 .8-.7c.4 0 .7 .3 .7 .7a3.4 3.4 0 1 0 6.7 0c0-.4 .4-.7 .7-.7s.8 .3 .8 .7c0 1.9 1.5 3.4 3.3 3.4l.2 0c1.5 0 2.5-.4 3.1-1.2c1.4-1.7 2.3-3.8 3.5-6.3c2.2-4.9 4.9-11 12.8-16.8c4-2.9 7.9-4.8 11.3-6a12.8 12.8 0 0 1 -7.3-11.1c0-5.3 3.8-10 9.2-12a3.2 3.2 0 0 1 1.2-.2c2 0 3.7 1.7 3.7 3.7a3.7 3.7 0 1 1 -7.4 0l.1-.7a11.2 11.2 0 0 0 -5.4 9.2c0 4.5 3.2 8.5 7.8 10.4c6-1.8 10.5-1.6 11.2-1.6l.7 0V284.8l-9.3 6-.4 .1a.6 .6 0 0 1 -.6-.4 .6 .6 0 0 1 .2-1zm-26.1 18.1a5.3 5.3 0 0 1 -3.6-9.3 5.4 5.4 0 0 1 1.2-6.5c.3-.3 .7-.3 1 .1a.6 .6 0 0 1 -.1 1 3.9 3.9 0 0 0 2.6 6.9 3.8 3.8 0 0 0 2.1-.6 .7 .7 0 0 1 1 .2 .7 .7 0 0 1 -.2 1 5.4 5.4 0 0 1 -6.8-.8 3.9 3.9 0 0 0 2.8 6.7 4.2 4.2 0 0 0 2.7-1.1c.3-.3 .7-.3 1 0s.3 .7 0 1a5.4 5.4 0 0 1 -3.6 1.4m-38.1 27.9a18.2 18.2 0 0 0 17.8 14.3h38.4c3.3 0 6.2 1.6 8.1 4.1v-21.1a16 16 0 0 1 -4.3 .6c-7.7 0-14-5.6-14-12.6c0-5.4 4-10.2 9.6-11.9h.1l.2-.1 .9-.1a3.8 3.8 0 1 1 0 7.6 3.8 3.8 0 0 1 -3.7-4.8 10.9 10.9 0 0 0 -5.6 9.3c0 6.1 5.6 11.1 12.6 11.1a16 16 0 0 0 4.3-.6v-12.1l-8.3 5.3-.4 .1a.6 .6 0 0 1 -.6-.3 .7 .7 0 0 1 .2-1l9-5.8v-11.5a17.9 17.9 0 0 1 -12-.3 41.6 41.6 0 0 0 -12.4 6.3 35.2 35.2 0 0 0 -12.4 16.2 32 32 0 0 1 -3.6 6.6c-1.2 1.5-3 1.7-4.3 1.7l-.2 0c-1.7 0-3.2-1-4-2.3a4.8 4.8 0 0 1 -8.2 0 4.8 4.8 0 0 1 -7.1 1.2m49.1-.7c.2 .3 .1 .8-.2 1a5.3 5.3 0 0 1 -6.7-.7 5.4 5.4 0 0 1 -8.6-4.3c0-1.5 .6-2.9 1.7-3.9a5.4 5.4 0 0 1 1.2-6.6 .6 .6 0 0 1 1 .1c.3 .3 .3 .8-.1 1a3.9 3.9 0 0 0 4.6 6.3l.4-.4a.7 .7 0 0 1 1 .1 .7 .7 0 0 1 -.1 1l-.3 .2-.1 .1a3.9 3.9 0 0 0 5.1 5.9 .7 .7 0 0 1 1 .2m-10.2-.1a3.8 3.8 0 0 0 2.4-.8 5.1 5.1 0 0 1 -.7-2.6 6.4 6.4 0 0 1 .3-1.7l-.9 .1a5.4 5.4 0 0 1 -3.8-1.6 3.8 3.8 0 0 0 -1.2 2.8c0 2.1 1.8 3.9 3.9 3.9m25.3-30.1v-.4h-.8a32 32 0 0 0 -8.6 .9q1.9 .4 3.9 .4q3 0 5.6-1m2 10v6.1l14.9-1.9-9.9-.9a.6 .6 0 0 1 -.5-.5q.1-.4 .5-.5l10.2-.9zm10.4-74.8 17.5 6.9v-10l-11.9-5.1a96 96 0 0 1 -5.5 8.2m-10.4 10.8v10.2a3.3 3.3 0 0 0 3.1-3.3q.1-.7 .7-.7q.4 0 .6 .3a.6 .6 0 0 1 .1 .4 3.4 3.4 0 0 0 6.7 .1zm36.2-5.9 16.3 7.1V227.2l-8.8-3.1a96 96 0 0 1 -7.5 14.2m-38.2 33.5v-6.2H254.1v45.6a3.4 3.4 0 0 0 6.6-1c0-.4 .3-.7 .7-.7h.1c.4 0 .7 .3 .7 .7c0 1.9 1.5 3.4 3.3 3.4h.2c1.5 0 2.5-.4 3.1-1.2c1.3-1.6 2.5-4.2 3.9-7.3c3-6.8 7.1-16 16.8-23.7c15-11.8 28.5-9.7 29.1-9.6zm54-20.7 .1-.3a.6 .6 0 0 1 .4-.4V247l-17-7.4-1.3 1.9c-1.9 2.8-3.5 4.4-4.3 5.3l5.9 4.9 0-.6q0-.4 .3-.6q.2-.1 .4-.1c.4 0 .7 .4 .7 .7a3.4 3.4 0 0 0 6.7 0q.1-.7 .7-.7c.4 0 .7 .3 .7 .7a3.4 3.4 0 0 0 3.3 3.3 3.4 3.4 0 0 0 3.4-3.4m-93.1 12.5v-7.7l-.4 0a4.8 4.8 0 0 1 -4.1-2.3 4.8 4.8 0 0 1 -4.1 2.3 4.8 4.8 0 0 1 -4.1-2.3 4.8 4.8 0 0 1 -4.1 2.3 4.8 4.8 0 0 1 -4.1-2.3 4.8 4.8 0 0 1 -4.9 2.2v7.8zm57.7-39.6 11.2 4.8v-17.5l-4.6-2a96 96 0 0 1 -5.8 13.2zm48.1 39.6v-7.7a4.8 4.8 0 0 1 -3.8-2.3 4.8 4.8 0 0 1 -4.1 2.3 4.8 4.8 0 0 1 -4.1-2.3 4.8 4.8 0 0 1 -4.1 2.3 4.8 4.8 0 0 1 -4-2.3 4.8 4.8 0 0 1 -4.1 2.3 4.8 4.8 0 0 1 -4.1-2.3 4.8 4.8 0 0 1 -8.2-.1 4.8 4.8 0 0 1 -4.1 2.3 4.8 4.8 0 0 1 -4.1-2.3 4.8 4.8 0 0 1 -4.1 2.3 4.8 4.8 0 0 1 -4-2.3 4.8 4.8 0 0 1 -4.1 2.3 4.8 4.8 0 0 1 -4.1-2.3 4.8 4.8 0 0 1 -3.9 2.3v7.7zM341 250.4c.4 0 .7 .4 .7 .7c0 1.8 1.5 3.4 3.3 3.4a3.4 3.4 0 0 0 3.4-3.4q0-.4 .3-.6V242l-18.4-7.3c-3.6 4.5-6.7 7.5-8.1 8.8l16.8 10.3a3.2 3.2 0 0 0 1.2-2.6l.1-.3a.6 .6 0 0 1 .7-.4m44.5 28.2v-13h-63.6c3.2 3 10.7 9.8 16.3 11.8a15.4 15.4 0 0 0 12.6-.4c2.8-1.4 4.2-3.4 4.3-3.4l.6-.8 .5 .9c.1 .1 5 7.4 12.2 7.4c6.2 0 11-6.3 11-6.3l.4-.6zm-35.4-30.3v4a3.3 3.3 0 0 0 5.7 .9zm-12.7 6.1-3.7-2.3a3.4 3.4 0 0 0 3.2 2.3zm-18.6 9.2V185.8h-16a32 32 0 0 1 -2.9 13 44.8 44.8 0 0 1 -5.4 8l1.7-.7c1.1-.5 4.4-2.4 4.4-2.4a.6 .6 0 0 1 .8 0q.4 .3 .3 .7a28.8 28.8 0 0 1 -5.1 10.9 48 48 0 0 1 -7.4 8 32 32 0 0 0 3.8-.5c3.3-.8 5.3-2.4 5.3-2.4a.6 .6 0 0 1 .8 0 .6 .6 0 0 1 .3 .8 25.6 25.6 0 0 1 -6.2 10 48 48 0 0 1 -8 5.7c1.3 0 2.8 0 4-.2c3.3-.5 6.6-1.3 6.6-1.3q.5-.1 .8 .4a.6 .6 0 0 1 -.1 .8 48 48 0 0 1 -8.4 7.2 64 64 0 0 1 -9.2 4.4c2.2 .6 6.1 1.4 10.7 .9c5.5-.6 8.4-3.5 8.4-3.5a.6 .6 0 0 1 .8-.2 .6 .6 0 0 1 .4 .6v17.6zm66.7 61.7V280.4l-5.4-4.3a32 32 0 0 1 -3 2.9 14.4 14.4 0 0 1 -8.7 3.5c-6.6 0-11.3-5.3-12.9-7.3a16 16 0 0 1 -17.9 3.6c-6-2.2-13.7-9.1-16.9-12.2v40.5l21.2 2 1.1-.1-15.4-8q-.4-.2-.3-.7q.2-.4 .7-.3l16.5 5.2-11.1-13.2q-.3-.4 0-.7q.4-.3 .7 0l13.2 11.1-5.2-16.5a.6 .6 0 0 1 .3-.7 .6 .6 0 0 1 .7 .3l8 15.4 1.5-17.2a.6 .6 0 0 1 .5-.5q.4 .1 .5 .5l1.5 17.2 8-15.4q.3-.4 .7-.3a.6 .6 0 0 1 .3 .7l-5.2 16.5 13.2-11.1q.4-.3 .7 0q.3 .4 0 .7l-11.1 13.2 16.5-5.2a.6 .6 0 0 1 .7 .3 .6 .6 0 0 1 -.3 .7l-15.4 8 17.2 1.5q.4 .1 .5 .5a.6 .6 0 0 1 -.5 .5l-17.2 1.5 15.4 8q.4 .3 .3 .7a.6 .6 0 0 1 -.7 .3l-16.5-5.2 11.1 13.2q.3 .4 0 .7a.5 .5 0 0 1 -.7 0l-13.2-11.1 5.2 16.5q.1 .5-.3 .7a.6 .6 0 0 1 -.7-.3l-8-15.4-1.5 17.2q-.1 .4-.5 .5a.6 .6 0 0 1 -.5-.5l-1.5-17.2-8 15.4q-.3 .4-.7 .3q-.4-.2-.3-.7l5.2-16.5-13.2 11.1a.5 .5 0 0 1 -.7 0q-.3-.4 0-.7l11.1-13.2-16.5 5.2q-.5 .1-.7-.3a.6 .6 0 0 1 .3-.7l15.4-8-2.2-.2-20 2.5v32.1a9.9 9.9 0 0 1 8.1-4.1h38.4a18.2 18.2 0 0 0 18.2-18.2M345.2 309q.3 .2 .3 .6q-.1 .4-.5 .4l-12.8 1.1 12.8 1.1q.4 .1 .5 .4a.6 .6 0 0 1 -.3 .6l-11.5 6 12.3-3.9q.4-.1 .6 .2q.2 .3 0 .6l-8.3 9.9 9.9-8.3a.6 .6 0 0 1 .6 0q.3 .2 .2 .6l-3.9 12.3 6-11.5a.6 .6 0 0 1 .4-.3h.1q.4 .1 .4 .5l1.1 12.8 1.1-12.8q.1-.4 .4-.5a.5 .5 0 0 1 .6 .3l6 11.5-3.9-12.3q-.1-.4 .2-.6a.6 .6 0 0 1 .6 0l9.9 8.3-8.3-9.9q-.2-.3 0-.6q.2-.3 .6-.2l12.3 3.9-11.5-6a.5 .5 0 0 1 -.3-.6q.1-.4 .5-.4l12.8-1.1-12.8-1.1q-.4-.1-.5-.4a.5 .5 0 0 1 .3-.6l11.5-6-12.3 3.9q-.4 .1-.6-.2q-.2-.3 0-.6l8.3-9.9-9.9 8.3q-.3 .2-.6 0q-.3-.2-.2-.6l3.9-12.3-6 11.5a.5 .5 0 0 1 -.6 .3q-.4-.1-.4-.5l-1.1-12.9-1.1 12.9q-.1 .4-.4 .5a.5 .5 0 0 1 -.6-.3l-6-11.5 3.9 12.3q.1 .4-.2 .6q-.3 .2-.6 0l-9.9-8.3 8.3 9.9q.2 .3 0 .6q-.2 .3-.6 .2l-12.3-3.9zm-43.8-123.2h-16.7a32 32 0 0 1 -2.9 12.5 32 32 0 0 1 -6.1 8.3l2.2-.7a12.8 12.8 0 0 0 4.3-2.3 .6 .6 0 0 1 .8-.1q.4 .2 .4 .8a25.6 25.6 0 0 1 -5.8 10.6 28.8 28.8 0 0 1 -6.8 5.9 16 16 0 0 0 4.1 .4c4-.2 5.2-1 5.2-1a.6 .6 0 0 1 .8 0 .6 .6 0 0 1 .3 .8c-.1 .2-.7 2.5-6.2 7.5a22.4 22.4 0 0 1 -6.9 3.8q1.4 .5 3.2 1c3.2 .7 7.3-.6 7.4-.6q.4-.1 .7 .2a.6 .6 0 0 1 .2 .7c-.1 .3-2 7.6-8.2 11.8a32 32 0 0 1 -5.4 2.9l10-.2q0-.5 .5-.7c.1 0 6.7-2.2 10.8-4.9c2.5-1.6 4.9-3.8 6.5-5.2l-4.4 .8a32 32 0 0 1 -6.8 0 .6 .6 0 0 1 -.6-.5 .6 .6 0 0 1 .4-.8c.1 0 7-3.8 9.8-6.6a25.6 25.6 0 0 0 5.1-7.5 16 16 0 0 1 -4 1.5 16 16 0 0 1 -6.2 .5 .6 .6 0 0 1 -.6-.5q-.1-.4 .2-.7c.1 0 5.4-4.3 8.6-8.9a32 32 0 0 0 4.4-8.7l-3 1.7-4.6 1.8a.6 .6 0 0 1 -.8-.3q-.3-.5 .1-.9c0 0 4.2-4.1 7.3-9.9a30.4 30.4 0 0 0 2.7-12.3m19.4 0v56.9c1.7-1.5 10-9.2 16.2-20.9c8.2-15.3 10.8-31.2 11.5-36.1zm44.2 37 8.2 2.9v-10.3l-4.8-1.7a128 128 0 0 1 -2.9 7.8zm20.4 31.6V185.8h-10.8v67.1a3.3 3.3 0 0 0 6.2-1.7c0-.4 .3-.7 .7-.7h.1q.7 .1 .7 .7c0 1.8 1.3 3.2 3.1 3.3m-87.6 9.2v-16.1a16 16 0 0 1 -8.1 2.9 32 32 0 0 1 -8.6-.4v13.6zm-30.7-13.2q.2 0 .3 .1q.4 .2 .4 .6v0a3.4 3.4 0 0 0 6.7 0l.1-.3q.2-.4 .7-.4c.4 0 .7 .4 .7 .7c0 1.8 1.5 3.4 3.4 3.4l.4 0v-4.7l-1-.3-16.8 .2c-.4 0-.7-.3-.7-.6q-.1-.6 .5-.8c0 0 4.9-1.4 9-4.2a20.5 20.5 0 0 0 7.2-9.8 16.6 16.6 0 0 1 -12.1-1.5q-.4-.2-.4-.7a.6 .6 0 0 1 .5-.6c.1 0 5.4-1.5 8.2-4.1c2.7-2.5 4.2-4.2 4.9-5.3a32 32 0 0 1 -4 .5 12.8 12.8 0 0 1 -6.3-1 .6 .6 0 0 1 -.4-.6q0-.4 .4-.6a25.6 25.6 0 0 0 7.8-6.4 32 32 0 0 0 4.9-8.1 32 32 0 0 1 -3 1.4c-3.2 1.2-4.7 .8-4.9 .8a.6 .6 0 0 1 -.5-.6 .6 .6 0 0 1 .3-.7c0 0 4.2-3.4 7.2-9.2a28.8 28.8 0 0 0 2.7-11.8h-29.2v68.6l.9 .1a3.4 3.4 0 0 0 3.4-3.3 .7 .7 0 0 1 1.3-.4q.1 .2 .1 .4a3.4 3.4 0 0 0 6.7 0c0-.4 .3-.7 .7-.7m36.4-82.6-1.5 0-1.5 0-1.5 .1v1.3a96 96 0 0 0 .2 6l-.7 0h-1.8l-.7 0 .1-2.8 .1-3.3v-3l-.1-3.3-.1-2.9 .7 .1 .9 0 .9 0 .7-.1-.2 2.8v3.2l1.2 0 1.8 0 1.7 0 1.3 0a96 96 0 0 0 -.2-6.1l.7 .1 .9 0 .9 0 .7-.1-.1 2.9 0 3.3v3a96 96 0 0 0 .2 6l-.7 0h-1.8l-.7 0 .1-2.8 .1-3.3v-1.3zm12-4.9-.1-2.9 .7 .1 .9 0 .9 0 .7-.1-.1 2.9 0 3.3v3l0 3.2 .1 2.8-.7-.1h-1.8l-.7 .1a96 96 0 0 0 .2-6v-3zm-5.8 189.6-.1-1.7 .4 0 .5 0 .5 0 .4 0-.1 1.7 0 1.9v1.7a32 32 0 0 0 .1 3.5h-1.9l.1-1.6 0-1.9v-1.7zm34.4-.6 0 1 0 1v4.2l.1 1.6h-1.8l0-.6 0-.9 .1-1v-4.7l-.3 .1-.4 .2-.4 .2-.4 .2-.3-.4q-.1-.3-.3-.3a32 32 0 0 0 3.4-1.7l.2 .1zm4 2.8q-.3-.2-.4-.4l-.3-.5-.1-.7 .2-.9 .5-.7 .8-.4a3.2 3.2 0 0 1 2.1 0q.5 .2 .8 .4l.4 .6a2.2 2.2 0 0 1 .1 1.5 1.9 1.9 0 0 1 -.7 .9l-.5 .2v.1l.5 .2 .5 .4a3.2 3.2 0 0 1 .5 1.5 3.2 3.2 0 0 1 -.2 1.2 3.2 3.2 0 0 1 -.6 .9 3.2 3.2 0 0 1 -.9 .5 3.8 3.8 0 0 1 -2.1 0 3.2 3.2 0 0 1 -.9-.4 3.2 3.2 0 0 1 -.5-.8 3.2 3.2 0 0 1 -.2-1.1q0-.5 .1-.9l.4-.7 .5-.5 .6-.3v-.1zm2.3-2.7q-.2-.4-.7-.4q-.5 0-.7 .4a3.2 3.2 0 0 0 -.2 1.3q0 .7 .3 1.1t.6 .4q.4 0 .7-.4q.3-.4 .3-1.2a3.2 3.2 0 0 0 -.2-1.2m0 3.8q-.3-.5-.7-.5q-.4 0-.7 .5q-.3 .4-.3 1.5q0 1 .3 1.5q.3 .5 .7 .5t.7-.5a3.2 3.2 0 0 0 .3-1.6 3.2 3.2 0 0 0 -.3-1.5M268.2 162.8l-.1-2.9 .7 .1 .9 0 .9 0 .7-.1-.1 2.9 0 3.3v3a96 96 0 0 0 .2 6l-.7-.1h-1.8l-.7 .1 .1-2.8 .1-3.2v-3zm96 188.9 0 1 0 1v4.2l.1 1.6h-1.8l0-.6 .1-.9 0-1v-4.7l-.2 .1-.4 .2-.4 .2-.4 .2-.3-.4-.3-.3 1.7-.8 1.7-.9 .2 .1zm-9.4 7.2q.2 .2 .6 .2a1.3 1.3 0 0 0 .7-.2 3.2 3.2 0 0 0 .6-.7 3.2 3.2 0 0 0 .5-1.1 9.6 9.6 0 0 0 .2-1.6l-.2 .3-.3 .3-.4 .1-.5 .1-.9-.2-.7-.4a3.2 3.2 0 0 1 -.5-.8 3.2 3.2 0 0 1 -.2-1.1q0-.6 .2-1.2a3.2 3.2 0 0 1 .5-.9 3.2 3.2 0 0 1 .8-.6 3.2 3.2 0 0 1 1.1-.2q.6 0 1.2 .2a3.2 3.2 0 0 1 .9 .7 3.2 3.2 0 0 1 .6 1.1 6.4 6.4 0 0 1 .2 1.6 9.6 9.6 0 0 1 -.3 2.2 6.4 6.4 0 0 1 -.7 1.6 3.2 3.2 0 0 1 -2.6 1.3l-.5-.1-.4-.1-.1-.4-.2-.4 .1-.1zm2.3-7q-.3-.5-.7-.5t-.7 .5a3.2 3.2 0 0 0 -.3 1.5l.1 .9 .2 .6 .3 .4 .4 .1 .4-.1q.2-.1 .3-.3l.2-.6 .1-.9a3.2 3.2 0 0 0 -.3-1.7m-75.6 5.4a9.6 9.6 0 0 0 1.6-2.8l.2-1.2-.1-.9-.3-.6a1 1 0 0 0 -.4-.3l-.4-.1a.6 .6 0 0 0 -.5 .2l-.4 .5-.2 .6-.1 .6-.1 0-.4-.4-.4-.4a2.2 2.2 0 0 1 .8-1.2 3.2 3.2 0 0 1 1.6-.5q.8 0 1.3 .2q.5 .2 .8 .5l.4 .7 .1 .8a3.2 3.2 0 0 1 -.1 .9 3.2 3.2 0 0 1 -.5 1 9.6 9.6 0 0 1 -1 1.3q-.6 .7-1.6 1.7h1.6l1.6-.1 0 .4v.8l0 .4H280v-.5zm19.7-231.6-8.4-15.7 0-.1 2.1-4.7q-3.4 .6-6.7 1.4l.8 3a1 1 0 0 1 -.7 1.1 1 1 0 0 1 -.6 1.1 3.2 3.2 0 0 1 .9 1.7q.2 .6 .1 1.2a3.2 3.2 0 0 0 .1 1.2q.3 1.1 1.1 1.7q1.5 1.4 2.1 3.6a7.4 7.4 0 0 1 -1 5.9l.5-.1a1 1 0 0 1 1.1 .7 1 1 0 0 1 1.1 .6l1 3.9a96 96 0 0 0 -6.2 1.7l-1-4a1 1 0 0 1 .7-1.1 1 1 0 0 1 .6-1.1l.5-.1a7.4 7.4 0 0 1 -3.6-8.7 3.2 3.2 0 0 0 .2-2.1 3.2 3.2 0 0 0 -.5-1.1 3.2 3.2 0 0 1 -.4-1.1 3.2 3.2 0 0 1 0-1.9c-.5 .1-1-.2-1.1-.7a1 1 0 0 1 -1.1-.6l-.7-2.9-5.4 1.7 1.1 3.1a1 1 0 0 1 -.5 1.2 1 1 0 0 1 -.5 1.2q.7 .6 1.1 1.6a3.2 3.2 0 0 1 .2 1.2 3.2 3.2 0 0 0 1.4 2.7 7.4 7.4 0 0 1 2 9.3l.5-.2a1 1 0 0 1 1.2 .5 1 1 0 0 1 1.2 .6l1.3 3.5-3.9 1.4c2.5 1.6 5.2 3.2 8.8 4.1c10 2.6 19.2-6.1 19.2-6.1l7.1 7.1s-5.2 4.3-10.9 4.3c-17.6 .1-28.7-15.2-39.9-6a64 64 0 0 0 -6.3 7l-8-11.8-8.5-12.5 1.3-.9 .3-.2a137.6 137.6 0 0 1 52.7-20.5c5.6-10.3 12.9-19.6 21.5-27.5v50.9a108.8 108.8 0 0 0 -17.6 1.5m12.5-6.5V81.4c-7.6 7.9-13.8 17.1-18.1 27.3l0 .1 6.2 11.7q5.9-.9 11.9-1.2m-33.8 11.7a7.4 7.4 0 0 1 -4.4-8.4 3.2 3.2 0 0 0 0-2.1 3.2 3.2 0 0 0 -.6-1l-.6-1.1a3.2 3.2 0 0 1 -.2-1.9c-.5 .2-1-.1-1.2-.5c-.5 .2-1-.1-1.2-.5l-1.1-3.1a96 96 0 0 0 -5.1 2.1l1.3 2.7c.2 .5 0 1-.4 1.2a1 1 0 0 1 -.4 1.2 4.2 4.2 0 0 1 1.5 2.7 3.2 3.2 0 0 0 .3 1.1 3.2 3.2 0 0 0 1.4 1.4 7.4 7.4 0 0 1 3.4 5.5c2 .9 3.9 2.2 5.8 3.6l-.2-.5c-.2-.5 .1-1 .5-1.2a1 1 0 0 1 .5-1.2zm-23.5 1.3v-.5a3.2 3.2 0 0 0 -1.2-2.9 3.2 3.2 0 0 1 -.8-1 4.5 4.5 0 0 1 -.5-1.8c-.4 .2-1 .1-1.2-.4a1 1 0 0 1 -1.2-.3l-1.6-2.7-3.2 2 6.3 9.3zm7.8-3.1 1.3-.1a6.4 6.4 0 0 1 -.1-2.4 3.2 3.2 0 0 0 -.9-3.1 3.2 3.2 0 0 1 -.7-1 6.4 6.4 0 0 1 -.4-1.9 1 1 0 0 1 -1.2-.4 1 1 0 0 1 -1.2-.4l-1.3-2.7-4.4 2.3 1.6 2.7a1 1 0 0 1 -.3 1.2 1 1 0 0 1 -.3 1.2 4.5 4.5 0 0 1 1.3 1.4 3.2 3.2 0 0 1 .4 1.2 3.2 3.2 0 0 0 .4 1.1q.6 1 1.5 1.3l1 .6a16 16 0 0 1 3.2-1m56.6-55.9c8.6 7.9 15.8 17.2 21.4 27.4a137.6 137.6 0 0 1 52.9 20.5l.2 .2 1.3 .9-8.5 12.5-8 11.8a64 64 0 0 0 -6.3-7c-11.2-9.3-22.3 6-39.9 6c-5.7 0-10.9-4.3-10.9-4.3l7.1-7.1s9.2 8.7 19.2 6.1a28.8 28.8 0 0 0 8.8-4.1l-3.9-1.4 1.3-3.5a1 1 0 0 1 1.2-.6c.2-.4 .7-.7 1.2-.5l.5 .2a7.4 7.4 0 0 1 2-9.3 3.2 3.2 0 0 0 1.4-2.7q0-.6 .2-1.2a4.5 4.5 0 0 1 1-1.6 1 1 0 0 1 -.5-1.2c-.5-.2-.7-.7-.5-1.2l1.1-3.1-5.4-1.7-.7 2.9a1 1 0 0 1 -1.1 .6c-.1 .5-.6 .8-1.1 .7a4.2 4.2 0 0 1 -.5 3 3.2 3.2 0 0 0 -.3 3.2 6.4 6.4 0 0 1 .2 4 7.4 7.4 0 0 1 -3.7 4.7l.5 .1a1 1 0 0 1 .7 1.1 1 1 0 0 1 .7 1.1l-1 4a96 96 0 0 0 -6.2-1.7l1-3.9a1 1 0 0 1 1.1-.6 .9 .9 0 0 1 1.1-.7l.5 .1a7.4 7.4 0 0 1 1.1-9.5 3.2 3.2 0 0 0 1.1-1.7 3.2 3.2 0 0 0 .1-1.2 3.8 3.8 0 0 1 1-2.9 1 1 0 0 1 -.7-1.1 1 1 0 0 1 -.6-1.1l.8-3a160 160 0 0 0 -6.9-1.5q1.1 2.3 2.1 4.7l.1 .1-8.4 15.7a108.8 108.8 0 0 0 -17.6-1.5zm52.1 43.9 1.3-2.7a96 96 0 0 0 -5.1-2.1l-1.1 3.1a1 1 0 0 1 -1.2 .5c-.2 .5-.7 .7-1.2 .5a3.2 3.2 0 0 1 -.2 1.9l-.6 1.1a3.2 3.2 0 0 0 -.6 1 3.2 3.2 0 0 0 0 2.1 7.4 7.4 0 0 1 -4.4 8.4l.5 .2a1 1 0 0 1 .6 1.2c.5 .2 .7 .7 .5 1.2l-.2 .5c1.9-1.4 3.7-2.7 5.8-3.6a7.7 7.7 0 0 1 3.4-5.5 3.2 3.2 0 0 0 1.4-1.4 3.2 3.2 0 0 0 .3-1.1 4.2 4.2 0 0 1 1.5-2.7 1 1 0 0 1 -.4-1.2c-.5-.2-.7-.7-.4-1.2m13.9 16.9 6.3-9.3-3.2-2-1.6 2.7a1 1 0 0 1 -1.2 .3 1 1 0 0 1 -1.2 .4 4.2 4.2 0 0 1 -1.3 2.8 3.2 3.2 0 0 0 -.8 .9 3.2 3.2 0 0 0 -.4 2.1v.5zm-49-13.6 6.2-11.7 0-.1A92.8 92.8 0 0 0 326 81.4v37.8q6 .3 11.9 1.2m44.3 5.5a4.5 4.5 0 0 1 1.3-1.4 1 1 0 0 1 -.3-1.2 1 1 0 0 1 -.3-1.2l1.6-2.7-4.4-2.3-1.3 2.7a1 1 0 0 1 -1.2 .4c-.2 .4-.7 .6-1.2 .4a6.4 6.4 0 0 1 -.4 1.9 3.2 3.2 0 0 1 -.7 1 3.2 3.2 0 0 0 -.9 3.1 6.4 6.4 0 0 1 -.1 2.4l1.3 .1a16 16 0 0 1 3.2 1l1-.6a3.2 3.2 0 0 0 1.9-2.4 3.2 3.2 0 0 1 .4-1.2m-44.7 1.6-2 3.7a105.6 105.6 0 0 0 -31.3 0l-2-3.7a112 112 0 0 1 35.3 0M220.7 390h2.7v13.7h-2.7zm5.1 0h2.7V401h4.8v2.6h-7.5zm11.2 0v7.9q.1 3.6 2.2 3.6q2.2 0 2.2-3.6V390h2.7v7.7c0 4.2-1.9 6.2-5 6.2c-3 0-4.8-1.9-4.8-6.3V390zm9.5 10.5a6.4 6.4 0 0 0 3 .8c1.2 0 1.9-.6 1.9-1.5c0-.8-.6-1.3-2-1.9c-2-.8-3.3-2-3.3-4c0-2.3 1.7-4.1 4.5-4.1q2 .1 3 .7l-.6 2.5a4.8 4.8 0 0 0 -2.5-.7c-1.2 0-1.7 .6-1.7 1.3c0 .9 .7 1.3 2.2 2c2.1 .9 3.1 2.1 3.1 4.1c0 2.3-1.5 4.3-4.8 4.3a6.4 6.4 0 0 1 -3.4-.8zm11.8-7.9h-3.2V390h9.2v2.6h-3.3v11.1h-2.7zm7.5-2.4a32 32 0 0 1 3.6-.3q2.6-.1 3.9 1.1a3.8 3.8 0 0 1 1.1 2.9 3.5 3.5 0 0 1 -2.1 3.4v.1q1.2 .6 1.6 2.6c.4 1.5 .8 3.3 1 3.8h-2.8a32 32 0 0 1 -.8-3.2c-.3-1.7-.8-2.2-2-2.2h-.8v5.4h-2.7zm2.7 5.9h1.1c1.3 0 2.2-.8 2.2-2c0-1.2-.8-1.9-2-1.9a3.2 3.2 0 0 0 -1.2 .1zm15 1.8h-4.4v3.2h4.9v2.5h-7.6V390h7.4v2.5h-4.7v2.8h4.4zm16.1 .5c0-1.7-.1-3.6-.1-5.6h-.1a64 64 0 0 1 -1.3 5.3l-1.5 5.3h-2.1l-1.3-5.3a64 64 0 0 1 -1.1-5.3l-.2 5.7-.2 5.2h-2.5l.8-13.7h3.6l1.2 4.6q.6 2.4 1 4.9h.1c.4-1.6 .7-3.4 1.2-4.9l1.3-4.5h3.5l.7 13.7h-2.7zm7.6-8.4v7.9q0 3.6 2.2 3.6t2.2-3.6V390h2.7v7.7c0 4.2-1.9 6.2-5 6.2c-3 0-4.8-1.9-4.8-6.3V390zm9.4 13.7V390h3.2l2.5 5c.7 1.4 1.4 3.1 2 4.7h0a64 64 0 0 1 -.2-5.7v-4h2.5v13.7h-2.8l-2.6-5.2a64 64 0 0 1 -2.1-4.8h-.1q.1 2.7 .1 6v4.1zM329 390h2.7v13.7H329zm13.9 13.3a6.4 6.4 0 0 1 -3.1 .6c-4.1 0-6.3-2.9-6.3-6.8c0-4.7 2.9-7.3 6.6-7.3c1.4 0 2.5 .3 2.9 .6l-.5 2.5a4.8 4.8 0 0 0 -2.3-.5c-2.2 0-3.8 1.5-3.8 4.5c0 2.8 1.4 4.5 3.8 4.5a6.4 6.4 0 0 0 2.3-.4zm1.8-13.3h2.7v13.7h-2.7zm5.1 .2a19.2 19.2 0 0 1 3.7-.3q2.5 0 3.6 1.1c.8 .7 1.3 1.8 1.3 3.2a4.8 4.8 0 0 1 -1.1 3.3 5.4 5.4 0 0 1 -3.9 1.4l-.9 0v4.9h-2.7zm2.7 6.2q.3 .1 .9 .1c1.4 0 2.3-.8 2.3-2.2q0-1.9-2.1-2a3.2 3.2 0 0 0 -1.1 .1zm9.4 3.8-.9 3.5h-2.8l3.6-13.7h3.6l3.7 13.7h-2.9l-.9-3.5zm3-2.3-.7-2.9-.6-2.7-.5 2.7-.7 2.9zm5.9-7.8h2.7V401h4.8v2.6h-7.5zm9.1 0h2.7v13.7h-2.7zm5.1 .2a32 32 0 0 1 3.6-.3c2.3 0 3.8 .4 4.9 1.4c1.2 1.1 2 2.8 2 5.2a7.7 7.7 0 0 1 -2 5.6c-1.2 1.2-3.2 1.8-5.5 1.8a16 16 0 0 1 -3.1-.2zm2.7 11.1 .9 .1c2.5 0 4.1-1.5 4.1-4.8c0-2.8-1.4-4.4-3.8-4.4a3.2 3.2 0 0 0 -1.2 .1zm12.2-1.2-.9 3.5h-2.8l3.7-13.7h3.6l3.7 13.7h-2.9l-.9-3.5zm3-2.3-.8-2.9-.6-2.7-.6 2.7-.7 2.9zm5.8-7.6a32 32 0 0 1 3.7-.3c2.3 0 3.7 .4 4.9 1.4c1.2 1.1 2 2.8 2 5.2c0 2.6-.8 4.4-2 5.6q-2 1.8-5.5 1.8a32 32 0 0 1 -3.1-.2zm2.7 11.1 1 .1c2.5 0 4.1-1.5 4.1-4.8c0-2.8-1.4-4.4-3.8-4.4l-1.2 .1zm-147.8 11.2a32 32 0 0 1 3.7-.3c2.3 0 3.7 .5 4.9 1.5c1.2 1.1 2 2.7 2 5.2a7.4 7.4 0 0 1 -2 5.5q-1.9 1.8-5.5 1.8a32 32 0 0 1 -3.1-.2zm2.7 11.2 1 .1c2.4 0 4-1.5 4-4.8c0-2.8-1.4-4.4-3.8-4.4l-1.2 .1zm16.8-3.5h-4.4v3.2h4.9v2.6h-7.6v-13.7h7.4v2.6h-4.7v2.8h4.4zm6-7.7a19.2 19.2 0 0 1 3.7-.3q2.5 0 3.6 1.1c.8 .7 1.3 1.8 1.3 3.2a4.8 4.8 0 0 1 -1.1 3.3q-1.4 1.5-3.9 1.4l-.9-.1v4.9h-2.7zm2.7 6.2 .9 .1c1.4 0 2.3-.8 2.3-2.2c0-1.2-.8-2-2.1-2a3.2 3.2 0 0 0 -1.1 .1zm7.6-6.4h2.7V426h-2.7zm13.9 13.3a6.4 6.4 0 0 1 -3.1 .6c-4.2 0-6.3-2.9-6.3-6.8c0-4.7 2.9-7.3 6.5-7.3c1.4 0 2.5 .4 3 .6l-.6 2.5a6.4 6.4 0 0 0 -2.3-.5c-2.1 0-3.8 1.5-3.8 4.5c0 2.7 1.4 4.4 3.8 4.4a6.4 6.4 0 0 0 2.2-.4zm4.5-13.3v5.3h4.5v-5.3h2.7V426h-2.7v-5.7h-4.5v5.7h-2.7v-13.7zm9.5 0h2.7V426h-2.7zm5.1 0h2.7v11.1h4.8v2.6h-7.5zm16.2 7.9h-4.4v3.2h5v2.6h-7.7v-13.7h7.4v2.6h-4.7v2.8h4.4zm12.5 .5-.1-5.6h0a96 96 0 0 1 -1.3 5.3l-1.5 5.3h-2.1l-1.3-5.3a64 64 0 0 1 -1.1-5.3l-.2 5.7-.2 5.2h-2.5l.8-13.7h3.6l1.2 4.6c.4 1.6 .7 3.3 1 4.9h.1c.4-1.6 .7-3.4 1.2-4.9l1.3-4.5h3.5l.7 13.7h-2.7zm7.6-8.4v7.9q0 3.6 2.2 3.6q2.2 .1 2.2-3.6v-7.9h2.7v7.7c0 4.2-1.9 6.2-5 6.2c-3 0-4.8-1.9-4.8-6.3v-7.6zm-15.6 42.4 .2-.7c-.6-.3-1.7-.4-2.6-.3c-2.2 .4-3.1 1.9-2.9 3.4c.2 1.6 1.3 2.2 3.1 2.7c1.6 .4 2.4 .9 2.6 2c.1 .8-.3 2-2 2.3a3.2 3.2 0 0 1 -2-.2l-.2 .7a3.8 3.8 0 0 0 2.1 .2c1.8-.3 2.9-1.6 2.7-3.1c-.2-1.4-1.4-2.1-3.1-2.5c-1.6-.4-2.3-1-2.5-2.1c-.2-1.3 .6-2.3 2.2-2.6a4.2 4.2 0 0 1 2.4 .4m-8.5 10.1-1.2-10-.8 .1 1.2 9.9-3.5 .4 .1 .6 7.6-.9-.1-.6zm-5.5 1.1-.8-10.4-.8 .1 .4 4.8-1.7 .1c-1.4 .1-2.1-.6-2.6-2.1l-.9-2.5-.8 .1a12.8 12.8 0 0 1 1 2.8q.5 1.8 1.8 2.1c-1.2 .5-2 1.5-1.9 2.9a2.6 2.6 0 0 0 .9 1.8q.9 .8 2.9 .7a12.8 12.8 0 0 0 2.3-.4m-1.2-4.9 .4 4.4a6.4 6.4 0 0 1 -1.5 .3c-1.7 .1-2.9-.4-3-2.1c-.1-1.4 .9-2.4 2.5-2.5zm-12.3 .5 0 .6 4.3-.2 .2 4.1-4.5 .2 0 .6 5.2-.2-.4-10.6-5.5 .2 0 .6 4.7-.2 .2 4.6zm168.1-105.3 .6 .1a6.4 6.4 0 0 1 .7-2.3c1.4-2.5 3.8-3 6.3-1.7c2.7 1.5 3.5 3.9 2.1 6.4a4.5 4.5 0 0 1 -1.5 1.7l.4 .5a6.4 6.4 0 0 0 1.6-1.9c1.6-2.9 .5-5.9-2.2-7.4c-3.3-1.8-5.9-.4-7.2 1.8a6.4 6.4 0 0 0 -.9 2.8m-1.2 1.3-.4 .6 9.2 5.4 .4-.7zm-66.8 80.9 .7-.4-5.2-9.2-.7 .4 2.6 4.6-5.1 2.9-2.6-4.6-.6 .4 5.2 9.2 .6-.4-2.3-4.1 5.1-2.9zm-13.1-4.9-.7 .4 4.9 9.4 .7-.4zm1.8 11.1-4.7-9.6-4.9 2.4 .3 .5 4.3-2.1 4.4 9zM126.7 325.8l-.6 .2 1.5 4-3.8 1.4-1.6-4.2-.6 .2 1.9 4.9 9.9-3.7-1.9-5.1-.6 .2 1.7 4.4-4.4 1.6zm274.4 119 .3 .6 3.9-1.7 1.7 3.7-4.1 1.8 .3 .6 4.8-2.1-4.3-9.7-5 2.2 .3 .6 4.4-2 1.9 4.3zm-124.8 6.6-.7-.2-2.3 10.3 .7 .2zm-5.8 9.5 2.6-10.2-.7-.2-1.1 4.4a6.4 6.4 0 0 0 -1.2-.4c-1.3-.3-2.5-.2-3.3 .4a3.2 3.2 0 0 0 -1.2 1.9 3.2 3.2 0 0 0 .3 2.2q.6 1.1 2.5 1.6q1.3 .3 2.3 .4m.6-5.3-1.2 4.6a6.4 6.4 0 0 1 -1.5-.3c-1.6-.4-2.6-1.4-2.2-3.1s1.7-2.2 3.6-1.8q.8 .2 1.3 .5m-6.3-3.2-4.1-1.2-.2-4-.7-.2 .7 11.3 .7 .2 6.7-9.1-.7-.2zm-4-.5 3.6 1-2.2 3.1-1.1 1.6v-2zm-5.9 4.7 3.4-10.1-5.2-1.8-.2 .6 4.5 1.5-3.2 9.5zm-3.2-12.4-.7-.3-3.6 10 .7 .3zm-7 8.6 3.9-9.7-2.1-1q-2.9-1.2-4.9-.2a5.8 5.8 0 0 0 -2.8 3.2 5.1 5.1 0 0 0 -.1 3.9q.7 1.8 3.4 2.9q1.4 .6 2.6 .8m3-9.4-3.5 8.6a9.6 9.6 0 0 1 -1.9-.6c-3.2-1.3-3.9-3.6-2.8-6c1.2-2.8 3.4-4 6.6-2.7q1 .4 1.6 .7m-10.9-1.2-3.8-1.7 .3-4-.7-.3-.9 11.3 .7 .3 7.9-8.1-.7-.3zm-3.9-1.1 3.4 1.5-2.7 2.7q-.7 .7-1.3 1.4c.1-.6 .2-1.2 .3-2zm-19-3 5.4-9-2-1.3q-2.7-1.6-4.8-1a5.8 5.8 0 0 0 -3.3 2.7 5.1 5.1 0 0 0 -.8 3.8q.4 1.9 2.9 3.5zm4.4-8.8-4.8 7.9a9.6 9.6 0 0 1 -1.7-.8c-2.9-1.8-3.3-4.1-1.9-6.4c1.6-2.7 4-3.4 6.9-1.6zm-14.7-3.8-.4 .5 3.5 2.4-2.2 3.4-3.7-2.5-.4 .5 4.4 2.9 5.9-8.8-4.6-3-.3 .5 3.9 2.6-2.6 3.9zm-7.9 .8 6.3-8.4-.6-.4-2.7 3.6a6.4 6.4 0 0 0 -1-.9q-1.7-1.2-3.2-.9a3.2 3.2 0 0 0 -1.9 1.2 3.2 3.2 0 0 0 -.6 2.1q.2 1.3 1.7 2.4a12.8 12.8 0 0 0 2 1.2m2.6-4.7-2.8 3.8-1.2-.8c-1.4-1-1.9-2.3-.9-3.7c1-1.3 2.5-1.4 4-.3q.6 .5 1 1m-2.5-8.5-.6-.5-6.6 8.3 .6 .5zm-8.3-6.4-.2 .6a6.4 6.4 0 0 1 2.1 1.2c2.2 1.8 2.2 4.3 .4 6.5c-2 2.3-4.5 2.6-6.7 .8a6.4 6.4 0 0 1 -1.4-1.8l-.6 .3a6.4 6.4 0 0 0 1.6 2c2.6 2.2 5.6 1.7 7.7-.7c2.4-2.9 1.6-5.7-.4-7.4a6.4 6.4 0 0 0 -2.5-1.4m-8.8 5.9 .5 .5 7.2-7.8-.5-.5-3.6 3.9-4.3-4 3.6-3.9-.5-.5-7.2 7.8 .6 .5 3.2-3.5 4.3 4zm.6-14-.5-.5-7.5 7.6 .5 .5zm-10 5 7.7-7.4-3.8-4-.4 .4 3.3 3.4-7.2 6.9zm-4.4-12.6-.5 .4 2.8 3.2-3.1 2.7-3-3.4-.5 .4 3.5 3.9 7.9-7.1-3.7-4.1-.4 .4 3.2 3.6-3.5 3.1zm-7.1-9 3.7-3.4-.4-.6-7.8 7.3 .6 .7 6.3-2q2.1-.7 3.4-1.2l0 0a32 32 0 0 0 -2 3.1l-3.3 5.6 .5 .7 8.7-6.1-.4-.6-4 2.8-3.9 2.8c.7-1 1.4-2.1 2.3-3.6l3.1-5.2-.3-.4-5.9 1.9-4 1.3c.9-.7 2.3-2 3.5-3.1m-7-.1 .4 .6 5.2-3.8c2.6-1.9 2.5-3.9 1.4-5.4c-1.2-1.6-3.2-2.4-5.8-.5l-5.2 3.7 .4 .6 5.2-3.8c2.1-1.5 3.7-1.2 4.8 .2c.9 1.3 .8 2.9-1.4 4.5zm1.5-16.4-.4-.6-8.9 5.8 .4 .6zm-10.8 2.8 9-5.6-2.9-4.7-.5 .3 2.5 4-8.5 5.3zm-3.9-6.4 .4 .7 5.7-3.2c2.8-1.6 2.9-3.6 2-5.2c-1-1.7-2.9-2.7-5.7-1.1l-5.5 3.1 .4 .6 5.6-3.1c2.3-1.3 3.8-.8 4.7 .7c.8 1.4 .5 3-1.9 4.3zm4-12.2 .7 0a4.8 4.8 0 0 0 -.5-2.6c-1-2-2.8-2.4-4.1-1.7s-1.7 1.9-1.5 3.8c.2 1.6-.1 2.5-1.1 3c-.7 .4-2 .4-2.8-1.2a3.2 3.2 0 0 1 -.4-1.9l-.7 0a4.5 4.5 0 0 0 .5 2.1c.8 1.6 2.4 2.2 3.8 1.5c1.3-.7 1.6-2 1.4-3.8c-.2-1.6 .2-2.5 1.2-3c1.2-.6 2.4-.1 3.1 1.3a4.2 4.2 0 0 1 .4 2.4m-12.3-4.9 9.1-4.2-.3-.7-9.1 4.2-1.4-3.1-.6 .3 3.2 7 .6-.3zm-2.8-4.9 9.7-4.1-.3-.7-4.5 1.9-.6-1.5c-.5-1.3-.1-2.2 1.2-3.1l2.1-1.6-.3-.7a16 16 0 0 1 -2.3 1.9q-1.5 1-1.5 2.4c-.9-1-2-1.4-3.4-.9a2.6 2.6 0 0 0 -1.5 1.4q-.5 1.1 .3 3a12.8 12.8 0 0 0 1.1 2m4.3-2.7-4.1 1.7a6.4 6.4 0 0 1 -.7-1.3c-.6-1.5-.5-2.9 1-3.5c1.3-.5 2.6 .1 3.2 1.6zm-8.7-25.8 4.7-1.8-.2-.7-10 3.7 .3 .9 6.6 .5c1.5 .1 2.6 .2 3.6 .1v.1a32 32 0 0 0 -2.9 2.1l-5.2 3.9 .3 .8 10.4-2.3-.2-.7-4.8 1.1-4.7 1.2q1.5-1 3.5-2.5l4.8-3.6-.2-.5-6.2-.5-4.2-.2c1.1-.4 2.9-1.1 4.4-1.6m-6.5-2.7 .2 .7 6.3-1.5c3.2-.8 3.8-2.7 3.4-4.4c-.5-2-2-3.4-5.2-2.6l-6.2 1.5 .2 .7 6.2-1.5c2.6-.6 3.9 .3 4.4 2c.4 1.5-.3 3-3 3.6zm8.2-11.3-.1-.7-5.3 1c-1.7 .3-2.9 .5-4.2 .9q1.5-1.2 3-2.7l5.3-5.2-.1-.7-10.4 2 .1 .7 5.2-1c1.6-.3 2.8-.5 4.2-.9a32 32 0 0 0 -2.9 2.6l-5.4 5.2 .1 .7zm-1.8-9.8-.1-.7-10.5 1.7 .1 .7zm-1.8-10.3-.6 .3a6.4 6.4 0 0 1 .8 2.3c.4 2.8-1.3 4.7-4.1 5.1c-3 .4-5.1-1.1-5.5-4a6.4 6.4 0 0 1 .2-2.2l-.7-.2a6.4 6.4 0 0 0 -.1 2.5c.4 3.3 3 5.1 6.1 4.7c3.7-.5 5.1-3.1 4.7-5.7a6.4 6.4 0 0 0 -.9-2.8m.3-1.7-.1-.7-10.6 1 .1 .8zm-10.8-2.6 10.5-.7-.1-.7-4.5 .3q.1-.6 0-1.3c-.1-1.3-.6-2.4-1.4-3a3.2 3.2 0 0 0 -2.2-.6 3.2 3.2 0 0 0 -2 1q-.8 1-.7 2.8a9.6 9.6 0 0 0 .4 2.3m5.2-1.1-4.7 .3-.2-1.5c-.1-1.7 .6-2.9 2.2-3s2.7 .9 2.8 2.8a3.2 3.2 0 0 1 -.1 1.3m1.1-6.9-.1-4.2 3.7-1.5 0-.8-10.5 4.2 0 .7 10.8 3.5 0-.8zm-.8-4 .1 3.7-3.6-1.2q-1-.3-1.9-.5l1.9-.6zm-6.3-4.1 10.6 .1 0-5.5-.6 0 0 4.7-10-.1zm10.7-6.9 0-.7-10.6-.4 0 .7zm-10.4-3.9 10.5 .7 .2-2.3q.2-3.1-1.3-4.7a5.8 5.8 0 0 0 -3.9-1.7 5.1 5.1 0 0 0 -3.7 1.1q-1.5 1.3-1.7 4.2zm9.9-.1-9.2-.6a9.6 9.6 0 0 1 -.1-2c.2-3.4 2.2-4.8 4.9-4.6c3 .2 4.8 2 4.6 5.4zm-2.3-10.7 .4-4.2 3.9-.9 .1-.8-11 2.6-.1 .7 10.1 5 .1-.8zm-.2-4-.4 3.7-3.4-1.7q-.9-.4-1.8-.8l1.9-.4zm-5.5-5 10.3 1.7 .4-2.3q.4-3.1-.9-4.8a5.8 5.8 0 0 0 -3.7-2 5.1 5.1 0 0 0 -3.9 .7q-1.6 1.1-2.1 4zm9.8 .8-9.2-1.5q0-.7 .2-1.9c.5-3.4 2.6-4.6 5.2-4.1c3 .5 4.6 2.5 4.1 5.8zm-7.4-14.8 10.2 2.4 .6-2.3q.6-3-.5-4.8a5.8 5.8 0 0 0 -3.6-2.2 4.8 4.8 0 0 0 -3.9 .4q-1.7 1-2.4 3.8zm9.8 1.5-9-2.1a9.6 9.6 0 0 1 .3-1.9c.8-3.3 2.9-4.4 5.5-3.7c3 .7 4.5 2.8 3.7 6.1zm-1-15.2-.6-.2-1.1 4.1-3.9-1.1 1.2-4.3-.6-.2-1.4 5.1 10.2 2.8 1.5-5.3-.6-.2-1.2 4.6-4.5-1.2zm-3.2-7.3 10 3.4 .2-.7-4.3-1.4q.3-.5 .5-1.2q.6-1.9-.1-3.3a3.2 3.2 0 0 0 -1.8-1.4 3.2 3.2 0 0 0 -2.2 .1q-1.1 .6-1.8 2.4a12.8 12.8 0 0 0 -.5 2.2m5.3 1-4.5-1.5 .4-1.4c.5-1.6 1.7-2.5 3.2-2s2.1 1.9 1.5 3.7a6.4 6.4 0 0 1 -.6 1.2m7.2-5 .3-.7-10-3.7-.3 .7zm3.5-9.9-.6 0a6.4 6.4 0 0 1 -.4 2.4c-1.1 2.6-3.4 3.5-6.1 2.4c-2.8-1.2-3.9-3.5-2.8-6.1a6.4 6.4 0 0 1 1.2-1.9l-.5-.4a6.4 6.4 0 0 0 -1.3 2.1c-1.2 3.1 .2 5.9 3.1 7c3.5 1.4 5.9-.3 6.9-2.7a6.4 6.4 0 0 0 .6-2.8m-8.4-6.5-.3 .7 9.7 4.4 .3-.7-4.8-2.2 2.4-5.3 4.9 2.2 .3-.7-9.7-4.4-.3 .7 4.3 2-2.5 5.3zm13.5-3.8 .4-.7-9.5-4.7-.3 .7zm-7.9-7.9 9.4 5 2.6-4.8-.6-.3-2.2 4.2-8.8-4.7zm10.6-8.1-.5-.3-2.1 3.7-3.5-2 2.2-3.9-.5-.3-2.6 4.5 9.2 5.3 2.8-4.8-.5-.3-2.4 4.1-4-2.3zm6.3-9.6 4.4 2.4 .4-.6-9.3-5.1-.5 .7 3.9 5.3q1.3 1.8 2.2 2.8l0 0-3.5-.9-6.4-1.4-.4 .7 8.5 6.4 .4-.6-3.9-2.9-4-2.8a64 64 0 0 0 4.2 1.1l5.9 1.3 .3-.4-3.6-5-2.6-3.4c1 .6 2.7 1.6 4.1 2.3m-2.1-6.7-.4 .6 5.2 3.8c2.6 1.9 4.5 1.2 5.6-.4c1.2-1.6 1.2-3.7-1.4-5.6l-5.2-3.7-.4 .6 5.2 3.7c2.1 1.5 2.3 3.2 1.3 4.6c-.9 1.3-2.5 1.7-4.7 .1zm16.1-3.7 .5-.6-8.3-6.7-.5 .6zm-6.1-9.3 8.1 6.8 3.6-4.2-.5-.4-3 3.6-7.6-6.4zm4.9-5.8-.5 .6 4.8 4.4c2.4 2.2 4.4 1.7 5.6 .3c1.4-1.5 1.7-3.6-.7-5.8l-4.7-4.3-.5 .6 4.7 4.3c1.9 1.8 2 3.4 .7 4.7c-1 1.2-2.7 1.4-4.7-.4zm12.9 0 .2 .6a4.8 4.8 0 0 0 2.3-1.3c1.6-1.6 1.4-3.4 .3-4.4c-1.1-1.1-2.3-1-4.1-.3c-1.5 .6-2.4 .7-3.2-.1c-.6-.6-1-1.8 .3-3a3.2 3.2 0 0 1 1.7-1l-.3-.6a4.2 4.2 0 0 0 -1.9 1.2c-1.3 1.3-1.4 3-.3 4.1c1 1 2.4 .9 4 .1c1.5-.7 2.4-.6 3.3 .2c.9 .9 .9 2.3-.3 3.4a4.2 4.2 0 0 1 -2.1 1.2m.8-13.2 6.8 7.3 .5-.5-6.8-7.3 2.5-2.4-.4-.4-5.6 5.2 .4 .4zm3.8-4.2 6.9 7.9 .5-.5-3.2-3.7 1.2-1.1c1.1-.9 2-.8 3.3 .2l2.2 1.5 .6-.5a12.8 12.8 0 0 1 -2.5-1.6q-1.5-1.2-2.7-.6c.6-1.2 .7-2.4-.3-3.5a3.2 3.2 0 0 0 -1.8-.9q-1.2-.1-2.8 1.2a12.8 12.8 0 0 0 -1.6 1.7m3.8 3.3-2.9-3.4a6.4 6.4 0 0 1 1.1-1.1c1.3-1.1 2.6-1.4 3.7-.1c.9 1.1 .7 2.4-.5 3.5zm9.6-7.7-.4-.5-3.3 2.7-2.6-3.2 3.5-2.8-.4-.5-4.1 3.3 6.7 8.3 4.3-3.4-.4-.5-3.7 3-2.9-3.6zm12.3-8.6 3.1 3.9 .6-.4-6.7-8.3-.7 .5 1.6 6.4c.4 1.5 .7 2.6 1 3.5l0 0-2.9-2.1-5.4-3.7-.7 .5 5.4 9.2 .6-.4-2.5-4.2-2.6-4.1q1.4 1.1 3.5 2.6l5 3.4 .4-.3-1.5-6a64 64 0 0 0 -1.1-4.1c.7 1 1.9 2.5 2.9 3.7m.5-7-.6 .4 3.4 5.5c1.7 2.8 3.7 2.8 5.3 1.8c1.7-1.1 2.6-3 .9-5.8l-3.4-5.4-.6 .4 3.4 5.4c1.4 2.2 .9 3.8-.5 4.8c-1.3 .8-3 .6-4.4-1.7zm13.2 4.3 .6-.4-2.6-4.7c-.9-1.5-1.4-2.6-2.1-3.6q1.5 1 3.5 2l6.6 3.4 .6-.3-5.2-9.3-.6 .4 2.6 4.6c.8 1.5 1.4 2.5 2.2 3.7a32 32 0 0 0 -3.4-1.9l-6.7-3.5-.6 .4zm8.7-4.8 .7-.4-4.9-9.4-.7 .4zm9.2-4.9-.4-.4a6.4 6.4 0 0 1 -2 1.5c-2.6 1.2-4.8 .3-6.1-2.3c-1.3-2.8-.5-5.2 2-6.4a6.4 6.4 0 0 1 2.2-.5l-.1-.7a6.4 6.4 0 0 0 -2.4 .6c-3 1.5-3.8 4.5-2.5 7.3c1.6 3.4 4.5 3.8 6.9 2.7a6.4 6.4 0 0 0 2.3-1.7m1.8-.4 .7-.3-4.3-9.7-.7 .3zm-1-11 4 9.7 .7-.3-1.7-4.2a3.2 3.2 0 0 0 1.2-.4q1.9-.8 2.4-2.3a3.2 3.2 0 0 0 -.1-2.2 3.2 3.2 0 0 0 -1.6-1.6q-1.2-.4-2.9 .3a9.6 9.6 0 0 0 -2 1.1m2.7 4.6-1.8-4.4 1.3-.7c1.6-.6 3-.4 3.6 1.2c.6 1.6-.1 2.8-1.8 3.6a6.4 6.4 0 0 1 -1.3 .4m7-1.2 3.9-1.4 2.6 3 .7-.3-7.3-8.6-.7 .3 .1 11.3 .7-.3zm3.5-2-3.5 1.3v-3.8l-.1-1.9 1.2 1.6zm1.9-7.3 3.3 10.1 5.2-1.7-.2-.6-4.5 1.5-3.1-9.5zm9.9 8 .7-.2-3-10.2-.7 .2zm.4-11.1 2.7 10.1 2.3-.5q3-.8 4-2.7a5.8 5.8 0 0 0 .3-4.3 4.8 4.8 0 0 0 -2.2-3.2q-1.7-1.1-4.5-.3zm3.2 9.3-2.3-9a9.6 9.6 0 0 1 1.8-.7c3.3-.9 5.2 .5 5.9 3.2c.8 3-.4 5.2-3.7 6.1q-1 .3-1.7 .4m9.5-5.5 4.1-.9 2.1 3.4 .8-.2-5.9-9.6-.7 .2-1.6 11.2 .8-.2zm3.7-1.4-3.6 .8 .5-3.8q.1-1 .2-1.9l1 1.7zm3-6.8 1.7 10.3 2.4-.3q3.1-.5 4.3-2.3a5.8 5.8 0 0 0 .7-4.2 5.1 5.1 0 0 0 -1.9-3.5q-1.6-1.2-4.5-.7zm2.3 9.6-1.5-9.2a9.6 9.6 0 0 1 1.9-.4c3.4-.5 5.2 1 5.5 3.7c.5 3-.9 5.2-4.2 5.7a9.6 9.6 0 0 1 -1.7 .2m11.7-11.6 1 10.4q1.1 0 2.4-.1c2-.2 3.6-.9 4.4-2a5.8 5.8 0 0 0 1-4.1 5.1 5.1 0 0 0 -1.6-3.6q-1.5-1.3-4.4-1a12.8 12.8 0 0 0 -2.7 .5m1.7 9.7-.9-9.2a12.8 12.8 0 0 1 1.9-.4c3.4-.3 5.1 1.4 5.2 4.1c.3 3-1.2 5.1-4.6 5.4a9.6 9.6 0 0 1 -1.7 .1m14.1-5.6 0-.6-4.3 .2-.2-4.1 4.5-.2 0-.6-5.2 .2 .5 10.6 5.5-.3 0-.6-4.7 .2-.2-4.6zm6-5.3-.1 10.5h.8l0-4.5a6.4 6.4 0 0 0 1.3 .1c1.3 0 2.5-.4 3.1-1.2a3.2 3.2 0 0 0 .8-2.1 3.2 3.2 0 0 0 -.8-2.1q-.9-.9-2.8-.9zm.7 5.3 0-4.7a6.4 6.4 0 0 1 1.5-.1c1.7 0 2.9 .8 2.9 2.5c0 1.7-1.2 2.6-3 2.6a3.2 3.2 0 0 1 -1.4-.2m7 5.3 .8 0 .4-10.6-.8 0zm10.4 .2-.2-.6a6.4 6.4 0 0 1 -2.4 .4c-2.8-.2-4.4-2.2-4.2-5.1c.2-3 2-4.8 4.9-4.6a6.4 6.4 0 0 1 2.2 .6l.3-.6a6.4 6.4 0 0 0 -2.4-.6c-3.4-.2-5.5 2-5.8 5.2c-.2 3.8 2.1 5.6 4.7 5.7a6.4 6.4 0 0 0 2.9-.4m3.6-10-.8-.1-1.2 10.6 .8 .1 .6-5.3 5.9 .7-.6 5.3 .8 .1 1.2-10.6-.8-.1-.5 4.6-5.8-.6zm7.8 11.7 .7 .1 1.5-10.5-.8-.1zm5-10-1.8 10.5 5.4 .9 .1-.6-4.7-.8 1.7-9.8zm11 7.6 .1-.6-4.2-.9 .8-4 4.4 .9 .1-.6-5.1-1.1-2.2 10.4 5.4 1.1 .1-.6-4.6-1 .9-4.5zm11 3-1 4.9 .7 .2 2-10.5-.9-.2-3.8 5.3c-.9 1.2-1.5 2.1-2 3l-.1 0a32 32 0 0 0 -.3-3.6l-.7-6.5-.8-.2-3.4 10.1 .7 .2 1.6-4.6 1.4-4.6c0 1.2 .2 2.6 .3 4.3l.6 6 .5 .1 3.6-5q1.4-2 2.4-3.5c-.3 1.1-.6 3.1-1 4.6m5.7-4.2-.7-.2-2 6.1c-1 3.1 .3 4.6 2 5.2c1.9 .6 4 0 4.9-3.1l1.9-6-.7-.2-2 6.1c-.8 2.5-2.3 3.2-4 2.7c-1.5-.4-2.4-1.8-1.5-4.4zm8.6 14.1 .7 .3 3.7-10-.7-.3zm7-8.7-3.9 9.9 5.1 2 .2-.6-4.4-1.8 3.7-9.3zm6.9 2.8-.7-.3-2.6 5.9c-1.3 3-.3 4.7 1.4 5.4c1.9 .8 3.9 .5 5.3-2.5l2.6-5.8-.7-.3-2.6 5.9c-1.1 2.4-2.6 2.9-4.3 2.2c-1.4-.6-2.1-2.1-1-4.6zm4.1 12.2-.5 .4c.3 .6 1.2 1.3 2 1.8c2 1 3.6 .3 4.3-1.1s.2-2.5-1-3.9c-1.1-1.2-1.4-2.1-.9-3.1c.4-.8 1.4-1.5 2.9-.7a3.2 3.2 0 0 1 1.4 1.3l.5-.4a3.2 3.2 0 0 0 -1.7-1.4c-1.6-.8-3.3-.4-4 1c-.6 1.3-.1 2.5 1.1 3.8c1.1 1.2 1.4 2.1 .8 3.2c-.6 1.2-1.9 1.5-3.3 .8a4.2 4.2 0 0 1 -1.8-1.7m12.7-3.4-4.8 8.8 .6 .4 4.8-8.8 3 1.7 .3-.6-6.8-3.7-.3 .5zm5.2 2.3-5.4 9 .7 .4 2.5-4.2 1.4 .8c1.2 .8 1.4 1.7 .9 3.2a12.8 12.8 0 0 0 -.7 2.6l.7 .4c0-.5 .2-1.3 .8-2.9q.6-1.8-.3-2.8c1.3 .3 2.5-.1 3.2-1.3a3.2 3.2 0 0 0 .3-2q-.3-1.2-2-2.2a12.8 12.8 0 0 0 -2.1-1m-1.9 4.7 2.3-3.8 1.4 .7c1.4 .9 2.1 2 1.3 3.4c-.7 1.2-2.1 1.4-3.5 .6zm10.4 6.7 .3-.5-3.6-2.3 2.2-3.4 3.7 2.4 .4-.5-4.4-2.9-5.8 8.9 4.6 3 .4-.5-4-2.6 2.5-3.9zm12 8.9-2.8 4.2 .6 .4 5.8-9-.7-.5-5.6 3.5a32 32 0 0 0 -3 2l-.1 0q.5-1.4 1.1-3.5l1.8-6.3-.7-.5-7 8.1 .6 .4 3.2-3.7 3.1-3.7q-.6 1.6-1.3 4.1l-1.7 5.8 .4 .3 5.2-3.3c1.5-.9 2.6-1.6 3.6-2.3c-.7 .9-1.8 2.6-2.6 3.9m6.8-1.7-.6-.5-4.1 5c-2.1 2.5-1.5 4.4 0 5.6c1.5 1.3 3.6 1.5 5.7-1l4.1-4.9-.6-.5-4.1 4.9c-1.7 2-3.4 2.1-4.7 1c-1.2-1-1.5-2.6 .2-4.7zm.1 14 .5 .5 3.6-4c1.2-1.3 2-2.1 2.8-3.2q-.5 1.8-.8 3.9l-1.2 7.3 .5 .5 7.2-7.8-.5-.5-3.6 3.9c-1.1 1.2-2 2.1-2.8 3.2a32 32 0 0 0 .8-3.8l1.2-7.4-.5-.5zm7.3 6.8 .5 .5 7.5-7.6-.5-.5zm7.6 7.2 .3-.6a6.4 6.4 0 0 1 -2-1.4c-2-2-1.8-4.5 .3-6.5c2.2-2.1 4.8-2.1 6.8-.1q.9 1 1.2 1.9l.6-.3a6.4 6.4 0 0 0 -1.3-2.1c-2.3-2.4-5.5-2.2-7.7-.1c-2.7 2.6-2.2 5.5-.4 7.4c.9 1 1.8 1.5 2.4 1.7m.8 1.5 .5 .5 7.9-7.1-.5-.5zm10.2-4.4-8 6.8 .5 .6 3.5-2.9a3.2 3.2 0 0 0 .8 1.1 4.2 4.2 0 0 0 2.9 1.6 3.2 3.2 0 0 0 2.1-.8 3.2 3.2 0 0 0 1.1-2q.1-1.3-1.2-2.7a12.8 12.8 0 0 0 -1.6-1.6m-3.6 4 3.6-3.1q.4 .3 1.1 1.1c1.1 1.3 1.3 2.7 0 3.8s-2.7 .8-3.9-.6a3.2 3.2 0 0 1 -.8-1.2m3.3 6.3 2.6 3.3-2.1 3.4 .5 .6 6-9.6-.4-.6-10.7 3.6 .5 .6zm3 2.7-2.3-2.9 3.6-1.2 1.8-.7-1.1 1.6zm7.5-.5-8.6 6.2 3.2 4.4 .5-.4-2.8-3.8 8.1-5.9zm-4.5 11.9 .4 .6 8.8-6-.4-.6zm10.7-3-8.8 5.7 1.2 2q1.8 2.6 3.9 3a5.8 5.8 0 0 0 4.1-1 5.1 5.1 0 0 0 2.4-3.1q.4-1.9-1.1-4.4zm-7.9 6 7.8-5a9.6 9.6 0 0 1 1.2 1.5c1.9 2.9 1.1 5.1-1.2 6.6c-2.6 1.7-5.1 1.3-6.9-1.6a9.6 9.6 0 0 1 -.9-1.5m8.2 7.3 2.1 3.6-2.6 3 .4 .7 7.3-8.6-.4-.6-11.1 2 .4 .7zm2.5 3.1-1.9-3.2 3.7-.7 1.9-.4-1.3 1.4zm7.4 .7-9.3 4.8q.4 1.1 1 2.1c1 1.8 2.2 3 3.6 3.3a5.8 5.8 0 0 0 4.2-.6 4.8 4.8 0 0 0 2.7-2.9q.6-1.9-.7-4.5zm-8.4 5.2 8.2-4.3q.4 .5 1.1 1.6c1.6 3 .6 5.2-1.8 6.4c-2.7 1.4-5.2 .8-6.8-2.2q-.5-1-.7-1.6m14.7 7.5-9.6 4.2 .9 2.2c.8 1.9 2 3.1 3.3 3.6a5.8 5.8 0 0 0 4.2-.4 5.1 5.1 0 0 0 2.8-2.7q.8-1.8-.4-4.5a12.8 12.8 0 0 0 -1.3-2.4m-8.7 4.6 8.5-3.7a9.6 9.6 0 0 1 .9 1.7c1.3 3.1 .3 5.2-2.2 6.3c-2.8 1.2-5.2 .4-6.6-2.7q-.4-1-.6-1.6m9.8 11.6 .6-.2-1.5-4 3.8-1.5 1.6 4.2 .6-.2-1.9-4.9-9.9 3.8 2 5.2 .6-.2-1.7-4.4 4.4-1.7zm6.9 4-10 3.2 .2 .7 4.3-1.4a6.4 6.4 0 0 0 .3 1.2c.4 1.2 1.2 2.2 2.1 2.6q1 .4 2.2 0a3.2 3.2 0 0 0 1.8-1.4q.5-1.1 0-2.9a12.8 12.8 0 0 0 -.9-2.1m-4.8 2.3 4.5-1.4a6.4 6.4 0 0 1 .6 1.4c.5 1.6 .2 3-1.4 3.5c-1.6 .5-2.8-.3-3.4-2.1a3.2 3.2 0 0 1 -.3-1.3m-2.8 8.4 .2 .7 10.2-3-.2-.7zm3.1 10 .5-.4a6.4 6.4 0 0 1 -1.1-2.2c-.7-2.8 .7-4.8 3.5-5.5c3-.8 5.2 .4 5.9 3.2a4.5 4.5 0 0 1 .1 2.2l.7 .1a6.4 6.4 0 0 0 -.2-2.5c-.8-3.3-3.6-4.6-6.7-3.8c-3.7 1-4.6 3.7-4 6.2a6.4 6.4 0 0 0 1.2 2.6m10.6 .3-.2-.8-10.4 2.2 .2 .7 5.2-1.1 1.2 5.7-5.2 1.1 .2 .7 10.4-2.2-.2-.7-4.6 1-1.2-5.7zm-8.6 11.1 .1 .8 10.5-1.9-.1-.7zm11.1 1.6-10.5 1.6 .8 5.4 .6-.1-.7-4.7 9.9-1.5zm-3.7 12.8 .6-.1-.5-4.2 4-.5 .5 4.5 .6-.1-.6-5.2-10.6 1.2 .6 5.5 .6-.1-.5-4.7 4.6-.5zm.6 11.4-5 .6 0 .7 10.6-1.4-.1-.9-6.3-2-3.5-1 0 0c1-.4 2-.8 3.4-1.4l6-2.7-.1-.9-10.7-.1 .1 .7 4.9 0 4.8-.1a64 64 0 0 0 -4 1.6l-5.5 2.5 0 .5 5.9 1.9c1.6 .5 2.9 .9 4.1 1.2c-1.2 .1-3.1 .4-4.7 .5m5.7 4.1 0-.7-6.5 .1c-3.3 0-4.3 1.7-4.3 3.6c0 2 1.2 3.8 4.5 3.7l6.4-.1v-.7l-6.4 .1c-2.6 0-3.8-1.2-3.8-2.9c0-1.6 1-2.8 3.7-2.9zm-4.5 45.5-9.8-2-.2 .7 9.8 2-.7 3.4 .6 .1 1.5-7.6-.6-.1zm-54.4 95.8-2.8 3.1-3.6-1.5-.5 .6 10.4 4.4 .5-.5-5.2-10-.5 .6zm-2.2 3.4 2.5-2.8 1.8 3.4 1 1.7-1.8-.8zm1.5 7.3-7.4-7.4-1.7 1.6q-2.2 2.2-2.1 4.4a5.8 5.8 0 0 0 1.8 3.8 5.1 5.1 0 0 0 3.6 1.7q2 .1 4.1-2zm-7.5-6.4 6.5 6.6a9.6 9.6 0 0 1 -1.2 1.5c-2.4 2.4-4.8 2.2-6.7 .2c-2.2-2.2-2.3-4.7 .1-7.1zm14.6-17.8-.4 .6 8.4 6.5 .5-.6zm6.1 9.2-8-6.7-1.6 1.8c-1.3 1.6-1.9 3.2-1.7 4.6a5.8 5.8 0 0 0 2.2 3.6 5.1 5.1 0 0 0 3.7 1.3q2-.1 3.8-2.4a12.8 12.8 0 0 0 1.6-2.2m-8-5.7 7.1 5.9a9.6 9.6 0 0 1 -1.1 1.6c-2.2 2.6-4.5 2.6-6.6 .8c-2.4-2-2.8-4.5-.6-7.1zm39.7-48.7 .3-.7-6-2.4c-3-1.2-4.6-.1-5.3 1.6c-.8 1.9-.3 3.9 2.7 5.2l5.9 2.4 .3-.7-5.9-2.4c-2.4-1-3-2.6-2.3-4.2c.6-1.4 2-2.2 4.5-1.2zm9.5-31.6-10.2-2.4-.2 .7 4.7 1.1-.4 1.6c-.4 1.3-1.2 1.8-2.8 1.8a12.8 12.8 0 0 0 -2.7 .1l-.2 .8a12.8 12.8 0 0 1 3-.1q1.9 0 2.6-1.1c.1 1.3 .8 2.3 2.2 2.7a2.6 2.6 0 0 0 2-.3c.7-.4 1.2-1.2 1.5-2.6zm-5-.4 4.3 1a6.4 6.4 0 0 1 -.2 1.5c-.4 1.6-1.3 2.7-2.9 2.3c-1.3-.3-2-1.6-1.6-3.2zm-74.8 117 .4 .5 3.3-2.6 2.6 3.2-3.6 2.8 .4 .5 4.1-3.2-6.6-8.4-4.3 3.4 .4 .5 3.7-3 2.9 3.6zm-1.7 7.8-6.1-8.6-.6 .4 2.6 3.7a3.2 3.2 0 0 0 -1.1 .6q-1.6 1.2-1.9 2.8a3.2 3.2 0 0 0 .6 2.2 3.2 3.2 0 0 0 1.9 1.2q1.2 .2 2.8-.9a9.6 9.6 0 0 0 1.7-1.5m-3.7-3.9 2.8 3.9-1.2 1c-1.4 1-2.8 1.1-3.8-.3s-.6-2.8 1-3.9a6.4 6.4 0 0 1 1.2-.7m59.5-56.6-8.9-5.6-.4 .6 3.8 2.4q-.4 .4-.8 1c-.7 1.1-.9 2.3-.6 3.3q.3 1.1 1.4 1.8a2.6 2.6 0 0 0 2.2 .4q1.2-.3 2.2-1.9a12.8 12.8 0 0 0 1-2m-4.9-2.2 4 2.5-.7 1.3c-.9 1.4-2.2 2.1-3.6 1.2c-1.4-.9-1.6-2.3-.6-4q.4-.6 .9-1.1m-34 49.1-6.8-7.9-1.9 1.5c-1.5 1.3-2.4 2.8-2.4 4.2a5.8 5.8 0 0 0 1.6 3.9 5.1 5.1 0 0 0 3.4 1.9q2 .2 4.2-1.7zm-7-6.9 6 7a9.6 9.6 0 0 1 -1.3 1.4c-2.6 2.2-4.9 1.8-6.7-.2c-2-2.3-2-4.9 .6-7.1a9.6 9.6 0 0 1 1.4-1.1m58.4-78.2-4.9-1.4-.2 .7 10.3 2.8 .3-.8-5-4.3c-1.2-1-2-1.7-2.8-2.2v0c1.1 .1 2.2 .1 3.6 0l6.5-.2 .3-.8-9.8-4.2-.2 .7 4.5 1.9 4.5 1.8q-1.7-.1-4.3 0l-6 .1-.2 .5 4.7 4q1.9 1.6 3.3 2.7zm17.9-57.3-10.6-.8-.4 5.5 .6 .1 .4-4.7 10 .8zm-242 183.5-.7-.1-1.7 10.5 .8 .1zm-10.3-1.5 .1 .6a6.4 6.4 0 0 1 2.4 0c2.8 .5 4.1 2.7 3.5 5.5c-.6 3-2.7 4.5-5.5 3.9a4.8 4.8 0 0 1 -2.1-.9l-.4 .6a6.4 6.4 0 0 0 2.3 .9c3.3 .6 5.8-1.3 6.4-4.4c.7-3.7-1.4-5.8-3.9-6.3a6.4 6.4 0 0 0 -2.9 0m242-186.1-.1 .7 10.6 .6 0-.8zm-88.4 156.1-.6 .4 5.9 8.8 .6-.4zm98.1-144.6 .1-.8-6.4-.7c-3.2-.4-4.5 1.2-4.7 3c-.2 2 .7 3.9 4 4.3l6.3 .7 .1-.7-6.4-.8c-2.6-.3-3.6-1.6-3.4-3.4c.2-1.5 1.4-2.7 4.1-2.4z"/></svg>