<svg fill="currentColor" xmlns="http://www.w3.org/2000/svg" viewBox="0 0 640 512"><path d="M321.2 0c12.4 11.5 23 24.9 31.1 39.8c28 4.6 54.1 14.9 76.9 29.9l.4 .3 1.9 1.2-12.4 18.2-11.6 17.1a96 96 0 0 0 -9.2-10.1c-16.3-13.5-32.4 8.7-58 8.6c-8.4 0-15.9-6.2-15.9-6.2l10.3-10.3s13.3 12.6 27.9 8.8c5.2-1.3 9.3-3.6 12.8-6q-2.8-1.1-5.7-2l1.8-5.1a1.3 1.3 0 0 1 1.7-.8 1.3 1.3 0 0 1 1.7-.8l.7 .3a10.6 10.6 0 0 1 2.9-13.5 4.8 4.8 0 0 0 1.9-2.3 6.4 6.4 0 0 0 .3-1.7 6.4 6.4 0 0 1 1.8-4 1.3 1.3 0 0 1 -.7-1.7 1.3 1.3 0 0 1 -.8-1.7l1.7-4.6a224 224 0 0 0 -7.9-2.5l-1.1 4.3a1.3 1.3 0 0 1 -1.6 .9 1.4 1.4 0 0 1 -1.6 1 6.4 6.4 0 0 1 -.7 4.4 3.2 3.2 0 0 0 -.7 1.5 4.8 4.8 0 0 0 .3 3.1 10.7 10.7 0 0 1 -5.2 12.7l.7 .2a1.3 1.3 0 0 1 1 1.6 1.4 1.4 0 0 1 1 1.6l-1.5 5.7a160 160 0 0 0 -9-2.4l1.4-5.6a1.3 1.3 0 0 1 1.6-1c.2-.7 .9-1.1 1.6-1l.7 .2a10.6 10.6 0 0 1 -1.5-8.6 9.6 9.6 0 0 1 3.1-5.2 4.8 4.8 0 0 0 1.7-4.2 6.4 6.4 0 0 1 .2-1.8 6.4 6.4 0 0 1 1.2-2.4 1.3 1.3 0 0 1 -.9-1.6 1.4 1.4 0 0 1 -1-1.6l1.1-4.4a224 224 0 0 0 -10-2.1q1.7 3.4 3.1 6.9l.1 .1-12.1 22.8A160 160 0 0 0 321.2 74zm95.9 88.3 9.2-13.5q-2.3-1.5-4.6-2.9l-2.3 3.9a1.3 1.3 0 0 1 -1.8 .5 1.3 1.3 0 0 1 -1.8 .5 6.4 6.4 0 0 1 -.8 2.6 6.4 6.4 0 0 1 -1.2 1.4 6.4 6.4 0 0 0 -1.1 1.3q-.8 1.5-.6 3v.7zm-6.7-11.6a6.4 6.4 0 0 1 1.9-2 1.3 1.3 0 0 1 -.4-1.8 1.3 1.3 0 0 1 -.5-1.8l2.3-3.9a192 192 0 0 0 -6.5-3.4l-1.9 3.9a1.3 1.3 0 0 1 -1.8 .6c-.3 .6-1.1 .9-1.8 .6a5.8 5.8 0 0 1 -1.5 4.2 3.2 3.2 0 0 0 -1 1.4 4.8 4.8 0 0 0 -.3 3.1 9.6 9.6 0 0 1 -.1 3.5q1 0 2 .2q1.9 .3 4.7 1.4l1.4-.9a4.8 4.8 0 0 0 2.2-1.9 6.4 6.4 0 0 0 .6-1.6 6.4 6.4 0 0 1 .6-1.7m-13.4-12.9 1.9-4a224 224 0 0 0 -7.4-3.1l-1.6 4.5a1.3 1.3 0 0 1 -1.7 .8 1.3 1.3 0 0 1 -1.7 .8 6.4 6.4 0 0 1 -.3 2.7 6.4 6.4 0 0 1 -.9 1.6 4.8 4.8 0 0 0 -.9 4.5 10.6 10.6 0 0 1 -6.4 12.2l.7 .3a1.3 1.3 0 0 1 .8 1.7 1.3 1.3 0 0 1 .8 1.7l-.3 .7c2.8-2 5.4-3.9 8.4-5.3a10.6 10.6 0 0 1 5-8 4.5 4.5 0 0 0 2-2.1 3.2 3.2 0 0 0 .4-1.6 5.8 5.8 0 0 1 2.2-3.9 1.3 1.3 0 0 1 -.6-1.8 1.3 1.3 0 0 1 -.6-1.7m-51 4.8 9-17 0-.1A131.2 131.2 0 0 0 328.6 11.8v55q8.8 .4 17.3 1.8M318.3 0v74a160 160 0 0 0 -25.6 2.2l-12.1-22.8 .1-.1q1.4-3.5 3.1-6.8a160 160 0 0 0 -9.7 2.1l1.1 4.4a1.4 1.4 0 0 1 -1 1.6 1.3 1.3 0 0 1 -.9 1.6 6.4 6.4 0 0 1 1.2 2.4 6.4 6.4 0 0 1 .2 1.8 4.8 4.8 0 0 0 1.7 4.2q2.2 2 3.1 5.2a10.6 10.6 0 0 1 -1.5 8.6l.7-.2c.7-.2 1.5 .3 1.6 1a1.3 1.3 0 0 1 1.6 1l1.4 5.6a160 160 0 0 0 -9 2.4l-1.4-5.7a1.3 1.3 0 0 1 1-1.6 1.3 1.3 0 0 1 1-1.6l.7-.2a10.7 10.7 0 0 1 -5.2-12.7 4.5 4.5 0 0 0 -.4-4.6 6.4 6.4 0 0 1 -.7-4.4 1.3 1.3 0 0 1 -1.6-1 1.3 1.3 0 0 1 -1.6-.9l-1.1-4.3a192 192 0 0 0 -7.9 2.5l1.6 4.6c.2 .7-.1 1.5-.8 1.7a1.3 1.3 0 0 1 -.8 1.7 6.4 6.4 0 0 1 1.5 2.3q.3 .9 .3 1.7q0 .8 .3 1.7a4.5 4.5 0 0 0 1.8 2.3 10.6 10.6 0 0 1 2.9 13.5l.7-.3a1.3 1.3 0 0 1 1.7 .8 1.3 1.3 0 0 1 1.7 .8l1.8 5.1q-2.8 1-5.7 2c3.6 2.4 7.6 4.6 12.8 6c14.6 3.8 27.9-8.8 27.9-8.8l10.3 10.3s-7.6 6.1-15.9 6.2c-25.5 .1-41.7-22.1-58-8.6a96 96 0 0 0 -9.2 10.1l-11.6-17.1-12.4-18.2 1.9-1.2 .4-.3a198.4 198.4 0 0 1 76.6-29.8c8.2-15 18.7-28.4 31.2-39.9M227.6 85.7v-.7a4.8 4.8 0 0 0 -1.7-4.3 6.4 6.4 0 0 1 -1.9-4 1.3 1.3 0 0 1 -1.8-.5 1.3 1.3 0 0 1 -1.8-.5l-2.3-3.9q-2.3 1.4-4.6 2.9l9.2 13.5zm11.4-4.4q1-.1 2-.2a9.6 9.6 0 0 1 -.2-3.5 4.8 4.8 0 0 0 -.3-3.1 6.4 6.4 0 0 0 -1-1.4 6.4 6.4 0 0 1 -1-1.5 6.4 6.4 0 0 1 -.5-2.7 1.3 1.3 0 0 1 -1.7-.6c-.7 .3-1.5 0-1.8-.6l-1.9-3.9a160 160 0 0 0 -6.5 3.4l2.3 3.9a1.3 1.3 0 0 1 -.5 1.8 1.3 1.3 0 0 1 -.4 1.8 6.4 6.4 0 0 1 2.6 3.6 4.8 4.8 0 0 0 2.8 3.5 9.6 9.6 0 0 1 1.4 .9 22.4 22.4 0 0 1 4.7-1.4m71.9-14.4v-55a131.2 131.2 0 0 0 -26.3 39.7l0 .1 9 17q8.5-1.3 17.3-1.8m-49.1 16.9a10.6 10.6 0 0 1 -6.4-12.2 4.8 4.8 0 0 0 0-3.1 6.4 6.4 0 0 0 -.9-1.4 5.8 5.8 0 0 1 -1.2-4.3 1.3 1.3 0 0 1 -1.7-.8 1.3 1.3 0 0 1 -1.7-.8l-1.6-4.5a224 224 0 0 0 -7.4 3.1l1.9 4c.3 .6 0 1.4-.6 1.7a1.4 1.4 0 0 1 -.6 1.8q1.1 .9 1.7 2.1a6.4 6.4 0 0 1 .5 1.7 6.4 6.4 0 0 0 .4 1.6q.7 1.4 2 2.1q2.6 1.6 4 4.5a9.6 9.6 0 0 1 1 3.5c3 1.3 5.7 3.3 8.4 5.3l-.2-.7a1.3 1.3 0 0 1 .8-1.7 1.3 1.3 0 0 1 .8-1.7zm-68.3 28.4H446v274.7c0 21.9-17.7 39.6-39.6 39.6h-65.1a19.1 19.1 0 0 0 -19.1 19.1h-4.7a19.1 19.1 0 0 0 -19.1-19.1H233.1a39.7 39.7 0 0 1 -39.6-39.6zm248.3 274.7V116.5H197.8v270.3c0 19.5 15.8 35.2 35.3 35.2h65.4c9.5 0 17.8 5.7 21.4 13.9a23.7 23.7 0 0 1 21.2-13.9h65.4c19.5 0 35.3-15.8 35.3-35.2m-187.3 26a9.6 9.6 0 0 0 2.3-4 6.4 6.4 0 0 0 .3-1.8 6.4 6.4 0 0 0 -.1-1.3 3.2 3.2 0 0 0 -.4-.8l-.5-.4-.6-.1q-.5 0-.8 .3a3.2 3.2 0 0 0 -.7 1.6l-.1 .9-.2 .1-.7-.7-.6-.6a3.2 3.2 0 0 1 1.2-1.7 3.2 3.2 0 0 1 2.3-.7 6.4 6.4 0 0 1 1.9 .3 3.2 3.2 0 0 1 1.2 .8 3.2 3.2 0 0 1 .6 1 3.2 3.2 0 0 1 .2 1.1 3.2 3.2 0 0 1 -.2 1.3 6.4 6.4 0 0 1 -.7 1.5l-1.4 1.9q-1 1.1-2.4 2.5l2.4 0 2.4-.1-.1 .6 0 .6 0 .6 .1 .6-1.9 0H254l-1.8 0v-.8q1.3-1.3 2.2-2.4m9.7 0a9.6 9.6 0 0 0 2.3-4 6.4 6.4 0 0 0 .1-3.1 3.2 3.2 0 0 0 -.4-.8 1.3 1.3 0 0 0 -.5-.4l-.6-.1q-.5 0-.8 .3l-.5 .7q-.2 .4-.3 .9l-.1 .9-.2 .1-.7-.7-.6-.6a3.2 3.2 0 0 1 1.2-1.7 3.2 3.2 0 0 1 2.3-.7q1.2 0 1.9 .3a3.2 3.2 0 0 1 1.2 .8 3.2 3.2 0 0 1 .6 1 3.2 3.2 0 0 1 .2 1.1 3.2 3.2 0 0 1 -.2 1.3 9.6 9.6 0 0 1 -.7 1.5 32 32 0 0 1 -3.9 4.3l2.4 0 2.4-.1 0 .6 0 .6 0 .6 0 .6-1.9 0h-3.7l-1.8 0v-.8q1.3-1.3 2.2-2.4m12.6-2h4.2v2.1h-4.2zm13.4-2.7-1.1-2-.9-1.8-.6-1.1 .8 .1 .8 0 .7 0 .8-.1 1 2.3 1.1 2.3 1.2-2.3 1.2-2.3 .4 .1 .4 0 .4 0 .4-.1-.7 1.1-.9 1.4-1 1.6-.9 1.5 .9 2 1 2 .9 1.9 .7 1.3-.7 0h-1.5l-.7 0q-.6-1.1-1.1-2.3l-1.1-2.4q-.7 1.2-1.3 2.4l-1.2 2.3-.8 0h-.4l-.4 0 .7-1.2 .9-1.5 1-1.7 .9-1.5zm9.1-2.6-.1-2.4 .6 .1 .8 0 .8 0 .6-.1-.1 2.4 0 2.8v2.5a64 64 0 0 0 .1 5.1l-.6 0h-1.5l-.6 0 .1-2.4 0-2.8v-2.5zm6 0-.1-2.4 .6 .1 .7 0 .8 0 .6-.1-.1 2.4 0 2.8v2.5l0 2.8q0 1.2 .1 2.4l-.6 0h-1.5l-.6 0 .1-2.4 0-2.8v-2.5zm50-.9-.1 1.4 0 1.5 0 1.5v2.6l0 2 .1 2.4-.6 0h-1.3l-.7 0 .1-.8 .1-1.3 0-1.4 0-1.5v-5.2l-.4 .2-.5 .3-.6 .3-.5 .3-.4-.6-.4-.4q1.3-.5 2.5-1.1l2.5-1.3 .3 .1zM222.5 130.2l-.2-4.2a9.6 9.6 0 0 0 2.4 .2l2.1-.1 2.1-.1q2 0 3.2 .4a4.5 4.5 0 0 1 1.8 1 6.4 6.4 0 0 1 1.3 1.9 8.3 8.3 0 0 1 -.1 5.6 5.1 5.1 0 0 1 -1.6 2.1 6.4 6.4 0 0 1 -2.3 1.2 12.8 12.8 0 0 1 -3 .4h-1.5a256 256 0 0 0 .3 9.5l-1.1-.1h-2.6l-1.1 .1a160 160 0 0 0 .2-8.8v-4.4zm8.4 0a3.2 3.2 0 0 0 -.7-1.3 3.2 3.2 0 0 0 -1-.7 3.2 3.2 0 0 0 -1.2-.2h-.9l-.3 0 0 4.5 0 4.5 1.5-.2a3.5 3.5 0 0 0 2.4-2.1 6.4 6.4 0 0 0 .4-2.5 6.4 6.4 0 0 0 -.2-2m13.8 0-.2-4.2a9.6 9.6 0 0 0 2.4 .2l1.3 0 1.1-.1-.2 4.2q-.1 2.1-.1 4.8v4.4q0 2.7 .1 4.7l.2 4.1-1.1-.1h-2.6l-1.1 .1a160 160 0 0 0 .2-8.8v-4.4zm30.6 15.6q-.2 .7-.2 1.4a12.8 12.8 0 0 1 -5.9 1.3 12.8 12.8 0 0 1 -4.5-.8 9.6 9.6 0 0 1 -5.4-5.6 16 16 0 0 1 .2-9.9 9.9 9.9 0 0 1 6.2-6 12.8 12.8 0 0 1 4.4-.7q.7 0 1.6 .1a32 32 0 0 1 3.1 .8 6.4 6.4 0 0 1 1.2 .6q-.3 .8-.4 1.6l-.2 1.7h-.4a7.7 7.7 0 0 0 -2.3-2.2 5.1 5.1 0 0 0 -5-.1 6.4 6.4 0 0 0 -2.1 1.8 9.6 9.6 0 0 0 -1.5 3 12.8 12.8 0 0 0 -.6 4.4 12.8 12.8 0 0 0 .6 4.2 9.6 9.6 0 0 0 1.6 2.8 6.4 6.4 0 0 0 4.7 2.1 6.4 6.4 0 0 0 1.4-.2 6.4 6.4 0 0 0 1.4-.5 6.4 6.4 0 0 0 2.4-1.7l.4 .3zm20.7-8.4-2.2 0-2.2 0-2.2 .1v1.8a192 192 0 0 0 .2 8.8l-1.1-.1H286l-1.1 .1q.1-2 .2-4.1q.1-2.1 .1-4.7v-4.4q0-2.7-.1-4.7l-.2-4.2 1.1 .1a12.8 12.8 0 0 0 3.6-.1l-.2 4.1 0 4.7 1.8 .1h5.2l1.8-.1a192 192 0 0 0 -.3-8.8 12.8 12.8 0 0 0 2.4 .2l1.3-.1 1.1-.1-.2 4.2-.1 4.7v4.4l.1 4.7q.1 2.1 .2 4.1l-1.1-.1h-2.6l-1.1 .1q.2-2 .2-4.1l.1-4.7v-1.8zm17.5-7.2-.2-4.2a12.8 12.8 0 0 0 2.4 .2l1.3 0 1.1-.1a96 96 0 0 0 -.3 8.9v4.4a192 192 0 0 0 .3 8.8l-1.1-.1h-2.6l-1.1 .1q.2-2 .2-4.1l.1-4.7v-4.4zm15.3 0-.2-4.2a12.8 12.8 0 0 0 2.4 .2l1.3 0 1.1-.1-.2 4.2 0 4.8v7.9l0 3q1.7 0 3.3-.1q1.7-.1 3.3-.3l-.1 .6v1.6l.1 .5-1.9-.1h-8.7l-.6 .1q.2-2 .2-4.1l.1-4.7v-4.4zm20 0-.2-4.2 5.1 .2 3.8 0 2.2-.1a9.6 9.6 0 0 0 -.1 2.2l.1 .6-1.8-.1-2-.2-1.7-.1-1.1 0-.1 3.5v3.5l3.4-.1q1.5 0 3.2-.2l-.1 .9v.6l0 .5 .1 .8a64 64 0 0 0 -6.6-.3l0 2v2.1l.1 4a64 64 0 0 0 6.6-.4l-.1 .6 0 .8 0 .8 .1 .5-1.9-.1h-8.7l-.5 .1 .2-4.1 0-4.7v-4.4zm22.2 10.7-.4 7.2-.7-.1h-1.3l-.7 .1q1-5.5 1.6-11q.7-5.5 1.3-11.1l.6 .1 .6 0 .5 0 .6-.1 1.6 3.9 1.7 4a128 128 0 0 0 3.3 7.5 256 256 0 0 0 6.8-15.4 4.5 4.5 0 0 0 2.4 0l.6 6 .6 6.2 .6 5.7 .6 4.2-1.2-.1H388l-1.2 .1a160 160 0 0 0 -.5-7.2l-.7-7.6-3.3 7.5-3.2 7.4-.3-.1h-.5l-.3 .1-3.1-7.2-3.2-7.3q-.5 3.7-.7 7.3m35.2 7.2a7.7 7.7 0 0 1 -2.8-1.4 6.4 6.4 0 0 1 -1.9-2.6 9.6 9.6 0 0 1 -.7-3.9l0-2.3 0-1.9v-7.6l-.1-2.4a12.8 12.8 0 0 0 2.4 .2l1.2 0 1.2-.1a96 96 0 0 0 -.4 5.8l0 5.4q0 2.9 .4 4.7a6.4 6.4 0 0 0 1.1 2.8 3.2 3.2 0 0 0 1.8 1.3q1.1 .3 2.5 .3q1.7 0 2.7-1a6.4 6.4 0 0 0 1.5-2.6 16 16 0 0 0 .6-3.7q.1-2.1 .1-4.3l-.1-4.4-.2-4.4 .8 .1 .7 0 .7 0 .7-.1-.1 1.9-.1 2.8-.1 3.5 0 4q0 5.6-2.2 8t-6.3 2.4a12.8 12.8 0 0 1 -3.5-.4m-35.7 267.2a3.2 3.2 0 0 0 1 .2 3.2 3.2 0 0 0 1-.3 3.2 3.2 0 0 0 .9-1 6.4 6.4 0 0 0 .6-1.6 9.6 9.6 0 0 0 .3-2.4q-.2 .2-.4 .4l-.4 .4-.6 .2-.8 .1a3 3 0 0 1 -2.9-2 4.8 4.8 0 0 1 .7-4.6 3.2 3.2 0 0 1 1.2-.9 3.2 3.2 0 0 1 1.6-.3q1 0 1.7 .3a3.2 3.2 0 0 1 1.3 1q.5 .7 .8 1.6a12.8 12.8 0 0 1 -.1 5.5 6.4 6.4 0 0 1 -1.1 2.4 4.5 4.5 0 0 1 -3.8 2l-.7-.1q-.4-.1-.6-.2l-.2-.5-.2-.5 .1-.2zm3.4-10.3q-.4-.7-1-.7q-.7 0-1.1 .8a9.6 9.6 0 0 0 -.3 3.6 3.2 3.2 0 0 0 .3 .9 1 1 0 0 0 .4 .5 1 1 0 0 0 .5 .2 1 1 0 0 0 .5-.2 1 1 0 0 0 .4-.5l.3-.8 .1-1.2a6.4 6.4 0 0 0 -.4-2.5m44.3-244.4v205.6a29.4 29.4 0 0 1 -29.4 29.4H333a11.7 11.7 0 0 0 -11.7 11.7h-2.9a11.8 11.8 0 0 0 -11.8-11.7H250.7a29.4 29.4 0 0 1 -29.4-29.4V160.6zm-96.9 88v14.8a4.8 4.8 0 0 0 4.6-4.8c0-.6 .4-1 1.1-1q.5 0 .8 .4a1 1 0 0 1 .2 .6 4.9 4.9 0 0 0 9.7 .1zm35.4 94a.8 .8 0 0 1 .4 .8q-.1 .5-.7 .6l-18.7 1.6 18.7 1.6q.6 0 .7 .6a1 1 0 0 1 -.4 .8l-16.7 8.6 17.9-5.7c.3-.1 .7 0 .9 .3a.8 .8 0 0 1 0 .9l-12.1 14.4 14.3-12.1q.5-.4 1 0a.8 .8 0 0 1 .3 .9l-5.7 17.9 8.6-16.6a.6 .6 0 0 1 .7-.4l.2 0q.5 .1 .6 .7l1.6 18.7 1.6-18.7q0-.6 .6-.7a.8 .8 0 0 1 .8 .4l8.6 16.6-5.7-17.9a.6 .6 0 0 1 .3-.9q.5-.3 1 0l14.3 12.1-12.1-14.4a.8 .8 0 0 1 0-.9 .6 .6 0 0 1 .9-.3l17.9 5.7-16.6-8.6a.8 .8 0 0 1 -.4-.8 .6 .6 0 0 1 .7-.6l18.7-1.6-18.7-1.6q-.6-.1-.7-.6a.8 .8 0 0 1 .4-.8l16.6-8.6-17.9 5.7a.8 .8 0 0 1 -.9-.3q-.3-.5 0-.9l12.1-14.4-14.3 12.1a1 1 0 0 1 -1 .1q-.4-.4-.3-.9l5.7-17.9-8.6 16.6a.8 .8 0 0 1 -.8 .4 .6 .6 0 0 1 -.6-.7l-1.6-18.7-1.6 18.7q-.1 .6-.6 .7a.8 .8 0 0 1 -.8-.4l-8.6-16.6 5.7 17.9q.2 .5-.3 .9a1 1 0 0 1 -1-.1l-14.3-12.1 12.1 14.4q.3 .4 0 .9c-.2 .3-.5 .4-.9 .3L340 334zm40.1-84.1 .1-.4a1 1 0 0 1 .6-.6v-5l-24.8-10.8-1.9 2.7a64 64 0 0 1 -6.2 7.7l8.5 7.2 .1-.8q0-.6 .5-.9a1 1 0 0 1 1.6 .9c0 2.7 2.2 4.9 4.9 4.9a4.9 4.9 0 0 0 4.9-4.9c0-.6 .5-1.1 1.1-1.1s1 .5 1 1.1a4.9 4.9 0 0 0 4.9 4.9 4.9 4.9 0 0 0 4.9-4.9m-78.5 68.4v-.6h-1.2a44.8 44.8 0 0 0 -12.6 1.4 24.6 24.6 0 0 0 13.8-.8m-56.8-63.6v-6.8l-1.5-.4-24.4 .4c-.5 0-1-.4-1-.9a1 1 0 0 1 .7-1.2c.1 0 7.2-2.1 13.1-6a30.1 30.1 0 0 0 10.5-14.2 25.6 25.6 0 0 1 -9.9 .4 41.6 41.6 0 0 1 -7.7-2.6 1 1 0 0 1 -.6-1 1 1 0 0 1 .7-.9c.1 0 7.8-2.2 11.9-6c3.9-3.6 6-6.2 7.2-7.8a32 32 0 0 1 -5.9 .7 19.2 19.2 0 0 1 -9.1-1.4 1 1 0 0 1 -.6-1 1 1 0 0 1 .6-.9c.1 0 6.2-3 11.3-9.3c4-4.9 6.1-9.1 7.1-11.7q-1.6 .9-4.3 2c-4.6 1.7-6.8 1.2-7.1 1.1a1 1 0 0 1 -.7-.8 1 1 0 0 1 .4-1c.1-.1 6-4.9 10.5-13.3c3-5.8 3.7-13.2 3.9-17.2H224.3v99.6a4.9 4.9 0 0 0 6.1-4.7c0-.6 .5-1 1.1-1q.5 0 .9 .4a1.3 1.3 0 0 1 .2 .6 4.9 4.9 0 0 0 9.7 0 1.1 1.1 0 0 1 1.5-1 1 1 0 0 1 .6 1 4.9 4.9 0 0 0 9.7 0q0-.2 .1-.4a1 1 0 0 1 .9-.6c.6 0 1.1 .4 1.1 1c0 2.7 2.2 4.9 4.9 4.9zm153.7 13.3v-11.2a7 7 0 0 1 -5.6-3.4 6.9 6.9 0 0 1 -11.8 .1 7 7 0 0 1 -5.9 3.3 7 7 0 0 1 -5.9-3.3 6.9 6.9 0 0 1 -11.8 0 6.9 6.9 0 0 1 -11.9-.1 7 7 0 0 1 -11.9 .1 7 7 0 0 1 -5.9 3.3 7 7 0 0 1 -5.9-3.3 6.9 6.9 0 0 1 -11.8 0 7 7 0 0 1 -5.6 3.3v11.2zm-51.5-22.2v5.8a4.8 4.8 0 0 0 4.5 3.1 4.8 4.8 0 0 0 3.8-1.9zm0-90.9V250c3.4-3.8 12.2-14.7 20.6-35.4a192 192 0 0 0 13-51.1zm-45.4 113.1V163.6h-23.2c-.1 3.9-.7 12.2-4.2 18.8a64 64 0 0 1 -7.9 11.7c1-.4 1.9-.8 2.4-1c1.6-.7 6.3-3.5 6.4-3.5a1 1 0 0 1 1.1 0q.5 .4 .4 1c0 .3-1.1 6.9-7.4 15.8c-3.4 4.8-8.1 9.2-10.8 11.6a32 32 0 0 0 5.6-.8c4.8-1.2 7.7-3.4 7.7-3.4a1 1 0 0 1 1.2-.1q.6 .4 .4 1.1c-.1 .3-2.3 7.7-9 14.5a64 64 0 0 1 -11.6 8.3c1.9 0 4.1 0 5.9-.2c4.8-.7 9.5-1.9 9.5-1.9a1.1 1.1 0 0 1 1.2 .5 1 1 0 0 1 -.1 1.2c-.2 .3-5.8 6.4-12.3 10.5a80 80 0 0 1 -13.3 6.3c3.2 .9 8.8 2 15.5 1.3c8-.8 12.2-5 12.3-5a1 1 0 0 1 1.1-.3q.6 .3 .6 1v25.6zm-30.5 0v-23.4a25.6 25.6 0 0 1 -11.8 4.2 44.8 44.8 0 0 1 -12.5-.5v19.8zm30.5 28.3v-14.5q-.3 .1-.6 .1c-.3 0-19.6-3-40.6 13.6c-13.8 10.9-19.6 24-23.9 33.7c-2 4.6-3.8 8.5-5.9 11.1c-1.8 2.2-4.3 2.5-6.2 2.5l-.3 0a7 7 0 0 1 -5.9-3.4 7 7 0 0 1 -6 3.4 6.4 6.4 0 0 1 -4.6-1.8V366q.2 .2 .2 .5a4.9 4.9 0 0 0 9.8 0c0-.6 .5-1.1 1.1-1.1c.6 0 1.1 .5 1.1 1.1a4.9 4.9 0 1 0 9.7 0c0-.6 .5-1.1 1.1-1.1s1.1 .5 1.1 1.1c0 2.7 2.2 4.9 4.9 4.9l.3 0c2.2 0 3.6-.5 4.6-1.7c2-2.5 3.4-5.6 5-9.1c3.2-7.1 7.1-16 18.6-24.4c5.8-4.2 11.5-7 16.5-8.8c-6.4-3.4-10.6-9.3-10.6-16.1c0-7.7 5.5-14.4 13.5-17.4a5.4 5.4 0 1 1 1.7 10.5 5.4 5.4 0 0 1 -5.3-6.4 16 16 0 0 0 -7.9 13.3c0 6.6 4.6 12.4 11.4 15.2a48 48 0 0 1 17.3-2.3v-16.8l-13.5 8.7a1 1 0 0 1 -.5 .2 1 1 0 0 1 -.9-.5 1 1 0 0 1 .3-1.4zm-37.9 26.4a7.8 7.8 0 0 1 -5.3-13.5 7.8 7.8 0 0 1 1.7-9.5 1.1 1.1 0 0 1 1.4 1.6 5.7 5.7 0 0 0 6.8 9.1 1 1 0 0 1 1.4 .3 1 1 0 0 1 -.3 1.4 7.7 7.7 0 0 1 -9.9-1.1 5.7 5.7 0 0 0 7.9 8.2 1.1 1.1 0 0 1 1.5 .1 1.1 1.1 0 0 1 -.1 1.5 7.7 7.7 0 0 1 -5.3 2.1m-18.9-54.7v-11.3l-.5 0a7 7 0 0 1 -5.9-3.3 6.9 6.9 0 0 1 -11.8 0 6.9 6.9 0 0 1 -11.8 0 7 7 0 0 1 -7.2 3.2v11.4zm124-59.3 12 4.2v-14.9l-7-2.5a160 160 0 0 1 -4.2 11.3zm5.6-15.2 6.4 2.2V176.6a192 192 0 0 1 -6.4 25.5m-17.2 37.8 23.6 10.3v-26.6l-12.8-4.4A160 160 0 0 1 373.8 240m-52.6 101.5v8.9l21.7-2.7-14.4-1.2a.8 .8 0 0 1 -.7-.8c0-.4 .3-.7 .7-.8l14.8-1.2zm24.1-122.3 16.3 6.9v-25.4l-6.6-2.9a160 160 0 0 1 -9.7 21.4m69.9 44.2V163.6h-15.7V261a4.8 4.8 0 0 0 4.2 2.4 4.9 4.9 0 0 0 4.9-4.9c0-.6 .5-1 1.1-1h.1c.6 0 1.1 .4 1.1 1c0 2.6 2 4.6 4.4 4.9m-94-99.8v82.8c2.4-2.2 14.5-13.4 23.6-30.3a163.2 163.2 0 0 0 16.6-52.4zm94 202.7V301.1l-7.8-6.2a32 32 0 0 1 -4.3 4.2 20.8 20.8 0 0 1 -12.7 5c-9.6 0-16.4-7.6-18.7-10.6c-2.8 2.9-11.6 10.4-26 5.2c-8.7-3.1-19.8-13.2-24.5-17.7v58.9l30.7 2.9 1.6-.2-22.3-11.6a.8 .8 0 0 1 -.4-1 .8 .8 0 0 1 1-.4l24 7.6-16.2-19.2a.8 .8 0 0 1 0-1.1 .8 .8 0 0 1 1.1-.1l19.2 16.2-7.6-24a.8 .8 0 0 1 .4-1 .8 .8 0 0 1 1 .4l11.6 22.3 2.2-25.1c0-.4 .4-.7 .7-.7s.8 .3 .8 .7l2.1 25.1 11.6-22.3a.8 .8 0 0 1 1-.4 .8 .8 0 0 1 .4 1l-7.6 24 19.2-16.2a.8 .8 0 0 1 1.1 .1 1 1 0 0 1 .1 1.1l-16.2 19.2 24-7.6c.4-.1 .8 .1 .9 .4a.8 .8 0 0 1 -.4 1l-22.3 11.6 25.1 2.1a.8 .8 0 0 1 .7 .8q0 .7-.7 .8l-25.1 2.1 22.3 11.6c.4 .2 .5 .6 .4 1c-.2 .4-.6 .6-.9 .4l-24-7.6 16.2 19.2a1 1 0 0 1 -.1 1.1 .8 .8 0 0 1 -1.1 .1l-19.2-16.2 7.6 23.9a.8 .8 0 0 1 -.4 1 .8 .8 0 0 1 -1-.4l-11.6-22.3-2.1 25.1q-.1 .6-.8 .7a.7 .7 0 0 1 -.7-.7l-2.2-25.1-11.6 22.3a.8 .8 0 0 1 -1 .4 .8 .8 0 0 1 -.4-1l7.6-23.9-19.2 16.2a.8 .8 0 0 1 -1.1-.1 .8 .8 0 0 1 0-1.1l16.2-19.2-24 7.6a.8 .8 0 0 1 -1-.4 .8 .8 0 0 1 .4-1l22.3-11.6-3.2-.3-29.1 3.6v46.7a14.7 14.7 0 0 1 11.7-5.9h55.8c14.6 0 26.4-11.8 26.4-26.4m-190.3 5.6c2.6 11.9 13.2 20.8 25.8 20.8h55.8c4.8 0 9.1 2.3 11.8 5.9V368a22.4 22.4 0 0 1 -6.2 .9c-11.2 0-20.4-8.2-20.4-18.3c0-7.9 5.8-14.9 14-17.3l.1 0 .3-.1a5.6 5.6 0 1 1 -4 3.9 16 16 0 0 0 -8.2 13.5c0 8.9 8.2 16.2 18.3 16.2q3.2 0 6.2-1v-17.6l-12 7.7a1.3 1.3 0 0 1 -.6 .2 1.1 1.1 0 0 1 -.5-1.9l13.1-8.4v-16.7a25.6 25.6 0 0 1 -17.4-.4 64 64 0 0 0 -18 9.2c-11.1 8.1-14.9 16.7-18 23.6c-1.6 3.6-3.1 6.9-5.3 9.6c-1.8 2.2-4.3 2.5-6.3 2.5l-.3 0a6.7 6.7 0 0 1 -5.9-3.4 6.9 6.9 0 0 1 -11.9 0 7 7 0 0 1 -10.4 1.8m71.4-1.1a1 1 0 0 1 -.3 1.4 7.8 7.8 0 0 1 -9.8-1.1 7.8 7.8 0 0 1 -10-11.9 7.7 7.7 0 0 1 1.7-9.5 1 1 0 0 1 1.5 .1 1 1 0 0 1 -.1 1.4 5.7 5.7 0 0 0 6.7 9.2l.6-.6a1.1 1.1 0 0 1 1.5 .1 1 1 0 0 1 -.1 1.5l-.4 .4q-.1 .1-.2 .2a5.7 5.7 0 0 0 7.4 8.5 1 1 0 0 1 1.4 .3m-14.8-.1a6.4 6.4 0 0 0 3.5-1.2 7.7 7.7 0 0 1 -1-3.8q0-1.3 .4-2.5l-1.3 .1a7.7 7.7 0 0 1 -5.6-2.4 5.4 5.4 0 0 0 -1.7 4 5.8 5.8 0 0 0 5.7 5.7m133.8-72.3v-18.8h-92.5c4.6 4.4 15.5 14.2 23.7 17.1a22.4 22.4 0 0 0 18.3-.6 19.2 19.2 0 0 0 6.1-4.9l.9-1.2 .8 1.2c.1 .1 7.3 10.7 17.8 10.7c9 0 16-9.1 16.1-9.2l.6-.9zM293 163.6h-24.3a44.8 44.8 0 0 1 -4.1 18.1c-3 5.8-6.6 9.9-8.9 12.1a32 32 0 0 0 3.3-1 19.2 19.2 0 0 0 6.2-3.4 1 1 0 0 1 1.2-.2 1 1 0 0 1 .5 1.1c-.1 .3-1.4 7-8.4 15.4a41.6 41.6 0 0 1 -10 8.6c1.4 .3 3.4 .6 6 .5c5.9-.3 7.6-1.4 7.6-1.4a1 1 0 0 1 1.2 0q.5 .4 .4 1.1c-.1 .4-1.1 3.6-9 10.9a32 32 0 0 1 -10 5.5c1.3 .5 3 1.1 4.7 1.4a25.6 25.6 0 0 0 10.7-.8 1.1 1.1 0 0 1 1.3 1.2 32 32 0 0 1 -11.9 17.1 48 48 0 0 1 -7.9 4.2l14.6-.2c0-.4 .3-.8 .7-1c.1 0 9.7-3.3 15.8-7.1c3.7-2.4 7.2-5.5 9.4-7.6a128 128 0 0 1 -6.3 1.2 51.2 51.2 0 0 1 -9.8 .1 1 1 0 0 1 -.9-.8 1 1 0 0 1 .5-1.1c.1 0 10.2-5.6 14.2-9.6a38.4 38.4 0 0 0 7.4-10.8 25.6 25.6 0 0 1 -5.9 2.1 25.6 25.6 0 0 1 -9 .8 1 1 0 0 1 -.8-.7 1 1 0 0 1 .4-1.1c.1-.1 7.8-6.3 12.5-13c3.9-5.5 5.7-10.1 6.5-12.7a96 96 0 0 1 -4.4 2.4c-1.7 .8-6.5 2.6-6.7 2.6a1 1 0 0 1 -1.2-.4 1 1 0 0 1 .2-1.3c.1-.1 6.1-5.9 10.5-14.4c3.2-6.2 3.8-14.1 3.9-17.9m25.3 125.1v-9h-94v66.3a4.9 4.9 0 0 0 9.5-1.4c0-.6 .5-1 1.1-1s1.1 .4 1.1 1c0 2.7 2.2 4.9 4.9 4.9l.3 0c2.2 0 3.6-.5 4.6-1.7c1.9-2.3 3.6-6.2 5.6-10.6c4.4-9.8 10.3-23.3 24.5-34.5c21.8-17.2 41.4-14.1 42.2-14zm32.2-31.1c.6 0 1.1 .4 1.1 1c0 2.7 2.2 4.9 4.9 4.9a4.9 4.9 0 0 0 4.9-4.9q0-.5 .4-.8v-12.5l-26.7-10.6a115.2 115.2 0 0 1 -11.8 12.8l24.5 14.9a4.8 4.8 0 0 0 1.8-3.8l.1-.4a1 1 0 0 1 1-.6m-14.2-24.6 25.4 10.1v-14.6l-17.4-7.4a128 128 0 0 1 -8 11.9m9.1 30.4-5.4-3.3c.6 2 2.5 3.4 4.6 3.4zm10.4-67.5 6 2.6v-24.2a160 160 0 0 1 -6 21.6m5.2 213a3.2 3.2 0 0 1 -1.1-1.3 3.2 3.2 0 0 1 .1-2.2 3.2 3.2 0 0 1 .7-1 3.2 3.2 0 0 1 1.1-.6 5.1 5.1 0 0 1 3 .1 3.2 3.2 0 0 1 1.1 .6 3.2 3.2 0 0 1 .7 .9 3.2 3.2 0 0 1 .2 1.1l-.1 1.1-.4 .8-.6 .5-.7 .3v.1l.8 .3a3.2 3.2 0 0 1 .7 .6 3.2 3.2 0 0 1 .5 1 3.2 3.2 0 0 1 .2 1.2q0 1-.3 1.7a3.2 3.2 0 0 1 -.8 1.2 3.2 3.2 0 0 1 -1.3 .7 6.4 6.4 0 0 1 -1.6 .3 6.4 6.4 0 0 1 -1.6-.2 3.2 3.2 0 0 1 -2-1.8 3.2 3.2 0 0 1 -.3-1.6 3.2 3.2 0 0 1 .2-1.3 3.2 3.2 0 0 1 .5-1 3.2 3.2 0 0 1 .7-.7l.9-.4v-.1zm3.4 1.5q-.4-.7-1.1-.7q-.6 0-1 .7a4.8 4.8 0 0 0 -.4 2.2q0 1.5 .4 2.2q.4 .8 1.1 .8q.6 0 1-.7a4.5 4.5 0 0 0 .4-2.3 4.8 4.8 0 0 0 -.4-2.2m0-5.5a1 1 0 0 0 -1-.6 1.3 1.3 0 0 0 -1.1 .6 6.4 6.4 0 0 0 -.3 1.9q0 1.1 .4 1.6t.9 .5q.6 0 1-.6a3.2 3.2 0 0 0 .4-1.7 3.2 3.2 0 0 0 -.3-1.7m19.9-.2 0 1.4 0 1.5 0 1.5v2.6l0 2 .1 2.4-.7 0h-1.3l-.6 0 0-.8 .1-1.3 .1-1.4v-6.8l-.4 .2-.5 .3-.5 .3-.5 .3-.4-.6-.4-.4 2.5-1.1 2.5-1.3 .3 .1zM345.4 78.9l-2.9 5.5a156.8 156.8 0 0 0 -45.5 0l-2.9-5.5a160 160 0 0 1 51.3 0M175.7 460.3h4v19.9h-4zm7.4 0h3.9v16.1h7v3.8h-10.9zm16.4 0v11.5c0 3.4 1.2 5.2 3.2 5.2q3.1 0 3.2-5.2v-11.5h3.9v11.2c0 6.1-2.7 9-7.3 9c-4.4 0-7-2.8-7-9.1v-11.1zm13.9 15.3a9.6 9.6 0 0 0 4.4 1.2c1.8 0 2.8-.8 2.8-2.1c0-1.2-.8-2-2.9-2.8c-2.9-1.2-4.8-3-4.8-5.9c0-3.4 2.5-6 6.6-6c2 0 3.4 .5 4.4 1l-.9 3.6a7.7 7.7 0 0 0 -3.7-.9c-1.7 0-2.5 .9-2.5 1.9c0 1.3 1 1.8 3.2 2.8c3.1 1.3 4.5 3.1 4.5 5.9c0 3.3-2.2 6.2-7 6.2a9.6 9.6 0 0 1 -4.9-1.2zm17.2-11.5h-4.7v-3.8h13.4v3.8h-4.8v16.1h-4zm10.8-3.5a32 32 0 0 1 5.2-.4q3.8-.1 5.6 1.6q1.6 1.4 1.6 4.1c0 2.6-1.6 4.3-3.1 4.9v.1c1.2 .6 1.9 1.9 2.3 3.7c.5 2.3 1.1 4.9 1.4 5.6h-4a32 32 0 0 1 -1.2-4.6c-.4-2.5-1.2-3.2-2.8-3.2h-1.2v7.8h-3.9zm3.9 8.5h1.5c2 0 3.1-1.1 3.1-2.8c0-1.9-1.1-2.8-2.9-2.8q-1.4 0-1.8 .1zm21.8 2.7h-6.4v4.7h7.2v3.7H256.6v-19.9h10.8v3.7h-6.8v4.1h6.4zm23.4 .8-.1-8.2h-.1a128 128 0 0 1 -1.9 7.7l-2.1 7.7h-3.1l-1.9-7.7a96 96 0 0 1 -1.6-7.7l-.4 8.2-.3 7.6h-3.6l1.1-19.9h5.2l1.7 6.7c.5 2.3 1.1 4.8 1.5 7.1h.1c.5-2.3 1.1-4.9 1.7-7.1l1.9-6.6h5.2l1 19.9h-3.8zm11.1-12.3v11.5q.1 5.1 3.1 5.2q3.2 0 3.2-5.2v-11.5h3.9v11.2c0 6.1-2.7 9-7.3 9c-4.4 0-7-2.8-7-9.1v-11.1zm13.7 19.9v-19.9h4.6l3.6 7.3c1.1 2.1 2.1 4.6 2.8 6.8h.1a96 96 0 0 1 -.4-8.3v-5.8h3.6v19.9h-4.1l-3.7-7.6a64 64 0 0 1 -3-7l-.1 0q.2 3.9 .2 8.7v6zm17.9-19.9h4v19.9h-4zm20.2 19.3a9.6 9.6 0 0 1 -4.5 .9c-6 0-9.1-4.3-9.1-10c0-6.8 4.2-10.6 9.5-10.6a9.6 9.6 0 0 1 4.3 .9l-.8 3.6a9.6 9.6 0 0 0 -3.3-.7c-3.1 0-5.6 2.2-5.6 6.6c0 4 2.1 6.5 5.6 6.5a9.6 9.6 0 0 0 3.3-.7zm2.6-19.3h3.9v19.9h-3.9zm7.4 .3a32 32 0 0 1 5.3-.4q3.6 0 5.3 1.6a6.4 6.4 0 0 1 1.9 4.6c0 1.9-.6 3.6-1.6 4.7c-1.3 1.4-3.3 2.1-5.7 2.1l-1.3-.1v7.1h-3.9zm3.9 9.1q.4 .1 1.3 .1c2.1 0 3.4-1.2 3.4-3.2c0-1.8-1.1-2.9-3.1-2.9a6.4 6.4 0 0 0 -1.6 .2zm13.6 5.5-1.2 5.1h-4.1l5.3-19.9h5.2l5.4 19.9h-4.3l-1.3-5.1zm4.4-3.4-1.1-4.2-.9-3.8c-.3 1.2-.5 2.7-.8 3.8l-1 4.2zm8.5-11.4h3.9v16.1h6.9v3.8h-10.9zm13.2 0h3.9v19.9h-3.9zm7.4 .3a32 32 0 0 1 5.3-.4c3.3 0 5.4 .7 7.1 2.1c1.8 1.5 2.9 4 2.9 7.5c0 3.8-1.2 6.4-2.9 8.1c-1.9 1.7-4.6 2.6-8.1 2.6a32 32 0 0 1 -4.5-.3zm4 16.2c.4 .1 .9 .1 1.4 .1c3.6 0 5.9-2.2 5.9-6.9c0-4.1-2.1-6.3-5.5-6.3a6.4 6.4 0 0 0 -1.8 .2zm17.7-1.7-1.2 5.1h-4.1l5.3-19.9h5.2l5.4 19.9h-4.3L441 475zm4.4-3.4-1.1-4.2-.9-3.8c-.3 1.2-.6 2.7-.9 3.8l-1 4.2zm8.5-11.1a32 32 0 0 1 5.3-.4c3.3 0 5.4 .7 7.1 2.1c1.8 1.5 2.9 4 2.9 7.5c0 3.8-1.2 6.4-2.9 8.1c-1.8 1.7-4.6 2.6-8 2.6a32 32 0 0 1 -4.5-.3zm4 16.2q.5 .1 1.4 .1c3.6 0 5.9-2.2 5.9-6.9c0-4.1-2.1-6.3-5.5-6.3a6.4 6.4 0 0 0 -1.8 .2zM238 493a32 32 0 0 1 5.3-.4c3.3 0 5.4 .7 7.1 2.1c1.8 1.5 2.9 4 2.9 7.5c0 3.8-1.2 6.4-2.9 8.1c-1.9 1.7-4.6 2.6-8.1 2.6a32 32 0 0 1 -4.4-.3zm3.9 16.2q.6 .1 1.4 .1c3.6 0 5.9-2.2 5.9-7c0-4.1-2.1-6.3-5.5-6.3a9.6 9.6 0 0 0 -1.8 .2zm24.4-5h-6.4v4.7h7.2v3.7H256v-19.9h10.8v3.7h-6.8v4.1h6.4zM275 493a32 32 0 0 1 5.3-.4q3.6 0 5.3 1.6a6.4 6.4 0 0 1 1.9 4.6c0 1.9-.6 3.6-1.6 4.7q-2.1 2.1-5.7 2.1l-1.3-.1v7.1H275zm3.9 9q.4 .1 1.3 .1c2.1 0 3.4-1.2 3.4-3.3c0-1.8-1.1-2.9-3.1-2.9a6.4 6.4 0 0 0 -1.6 .2zm11.1-9.3h4v19.9h-4zm20.2 19.3a9.6 9.6 0 0 1 -4.5 .9c-6 0-9.1-4.3-9.1-9.9c0-6.8 4.2-10.6 9.5-10.6c2 0 3.6 .4 4.3 .9l-.8 3.6a7.7 7.7 0 0 0 -3.3-.7c-3.1 0-5.6 2.1-5.6 6.6c0 4 2.1 6.5 5.6 6.5c1.2 0 2.5-.3 3.3-.6zm6.6-19.3v7.6h6.5v-7.6h3.9v19.9h-3.9v-8.3h-6.5v8.3h-4v-19.9zm13.9 0h4v19.9h-4zm7.4 0h4v16.1h6.9v3.8H338zm23.6 11.5h-6.4v4.7h7.2v3.7h-11.1v-19.9H362v3.7h-6.8v4.1h6.4zm18.2 .8c-.1-2.4-.2-5.3-.2-8.2h-.1a128 128 0 0 1 -2 7.7l-2.1 7.7h-3.1l-1.9-7.7a128 128 0 0 1 -1.6-7.7c-.1 2.7-.2 5.8-.3 8.2l-.3 7.6h-3.6l1.1-19.9h5.2l1.7 6.6a128 128 0 0 1 1.5 7.1h.1c.5-2.3 1.1-4.9 1.6-7.1l1.9-6.6h5.1l1 19.9h-3.9zm11.1-12.3v11.4c0 3.4 1.2 5.2 3.2 5.2c2 0 3.2-1.6 3.2-5.2v-11.4h3.9v11.1c0 6.1-2.7 9.1-7.3 9.1c-4.4 0-7-2.8-7-9.1v-11.1z"/></svg>