<svg fill="currentColor" xmlns="http://www.w3.org/2000/svg" viewBox="0 0 320 512"><path d="M161.7 0c14.2 13.2 26.2 28.6 35.5 45.8c31.3 5.2 61.1 16.8 87.6 34.3l.4 .3 2.2 1.5-14.1 20.9L260 122.4c-3.3-4.1-6.8-8-10.5-11.6c-18.5-15.5-36.9 10-66.1 10c-9.5 0-18.2-7.1-18.2-7.1L177 101.8s15.2 14.5 31.8 10.1c6-1.5 10.6-4.1 14.6-6.9l-6.5-2.4 2.1-5.9c.3-.8 1.2-1.2 1.9-.9c.3-.8 1.2-1.2 2-.9l.8 .3c-2.8-5.3-1.4-11.9 3.3-15.5c1-.6 1.7-1.5 2.1-2.6c.2-.6 .3-1.3 .3-1.9c0-.7 .2-1.4 .4-2c.4-1 .9-1.9 1.7-2.6c-.8-.3-1.2-1.2-.9-2c-.6-.2-1-.8-1-1.4c0-.2 0-.4 .1-.5l1.9-5.3c-3-1-6-2-9-2.9l-1.2 4.9c-.2 .7-.7 1.2-1.4 1.2c-.1 0-.3 0-.4-.1c-.3 .8-1 1.3-1.8 1.1c.4 1.7 .1 3.5-.8 5.1c-1.1 1.5-1.3 3.6-.5 5.3c.7 2.2 .7 4.5 .2 6.8c-.9 3.3-3.1 6.2-6.1 7.8l.9 .2c.8 .2 1.3 1.1 1.1 1.9c.8 .2 1.3 1 1.1 1.8l-1.7 6.6c-3.4-1-6.8-1.9-10.2-2.8l1.6-6.5c.2-.8 1-1.3 1.8-1.1c.2-.7 .8-1.2 1.5-1.2c.1 0 .3 0 .4 .1l.8 .2c-3.3-5-2.5-11.7 1.9-15.8c1.4-1.1 2.2-3 1.9-4.8c-.1-1.7 .5-3.5 1.6-4.8c-.8-.3-1.2-1.1-1.1-1.9c-.8-.2-1.3-1-1.1-1.8l1.3-5.1c-3.8-.9-7.6-1.7-11.4-2.5c1.2 2.6 2.4 5.2 3.6 7.9l.1 .1L190.9 87.5c-9.7-1.6-19.5-2.5-29.2-2.5l0-85zM271 101.5l10.5-15.5-5.2-3.4-2.6 4.5c-.3 .5-.8 .7-1.3 .7c-.3 0-.6-.1-.8-.2c-.3 .5-.8 .8-1.3 .8c-.3 0-.5-.1-.7-.2c-.1 1.1-.4 2.1-.9 3c-.4 .6-.8 1.1-1.3 1.6c-1.4 1.2-2.2 3.1-1.9 5l0 .8c2 1 3.9 2 5.7 3zM248 73.3l2.1-4.5c-2.8-1.3-5.6-2.5-8.5-3.6l-1.8 5.2c-.2 .6-.8 1-1.4 1c-.2 0-.4 0-.5-.1c-.3 .8-1.1 1.2-1.9 .9c.2 1.7-.3 3.5-1.3 4.9c-1.2 1.5-1.6 3.4-1 5.2c1.2 5.8-1.9 11.7-7.3 14l.9 .3c.8 .3 1.2 1.2 .9 2c.6 .2 1 .8 1 1.4c0 .2 0 .4-.1 .5l-.3 .8c3.2-2.4 6.2-4.5 9.6-6.1c.4-3.8 2.5-7.2 5.7-9.2c1-.5 1.8-1.4 2.3-2.5c.3-.6 .4-1.2 .5-1.8c.3-1.7 1.2-3.3 2.5-4.5c-.7-.4-1-1.3-.7-2c-.5-.3-.9-.8-.9-1.4c0-.2 .1-.5 .2-.6zm-58.1 5.6l10.3-19.5-.1-.1c-7.2-16.9-17.3-32.4-30-45.6l0 63.2c6.7 .4 13.3 1 19.7 2zm73.4 9.3c.5-.9 1.3-1.7 2.2-2.3c-.7-.4-.9-1.4-.5-2.1c-.7-.5-.9-1.4-.5-2.1l2.6-4.5-7.4-3.9-2.1 4.5c-.2 .5-.8 .9-1.3 .9c-.2 0-.4-.1-.7-.2c-.4 .8-1.2 1.1-2 .8c0 1.1-.2 2.1-.6 3.1c-.3 .6-.7 1.2-1.1 1.7c-.4 .5-.8 1-1.1 1.6c-.5 1.1-.6 2.4-.4 3.5c.2 1.4 .1 2.7-.2 4c2.6 .2 5.2 .8 7.6 1.8c.5-.4 1.1-.7 1.6-1c1.7-.7 2.9-2.2 3.2-4c.1-.7 .4-1.3 .7-1.9zM158.3 0l0 85c-10 .1-19.7 .9-29.2 2.5L115.3 61.3l.1-.1c1.1-2.6 2.3-5.3 3.6-7.8c-3.7 .7-7.4 1.5-11.1 2.4l1.2 5.1c0 .1 .1 .3 .1 .4c0 .7-.5 1.3-1.2 1.5c.2 .8-.3 1.6-1.1 1.9c1.1 1.4 1.7 3.1 1.6 4.8c-.2 1.8 .5 3.6 2 4.8c4.4 4.1 5.2 10.8 1.8 15.8l.9-.2c.1 0 .3-.1 .4-.1c.7 0 1.3 .5 1.4 1.2c.8-.2 1.6 .3 1.8 1.1l1.6 6.5c-3.4 .8-6.8 1.7-10.2 2.8l-1.6-6.6c0-.1-.1-.3-.1-.4c0-.7 .5-1.3 1.2-1.5c0-.1-.1-.3-.1-.4c0-.7 .5-1.3 1.2-1.5l.9-.2c-5.2-2.8-7.7-9-5.9-14.6c.8-1.7 .6-3.7-.5-5.3c-.9-1.5-1.2-3.3-.8-5.1c-.1 0-.2 0-.4 0c-.7 0-1.3-.5-1.4-1.1c-.1 0-.3 .1-.4 .1c-.7 0-1.3-.5-1.5-1.2l-1.2-4.9c-3 .9-6 1.8-9 2.9l1.9 5.3c.3 .8-.1 1.7-.9 1.9c.3 .8-.1 1.6-.9 2c1.2 1.2 2 2.9 2.1 4.6c0 .6 .1 1.3 .3 1.9c.4 1.1 1.1 2 2.1 2.6c4.7 3.6 6.2 10.3 3.4 15.5l.8-.3c.2-.1 .4-.1 .5-.1c.6 0 1.2 .4 1.4 1c.8-.3 1.6 .1 2 .9l2.1 5.9c-2.2 .7-4.3 1.5-6.5 2.4c4 2.7 8.6 5.3 14.6 6.9c16.6 4.3 31.8-10.1 31.8-10.1L155 113.7s-8.6 7.1-18.1 7.1c-29.1 .1-47.5-25.5-66-10c-2.8 2.3-7.6 8.1-10.5 11.6L47 102.8 32.9 81.8l2.2-1.5 .4-.3C61.9 62.7 91.6 51 122.8 45.8C132 28.7 144.1 13.2 158.3 0zM67.9 93.4l2.2-.2c-.3-1.3-.3-2.7-.2-4c.3-1.2 .2-2.4-.4-3.5c-.3-.6-.7-1.1-1.1-1.6c-.5-.5-.9-1.1-1.2-1.7c-.4-1-.7-2-.6-3.1c-.2 .1-.4 .1-.6 .1c-.6 0-1.1-.4-1.4-.9c-.2 .1-.4 .2-.7 .2c-.6 0-1.1-.4-1.3-.9l-2.1-4.5c-2.5 1.3-4.9 2.6-7.4 3.9l2.6 4.5c.4 .7 .1 1.6-.5 2.1c.4 .7 .2 1.6-.5 2.1c.9 .5 1.6 1.4 2.1 2.3c.4 .6 .6 1.2 .8 1.9c.1 .6 .3 1.2 .7 1.8c.6 1 1.5 1.8 2.5 2.2c.6 .3 1.1 .6 1.6 1c1.7-.7 3.5-1.2 5.3-1.6zm82-16.6l0-63.2c-12.7 13.3-22.8 28.7-30 45.6l-.1 .1 10.3 19.5c6.5-1 13.1-1.7 19.7-2zm-56 19.5c-5.4-2.3-8.5-8.2-7.3-14c.4-1.2 .4-2.4 0-3.5c-.3-.6-.6-1.2-1-1.7c-.4-.5-.7-1.2-1-1.8c-.4-1-.5-2.1-.4-3.1c-.2 .1-.3 .1-.5 .1c-.6 0-1.2-.4-1.4-1c-.2 .1-.4 .1-.5 .1c-.6 0-1.2-.4-1.4-1l-1.9-5.2c-2.8 1.2-5.7 2.4-8.4 3.6l2.1 4.5c.1 .2 .2 .4 .2 .6c0 .6-.4 1.1-.9 1.4c.1 .2 .2 .4 .2 .6c0 .6-.4 1.1-.9 1.4c1.4 1.1 2.3 2.7 2.5 4.5c.1 1.8 1.2 3.5 2.8 4.3c3.2 2 5.3 5.4 5.7 9.2c3.4 1.5 6.5 3.7 9.6 6.1l-.3-.8c-.3-.8 .1-1.6 .9-1.9c-.3-.8 .2-1.6 .9-2l.8-.3zM55 98.5l0-.8c.3-1.9-.5-3.8-1.9-5c-.5-.5-1-1-1.3-1.6c-.5-.9-.8-1.9-.9-3c-.2 .1-.5 .2-.7 .2c-.5 0-1.1-.3-1.3-.8c-.2 .2-.5 .2-.8 .2c-.5 0-1-.3-1.3-.7l-2.6-4.5-5.2 3.4 10.5 15.5c1.8-1 3.6-2 5.7-3zM16 128.9l288 0 0 315.6c0 25.2-20.2 45.6-45.2 45.6l-74.2 0c-11.9 0-21.8 9.9-21.8 21.9l-5.3 0c0-12-9.8-21.9-21.8-21.9l-74.5 0c-25 0-45.2-20.4-45.2-45.6l0-315.6zM299 444.5l0-310.6-278 0 0 310.6C21 466.8 39 485 61.2 485l74.5 0c10.9 0 20.3 6.5 24.4 15.9c4.3-9.5 13.8-15.8 24.2-15.9l74.5 0c22.2 0 40.2-18.2 40.2-40.5zM85.5 474.4c.6-.8 1.2-1.6 1.7-2.4c.4-.7 .7-1.4 .9-2.2c.3-1.2 .4-2.4 .1-3.6c-.1-.3-.3-.6-.4-.9l-.6-.5c-.2-.1-.4-.2-.7-.2c-.4 0-.7 .1-.9 .3s-.4 .5-.6 .8c-.2 .6-.4 1.3-.4 2l-.2 .1-.8-.7-.7-.7c.3-.8 .7-1.5 1.3-2c.8-.6 1.7-.9 2.7-.8c.7 0 1.5 .1 2.2 .4c.5 .2 1 .5 1.4 .9c.3 .4 .5 .7 .7 1.2c.2 .4 .2 .8 .2 1.3c0 .5-.1 1-.3 1.5c-.2 .6-.5 1.2-.8 1.7l-1.6 2.2L86 475.5l2.8 0c.9 0 1.8-.1 2.7-.2l0 .7-.1 .7 .1 .7 0 .6-2.1 0-4.2 0-2.1 0 0-.9c1-1 1.9-1.9 2.5-2.8zm11.1 0c.6-.8 1.2-1.6 1.7-2.4c.7-1.3 1.2-2.8 1.2-4.3c0-.5-.1-1-.2-1.5c-.1-.3-.3-.6-.4-.9c-.1-.2-.4-.4-.6-.5c-.2-.1-.4-.2-.7-.2c-.3 0-.6 .1-.9 .3c-.2 .2-.4 .5-.6 .8c-.2 .6-.4 1.3-.4 2l-.2 .1-.7-.7-.8-.7c.2-.8 .7-1.5 1.3-2c.8-.6 1.7-.8 2.7-.8c.9 0 1.6 .1 2.2 .4c.5 .2 1 .5 1.4 .9c.3 .3 .6 .7 .7 1.2c.3 .9 .3 1.8 0 2.7c-.2 .6-.5 1.2-.8 1.7l-1.7 2.2L97 475.5l2.8 0c.9 0 1.8-.1 2.7-.2l-.1 1.4 .1 1.3-2.1 0-4.2 0-2.1 0 0-.9c.9-.9 1.7-1.8 2.5-2.8zm14.3-2.2l4.8 0 0 2.4-4.8 0 0-2.4zm15.3-3.1l-1.2-2.4-1.1-2.1-.6-1.3 .9 .1 .8 0 .9 0 .9-.1 1.2 2.6 1.2 2.6 1.4-2.6 1.4-2.6 .5 .1 .5 0 .4 0 .5-.1-.8 1.3-1.1 1.6-1.1 1.9-1.1 1.7 1.1 2.2 1.1 2.4 1.1 2.1 .8 1.5-.9 0-1.7 0-.8 0-1.2-2.7-1.3-2.7-1.5 2.7-1.4 2.7-1 0-.4 0-.5 0 .9-1.3 1.1-1.7 1.1-1.9 1.1-1.8-1.1-2.2zm10.4-3l-.1-2.8 .7 .1 .9 0 .9 0 .7-.1-.1 2.8 0 3.2 0 2.9c0 2 0 3.9 .2 5.9l-.7 0-1.7 0-.7 0 .1-2.7 0-3.2 0-2.9 0-3.2zm6.8 0l-.1-2.8 .7 .1 .8 0 .9 0 .7-.1-.1 2.8 0 3.2 0 2.9 0 3.2c0 .9 0 1.8 .1 2.7l-.7 0-1.7 0-.7 0 .1-2.7 0-3.2 0-2.9 0-3.2zm56.9-1.1l-.1 1.6-.1 1.7 0 4.6 0 2.3 .1 2.8-.8-.1-1.5 0-.7 .1 0-1 .1-1.4 .1-1.7 0-7.8-.4 .2-.5 .4-.7 .4-.6 .3-.5-.7-.4-.5c1-.4 1.9-.8 2.8-1.3s1.9-.9 2.8-1.5l.4 .2-.1 1.4zM49.2 149.6l-.2-4.8 1.2 .1c1.3 .1 2.6 .1 3.9 0l2.4-.1c1.5 0 2.8 .1 3.6 .4c.9 .3 1.5 .6 2.1 1.1c.7 .6 1.2 1.4 1.5 2.1s.5 1.7 .5 2.9c0 1.2-.2 2.5-.6 3.6c-.4 .9-1 1.8-1.8 2.5s-1.7 1.2-2.7 1.4c-1.1 .3-2.2 .5-3.4 .5l-1.7 0 .1 5.5c0 1.8 .1 3.6 .2 5.5l-1.2-.1-3 0-1.2 .1c.1-1.5 .2-3.1 .2-4.7l.1-5.5 0-5-.1-5.5zm9.6-.1c-.1-.6-.4-1.1-.8-1.5c-.3-.4-.7-.6-1.1-.8s-.9-.3-1.3-.3l-1.1 0-.3 0 0 5.2 0 5.2c.5 0 1.1-.1 1.7-.2c.6-.2 1.1-.4 1.6-.8c.5-.5 .9-1 1.2-1.6c.4-.9 .5-1.9 .5-2.8c0-.8-.1-1.6-.3-2.4zm15.7 .1l-.2-4.8 1.2 .1 1.5 .1c.5 0 1.1 0 1.5-.1l1.2-.1-.2 4.8-.1 5.4 0 5c0 2 0 3.9 .1 5.5l.2 4.7-1.2-.1-2.9 0-1.2 .1c.1-1.5 .2-3.1 .2-4.7l.1-5.5 0-5-.1-5.4zm34.9 18c-.1 .5-.2 1-.3 1.6c-2.1 1.1-4.4 1.6-6.8 1.5c-1.8 0-3.5-.3-5.1-.9c-2.9-1.2-5.2-3.5-6.2-6.4c-1.2-3.7-1.2-7.7 .3-11.4c.6-1.6 1.6-3.1 2.8-4.4c1.2-1.1 2.7-1.9 4.2-2.5c2.2-.7 4.5-.9 6.8-.6c1.7 .3 3.4 .8 4.9 1.7c-.2 .6-.4 1.2-.5 1.8c-.1 .6-.2 1.3-.2 1.9l-.5 0c-.7-1-1.6-1.8-2.6-2.5c-.9-.5-2-.8-3.1-.8c-.9 0-1.8 .3-2.7 .7c-1 .5-1.8 1.2-2.4 2c-.8 1-1.4 2.2-1.8 3.5c-.5 1.6-.7 3.4-.7 5.1c0 1.6 .2 3.3 .7 4.9c.4 1.2 1 2.3 1.8 3.3c1.7 2 4.4 2.9 6.9 2.3c1.7-.5 3.2-1.4 4.4-2.6l.4 .3-.4 1.6zm23.6-9.7l-2.5-.1-2.5 0-2.5 .1 0 2.1c0 2 0 3.9 .1 5.5l.2 4.6-1.2 0-2.9 0-1.2 0c.1-1.5 .2-3.1 .2-4.6l.1-5.5 0-5-.1-5.5-.2-4.8 1.2 .1c1.4 .1 2.8 .1 4.2-.1c-.2 3.4-.3 6.8-.3 10.2l2.1 .1 5.9 0 2-.1 0-5.4-.2-4.8 1.2 .1c1.4 .1 2.8 .1 4.2-.1c-.2 3.4-.3 6.8-.3 10.2l0 5c0 3.4 .1 6.7 .3 10.1l-1.2 0-3 0-1.2 0 .2-4.6 0-5.5 0-2.1-2.5-.1zm19.9-8.3l-.2-4.8 1.2 .1c.4 0 1 .1 1.5 .1s1.1 0 1.5-.1l1.2-.1-.2 4.8c0 1.6-.1 3.4-.1 5.4l0 5c0 3.4 0 6.7 .3 10.1l-1.2-.1-3 0-1.2 .1c.1-1.5 .2-3.1 .2-4.7l.1-5.5 0-5c0-2 0-3.8-.1-5.4zm17.4 0l-.2-4.8 1.2 .1 1.5 .1c.5 0 1 0 1.5-.1l1.2-.1-.2 4.8c0 1.6-.1 3.4-.1 5.4l0 9.1 .1 3.4c2.5 0 5.1-.2 7.6-.5l-.1 .7 0 1.9 .1 .5-2.2-.1-3.6 0-5.2 0-1.1 0-.6 .1c.1-1.5 .2-3.1 .2-4.7l.1-5.5 0-5c0-2 0-3.8-.1-5.4zm22.8 0l-.2-4.8 2.9 .1 2.9 .1c1.6 0 3.1 0 4.4-.1l2.5-.1c-.1 .8-.2 1.6-.1 2.5l.1 .7-2.1-.2-2.2-.1-1.9-.1-1.2 0-.1 4 0 4c2.5 0 5-.1 7.5-.3l-.1 1 0 .7 .2 1.5c-2.5-.2-5-.3-7.5-.3l0 2.4 0 2.4 .1 4.6c2.5 0 5.1-.2 7.6-.5l-.1 .7c-.1 .6-.1 1.3 0 1.9l.1 .5-2.2-.1-3.6 0-5.2 0-1.1 0-.6 .1c.2-3.4 .2-6.7 .2-10.1l0-5-.1-5.4zm25.3 12.3l-.5 8.3-.8-.1-1.5 0-.8 .1c.7-4.2 1.3-8.5 1.9-12.6c.5-4.2 1.1-8.4 1.5-12.7l.7 .1 .7 .1 .6-.1 .7-.1 1.9 4.5 2 4.5 2 4.5 1.9 4.2c2.8-5.8 5.3-11.7 7.7-17.7c.5 .1 1 .2 1.4 .2s.9-.1 1.4-.2l.7 6.8 .7 7.2 .7 6.5c.2 2 .4 3.6 .6 4.9l-1.3-.1-2.7 0-1.3 .1c-.1-2.7-.3-5.5-.6-8.3l-.8-8.8-3.7 8.5-3.6 8.5-.3-.1-.3 0-.3 0-.3 .1-3.5-8.3-3.7-8.4c-.4 2.8-.6 5.5-.8 8.4zM206.9 469.8c-.3-.2-.5-.4-.7-.6s-.4-.6-.5-.9c-.1-.4-.2-.7-.2-1.1c0-.6 .1-1.1 .3-1.5c.4-.9 1.2-1.5 2.1-1.8c.5-.2 1.1-.2 1.6-.2c.6 0 1.2 .1 1.8 .3c.4 .1 .9 .4 1.2 .7c.4 .3 .6 .6 .8 1.1c.2 .4 .3 .8 .3 1.3l-.2 1.2c-.1 .3-.3 .6-.5 .9c-.4 .5-.9 .8-1.5 1l0 .2c.3 .1 .6 .2 .9 .4c.3 .2 .6 .4 .8 .7c.5 .7 .9 1.6 .9 2.6c0 .6-.1 1.3-.4 1.9c-.2 .6-.5 1-1 1.4c-.4 .4-.9 .7-1.4 .8c-1.2 .4-2.4 .4-3.6 0c-.5-.1-1-.4-1.4-.8c-.9-.8-1.3-2-1.2-3.2c0-.6 .1-1.1 .2-1.5c.2-.8 .7-1.5 1.4-2c.3-.2 .7-.4 1-.4l0-.2c-.3-.1-.6-.2-.9-.4zm3.9 1.8c-.3-.6-.7-.8-1.2-.8c-.5 0-.9 .3-1.2 .8c-.3 .8-.5 1.7-.4 2.6c0 1.1 .2 2 .5 2.5s.7 .8 1.2 .9c.4 0 .8-.3 1.2-.8c.4-.8 .6-1.7 .5-2.6c.1-.9-.1-1.7-.5-2.5zm0-6.3c-.2-.5-.6-.8-1.1-.7c-.6 0-1 .3-1.2 .7c-.2 .7-.4 1.4-.4 2.1c0 .8 .2 1.5 .5 1.9c.3 .4 .6 .6 1 .6c.5 0 .8-.2 1.1-.7c.4-.6 .5-1.3 .4-2c.1-.6 0-1.3-.4-1.9zm47.8-295.1c-2.4-.6-4.4-2.4-5.3-4.6c-.5-1.4-.8-2.9-.8-4.5l0-2.6 0-2.2 0-1.9 0-1.9 0-4.8-.1-2.8 2.7 .2 1.4-.1 1.3-.1c-.2 2.2-.4 4.5-.4 6.7l0 6.3c0 2.2 .1 4 .4 5.4c.2 1.1 .6 2.2 1.2 3.2c.6 .7 1.3 1.3 2.1 1.5c.9 .3 1.9 .4 2.8 .4c1.2 .1 2.3-.3 3.1-1.1c.8-.8 1.4-1.8 1.7-3c.4-1.4 .6-2.8 .7-4.2l.1-5-.1-5.1-.2-5.1 .9 .1 .8 .1 .8-.1 .9-.1-.2 2.2-.1 3.2-.2 8.5c0 4.3-.8 7.3-2.5 9.2s-4.1 2.8-7.3 2.8c-1.3 0-2.7-.2-3.9-.5zM217.9 477.2c.7 .4 1.5 .3 2.2-.1c.4-.3 .8-.6 1-1.1c.4-.6 .6-1.2 .7-1.9c.2-.9 .3-1.8 .3-2.7l-.4 .5c-.1 .2-.3 .3-.5 .4l-.7 .2c-.8 .2-1.6 .1-2.3-.2c-.4-.2-.8-.4-1.2-.8c-.4-.4-.6-.8-.8-1.3c-.4-1.2-.4-2.6 0-3.8c.3-1.1 1.2-2 2.2-2.5c1.2-.5 2.5-.5 3.7 0c.6 .2 1.1 .6 1.5 1.1c.4 .6 .7 1.2 .9 1.9c.2 .8 .4 1.7 .4 2.6c0 1.3-.1 2.5-.4 3.7c-.3 1-.7 1.9-1.2 2.7c-1 1.5-2.6 2.3-4.4 2.3l-.8-.1-.7-.2-.2-.6-.3-.6 .1-.2 .7 .6zm3.8-11.8c-.3-.6-.7-.8-1.2-.8c-.5 0-1 .3-1.2 .9c-.3 .8-.4 1.6-.4 2.5c0 .6 0 1.1 .1 1.6l.4 1c.2 .3 .3 .5 .5 .6l.6 .2c.2 0 .4-.1 .6-.2c.2-.1 .4-.3 .5-.6c.2-.3 .3-.6 .4-1c.1-.5 .1-.9 .1-1.4c.1-1-.1-1.9-.4-2.8zm50.5-280.9l0 236.2c0 18.7-15 33.8-33.5 33.8l-63.6 0c-7.3 0-13.3 6.1-13.4 13.5l-3.4 0c0-7.4-6.1-13.4-13.4-13.5l-63.6 0c-18.4 0-33.5-15.3-33.5-33.8l0-236.3 224.4 0zM161.7 285.6l0 17c2.9-.2 5.2-2.6 5.2-5.6c0-.6 .5-1.2 1.2-1.2c.4 0 .8 .2 1 .5c.1 .2 .2 .5 .2 .7c0 3.1 2.5 5.6 5.6 5.6c0 0 0 0 .1 0c3 0 5.4-2.5 5.4-5.5l-18.7-11.5zm40.4 108c.4 .2 .5 .6 .4 1c-.1 .4-.4 .6-.8 .7l-21.3 1.8 21.3 1.8c.4 .1 .7 .3 .8 .7c.1 .4-.1 .8-.4 1l-19 9.9 20.4-6.5c.4-.1 .8 0 1 .3s.2 .7 0 1.1L190.6 422 207 408.1c.3-.3 .7-.3 1.1-.1c.4 .3 .4 .6 .3 1L202 429.6l9.8-19.1c.2-.3 .4-.5 .8-.5l.2 0c.4 .1 .6 .4 .7 .8l1.8 21.4 1.8-21.4c.1-.4 .3-.7 .7-.8c.4-.1 .8 .1 1 .5l9.8 19.1-6.4-20.5c-.1-.4 0-.8 .4-1c.3-.2 .7-.2 1.1 .1L239.9 422l-13.8-16.5c-.3-.3-.3-.7 0-1.1c.3-.3 .6-.4 1-.3l20.4 6.5-19-9.9c-.4-.2-.5-.6-.5-1c.1-.4 .4-.6 .8-.7l21.3-1.8-21.3-1.8c-.4-.1-.7-.3-.8-.7c-.1-.4 .1-.8 .5-1l19-9.9-20.4 6.5c-.4 .1-.8-.1-1-.4c-.2-.3-.2-.7 0-1.1l13.8-16.5-16.4 13.9c-.3 .2-.7 .2-1.1 0c-.4-.3-.5-.6-.4-1l6.4-20.5-9.8 19.1c-.2 .4-.6 .5-1 .5c-.4-.1-.6-.4-.7-.8L215.3 362l-1.8 21.5c-.1 .4-.3 .7-.7 .8c-.4 .1-.8-.1-1-.5L202 364.7l6.4 20.5c.1 .4 0 .8-.3 1c-.3 .2-.8 .2-1.1 0l-16.4-13.9 13.8 16.5c.2 .3 .2 .7 0 1.1c-.2 .3-.6 .5-1 .4l-20.4-6.5 19 9.9zM247.8 297l.1-.5c.2-.3 .4-.5 .7-.7l0-5.7-28.3-12.4-2.1 3.1c-3.2 4.6-5.8 7.5-7.1 8.9l9.7 8.2 .1-1c0-.4 .2-.8 .5-1c.2-.1 .4-.2 .7-.2c.6 0 1.2 .5 1.2 1.2c0 3.1 2.5 5.6 5.5 5.6s5.5-2.5 5.5-5.6c0-.7 .5-1.2 1.2-1.2s1.2 .5 1.2 1.2c0 3 2.5 5.5 5.5 5.5c3 0 5.5-2.5 5.6-5.6zm-89.5 78.6l0-.7-1.3 0c-4.8-.2-9.7 .3-14.3 1.5c2 .5 4.2 .8 6.4 .8c3.2 0 6.3-.6 9.3-1.6zm-64.8-73l0-7.9-1.7-.5L64 294.7c-.6 0-1.1-.5-1.2-1c0-.6 .3-1.1 .9-1.3c.1 0 8.2-2.4 14.9-7c5.5-4.1 9.7-9.8 12-16.3c-3.7 .9-7.5 1.1-11.3 .5c-3-.7-6-1.7-8.8-3c-.4-.2-.7-.7-.7-1.2s.4-.9 .9-1c.1 0 8.9-2.5 13.6-6.9c4.5-4.2 6.9-7.1 8.2-8.9c-1.5 .4-3.7 .6-6.7 .8c-3.6 .3-7.1-.3-10.4-1.6c-.4-.2-.6-.6-.6-1.1c0-.5 .2-.8 .7-1.1c.1 0 7.1-3.5 12.9-10.6c4.6-5.6 6.9-10.5 8.1-13.5c-1.6 .9-3.2 1.7-4.9 2.3c-5.2 2-7.8 1.4-8.1 1.3c-.4-.1-.8-.5-.8-.9c-.1-.4 .1-.9 .4-1.2c.1-.1 6.9-5.5 11.9-15.3c3.5-6.7 4.3-15.1 4.4-19.7l-48.3 0 0 114.5c.5 .1 1 .2 1.4 .2c3 0 5.5-2.5 5.5-5.6c0-.6 .5-1.2 1.2-1.2c.4 0 .8 .2 1 .5c.1 .2 .2 .5 .2 .7c0 3.1 2.5 5.6 5.6 5.6c3 0 5.5-2.5 5.5-5.6c0-.6 .5-1.2 1.2-1.2c.2 0 .4 0 .5 .1c.4 .2 .7 .6 .7 1.1c0 3.1 2.5 5.5 5.5 5.6c3 0 5.5-2.5 5.5-5.6c0-.2 0-.3 .1-.5c.2-.4 .6-.7 1.1-.7c.7 0 1.2 .5 1.2 1.2c0 3.1 2.5 5.6 5.5 5.6l.6 0zm175.3 15.3l0-12.9c-2.6-.2-5-1.6-6.3-3.9c-1.4 2.4-4 3.9-6.8 3.9c-2.8 0-5.3-1.5-6.8-3.8c-1.4 2.4-4 3.8-6.7 3.8s-5.3-1.4-6.7-3.8c-1.4 2.4-4 3.8-6.7 3.8s-5.3-1.4-6.7-3.8c-1.4 2.4-4 3.8-6.7 3.8c-2.8 0-5.4-1.5-6.8-3.9c-1.4 2.4-4 3.9-6.8 3.9c-2.7 0-5.3-1.4-6.7-3.8c-1.4 2.4-4 3.8-6.7 3.8s-5.3-1.5-6.7-3.8c-1.4 2.3-4 3.7-6.7 3.8c-2.8 0-5.3-1.5-6.8-3.8c-1.4 2.3-3.8 3.7-6.4 3.8l0 12.9 107.1 0zm-58.7-25.6l0 6.7c.8 2.2 2.9 3.6 5.2 3.6c1.7 0 3.3-.8 4.3-2.1l-9.5-8.2zm0-104.4l0 99.4c3.9-4.4 13.9-16.8 23.5-40.6c7.5-18.8 12.5-38.6 14.8-58.7l-38.2 0zm-51.8 130l0-130-26.4 0c-.1 4.5-.8 14-4.8 21.7c-2.5 4.8-5.5 9.3-9 13.4l2.8-1.2c1.8-.8 7.2-4 7.2-4c.4-.2 .9-.2 1.3 0c.4 .3 .5 .7 .5 1.2c0 .3-1.2 7.9-8.4 18.2c-3.8 5.5-9.2 10.6-12.3 13.3c1.6 0 3.7-.4 6.4-.9c5.5-1.3 8.8-3.9 8.8-3.9c.4-.4 1-.4 1.4-.1c.4 .3 .6 .8 .5 1.3c-.1 .4-2.6 8.9-10.3 16.7c-3.2 3.3-9.3 7.2-13.2 9.5c2.1 .1 4.7 0 6.7-.3c5.5-.8 10.8-2.1 10.9-2.2c.5-.1 1 .1 1.3 .5c.3 .5 .2 1-.1 1.4c-4.2 4.5-8.9 8.5-14 12c-4.8 3.1-11.4 5.8-15.2 7.3c3.6 1 10 2.3 17.7 1.5c9.2-.9 13.9-5.7 14-5.8c.2-.2 .5-.4 .8-.4c.6 0 1.2 .5 1.2 1.2l0 29.4 32.4 0zm-34.7 0l0-26.9c-4 2.7-8.6 4.4-13.4 4.8c-4.8 .5-9.6 .3-14.3-.6l0 22.7 27.7 0zm34.7 32.5l0-16.6c-.2 .1-.5 .2-.7 .1c-.3-.1-22.4-3.4-46.3 15.6C95.6 362 89 377.1 84.1 388.2c-2.3 5.3-4.3 9.8-6.7 12.7c-2 2.5-4.9 2.8-7.1 2.8l-.3 0c-2.8-.1-5.3-1.5-6.7-3.9c-1.4 2.4-4 3.9-6.8 3.9c-2 0-3.8-.7-5.3-2l0 18.9c.1 .2 .2 .4 .2 .6c.2 2.9 2.7 5.2 5.6 5.2c2.9 0 5.3-2.3 5.5-5.2c0-.7 .6-1.2 1.2-1.2s1.2 .5 1.2 1.2c.2 2.9 2.7 5.2 5.6 5.2c2.9 0 5.3-2.3 5.5-5.2c0-.7 .6-1.2 1.2-1.2c.6 0 1.2 .5 1.2 1.2c0 3.1 2.5 5.6 5.5 5.6l.3 0c2.5 0 4.1-.6 5.2-2c2.3-2.8 3.9-6.4 5.7-10.5c3.6-8.2 8.1-18.4 21.2-28c6.6-4.8 13.1-8 18.8-10.1c-7.3-3.9-12.1-10.7-12.1-18.5c0-8.9 6.3-16.6 15.4-20c.7-.2 1.3-.4 2-.4c3.4 0 6.1 2.8 6.1 6.2s-2.8 6.2-6.1 6.2l-.1 0c-3.3 0-6.1-2.8-6.1-6.1c0-.4 0-.8 .1-1.2c-5.4 3.2-8.8 9-9 15.3c0 7.6 5.3 14.2 13 17.4c10-3 17.3-2.7 18.6-2.6l1.2 0 0-19.3-15.3 10c-.2 .1-.4 .2-.7 .2c-.4 0-.7-.2-1-.6c-.4-.6-.2-1.3 .3-1.6l16.6-10.9zm-43.2 30.4c0 0 0 0-.1 0c-4.9 0-8.8-4-8.8-8.9c0-2.5 1.1-4.9 2.9-6.6c-1.9-3.6-1.1-8.2 1.9-10.9c.5-.4 1.2-.4 1.7 .1c.4 .5 .4 1.3-.1 1.7c-1.4 1.2-2.1 3-2.1 4.9c0 3.6 2.9 6.6 6.5 6.6c1.2 0 2.4-.4 3.5-1c.5-.4 1.3-.2 1.6 .4s.2 1.3-.4 1.6c-3.6 2.3-8.3 1.8-11.2-1.3c-1.2 1.2-1.9 2.9-1.9 4.6c0 3.6 2.9 6.5 6.5 6.5c1.6 0 3.3-.6 4.4-1.7c.5-.5 1.2-.4 1.7 .1c.4 .5 .4 1.2 0 1.7c-1.7 1.5-3.8 2.4-6 2.4zM93.6 317.9l0-13L93 305c-2.7 0-5.3-1.5-6.7-3.8c-1.4 2.4-4 3.8-6.7 3.8s-5.3-1.4-6.7-3.8c-1.4 2.4-4 3.8-6.7 3.8c-2.8 0-5.3-1.5-6.8-3.8c-1.7 2.8-5 4.3-8.2 3.7l0 13.1 42.4 0zm141.4-68.2l13.7 4.8 0-17.1-8-2.8c-1.7 5.1-3.6 10.2-5.7 15.2zm6.4-17.5l7.3 2.6 0-31.9c-1.8 9.9-4.2 19.7-7.3 29.3zm-19.7 43.4l26.9 11.8 0-30.5L234 252c-3.5 8.2-7.6 16.2-12.4 23.8zm-60 116.7l0 10.2 24.7-3.1L170 398c-.4-.1-.8-.4-.8-.9c0-.5 .4-.9 .8-.9l16.9-1.5-25.2-2.4zm27.5-140.5l18.6 8 0-29.2-7.6-3.3c-2.7 7.5-5.9 14.9-9.6 22l-1.4 2.6zm79.6 50.8l0-114.7-17.9 0 0 112c1 1.6 2.8 2.6 4.7 2.6c3 0 5.5-2.5 5.6-5.5c0-.7 .5-1.2 1.2-1.2l.1 0c.6 0 1.2 .5 1.2 1.2c0 2.9 2.2 5.3 5.1 5.6zM161.7 187.9l0 95.1c2.8-2.5 16.5-15.4 26.8-34.9c9.6-18.9 16-39.2 19-60.2l-45.8 0zM268.8 420.8l0-74.9-8.9-7.2c-1.5 1.8-3.1 3.4-5 4.8c-4 3.5-9.1 5.5-14.4 5.8c-10.9 0-18.8-8.8-21.3-12.1c-3.1 3.3-13.3 11.9-29.6 6c-9.9-3.6-22.6-15.2-27.9-20.3l0 67.7 35 3.4 1.8-.2-25.4-13.3c-.4-.2-.6-.7-.4-1.2c.2-.4 .7-.6 1.1-.5l27.3 8.7-18.5-22.1c-.3-.4-.3-.9 0-1.2c.4-.3 .9-.3 1.2-.1l21.9 18.6-8.7-27.5c-.1-.5 .1-.9 .5-1.1s.9 0 1.1 .4l13.2 25.6 2.5-28.8c.1-.4 .4-.8 .9-.8c.4 0 .8 .4 .9 .8l2.4 28.8 13.2-25.6c.2-.4 .7-.6 1.2-.4c.4 .2 .6 .6 .5 1.1l-8.7 27.5 21.9-18.6c.4-.3 .9-.3 1.2 .1c.3 .3 .3 .8 0 1.2l-18.4 22.1 27.3-8.7c.4-.1 .9 .1 1.1 .5c.2 .5 0 .9-.4 1.2L232 393.8l28.5 2.5c.4 .1 .8 .5 .8 .9c0 .5-.4 .8-.8 .9L232 400.5l25.4 13.3c.4 .2 .6 .7 .4 1.1c-.2 .4-.6 .6-1.1 .5l-27.3-8.7 18.4 22.1c.3 .4 .3 .8 0 1.2c-.4 .3-.9 .3-1.2 .1l-21.9-18.6 8.7 27.5c.1 .4-.1 .9-.5 1.1c-.4 .2-.9 0-1.2-.4L218.6 414l-2.4 28.8c-.1 .5-.4 .8-.9 .8c-.4 0-.8-.4-.9-.8L211.9 414l-13.2 25.6c-.2 .4-.7 .5-1.1 .4c-.4-.2-.6-.6-.5-1.1l8.7-27.5-21.9 18.6c-.4 .3-.9 .3-1.2-.1c-.3-.4-.3-.8 0-1.2l18.5-22.1-27.3 8.7c-.4 .1-.9-.1-1.1-.5c-.1-.4 0-.9 .4-1.1l25.4-13.3-3.7-.3-33.2 4.2 0 53.6c3.1-4.3 8.1-6.8 13.4-6.8l63.6 0c0 0 0 0 .1 0c16.5 0 30.1-13.7 30.1-30.3l0-.1zm-217 6.5c3 13.9 15.3 23.9 29.4 23.9l63.6 0c5.5 0 10.3 2.6 13.4 6.8l0-35.2c-2.3 .6-4.7 1-7 1c-12.8 0-23.2-9.4-23.2-21c0-9.1 6.5-17.1 15.9-19.9l.4-.1c.5-.1 1-.2 1.5-.2c3.5 0 6.3 2.9 6.3 6.4c0 3.5-2.8 6.4-6.3 6.4s-6.3-2.9-6.3-6.4c0-.6 .1-1.1 .2-1.7c-5.6 3.1-9.2 9-9.4 15.5c0 10.3 9.4 18.6 20.9 18.6c2.4 0 4.8-.4 7-1.1l0-20.3L144.7 409c-.5 .4-1.3 .2-1.6-.4s-.2-1.3 .4-1.6l14.9-9.7 0-19.1c-6.5 2.2-13.5 2-19.9-.5c-6.1 1.9-13.2 5.2-20.5 10.5c-12.6 9.3-17 19.2-20.5 27.1c-1.8 4.1-3.5 8-6 11.1c-2 2.5-4.9 2.8-7.1 2.8l-.3 0c-2.8-.1-5.3-1.5-6.7-3.9c-1.4 2.4-4 3.9-6.8 3.9c-2.8 0-5.3-1.5-6.8-3.9c-1.4 2.4-4 3.9-6.8 3.9c-1.8 0-3.6-.6-5-1.8zm81.3-1.2c.1 .2 .2 .4 .2 .6c0 .4-.2 .8-.5 1c-3.5 2.4-8.2 1.8-11.2-1.2c-1.5 1.1-3.3 1.6-5.2 1.6c-4.8 0-8.9-4-8.9-8.9c0-2.4 1-4.7 2.7-6.4c-1.9-3.6-1.1-8.2 2-10.9c.5-.4 1.2-.4 1.7 .1c.4 .5 .4 1.3-.1 1.7c-1.4 1.3-2.2 3.1-2.2 4.9c0 3.6 2.9 6.5 6.5 6.5c1.2 0 2.3-.3 3.4-.9l.6-.6c.5-.4 1.2-.4 1.7 .1c.4 .5 .4 1.3-.1 1.7l-.4 .4-.2 .2c-.9 1.2-1.4 2.6-1.4 4.1c0 3.6 2.9 6.6 6.5 6.6c1.2 0 2.3-.3 3.4-.9c.5-.4 1.3-.2 1.6 .4zm-16.8-.2c1.4 0 2.8-.5 3.9-1.3c-1.2-2.2-1.4-4.8-.7-7.2l-1.5 .1c-2.4 0-4.7-1-6.4-2.7c-1.2 1.2-1.9 2.9-1.9 4.6c0 3.6 2.9 6.6 6.5 6.6zm152.5-83l0-21.6-105.4 0c5.3 5.1 17.7 16.3 27 19.7c7.7 2.8 14.7 2.6 20.9-.7c2.7-1.4 5.1-3.3 7-5.7l1-1.4 .9 1.4c.1 .1 8.3 12.3 20.3 12.3c10.2 0 18.2-10.5 18.3-10.6l.7-1 9.3 7.5zm-139.3-155l-27.7 0c-.2 4.7-1 13.6-4.7 20.8c-2.7 5.1-6.1 9.8-10.1 13.9c1.3-.3 2.5-.6 3.7-1.1c2.6-.8 5-2.2 7.1-3.9c.4-.3 .9-.4 1.4-.2s.7 .7 .6 1.3c-.1 .3-1.6 8-9.6 17.7c-3.2 3.9-7 7.3-11.3 9.9c1.5 .4 3.8 .7 6.8 .6c6.7-.3 8.6-1.6 8.7-1.6c.4-.3 .9-.3 1.3 0c.4 .3 .6 .8 .5 1.3c-.1 .4-1.2 4.2-10.3 12.6c-3.4 2.8-7.3 5-11.4 6.4c1.5 .5 3.4 1.2 5.3 1.6c5.3 1.2 12.1-.9 12.2-.9c.4-.1 .8 0 1.2 .3s.4 .7 .4 1.2c-.1 .5-3.3 12.6-13.6 19.6c-2.8 1.9-5.8 3.5-9 4.8l16.6-.3c0-.5 .4-.9 .8-1.1c.1 0 11.1-3.7 18-8.2c3.8-2.5 7.5-5.5 10.7-8.8c-2.4 .5-4.8 .9-7.2 1.3c-4.4 .6-10.9 .1-11.2 .1c-.5-.1-.9-.5-1.1-.9c-.1-.5 .2-1 .6-1.3c.1-.1 11.6-6.4 16.2-11.1c4.4-4.5 7.1-9.4 8.4-12.5c-2.1 1.1-4.4 1.9-6.7 2.5c-3.3 .9-6.8 1.3-10.2 .9c-.5 0-.9-.4-1-.8s0-.9 .4-1.3c.1-.1 9-7.2 14.3-14.9c4.4-6.3 6.4-11.6 7.4-14.6c-1.6 1-3.3 1.9-5 2.7c-1.9 .9-7.4 2.9-7.6 3c-.5 .2-1.1 0-1.4-.5c-.3-.5-.2-1.1 .2-1.5c4.8-4.9 8.8-10.5 12-16.5c3.7-7.1 4.4-16.3 4.5-20.6zm28.8 143.7l0-10.4-107.2 0 0 76.1c.7 2.4 2.8 4 5.3 4c3 0 5.5-2.5 5.5-5.6l0-.1c0-.7 .6-1.2 1.2-1.2s1.2 .5 1.2 1.2c0 3.1 2.5 5.6 5.5 5.6l.3 .1c2.6 0 4.1-.6 5.2-2c2.2-2.7 4.2-7.1 6.4-12.2c5-11.3 11.7-26.7 27.9-39.6c24.8-19.7 47.2-16.3 48.2-16.1l.3 .1zM195 295.8c.6 0 1.2 .5 1.2 1.2c.2 2.9 2.7 5.2 5.5 5.2c2.9 0 5.3-2.3 5.6-5.2c0-.4 .2-.7 .5-1l0-14.4-30.5-12.2c-5.9 7.5-11.2 12.6-13.4 14.7l27.9 17.1c1.3-1 2-2.6 2-4.3c0-.2 0-.3 .1-.5c.2-.4 .6-.7 1.1-.7zm-16.2-28.3l29 11.6 0-16.7L188 253.9c-2.8 4.7-5.8 9.3-9.2 13.6zm10.3 35l-6.2-3.8c.8 2.6 3.5 4.2 6.2 3.8zM201 225l6.8 3 0-27.8c-1.4 6.8-3.6 15.4-6.8 24.8zm32.5 240.1l-.1 1.6 0 1.7 0 1.6 0 3 0 2.3 .1 2.8-.7-.1-1.5 0-.7 .1 0-1 .1-1.4 0-1.7 0-1.8 0-6-.4 .2-.6 .4-.6 .4-.6 .3-.5-.7-.4-.5c1-.4 1.9-.8 2.8-1.3c1-.5 1.9-1 2.8-1.5l.4 .2-.1 1.4zM189.2 90.7L185.9 97c-17.2-2.5-34.6-2.5-51.8 0l-3.3-6.3c19.4-3.2 39.1-3.2 58.5 0z"/></svg>