<svg fill="currentColor" xmlns="http://www.w3.org/2000/svg" viewBox="0 0 640 512"><path d="M560 256a240 240 0 1 1 -480 0 240 240 0 0 1 480 0m-76.3 125-.9 1.2 17.3 13.2 1-1.2zm-1.8 35.4 1.1-1.1-15-15.7-1.2 1.1 7.6 7.8-8.6 8.3-7.6-7.8-1.1 1.1 15 15.7 1.2-1.1-6.7-6.9 8.6-8.3zm48.6-125.7-1.5 8.5-8 1.3-.3 1.5 22.8-3.8 .3-1.5-20-11.6-.3 1.6zm-.2 8.2 1.4-7.5 6.7 3.9c1.3 .7 2.3 1.2 3.5 1.8v.1c-1.3 .1-2.4 .2-4 .4zm-59.6 99 1.2 .4a12.8 12.8 0 0 1 2.4-4.4c3.8-4.4 8.9-4.5 13.4-.6c4.7 4.1 5.3 9.3 1.4 13.8a9.6 9.6 0 0 1 -3.7 2.8l.6 1.2a12.8 12.8 0 0 0 4-3.2c4.5-5.2 3.5-11.6-1.4-15.8c-5.8-5-11.6-3.4-15.1 .5a12.8 12.8 0 0 0 -3 5.2m60.6-168.3 1 8.6-7.3 3.6 .2 1.6 20.8-10.2-.2-1.4-22.5-5.4 .2 1.6zm2.2 7.9-.8-7.6 7.6 1.9c1.4 .3 2.6 .5 3.8 .7v.1l-3.6 1.5zm13.5 8-21.8 .7 .4 11.2h1.3l-.3-9.7 20.5-.6-.1-1.5zm-21.5 14.9v1.5l21.8 .4v-1.5zm21.3 8.2-21.3-1.8a64 64 0 0 0 -.6 4.8c-.4 4.2 .6 7.6 2.5 9.7c2 2.1 4.8 3.2 8 3.5a10.6 10.6 0 0 0 7.7-2q3.1-2.5 3.7-8.5a32 32 0 0 0 0-5.6m-20.2-.2 18.9 1.6a19.2 19.2 0 0 1 0 4c-.6 7-4.6 9.7-10.1 9.2c-6.3-.5-9.9-4.3-9.3-11.3a32 32 0 0 1 .5-3.5zm5.1 70.7-19.7-8.5a64 64 0 0 0 -2.1 4.4c-1.7 3.8-1.8 7.4-.6 9.9a11.8 11.8 0 0 0 6.4 5.9q4.5 1.9 8 .5q3.8-1.4 6.2-6.9q1.2-2.9 1.8-5.3m-19.1-6.6 17.4 7.5a19.2 19.2 0 0 1 -1.2 3.7c-2.8 6.4-7.5 7.7-12.5 5.5c-5.8-2.5-8-7.2-5.3-13.6a32 32 0 0 1 1.5-3.2m-4.3 30.8 1.2 .6 4.1-7.7 7.4 4-4.3 8.1 1.1 .6 5.1-9.5-19.2-10.3-5.3 9.9 1.2 .6 4.6-8.6 8.4 4.5zM513.4 256a193.4 193.4 0 1 0 -386.8 0 193.4 193.4 0 0 0 386.8 0M320.8 73.3c8.6 7.9 15.8 17.1 21.4 27.4a137.6 137.6 0 0 1 52.9 20.5l.2 .2 1.3 .9-8.5 12.5-8 11.8a64 64 0 0 0 -6.3-7c-11.2-9.3-22.3 6-39.9 6c-5.8 0-11-4.3-11-4.3l7.1-7s9.2 8.6 19.2 6a28.8 28.8 0 0 0 8.9-4.2l-3.9-1.4 1.3-3.5a1 1 0 0 1 1.2-.6 1 1 0 0 1 1.2-.5l.5 .2a7.4 7.4 0 0 1 -.4-6 7.4 7.4 0 0 1 2.5-3.4 3.2 3.2 0 0 0 1.3-1.6 3.2 3.2 0 0 0 .2-1.1q0-.6 .2-1.2a4.2 4.2 0 0 1 1.1-1.6 1 1 0 0 1 -.5-1.2 1 1 0 0 1 -.5-1.2l1.1-3.1-5.4-1.7-.7 2.9a1 1 0 0 1 -1.1 .6 1 1 0 0 1 -1.1 .7 3.8 3.8 0 0 1 -.5 3 3.2 3.2 0 0 0 -.3 3.2 7.4 7.4 0 0 1 -3.5 8.7l.5 .1c.5 .1 .8 .6 .6 1.1c.5 .1 .8 .6 .7 1.1l-1 4a96 96 0 0 0 -6.2-1.7l1-3.8a1 1 0 0 1 1.1-.7 1 1 0 0 1 1.1-.7l.5 .1a7.4 7.4 0 0 1 1.1-9.5 3.2 3.2 0 0 0 1.1-1.7 3.2 3.2 0 0 0 .1-1.2 3.2 3.2 0 0 1 .1-1.2 3.2 3.2 0 0 1 .9-1.7 1 1 0 0 1 -.6-1.1 1 1 0 0 1 -.7-1.1l.8-3a128 128 0 0 0 -6.9-1.5q1.1 2.3 2.1 4.7l.1 .1-8.4 15.7a112 112 0 0 0 -17.6-1.5zm66 60.8 6.3-9.3-3.2-2-1.6 2.7a1 1 0 0 1 -1.3 .3 1 1 0 0 1 -1.2 .3 4.2 4.2 0 0 1 -1.3 2.8 3.2 3.2 0 0 0 -1.2 3v.4zm-4.6-8a4.2 4.2 0 0 1 1.3-1.3 1 1 0 0 1 -.3-1.3 1 1 0 0 1 -.3-1.2l1.6-2.7-4.4-2.3-1.3 2.7a1 1 0 0 1 -1.2 .4 1 1 0 0 1 -1.2 .4 4.2 4.2 0 0 1 -1.1 2.9 3.2 3.2 0 0 0 -.9 3.1 6.4 6.4 0 0 1 -.1 2.4 16 16 0 0 1 4.6 1.1l1-.6a3.2 3.2 0 0 0 1.5-1.3 3.2 3.2 0 0 0 .4-1.1 3.2 3.2 0 0 1 .4-1.2m-9.3-8.9 1.3-2.8-5.1-2.1-1.1 3.1a1 1 0 0 1 -1.2 .5 1 1 0 0 1 -1.2 .6 3.8 3.8 0 0 1 -.8 2.9 3.2 3.2 0 0 0 -.6 3.1 7.4 7.4 0 0 1 -4.4 8.3l.5 .2a1 1 0 0 1 .5 1.2 1 1 0 0 1 .5 1.2l-.2 .5a32 32 0 0 1 5.8-3.6 7.4 7.4 0 0 1 3.4-5.5 3.2 3.2 0 0 0 1.7-2.6 4.2 4.2 0 0 1 1.5-2.7 1 1 0 0 1 -.4-1.2 1 1 0 0 1 -.4-1.2zm-35 3.3 6.2-11.7v-.1A89.6 89.6 0 0 0 326 81.4v37.9q6 .3 11.9 1.2m-19-47.2v50.9a112 112 0 0 0 -17.6 1.5l-8.4-15.7 0-.1q1-2.4 2.1-4.7q-3.4 .6-6.7 1.4l.8 3a1 1 0 0 1 -.6 1.1 1 1 0 0 1 -.6 1.1 4.2 4.2 0 0 1 1 2.9 3.2 3.2 0 0 0 .1 1.2q.3 1.1 1.1 1.7a7.4 7.4 0 0 1 1.1 9.5l.5-.1a1 1 0 0 1 1.1 .6 1 1 0 0 1 1.1 .7l1 3.8q-3.1 .8-6.2 1.7l-1-4a1 1 0 0 1 .6-1.1 1 1 0 0 1 .6-1.1l.5-.1a7.4 7.4 0 0 1 -3.6-8.7 3.2 3.2 0 0 0 -.3-3.2 4.2 4.2 0 0 1 -.5-3 1 1 0 0 1 -1.1-.6 1 1 0 0 1 -1.1-.7l-.7-2.9-5.4 1.7 1.1 3.1a1 1 0 0 1 -.5 1.2 1 1 0 0 1 -.5 1.2 4.2 4.2 0 0 1 1.3 2.8 3.2 3.2 0 0 0 .2 1.2 3.2 3.2 0 0 0 1.3 1.6 7.4 7.4 0 0 1 2 9.3l.5-.2a1 1 0 0 1 1.2 .5 1 1 0 0 1 1.2 .6l1.2 3.5-3.9 1.4c2.5 1.6 5.2 3.2 8.8 4.1c10 2.6 19.2-6.1 19.2-6.1l7.1 7.1s-5.2 4.3-10.9 4.3c-17.6 .1-28.7-15.2-39.9-6c-1.6 1.4-4.6 4.8-6.3 7l-8-11.8-8.5-12.5 1.3-.9 .3-.2a137.6 137.6 0 0 1 52.7-20.5 105.6 105.6 0 0 1 21.4-27.5zm-62.4 59v-.5a3.2 3.2 0 0 0 -1.2-2.9 3.2 3.2 0 0 1 -.8-1 3.2 3.2 0 0 1 -.5-1.8 1 1 0 0 1 -1.3-.3 1 1 0 0 1 -1.2-.3l-1.6-2.7q-1.6 1-3.2 2l6.3 9.3zm7.8-3 1.3-.2a6.4 6.4 0 0 1 -.1-2.4 3.2 3.2 0 0 0 -.9-3 4.2 4.2 0 0 1 -1.1-2.9 1 1 0 0 1 -1.2-.4 1 1 0 0 1 -1.2-.4l-1.3-2.7-4.4 2.3 1.6 2.7a1 1 0 0 1 -.4 1.2 1 1 0 0 1 -.3 1.2 4.2 4.2 0 0 1 1.8 2.5 3.2 3.2 0 0 0 1.9 2.4l1 .6a16 16 0 0 1 3.2-1m49.5-10V81.4c-7.6 7.9-13.8 17.1-18.1 27.3v.1l6.2 11.7q5.9-.9 11.9-1.2m-33.8 11.6a7.4 7.4 0 0 1 -4.4-8.4 3.2 3.2 0 0 0 0-2.1 3.2 3.2 0 0 0 -.6-1 4.2 4.2 0 0 1 -.8-2.9 1 1 0 0 1 -1.2-.6 1 1 0 0 1 -1.2-.5l-1.1-3.1-5.1 2.1 1.3 2.8a1 1 0 0 1 -.4 1.2 1 1 0 0 1 -.4 1.2 4.2 4.2 0 0 1 1.5 2.7 3.2 3.2 0 0 0 1.7 2.6 7.4 7.4 0 0 1 3.4 5.5c2.1 .9 3.9 2.2 5.8 3.6l-.2-.5a1 1 0 0 1 .5-1.2 1 1 0 0 1 .6-1.2zm-47 19.5h173.9v189c0 15-12.2 27.3-27.3 27.3h-44.8a13.1 13.1 0 0 0 -13.1 13.1h-3.2a13.1 13.1 0 0 0 -13.1-13.1h-45a27.3 27.3 0 0 1 -27.3-27.3zm170.8 189v-186H235.9v186c0 13.4 10.8 24.3 24.3 24.3h45c6.6 0 12.2 3.9 14.7 9.5a16.3 16.3 0 0 1 14.6-9.5h45c13.4 0 24.3-10.9 24.3-24.3m-128.9 17.9 1-1.4a4.8 4.8 0 0 0 .7-2.6l-.1-.9-.3-.6-.4-.3-.4-.1a.6 .6 0 0 0 -.5 .2l-.3 .5a3.2 3.2 0 0 0 -.2 1.2l-.1 .1-.4-.4-.4-.4a3.2 3.2 0 0 1 .8-1.2 3.2 3.2 0 0 1 1.6-.5q.8 0 1.3 .2q.5 .2 .8 .5l.4 .7a3.2 3.2 0 0 1 0 1.7 3.2 3.2 0 0 1 -.5 1l-1 1.3-1.7 1.7h1.6l1.6-.1v.4l-.1 .4 0 .4 0 .4h-5.1v-.5l1.5-1.7zm6.7 0 1-1.4a4.8 4.8 0 0 0 .6-3.5l-.3-.6a1 1 0 0 0 -.8-.4 .6 .6 0 0 0 -.5 .2l-.3 .5a3.2 3.2 0 0 0 -.2 1.2l-.1 .1-.4-.4-.4-.4a3.2 3.2 0 0 1 .8-1.2 3.2 3.2 0 0 1 1.6-.5q.8 0 1.3 .2a3.2 3.2 0 0 1 .8 .5l.4 .7 .2 .8a3.2 3.2 0 0 1 -.2 .9 3.2 3.2 0 0 1 -.5 1 32 32 0 0 1 -2.7 3h1.6l1.6-.1 0 .4v.8l0 .4H280v-.5l1.5-1.7zm8.6-1.3h2.9v1.4h-2.9zm9.2-1.8-.7-1.4-.6-1.2-.4-.8 .5 0h1l.5 0 .7 1.6 .7 1.6 .9-1.6 .8-1.5 .3 0h.5l.3 0-.5 .7-.6 1-.7 1.1-.6 1 .6 1.3 .7 1.4 .6 1.3 .5 .9h-2l-1.5-3.2-1.8 3.2h-1.1l.5-.8 .6-1 .7-1.1 .6-1.1-.6-1.3zm6.3-1.8-.1-1.7 1 .1 1-.1a32 32 0 0 0 -.1 3.5v1.8l.1 3.5-.4 0h-1.5l.1-3.5zm4.1 0-.1-1.7 1 .1 1-.1-.1 1.7v3.6l.1 3.5-.4 0h-1.5l.1-1.6zm34.4-.6 0 1 0 1v4.2l.1 1.6h-1.9l0-.6 0-.9 .1-1v-4.7l-.3 .1-.3 .2-.8 .4-.6-.7a32 32 0 0 0 3.4-1.6l.2 .1zm-91.2-188.9-.1-2.9 .7 .1a12.8 12.8 0 0 0 2.3-.1l1.4-.1q1.4 0 2.2 .3a3.2 3.2 0 0 1 1.2 .6 3.5 3.5 0 0 1 1.2 3 6.4 6.4 0 0 1 -.4 2.2 3.2 3.2 0 0 1 -1.1 1.5 3.2 3.2 0 0 1 -1.6 .8 6.4 6.4 0 0 1 -2 .3h-1l.2 6.6-.7 0h-2.6a96 96 0 0 0 .1-6zm5.8 0a3.2 3.2 0 0 0 -.4-1l-.7-.4-.8-.2h-.8l0 3.1v3.1l1-.1a3.2 3.2 0 0 0 1-.4 3.2 3.2 0 0 0 .7-1 3.2 3.2 0 0 0 .3-1.7 6.4 6.4 0 0 0 -.2-1.4m9.5 0l-.1-2.8 .7 .1a9.6 9.6 0 0 0 1.8 0l.7-.1-.2 6.1v3a96 96 0 0 0 .2 6l-.7 0h-2.5a96 96 0 0 0 .2-6v-3.1q0-1.8-.1-3.3zm21.1 10.8-.2 1a8.3 8.3 0 0 1 -4.1 .9 9.6 9.6 0 0 1 -3.1-.5 6.4 6.4 0 0 1 -3.7-3.8 10.6 10.6 0 0 1 .2-6.8 6.7 6.7 0 0 1 4.3-4.1 9.6 9.6 0 0 1 4.1-.4 12.8 12.8 0 0 1 2.1 .6l.8 .4a9.6 9.6 0 0 0 -.5 2.2H289a6.4 6.4 0 0 0 -1.6-1.5 3.8 3.8 0 0 0 -3.5-.1 4.5 4.5 0 0 0 -1.5 1.2 6.4 6.4 0 0 0 -1.1 2.1 9.6 9.6 0 0 0 -.4 3q0 1.7 .4 2.9q.4 1.2 1.1 2q.7 .8 1.5 1.1a4.5 4.5 0 0 0 2.7 .2 6.4 6.4 0 0 0 1.9-.8 3.2 3.2 0 0 0 .7-.7l.3 .2-.3 1zm14.3-5.8H302l-3 .1v1.3a128 128 0 0 0 .2 6l-.7 0h-2.5a96 96 0 0 0 .2-6v-3a128 128 0 0 0 -.2-6.1 9.6 9.6 0 0 0 1.6 .1 9.6 9.6 0 0 0 1.7-.1 96 96 0 0 0 -.2 6.1l1.2 0h4.8a128 128 0 0 0 -.2-6 9.6 9.6 0 0 0 1.6 .1 9.6 9.6 0 0 0 1.7-.1 96 96 0 0 0 -.2 6.1v3a128 128 0 0 0 .2 6l-.7 0h-2.6a96 96 0 0 0 .2-6v-1.3q-.8 0-1.5-.1zm12-4.9q0-1.4-.1-2.9l.7 .1a9.6 9.6 0 0 0 1.8 0l.7-.1a96 96 0 0 0 -.2 6.1v3a128 128 0 0 0 .2 6l-.7 0h-2.5a96 96 0 0 0 .2-6v-3l0-3.3zm10.5 0-.1-2.9 .7 .1a9.6 9.6 0 0 0 1.8 0l.7-.1-.1 2.9v10.8a32 32 0 0 0 4.6-.3l-.1 .4 .1 1.4-1.3 0H326a96 96 0 0 0 .2-6v-3l0-3.3zm13.7 0-.1-2.9 3.5 .1 2.6 0 1.5-.1a3.2 3.2 0 0 0 0 1.5l0 .4-1.3-.1-1.3-.1-1.2-.1h-.7l-.1 2.4v2.4l4.5-.2-.1 .6v.8l.1 .5a64 64 0 0 0 -4.5-.2v5.6a32 32 0 0 0 4.6-.3l0 .4a3.2 3.2 0 0 0 0 1.1l0 .3-1.3 0h-6.4a96 96 0 0 0 .1-6v-3l0-3.3zm15.3 7.4-.3 5-.4 0h-1.4a192 192 0 0 0 2-15.1l.8 .1 .4 0 .4-.1 1.2 2.7 1.2 2.7 1.2 2.7 1.1 2.5a160 160 0 0 0 4.6-10.6l.9 .1 .8-.1 .4 4.1 .4 4.3 .4 3.9q.2 1.8 .4 2.9h-3.3l-.3-4.9-.5-5.3-2.2 5.1-2.2 5.1-.2 0h-.6l-2.1-4.9-2.2-5a96 96 0 0 0 -.5 5zm24.3 5a6.4 6.4 0 0 1 -1.9-1 4.8 4.8 0 0 1 -1.3-1.8 6.4 6.4 0 0 1 -.5-2.7v-2.9l0-1.1v-1.2l-.1-4.6 .8 .1a9.6 9.6 0 0 0 1.6 0l.8-.1a64 64 0 0 0 -.3 7.7q0 2 .3 3.3a6.4 6.4 0 0 0 .8 1.9q.5 .6 1.2 .9a6.4 6.4 0 0 0 1.7 .2 2.6 2.6 0 0 0 1.9-.6 4.2 4.2 0 0 0 1-1.8 9.6 9.6 0 0 0 .4-2.5 64 64 0 0 0 .1-6l-.1-3 .5 .1a3.2 3.2 0 0 0 1 0l.5-.1a32 32 0 0 0 -.2 3.2l-.1 2.4v2.7q0 3.8-1.5 5.5t-4.4 1.7a9.6 9.6 0 0 1 -2.4-.3M354.8 359a1.3 1.3 0 0 0 1.3-.1 3.2 3.2 0 0 0 .6-.7 3.2 3.2 0 0 0 .4-1.1 9.6 9.6 0 0 0 .2-1.6l-.3 .3-.3 .3-.4 .1-.5 .1-.9-.2a1.9 1.9 0 0 1 -1.2-1.2 3.2 3.2 0 0 1 0-2.2 2.2 2.2 0 0 1 1.3-1.5 3.2 3.2 0 0 1 1.1-.2 3.2 3.2 0 0 1 1.2 .2q.5 .3 .9 .7q.4 .4 .6 1.1a9.6 9.6 0 0 1 -.1 3.8 6.4 6.4 0 0 1 -.7 1.7 3.2 3.2 0 0 1 -1.2 1 3.2 3.2 0 0 1 -2 .3l-.4-.2-.1-.4-.2-.4 .1-.1 .4 .3zm2.3-7q-.3-.5-.7-.5q-.5 0-.7 .5a3.2 3.2 0 0 0 -.3 1.5q0 .5 .1 1l.2 .6 .3 .3 .4 .1 .4-.1 .3-.3 .2-.6 .1-.9a3.2 3.2 0 0 0 -.3-1.7zm30.4-168.2v141.5a20.2 20.2 0 0 1 -20.2 20.3h-38.4a8.1 8.1 0 0 0 -8.1 8.1h-2a8.1 8.1 0 0 0 -8.1-8.1h-38.4a20.2 20.2 0 0 1 -20.2-20.2V183.8zm-66.7 60.5v10.2a3.4 3.4 0 0 0 3.2-3.3 .7 .7 0 0 1 1.3-.4 .6 .6 0 0 1 .1 .4c0 1.8 1.5 3.3 3.4 3.3a3.3 3.3 0 0 0 3.3-3.3zm24.4 64.7q.3 .2 .3 .6a.6 .6 0 0 1 -.5 .4l-12.8 1.1 12.8 1.1q.4 0 .5 .4a.6 .6 0 0 1 -.3 .6l-11.5 6 12.3-3.9a.6 .6 0 0 1 .6 .2 .6 .6 0 0 1 0 .6l-8.3 9.9 9.9-8.3a.5 .5 0 0 1 .9 .6l-3.9 12.3 6-11.4a.6 .6 0 0 1 .5-.3h.1a.6 .6 0 0 1 .4 .5l1.1 12.8 1.1-12.8q0-.4 .4-.5a.6 .6 0 0 1 .6 .3l5.9 11.4-3.9-12.3a.6 .6 0 0 1 .2-.6 .6 .6 0 0 1 .6 0l9.9 8.3-8.3-9.9a.5 .5 0 0 1 .6-.9l12.3 3.9-11.5-6a.6 .6 0 0 1 -.3-.6 .6 .6 0 0 1 .5-.4l12.9-1.1-12.9-1.1a.6 .6 0 0 1 -.5-.4 .6 .6 0 0 1 .3-.6l11.5-6-12.3 3.9a.6 .6 0 0 1 -.6-.2 .6 .6 0 0 1 0-.6l8.3-9.9-9.9 8.3a.6 .6 0 0 1 -.6 0 .6 .6 0 0 1 -.2-.6l3.9-12.3-5.9 11.5a.6 .6 0 0 1 -.6 .3 .6 .6 0 0 1 -.4-.5l-1.1-12.8-1.1 12.8a.6 .6 0 0 1 -.4 .5 .6 .6 0 0 1 -.6-.3l-6-11.5 3.9 12.3a.6 .6 0 0 1 -.2 .6 .6 .6 0 0 1 -.6 0l-9.9-8.3 8.3 9.9a.6 .6 0 0 1 .1 .6 .6 .6 0 0 1 -.6 .2l-12.3-3.9zm27.6-57.9q0-.2 .1-.3a.6 .6 0 0 1 .4-.4V247l-17-7.4a48 48 0 0 1 -5.6 7.2l5.8 4.9 0-.6q0-.4 .3-.6a.6 .6 0 0 1 .4-.1c.4 0 .7 .3 .7 .7a3.4 3.4 0 0 0 6.7 0c0-.4 .3-.7 .7-.7q.6 .1 .7 .7a3.4 3.4 0 0 0 6.7 0zm-54 47v-.4h-.8a32 32 0 0 0 -8.6 1 16 16 0 0 0 9.5-.5m-39.1-43.7v-4.7l-1-.3-16.8 .2a.7 .7 0 0 1 -.7-.6 .6 .6 0 0 1 .5-.8c0 0 4.9-1.4 9-4.2a20.5 20.5 0 0 0 7.3-9.8 16 16 0 0 1 -6.8 .3 32 32 0 0 1 -5.3-1.8 .6 .6 0 0 1 -.4-.7q0-.4 .5-.6a22.4 22.4 0 0 0 8.2-4.1c2.7-2.5 4.2-4.2 5-5.3a32 32 0 0 1 -4 .5 12.8 12.8 0 0 1 -6.3-1 .6 .6 0 0 1 -.4-.6q0-.4 .4-.6a25.6 25.6 0 0 0 7.8-6.4 32 32 0 0 0 4.9-8.1 32 32 0 0 1 -3 1.4c-3.2 1.2-4.7 .8-4.9 .8a.6 .6 0 0 1 -.5-.5 .6 .6 0 0 1 .3-.7 32 32 0 0 0 7.2-9.2 28.8 28.8 0 0 0 2.7-11.8h-29.1v68.5a3.4 3.4 0 0 0 4.2-3.2c0-.4 .3-.7 .7-.7q.4 0 .6 .3l.1 .4a3.4 3.4 0 0 0 6.7 0c0-.4 .3-.7 .7-.7q.2 0 .3 .1a.6 .6 0 0 1 .4 .6c0 1.9 1.5 3.3 3.3 3.3a3.4 3.4 0 0 0 3.4-3.3l0-.3a.6 .6 0 0 1 .7-.4q.6 .1 .7 .7a3.4 3.4 0 0 0 3.7 3.3m105.8 9.2v-7.7a4.8 4.8 0 0 1 -3.8-2.3 4.8 4.8 0 0 1 -8.2 .1 4.8 4.8 0 0 1 -8.1 0 4.8 4.8 0 0 1 -8.1 0 4.8 4.8 0 0 1 -8.2-.1 4.8 4.8 0 0 1 -8.2 .1 4.7 4.7 0 0 1 -8.1 0 4.8 4.8 0 0 1 -8.1 0 4.8 4.8 0 0 1 -3.9 2.2v7.7zm-35.4-15.3v4a3.3 3.3 0 0 0 5.7 .9zm0-62.5v59.5c2.4-2.6 8.4-10.1 14.2-24.3c6.5-16 8.5-30.8 8.9-35.2zm-31.3 77.8V185.8h-16a32 32 0 0 1 -2.8 13 44.8 44.8 0 0 1 -5.4 8l1.7-.7c1.1-.5 4.3-2.4 4.4-2.4a.7 .7 0 0 1 1.1 .7 28.8 28.8 0 0 1 -5.1 10.9 48 48 0 0 1 -7.4 8 32 32 0 0 0 3.8-.6c3.3-.8 5.3-2.3 5.3-2.3a.7 .7 0 0 1 1.1 .7 25.6 25.6 0 0 1 -6.2 10c-1.9 2-5.6 4.3-8 5.7c1.3 0 2.8 0 4.1-.2c3.3-.5 6.5-1.3 6.6-1.3q.5-.1 .8 .3a.6 .6 0 0 1 -.1 .8 48 48 0 0 1 -8.4 7.2 64 64 0 0 1 -9.2 4.4c2.2 .6 6.1 1.4 10.7 .9c5.5-.5 8.4-3.4 8.4-3.4a.6 .6 0 0 1 .8-.2 .6 .6 0 0 1 .4 .6v17.6zm-21 0v-16.1a17 17 0 0 1 -8.1 2.9 32 32 0 0 1 -8.6-.4v13.6zm21 19.5v-10a.6 .6 0 0 1 -.4 .1c-.2 0-13.5-2-27.9 9.3c-9.5 7.5-13.5 16.5-16.4 23.2a32 32 0 0 1 -4.1 7.6c-1.3 1.5-2.9 1.7-4.3 1.7h-.2a4.8 4.8 0 0 1 -4-2.4 4.8 4.8 0 0 1 -7.3 1.1v11.3l.1 .3a3.4 3.4 0 0 0 6.7 0c0-.4 .3-.7 .7-.7s.7 .3 .7 .7a3.4 3.4 0 0 0 6.7 0c0-.4 .3-.7 .7-.7s.8 .3 .8 .7c0 1.9 1.5 3.4 3.4 3.4h.2c1.5 0 2.5-.3 3.2-1.2a32 32 0 0 0 3.4-6.3c2.2-4.9 4.9-11 12.8-16.8c4-2.9 7.9-4.8 11.4-6a12.8 12.8 0 0 1 -7.3-11.1c0-5.3 3.8-9.9 9.3-12a3.7 3.7 0 1 1 -2.4 2.8 11.2 11.2 0 0 0 -5.4 9.2c0 4.6 3.2 8.5 7.8 10.4a32 32 0 0 1 11.9-1.5V284.8l-9.3 6-.4 .1a.7 .7 0 0 1 -.4-1.3zm-26.1 18.1a5.3 5.3 0 0 1 -3.6-9.3 5.4 5.4 0 0 1 1.2-6.6 .6 .6 0 0 1 1 .1 .6 .6 0 0 1 -.1 1 3.9 3.9 0 0 0 4.7 6.2 .7 .7 0 0 1 1 .2 .7 .7 0 0 1 -.2 1 5.3 5.3 0 0 1 -6.8-.8 3.9 3.9 0 0 0 5.4 5.6 .6 .6 0 0 1 1 0 .7 .7 0 0 1 0 1 5.4 5.4 0 0 1 -3.7 1.4m-13-37.6v-7.7l-.4 0a4.8 4.8 0 0 1 -4.1-2.3 4.8 4.8 0 0 1 -8.1 0 4.7 4.7 0 0 1 -8.1 0 4.8 4.8 0 0 1 -4.9 2.2v7.8zm85.3-40.8 8.2 2.9v-10.3l-4.8-1.7a128 128 0 0 1 -2.9 7.8zm3.8-10.5 4.4 1.6v-19.1c-.9 4.8-2.2 10.9-4.4 17.5m-11.8 26 16.2 7.1V227.2l-8.8-3.1a96 96 0 0 1 -7.5 14.2zm-36.2 69.9v6.1l14.9-1.8-9.9-.9a.5 .5 0 0 1 0-1.1l10.2-.9zm16.6-84.2 11.2 4.8v-17.5l-4.5-2a96 96 0 0 1 -5.8 13.1zm48.1 30.4V185.8h-10.8v67.1c.6 1 1.6 1.6 2.9 1.6a3.4 3.4 0 0 0 3.3-3.3c0-.4 .3-.7 .7-.7h.1c.4 0 .7 .3 .7 .7c0 1.8 1.4 3.2 3.1 3.3m-64.7-68.7v57c1.7-1.5 10-9.2 16.2-20.9c8.2-15.3 10.8-31.2 11.5-36.1zm64.7 139.5V280.4l-5.4-4.3a32 32 0 0 1 -3 2.9 14.4 14.4 0 0 1 -8.7 3.5c-6.6 0-11.3-5.3-12.9-7.3a16 16 0 0 1 -17.9 3.6c-6-2.2-13.7-9.1-16.9-12.2v40.5l21.1 2 1.1-.1-15.4-8a.6 .6 0 0 1 -.3-.7 .6 .6 0 0 1 .6-.3l16.5 5.2-11.1-13.2a.6 .6 0 0 1 0-.7 .6 .6 0 0 1 .7 0l13.2 11.1-5.2-16.5a.5 .5 0 0 1 1-.4l8 15.4 1.5-17.2q.1-.4 .5-.5q.4 .1 .5 .5l1.5 17.2 8-15.4q.2-.4 .6-.3a.6 .6 0 0 1 .3 .6l-5.2 16.5 13.2-11.1a.6 .6 0 0 1 .7 0 .6 .6 0 0 1 0 .7l-11.1 13.2 16.5-5.2a.6 .6 0 0 1 .6 .3 .6 .6 0 0 1 -.3 .7l-15.4 8 17.2 1.5q.4 .1 .5 .5a.6 .6 0 0 1 -.5 .5l-17.2 1.5 15.4 8q.4 .2 .3 .7a.6 .6 0 0 1 -.6 .3l-16.5-5.2 11.1 13.2a.6 .6 0 0 1 0 .7 .6 .6 0 0 1 -.7 0l-13.2-11.1 5.2 16.5a.6 .6 0 0 1 -.3 .6 .6 .6 0 0 1 -.6-.2l-8-15.4-1.5 17.2a.6 .6 0 0 1 -.5 .5 .6 .6 0 0 1 -.5-.5l-1.5-17.2-8 15.4a.5 .5 0 0 1 -.6 .3 .6 .6 0 0 1 -.3-.6l5.2-16.5-13.2 11.1a.6 .6 0 0 1 -.7 0 .6 .6 0 0 1 0-.7l11.1-13.2-16.5 5.2a.6 .6 0 0 1 -.6-.3 .6 .6 0 0 1 .2-.7l15.4-8-2.2-.2-20 2.5v32.1a9.9 9.9 0 0 1 8.1-4.1h38.4a18.2 18.2 0 0 0 18.2-18.2m-130.9 3.9a18.2 18.2 0 0 0 17.8 14.3h38.4c3.3 0 6.2 1.6 8.1 4.1v-21.1a16 16 0 0 1 -4.3 .6c-7.7 0-14-5.6-14-12.6a12.8 12.8 0 0 1 9.7-11.9l.2-.1a3.8 3.8 0 1 1 -2.8 2.7 10.9 10.9 0 0 0 -5.6 9.3c0 6.1 5.6 11.1 12.6 11.1a12.8 12.8 0 0 0 4.3-.6v-12.2l-8.2 5.4a.6 .6 0 0 1 -.4 .1 .6 .6 0 0 1 -.6-.3 .6 .6 0 0 1 .2-1l9-5.9v-11.5a17.9 17.9 0 0 1 -12-.3 44.8 44.8 0 0 0 -12.4 6.3c-7.6 5.5-10.2 11.5-12.4 16.2c-1.1 2.4-2.1 4.8-3.6 6.6c-1.3 1.5-3 1.7-4.3 1.7h-.2a4.8 4.8 0 0 1 -4-2.4 4.8 4.8 0 0 1 -8.2 0 4.8 4.8 0 0 1 -7.1 1.3m49.1-.7a.6 .6 0 0 1 -.2 1 5.4 5.4 0 0 1 -6.7-.7 5.3 5.3 0 0 1 -6.8-8.2 5.3 5.3 0 0 1 1.2-6.6 .6 .6 0 0 1 1 .1 .6 .6 0 0 1 -.1 1 3.9 3.9 0 0 0 2.6 6.9 3.2 3.2 0 0 0 2-.6l.4-.4a.7 .7 0 0 1 1 .1 .7 .7 0 0 1 -.1 1l-.3 .3a3.8 3.8 0 0 0 -1.1 2.7 3.9 3.9 0 0 0 6.1 3.3 .6 .6 0 0 1 1 .2m-10.1-.1a3.8 3.8 0 0 0 2.4-.8 5.4 5.4 0 0 1 -.4-4.3 5.4 5.4 0 0 1 -4.7-1.6 3.8 3.8 0 0 0 -1.2 2.8c0 2.1 1.8 3.9 3.9 3.9m92-49.7v-13H321.9c3.2 3 10.7 9.8 16.3 11.8a15.4 15.4 0 0 0 12.6-.4 12.8 12.8 0 0 0 4.3-3.4l.6-.8 .5 .8c.1 .1 5 7.4 12.2 7.4c6.2 0 11-6.3 11-6.3l.4-.6zm-84.1-92.8h-16.7a32 32 0 0 1 -2.9 12.5 32 32 0 0 1 -6.1 8.3 12.8 12.8 0 0 0 2.2-.6 12.8 12.8 0 0 0 4.3-2.3 .6 .6 0 0 1 .8-.1 .6 .6 0 0 1 .4 .8 25.6 25.6 0 0 1 -5.8 10.6 28.8 28.8 0 0 1 -6.8 5.9 16 16 0 0 0 4.1 .3c4-.2 5.2-.9 5.2-.9a.6 .6 0 0 1 .8 0 .6 .6 0 0 1 .3 .8c-.1 .2-.8 2.5-6.2 7.5a22.4 22.4 0 0 1 -6.9 3.8q1.5 .5 3.3 1c3.2 .7 7.3-.6 7.4-.6a.6 .6 0 0 1 .7 .2 .6 .6 0 0 1 .2 .7 22.1 22.1 0 0 1 -13.6 14.7l10-.2q0-.5 .5-.6c.1 0 6.7-2.3 10.8-4.9c2.6-1.6 4.9-3.8 6.5-5.2a35.2 35.2 0 0 1 -11.1 .8 .6 .6 0 0 1 -.6-.5 .6 .6 0 0 1 .4-.8c.1 0 7-3.8 9.8-6.6a25.6 25.6 0 0 0 5.1-7.5 19.2 19.2 0 0 1 -4 1.5 16 16 0 0 1 -6.2 .5 .6 .6 0 0 1 -.6-.5 .6 .6 0 0 1 .3-.7c0 0 5.4-4.3 8.6-8.9a32 32 0 0 0 4.5-8.8l-3 1.7c-1.2 .5-4.5 1.8-4.6 1.8a.6 .6 0 0 1 -.8-.3 .6 .6 0 0 1 .1-.9 41.6 41.6 0 0 0 7.3-9.9 30.4 30.4 0 0 0 2.7-12.3m17.4 86.1v-6.3H254.1v45.6a3.4 3.4 0 0 0 6.6-1c0-.4 .4-.7 .7-.7s.8 .3 .8 .7c0 1.9 1.5 3.3 3.3 3.3l.2 0c1.5 0 2.5-.4 3.1-1.2c1.3-1.6 2.5-4.2 3.8-7.3c3-6.7 7.1-16 16.9-23.7c15-11.8 28.5-9.8 29.1-9.7l.2 .1zm22.1-21.4c.4 0 .7 .3 .7 .7c0 1.8 1.5 3.4 3.3 3.4a3.4 3.4 0 0 0 3.4-3.4q0-.4 .3-.6v-8.6l-18.4-7.3c-3.6 4.5-6.7 7.5-8.1 8.8l16.8 10.2a3.2 3.2 0 0 0 1.2-2.6q0-.2 .1-.3a.6 .6 0 0 1 .6-.4zm-9.8-17 17.5 6.9v-10l-11.9-5.1q-2.8 4.6-5.5 8.2m6.2 21-3.7-2.3a3.3 3.3 0 0 0 3.7 2.2zm7.2-46.4 4.1 1.8v-16.6a128 128 0 0 1 -4.1 14.8zm3.6 146.6a1.9 1.9 0 0 1 -.7-.9l-.1-.6a1.9 1.9 0 0 1 .7-1.6l.8-.4a3.2 3.2 0 0 1 1-.1 3.2 3.2 0 0 1 1.9 .6 1.9 1.9 0 0 1 .6 1.4l-.1 .7-.3 .5-.4 .4-.5 .2v.1a1.9 1.9 0 0 1 1.1 .6l.4 .6a3.2 3.2 0 0 1 -.1 2 3.2 3.2 0 0 1 -.6 .8 3.2 3.2 0 0 1 -.9 .5 4.2 4.2 0 0 1 -2.2 0 3.2 3.2 0 0 1 -.8-.4 3.2 3.2 0 0 1 -.5-.8 3.2 3.2 0 0 1 -.2-1.1q0-.5 .1-.9a2.2 2.2 0 0 1 .9-1.2l.6-.3v-.1zm2.3 1.1q-.3-.5-.7-.5q-.4 0-.7 .5a3.2 3.2 0 0 0 -.3 1.5 3.2 3.2 0 0 0 .3 1.5q.3 .5 .7 .5q.4 0 .7-.5a3.2 3.2 0 0 0 .3-1.6 3.2 3.2 0 0 0 -.3-1.5m0-3.8q-.2-.4-.6-.4a.6 .6 0 0 0 -.8 .4 3.2 3.2 0 0 0 -.2 1.3q0 .7 .3 1.1t.6 .4q.4 0 .6-.4a3.2 3.2 0 0 0 .3-1.2 3.2 3.2 0 0 0 -.2-1.2m13.7-.1v1l-.1 1v4.2l.1 1.6h-1.8l0-.6 .1-.9v-1l0-1.1v-3.6l-.2 .1-.4 .2-.8 .4-.3-.4-.3-.3a32 32 0 0 0 3.4-1.6l.2 .1v.9zm-26.8-224.2-2 3.8a108.8 108.8 0 0 0 -31.3 0l-2-3.8a112 112 0 0 1 35.3 0M220.7 390h2.7v13.7h-2.7zm5.1 0h2.7V401h4.8v2.6h-7.5zm11.3 0v7.9q0 3.5 2.2 3.5q2.1 0 2.2-3.5V390h2.7v7.7c0 4.2-1.9 6.2-5 6.2c-3 0-4.8-1.9-4.8-6.3V390zm9.5 10.5a6.4 6.4 0 0 0 3 .8c1.3 0 1.9-.6 1.9-1.5c0-.8-.6-1.3-2-1.9c-2-.8-3.3-2-3.3-4c0-2.3 1.7-4.1 4.5-4.1q2 .1 3.1 .7l-.6 2.5a5.1 5.1 0 0 0 -2.5-.6c-1.2 0-1.7 .6-1.7 1.3c0 .9 .6 1.3 2.2 1.9c2.1 .9 3.1 2.2 3.1 4.1c0 2.3-1.6 4.3-4.9 4.3a6.4 6.4 0 0 1 -3.4-.9zm11.8-7.9h-3.2V390h9.2v2.6h-3.3v11.1h-2.7zm7.5-2.4a32 32 0 0 1 3.6-.3q2.6 0 3.9 1.1q1.1 1 1.1 2.9a3.5 3.5 0 0 1 -2.1 3.4v.1c.9 .4 1.3 1.3 1.6 2.6c.4 1.5 .8 3.3 1 3.8h-2.8a32 32 0 0 1 -.8-3.2c-.3-1.7-.8-2.1-1.9-2.2h-.8v5.4h-2.7zm2.7 5.9h1.1c1.4 0 2.2-.8 2.2-2c0-1.3-.8-1.9-2-1.9l-1.2 .1zm15 1.8h-4.4v3.2h4.9v2.6h-7.6V390h7.4v2.6h-4.7v2.8h4.4zm16.1 .5-.1-5.6h0a96 96 0 0 1 -1.3 5.3l-1.5 5.3h-2.1l-1.3-5.3a64 64 0 0 1 -1.1-5.3l-.2 5.7-.2 5.2h-2.5l.8-13.7h3.6l1.2 4.6q.6 2.4 1 4.9h.1c.3-1.6 .7-3.4 1.2-4.9l1.3-4.5h3.5l.6 13.7h-2.7zm7.6-8.4v7.9q0 3.5 2.2 3.5q2.2 0 2.2-3.5V390h2.7v7.7c0 4.2-1.9 6.2-5 6.2c-3 0-4.8-1.9-4.8-6.3V390zm9.4 13.7V390h3.2l2.5 5c.7 1.4 1.4 3.1 1.9 4.7h.1a64 64 0 0 1 -.3-5.7v-4h2.5v13.7h-2.8l-2.6-5.2a64 64 0 0 1 -2.1-4.8h-.1q.1 2.7 .1 6v4.1zM329 390h2.7v13.7H329zm13.9 13.3a6.4 6.4 0 0 1 -3.1 .6c-4.2 0-6.3-2.9-6.3-6.8c0-4.7 2.9-7.3 6.6-7.3c1.4 0 2.5 .3 2.9 .6l-.5 2.5a6.4 6.4 0 0 0 -2.3-.5c-2.2 0-3.8 1.5-3.8 4.5c0 2.8 1.4 4.5 3.8 4.5a6.4 6.4 0 0 0 2.3-.4zm1.8-13.3h2.7v13.7h-2.7zm5.1 .2a32 32 0 0 1 3.7-.3q2.5 0 3.6 1.1c.8 .7 1.3 1.8 1.3 3.2a4.8 4.8 0 0 1 -1.1 3.2q-1.5 1.5-3.9 1.4l-1 0v4.9h-2.7zm2.7 6.2 .9 .1c1.4 0 2.3-.8 2.3-2.2q0-1.9-2.1-2a3.2 3.2 0 0 0 -1.1 .1zm9.4 3.8-.8 3.5h-2.8l3.6-13.7h3.6l3.7 13.7h-2.9l-1-3.5h-3.4zm3-2.3-.7-2.9-.6-2.7-.5 2.7-.7 2.9zm5.9-7.8h2.7V401h4.8v2.6h-7.5zm9.1 0h2.7v13.7h-2.7zm5.1 .2a32 32 0 0 1 3.6-.3c2.3 0 3.8 .5 4.9 1.5c1.2 1.1 2 2.8 2 5.2c0 2.6-.8 4.4-2 5.6q-2 1.8-5.5 1.8a32 32 0 0 1 -3.1-.2zm2.7 11.1 1 .1c2.4 0 4-1.5 4-4.8c0-2.8-1.4-4.3-3.8-4.3l-1.2 .1v9zm12.2-1.2-.8 3.5h-2.8l3.7-13.7h3.6l3.7 13.7h-2.9l-1-3.5h-3.4zm3.1-2.3-.8-2.9-.6-2.7-.6 2.7-.7 2.9zm5.8-7.7a32 32 0 0 1 3.7-.3c2.3 0 3.7 .4 4.9 1.4c1.3 1.1 2 2.8 2 5.2c0 2.6-.8 4.4-2 5.6q-2 1.8-5.5 1.8a32 32 0 0 1 -3.1-.2zm2.7 11.2 1 0c2.5 0 4.1-1.5 4.1-4.8c0-2.8-1.4-4.3-3.8-4.3l-1.2 .1zm-147.8 11.1a32 32 0 0 1 3.7-.3c2.3 0 3.7 .5 4.9 1.5c1.3 1.1 2 2.7 2 5.1c0 2.7-.9 4.4-2 5.6c-1.2 1.2-3.2 1.8-5.5 1.8a32 32 0 0 1 -3.1-.2zm2.7 11.2 1 .1c2.4 0 4.1-1.5 4.1-4.8c0-2.8-1.4-4.4-3.8-4.4l-1.2 .1zm16.8-3.5h-4.4v3.2h4.9v2.6H276v-13.7h7.4v2.6h-4.7v2.8h4.4v2.5zm6-7.7a32 32 0 0 1 3.7-.3q2.5 0 3.6 1.1q1.2 1.1 1.3 3.2a4.8 4.8 0 0 1 -1.1 3.2 5.1 5.1 0 0 1 -3.9 1.5l-1-.1v4.9h-2.7zm2.7 6.2 .9 .1c1.4 0 2.3-.9 2.3-2.2q0-2-2.1-2a3.2 3.2 0 0 0 -1.1 .1zm7.7-6.4h2.7V426h-2.8v-13.7zm13.9 13.3a6.4 6.4 0 0 1 -3.1 .6c-4.2 0-6.3-2.9-6.3-6.8c0-4.7 2.9-7.3 6.5-7.3c1.4 0 2.5 .3 3 .6l-.5 2.4a6.4 6.4 0 0 0 -2.3-.5c-2.1 0-3.8 1.5-3.8 4.5c0 2.7 1.4 4.5 3.8 4.5a6.4 6.4 0 0 0 2.3-.5zm4.5-13.3v5.3h4.5v-5.3h2.7v13.7h-2.7v-5.7h-4.5v5.7h-2.7v-13.7zm9.5 0h2.8V426h-2.8v-13.7zm5.1 0h2.7v11.1h4.8v2.6h-7.5zm16.3 7.9h-4.4v3.2h5v2.6h-7.7v-13.7h7.4v2.6h-4.7v2.8h4.4zm12.5 .5-.1-5.6h-.1a96 96 0 0 1 -1.3 5.3l-1.5 5.3h-2.1l-1.3-5.3a64 64 0 0 1 -1.1-5.3l-.2 5.7-.2 5.2h-2.5l.8-13.7h3.6l1.2 4.6q.6 2.4 1 4.9h.1c.3-1.6 .8-3.4 1.2-4.9l1.3-4.5h3.5l.7 13.7h-2.7zm7.6-8.4v7.9q0 3.6 2.2 3.6q2.2 0 2.2-3.5v-7.9h2.7v7.7c0 4.2-1.9 6.2-5 6.2c-3 0-4.8-1.9-4.8-6.3v-7.6zm28.8-345.1 1.5 .6 8.3-20.1-1.4-.6-8.3 20.2zm15.4-17.2-9.3 19.7 10.2 4.8 .5-1.2-8.8-4.2 8.7-18.5zm14.3 7-1.4-.8-6.5 11.5c-3.3 5.8-1.4 9.4 1.9 11.3c3.6 2 7.9 1.7 11.2-4.1l6.4-11.3-1.3-.8-6.5 11.4c-2.7 4.7-6 5.4-9.1 3.7c-2.8-1.6-4-4.7-1.2-9.5zm5.7 25.8-1.2 .7c.4 1.3 1.9 3.1 3.5 4.1c3.8 2.6 7.3 1.6 9.1-1c1.8-2.7 1.2-5.1-1-8.3c-1.9-2.8-2.4-4.6-1-6.6c1-1.4 3.2-2.6 6.1-.6a6.4 6.4 0 0 1 2.6 3l1.3-.8a9.6 9.6 0 0 0 -3-3.3c-3.1-2.1-6.5-1.6-8.3 1c-1.7 2.4-1 5.1 1.2 8.1c1.9 2.8 2.1 4.7 .8 6.7c-1.5 2.2-4.2 2.6-6.9 .8a8.6 8.6 0 0 1 -3.1-3.8m27.1-2.8-12.7 16 1.2 1 12.7-16 5.6 4.4 .8-1-12.4-9.8-.8 1zm9.9 6.8-14.5 15.8 1.2 1.1 6.7-7.4 2.5 2.3c2 2 2 4 .4 6.8a32 32 0 0 0 -2.6 4.8l1.2 1.1a32 32 0 0 1 2.8-5.4q2-3.2 .6-5.7l.1 0c2.4 1.1 5 .9 7-1.3a5.4 5.4 0 0 0 1.5-3.9c-.1-1.7-1-3.4-3.1-5.3a32 32 0 0 0 -3.8-2.8m-5.8 8.6 6.2-6.7a16 16 0 0 1 2.5 1.9c2.5 2.3 3.4 5 1.2 7.4c-1.9 2.1-4.8 2-7.3-.3zm17.7 18.2 1-.9-6-6.3 6.1-5.7 6.3 6.7 .9-.9-7.4-7.9-15.9 14.9 7.7 8.2 1-.9-6.6-7.1 6.9-6.5zm18.5 24.8-8 6.5 .9 1.2 16.8-13.9-1.1-1.5-13.1 3.4c-3 .8-5.2 1.4-7.1 2.1l0-.1c1.3-1.7 2.7-3.6 4.3-6l7.5-11.1-1.1-1.4-18.6 11.4 .9 1.2 8.5-5.3c3.1-1.9 6.2-4 8.4-5.4l0 .1c-1.5 1.9-3.1 4.2-5.2 7.2l-6.9 10.2 .6 .9 12.3-3.2c3.4-.9 6-1.6 8.3-2.3l0 .1c-1.9 1.4-5 3.9-7.6 6m14.6 1.9-.8-1.3-11.5 6.5c-5.8 3.3-6 7.4-4.2 10.7c2 3.6 5.9 5.5 11.7 2.2l11.3-6.4-.8-1.3-11.4 6.5c-4.6 2.6-7.9 1.6-9.7-1.5c-1.6-2.8-1-6.1 3.8-8.8zm-10.2 26.6 .6 1.4 10-4.5c3.3-1.4 5.4-2.4 7.8-3.6l0 .1q-2.3 2.9-4.7 6.7l-8.2 12.7 .6 1.3 19.9-8.8-.6-1.3-9.9 4.4a96 96 0 0 0 -7.9 3.8l-.1 0c1.5-1.8 2.9-3.8 4.6-6.5l8.3-12.9-.6-1.3zm7.8 18.6 .5 1.4 20.4-7.5-.5-1.4zm7.2 20 1.1-.8a12.8 12.8 0 0 1 -2.4-4.4c-1.7-5.6 1-9.9 6.7-11.6c6-1.8 10.7 .5 12.4 6.2a9.6 9.6 0 0 1 .4 4.6l1.4 .1a11.2 11.2 0 0 0 -.5-5.1c-2-6.6-7.8-9.2-14-7.3c-7.4 2.2-9.2 8-7.7 13.1c.8 2.6 1.9 4.4 2.8 5.3m-.1 3.5 .4 1.5 21.2-5-.4-1.5zm-106.4 242.3-5.3-8.8-1.3 .7 11.4 18.6 1.6-.9-1.5-13.4a96 96 0 0 0 -1.1-7.4l.1 0c1.5 1.6 3.2 3.2 5.4 5.1l10 8.9 1.6-.8-8.8-20-1.3 .7 4.1 9.2c1.5 3.3 3.1 6.7 4.2 9h0a128 128 0 0 0 -6.4-6.1l-9.2-8.2-.9 .5 1.4 12.6c.4 3.5 .8 6.1 1.2 8.6l-.1 0c-1.1-2.1-3.2-5.5-4.9-8.3m-3.9 14.2 1.4-.5-4.8-12.3c-2.5-6.2-6.5-7-10-5.6c-3.8 1.5-6.3 5.1-3.8 11.3l4.8 12.1 1.4-.5-4.8-12.2c-2-5-.5-8.1 2.8-9.4c3-1.2 6.1-.1 8.2 5zm132.9-254-21.2 3.8 .3 1.5 9.2-1.6a9.6 9.6 0 0 0 .2 2.6c.5 2.7 1.7 4.8 3.5 5.9a6.4 6.4 0 0 0 4.5 .7 5.8 5.8 0 0 0 3.9-2.4q1.4-2.1 .8-6a32 32 0 0 0 -1.3-4.5zm-10.4 3.5 9.6-1.7q.4 .9 .8 3c.6 3.4-.4 6.1-3.8 6.7c-3.4 .6-5.6-1.3-6.3-5.2a9.6 9.6 0 0 1 -.2-2.8m-21.4 165.1-17.7-12.1-.9 1.3 7.7 5.2a9.6 9.6 0 0 0 -1.7 2c-1.5 2.2-2.1 4.6-1.6 6.7a6.4 6.4 0 0 0 2.7 3.7 5.8 5.8 0 0 0 4.5 1c1.6-.3 3.3-1.6 4.8-3.7a32 32 0 0 0 2.3-4.1m-9.8-4.8 8 5.4a16 16 0 0 1 -1.5 2.7c-1.9 2.9-4.6 4-7.4 2.1c-2.9-1.9-3.1-4.9-.9-8.2a9.6 9.6 0 0 1 1.8-2.1m-47.5 37.9-1.2 1 14 16.6 1.2-1zm8.2 21.5-13.2-17.3-9 6.8 .8 1 7.7-5.9 12.4 16.3zm-27.1 5.8 .7 1.1 7.3-4.8 4.6 7-7.7 5.1 .7 1.1 9-5.9-11.9-18.2-9.4 6.2 .7 1.1 8.1-5.3 5.2 8zm106.3-129.9-20.6-5.8a64 64 0 0 0 -1.5 4.6c-1.1 4-.8 7.6 .6 9.9a11.8 11.8 0 0 0 7.2 5q4.7 1.3 8-.6q3.6-1.9 5.2-7.7a32 32 0 0 0 1.1-5.4zm-19.8-4 18.3 5.1a32 32 0 0 1 -.7 3.9c-1.9 6.8-6.4 8.7-11.6 7.1c-6.1-1.7-8.9-6.1-7-12.8a32 32 0 0 1 1.1-3.4z"/></svg>