<svg fill="currentColor" xmlns="http://www.w3.org/2000/svg" viewBox="0 0 640 512"><path d="M425.7 114.5v.1c.4 .6 .4 1.5-.1 1.7c-.3-.3 .3-.3 .3-.6c-.5 .1-.4-.5-.6-.8q.3 0 .4-.3m.1-.2a2.3 2.2-1252 0 1 -.1 .2q0-.2 .1-.2m66.6 121.8q-.2-.1 0-.2zm-2.8-17.8-.1 .1zm-44.9-83.9h-.2zm-33.2-33.1h-.3a.7 .6-1252 0 1 .3 0m3 .4h-.2q.1-.1 .2 0m59.4 57.2h.1l.2 .4zm18.8 43.5v-.1q.2 .2 .2 .4a2.3 2.2-1252 0 1 -.2-.3m-55.9-76.5l.3 .2q-.3-.1-.3-.2m-11.5-10.9a1.2 1.1-1252 0 1 -.6-.1q.5-.1 .5 .1m-13.8-13.5 2.1-.1c.3 .6-.9 .3-.9 .9c0 .5 1.1 1.1 1.5 .7c-.3-.3-.4-.2-.8-.3c.3-.7 .9-.3 1.4-.5c-.1-.1-.3-.3-.4-.3c.5 0 .9 .2 1.5 .6c-.5 0-.2 .3-.3 .5c.4-.4 1.2-.2 1.8 .5c.1 1 1.8 .6 2.6 1.4a4.2 4.2 0 0 1 -2.3 .3c.4 .6 .6 .4 1 1.1c.6-.2 1.3-.7 2.2-.4l-.3 .4c.8 .3 1.3-.3 2.1 .4c1.3 1.3 2.9 2.4 3.9 3.3l-.3 .4c1.3-.4 2.3 1.3 3.4 1.5c1.1 1.5 3.3 2.1 3.5 3.3a38.4 38.4 0 0 1 7.3 5.6l-.9 .2c.8 0 0 .6 .4 .9c-.1-.9 1.1 0 1.7-.1c.6 1.4 2.4 2.2 3.7 2.8l-.3 .4c1.6 .3 2.1 2 3.1 3.2c0 .3-.2 .8 .2 1.1c1.2 .1 1.5 .5 2.8 1.1a12.8 12.8 0 0 1 1.9 2.9c3.2 1.9 5 5.2 7.8 7.7l-.3 .5c3.2 2 4.9 6.3 7.1 8.5l-1 .3c.3 1 1.4 1.7 1.9 1.1c.3 1 1.7 1.7 1.3 2.7c.4 .9 1.1 .7 1.6 1.4a12.8 12.8 0 0 0 2 3.5c-.3 0-.5 .2-.4 .6c.6 .4 1.1 2.3 1.8 1.1c.4 2.1 2.8 3.7 2.9 5.9c.2-.3 .5 .1 .8 .2c.8 1.5 1.1 3.5 2.2 4.5c0 .3-.7-.1-.4 .5c.3 .3 .4-.2 .8 .2c1.8 2.3 1.9 5.5 3 7.8c2.4 4 3.8 8.6 5.4 12.7l-.3 0c1.3 1.1 .2 3.6 1.9 4.3c-.1 .4 .3 1.3-.2 1.2c.9 .9 .4 3 1.4 4.4c0 1.8 1 3 1 4.9c-.2-.2-.3-.4-.5-.4c-.3 .8 1.4 1.3 .3 2c.1 .4 .5 .2 .6 0c.5 3.9 2 7.9 3 11.9c-.2 3.1-1.9 .6-.6 2.7c-.2 .2 .4 0 .2 .1c.5 .8-1.1 1.6-.4 2.1c.6-.4 .4 .3 .9 .3c-.2 1.9-.8 2.3-.1 3.7l-.4-.1c1.3 1.5 .9 3.5 2.2 4.8c1.1 9.2 2 18.2 1.7 27.4c-.7 9.1-1.2 18-3.6 27c-1.4 2-1.4 2.1-1.5 4.5c-.2-.1-.2-.3-.3-.1c.7 .3-.3 1.6 .4 2c-1 3.3-1.5 6.4-2.5 9.9c.1-.5-.5-1-.6-.3l.3 .8-.3 .1c0 .5 .2 1 .6 .6c-1.9 8.8-6.4 16.6-9.8 24.6c-1.1 1.8-2.1 4.6-2.9 6.7c-3.9 5.6-7.6 10.4-10.5 16.6c0 0-1.3-1.8-.3-4.4c.2-3.9 4.1-7.1 4.8-11c.1-.4 .9 .5 1.1-.5c.4-3.9 3.6-8.8 6.4-12.6l.2 .3c.5-.7 0-2 .5-2.8c.2 .1 .2 .4 .5 .3c-.4-.4 .4-1.6 .1-2.1c.3-.3 .8-.1 1.2-.4l-.5-.7c-1-1.8 1.3-3.3 1.2-5.4c.1 .1 .2 .3 .3 .3c.2-3.3 1.6-7 2.2-10.5c.2 .2 .6 .4 .9 .3c-.6-.3-.5-1.4-.4-2.3c.8-.3-.2-1.7 .4-2.7l.1 .1c-.5-1 .7-1.1 0-1.9l.7-.4c-.9-.5 .8-1.1 .4-1.8h-.2c-.1-.7 .5-.9 .4-1.5l.1 0c0-1.4 .8-2.1 0-2.2c.7-.4 0 1.3 1.1 .8c.2-4.6 1.2-9.2 1.8-13.7c.4-.5 .5-.8 .8-.9c-.1-.4 .1-1.7-.3-2.1c.1 0 .4-.3 .5-.5c.4-.8-.7-1-.3-1.9q.3 .6 .7 .4c-.5-.8-.3-1.8-.4-2.8c.1 .2 .2 .4 .4 .4c-.6-1 .3-1.8 0-2.7l.4 .4c.6-1.4-.9-.4-.5-1.7c.1 .3 .3 .2 .5 .3c-.7-1.2-.3-3-.5-4.2q.2 .1 .2 .1c0-1.3 .3-2.6 0-3.9c.2-.5 1.1 .2 1-1.2c-.9 .1-.3-2.2-1.3-1.4c.2-1.1 .5-2.9 .3-3.6c.3 .5 1.1-.6 1.2 .3l.5-.7c.4 .1-.1 .7 .4 .5c0-.4-.4-1.8-.3-2.2c-.5-.8-1.6-1.6-1.8-2.9c.3 .5 .8-.2 1.1-.1l-1.7-1.7c0-.4 .7-.2 .5-.8c-.3 .1-.4-.2-.6-.4c.1-.2-.3-1.9 .6-2.2c.3-.2 .2 .7 .5 .2c0-.9-.4-.9-.4-1.7l.1 0c.1-.6-.5-1.6-1-1c0 .4 .5-.2 .3 .4c-.5-.3-.8-1.3-.8-2.1c.2 .3 .4 .2 .6 .3c-.7-1-1.1-2.2-1.4-3.3c.2 .1 .5 .2 .6 .4c.4-1.6-1.1-3.1-.5-4.5c-.1 .1-.5 .1-.4 0c0-.8 .6-.8 .3-1.3c.3-.1-.2-.6-.4-1.2c-.2-.2 0-.2 .1 0a11.2 11.2 0 0 1 -.9-5c-.2 .1-1-.8-1.1-1.2h.6q.1-.2 .1-.4q-.1-.1 0-.2q-.1-.3 0-.6a6.9 6.6-1252 0 0 .2 .6l-.2-.6 .2-.2q-.3-.2-.2 .1c-.3-.5-.5-1-.3-1.6c-.1 .3 .9 .5 .7-.1c-.3-1.1-.3-.3-.7-1.1l-.3-.5c-.5 .1-.2-.9-.6-.5c.2-.4-.6-1.5 .3-1.5l.7 0c-.2-.4-.9-.6-1.3-.9q0-.1 .2-.2c-1 .2-.1-1.2-1.1-1.5c.2-1.1-.5-2.5 0-3.1c-.5-.6-1.1-1.2-1-2.1c.2 .1 .2 .4 .5 .4c.2-.6-.2-.7-.4-1.1c.2 .1 .4-1.2 .6-2c-.5-.6-1-.2-1.4-.2c.9-1-1.2-1.9-.5-3c.2 .2 .8 .9 .9 .2c.9-1-1.2-1.1-1-2.3l-.8 .5c.4-.6-1-1.4-.1-1.6c-.4-.3-.1-1.3-.9-1c.2-2-1.8-4.1-.7-5.7c-.2-.2-.3-.9-.7-.6c-.3 .6 .5 .4 .3 .7c-.1-.2-.4-.2-.5-.1c0-.6-.1-1.1 .8-.8c.1-1.4-1.9-.7-2.1-2.3q.5-.1 .2-.6l-.9-.6c-.3-1 .5-.9 1.1-1.2c-.3-.5-.5-1.1-1.1-1.2l.5-1c-.3 .7-.5-.3-.8-.4l.2 .2c.2-.2-.2-.7-.4-1c-.3 .2-.2 .9-.2 1.3c-.3-.1-.4-.6-.9-.8c.6-.1 .1-1-.1-1.4c-.1-.5-.7-.3-.8-.4c.3-.2-.3-.8 .3-.6c.2 .1-.1 .5 .2 .6c.1-.4 .6-.6 0-1.1c-.5-.3-1 .6-1.1-.4c.3 .2 .5 .1 .8 .2l-.1-1-.5 .2c.1-.2 .1-.1 .2-.2c-.6 0-.8-1.2-1.4-1.1c-.2-.4-.1-1.1-.2-1.5l.1 .1c.1-.6-.4-1.2-1-1.5h.1a1.9 1.9 0 0 0 -1-1.1c.1-.9 1.8-1.2 .8-1.6c-.3-.7-1.4-.6-1.6-.2c-.3-1.4-1.8-2.4-1.7-3.9c-.3-.1-.4 .1-.6-.2c-.8-1.9-2.7-3.4-2.5-5.3c.5 .4 .5-.3 .8-.4c-.6-.2 .2-.8-.6-.5c-.4 .3-.6 .4-.5 1c-.9-.9-1.8-2.5-1.7-3.3c0 .4-.3 .3-.6 .1c.7-.4 .4-1.2-.2-1.6l-.4 .2 .2-.6c-.3-.1-1 .3-1-.5q.2-.2 .3-.4c-.7-.4-1.8-.8-1.9-1.7l.2-.9c-.2-.2-.9-.4-.7 .2c-.4-1.3-.8-2-.5-2.7c-2.5-1-4.4-3.5-5.9-5.6l.3-.2c-.1-.7-.7 .1-.8-.4c.4 0 .3-.9 1-.7c-.3-1-1.3-.6-1.8-1c-.4 .2 .5 .2 0 .5c-.2 0-.6-1.3-1.2-1c.1-.4 .6-.6 1-.6l-.7-.3c.2-1.1 2.2 .4 2.6-.9l-.4-.4c.3-.9 1.6 .6 1-.6c-.7-.3-1.9 0-1.8 .6c-1-.9-1.7 .6-2.6-.4c.1-.6 .8 .8 1.1 .2c.1-.9-1.1-.8-1.3-1.4c.2 .7-.7 .7-1.1 .5c-.2-.8 .8-.1 .3-.9c-.4 .1-1.2-.3-1 .4c-1 .3-.4-1-1.4-.9c.3-.7 1.9-.3 1.4-1.3c-.4 .5-1.5-.4-1.9 .6c-.1-.4 .3-.8 .7-.9c-.1-.7-1.9-.3-1-1.3l-.6 .3 0-1.1c-.3-.4-1.8-.6-1-1.3c-.2-.1-1-1-1.2-.2c.2 .8 1 .3 .5 1.2c.2-.9-.8-.7-1.3-.9l.2-.3c-.2-.1-.5-.4-.9-.4a.3 .3 0 0 0 .2-.4l-.6 .2c-.9-.5 .6-.9-.2-1.5l.9 .3c-.2-.1 0-.7-.5-.9c-.5 .3-1.2 .4-1.6 .6c-.5-.2 .1-.5-.4-.6l.8 .1c.2 0 .3-1-.3-1.5c-.5-.2-1.6-.2-1.2 .5c-.3-.3-.4-.9 .1-1c-.7-.4-.3 .5-1.1 .2c0-.5-.3-1.5-.3-2.3l1.2-.1-.4-.4c1 0 .1-.6 1-.9c-.2-.3-.7-.4-1.1-.5c-.1 1.6-2 .3-2.6 1.3c-1.2-.8 1.2-2.6-1.1-2.3c0 .3-.6 .4-.5 .7c-.5-.1-1 .4-1.3-.4c.9 .2 .2-1.4 1.4-1.1c-.3 .2 .3 .6 .5 .7c0-.5 .8-.7 .2-1.4c-.5-.3-1.1-.8-1.4-.3c-.4 .5 .7 .5 0 .8c-1-.6-.5-1.4-1.6-.9c.6 .4 .3 1 0 1.3l-.8-.3 .4-.2c-.7-1.1-.8 .3-1.7-.6l.1-1c.7-.4 1.2 1.4 1.8 .4c-.6-.6-1.2-.3-1.6-1.1l.6 .2c-.2-.2 .6-1.6-.9-1.7c-.7-.1-.4 .2-.7 .5c-1.1-.8-1.7-.7-2.4-1.2c.7-.5-1.1-1 .2-1.1c0 .6 1.5 1.9 2.4 1.5c.3-1.1 .7 .8 1.6 .2c-.8-.7-.1-1.4 .2-2c-.2-.2-.6-.2-.8-.2c-.5 .4-.2 .6-.6 1.1a3.8 3.8 0 0 0 -2.8-1.3c-.1-.5 .4-.9 .8-.6a20.1 19.1-1252 0 1 -3.3-2.8c0 1.1-1-.2-1.3 0q.1-.5 .5-.8c-1-.2 .4-.4-.4-1a15 14.3-1252 0 1 -3.1-1.2c-.6-1.4-2.7-2-3.6-2.6c-.3-.7 .6-1.2 .1-1.7c-.6-.4-.1 1.1-.8 .1l.2-.1c-.4 0-1.3-1.5-2.2-1l.6-.4c-.1-.2-.4-.1-.6-.1c.2-.3 .1-.6 .5-.6c-.2-.9-1.3-.7-2-1.1l.1 .7c-1.4-.4-1.8-1.3-3-1.8l.3-.4-.8-.1c.4-.3 .2-.8-.3-.9m79.2 120.9v-.1zm.5 1.3 .2 .4q0-.2-.2-.4m-58.8-102.1c-.1-.2-.7-.4-.3-.7q.3 .3 .3 .7m0 0v.2zm-248.7 8.4a2.3 2.2-1252 0 0 0 .2q-.1-.1 0-.2M236 90.3a.7 .6-1252 0 1 0-.1l.4-.1zm-53.1 41.8v.3zm88-54.7q.1-.2 .3-.2a2.3 2.2-1252 0 1 -.2 .2m56.5-2.2v.1zm-30.5 3.6q-.1 .2-.1 0zm-82.5 33.5l0 .1zm-7.8 4.9a.3 .3-1252 0 1 .2-.3q-.1 .2-.2 .3m-10.4 7.1a.8 .8-1252 0 1 -.2 .4q-.1-.4 .2-.4m-.2-.4h0c.6-.2 1.4 0 1.4 .5c-.3 .2-.3-.3-.5-.4c0 .4-.4 .3-.7 .3q0-.3-.2-.5m-.2-.1 .2 .1q-.2-.1-.2-.1m-12.9 8.4 .2-1.8c.5-.1 .1 .8 .7 1c.5 .2 1.1-.6 .8-1.1c-.3 .2-.3 .3-.3 .6c-.6-.4-.2-.8-.3-1.4l-.3 .2q.1-.6 .6-1.1c-.1 .4 .3 .3 .5 .3c-.3-.5 0-1 .6-1.3c.9 .2 .7-1.3 1.5-1.8a3.2 3.2 0 0 1 0 2c.6-.1 .4-.4 1.1-.6c-.2-.5-.5-1.2-.2-1.9l.3 .3c.3-.6-.1-1.2 .6-1.6c1.2-.8 2.4-1.8 3.2-2.5l.4 .3c-.2-1.2 1.3-1.6 1.7-2.5c1.4-.5 2.1-2.3 3.2-2.1c1.7-1.8 3.2-3.5 5.4-4.9l.1 .8c.1-.7 .5 .1 .8-.2c-.8-.1 .1-1 .1-1.5c1.2-.2 2.1-1.6 2.7-2.6l.3 .4c.3-1.3 1.8-1.4 2.9-2c.3 .1 .7 .3 1 .1c.1-1.1 .5-1.2 1.1-2.2a9.6 9.6 0 0 1 2.6-1.1c1.8-2.5 4.6-3.4 6.8-5.4l.4 .4c1.9-2.5 5.4-3.2 7.3-4.9l.2 1c.8-.1 1.4-1 1-1.5c.8-.1 1.5-1.3 2.2-.8c.8-.2 .6-.8 1.2-1.2c1.4-.3 1.9-.6 2.9-1.2c0 .3 .2 .5 .4 .4c.4-.5 1.9-.6 1-1.4c1.7-.1 3.1-2 4.9-1.8c-.2-.2 .1-.4 .2-.7c1.3-.6 2.8-.5 3.6-1.4c.3 .1-.1 .6 .4 .4c.3-.2-.1-.4 .2-.7c1.9-1.4 4.4-1.1 6.3-1.9c3.2-1.9 6.8-2.8 10.1-3.8v.2c.9-1.2 2.8 .1 3.4-1.5c.3 .2 1-.2 1 .3c.6-.8 2.3-.2 3.5-1c1.4 .2 2.4-.8 3.8-.7c-.2 .1-.4 .3-.4 .5c.6 .3 1.1-1.3 1.6-.2c.3-.1 .1-.5 0-.5c3.1-.3 6.1-1.7 9.2-2.5c2.3 .3 .4 1.9 2 .7c.2 .2 .1-.4 .1-.2c.6-.4 1.2 1.1 1.6 .4c-.3-.7 .3-.4 .3-.9c1.4 .2 1.8 .8 2.8 .1l0 .4c1.2-1.2 2.7-.9 3.7-2.2c7.1-1.2 14-2.3 21-2.7c6.9 .1 13.7-.3 20.6 .9c1.5 1.1 1.6 1.1 3.5 .9c-.1 .1-.2 .2-.1 .3c.2-.8 1.3 .1 1.5-.7c2.6 .4 4.9 .5 7.6 .9c-.4 0-.8 .6-.3 .6l.6-.4 0 .2c.4-.1 .8-.4 .5-.7c6.8 .3 12.8 3.2 19.1 4.6c1.4 .7 3.6 1 5.2 1.3c4.4 2.4 8.2 4.6 13.2 5.7c0 0-1.4 1.7-3.5 1.5c-3.1 .9-5.7-2-8.8-1.7c-.3 0 .4-1-.4-1c-3.1 .6-7-1.4-9.9-3.3l.3-.2c-.5-.3-1.6 .4-2.2 .1c.1-.2 .3-.2 .2-.5c-.3 .5-1.3 0-1.7 .3c-.2-.3-.1-.7-.3-1l-.6 .5c-1.4 1.3-2.6-.6-4.2-.1c.1-.1 .3-.2 .2-.4c-2.6 .5-5.4-.2-8.1-.3c.1-.2 .3-.6 .2-.9c-.3 .6-1.1 .7-1.8 .8c-.2-.8-1.3 .4-2.1 0l.1-.2c-.7 .7-.8-.5-1.5 .3l-.3-.6c-.4 1-.8-.6-1.4-.2v.2c-.5 .2-.7-.4-1.2-.2v-.1c-1.1 .2-1.6-.4-1.7 .3c-.3-.6 1.1-.2 .6-1.2c-3.6 .4-7 .1-10.5-.1c-.4-.3-.6-.4-.6-.7c-.4 .2-1.3 .1-1.7 .5c0-.1-.2-.4-.4-.4c-.6-.3-.8 .9-1.4 .5q.4-.3 .3-.7c-.6 .6-1.4 .5-2.1 .6c.1-.1 .3-.2 .3-.4c-.8 .7-1.4-.2-2 .3l.3-.4c-1.1-.5-.4 1-1.3 .6c.2-.2 .2-.3 .2-.5c-.9 .8-2.3 .5-3.2 .9q.1-.2 .1-.2c-1 .1-1.9-.1-3 .3c-.4-.2 .2-1.1-.9-.9c0 .9-1.7 .4-1.1 1.4c-.8-.1-2.2-.4-2.8 0c.4-.4-.4-1.1 .3-1.2l-.5-.5c.1-.4 .5 .1 .4-.4c-.4 .1-1.4 .5-1.7 .4c-.6 .6-1.2 1.7-2.3 1.9c.4-.3-.1-.8-.1-1.1l-1.3 1.8c-.4 .1-.1-.7-.6-.4c.1 .3-.2 .4-.3 .6c-.1-.1-1.4 .3-1.6-.5c-.2-.3 .6-.2 .2-.5c-.6 .1-.6 .4-1.3 .4v-.1c-.5-.1-1.3 .5-.8 1c.3 0-.2-.5 .3-.3c-.3 .5-1 .8-1.7 .9c.2-.2 .2-.4 .2-.7c-.8 .8-1.7 1.1-2.6 1.5c.1-.2 .2-.5 .3-.6c-1.3-.4-2.4 1.1-3.5 .5c.1 .2 .1 .5 0 .4c-.6 0-.6-.6-1-.3c-.1-.4-.5 .2-.9 .4c-.1 .2-.2 0 0-.1c-.8 .4-2.6 1.1-3.8 .9c.1 .2-.6 1-1 1l0-.6q-.2-.1-.3-.1q-.2 .1-.2 0q-.3 .1-.5 0l.4-.2v0a1.6 1.5-1252 0 0 -.4 .2l-.1-.2q-.2 .2 .1 .2c-.4 .2-.8 .5-1.2 .2c.2 .1 .4-.9-.1-.7c-.8 .3-.2 .3-.8 .6l-.4 .3c.1 .5-.7 .1-.4 .5c-.3-.2-1.2 .5-1.2-.3v-.7c-.4 .1-.5 .9-.7 1.2q-.1-.1-.2-.3c.1 1-.9 .1-1.2 1c-.8-.2-1.9 .4-2.4-.2c-.5 .4-1 1-1.7 .9c.1-.1 .3-.2 .3-.4c-.5-.2-.5 .1-.9 .4c.1-.2-1-.4-1.5-.6c-.5 .4-.2 1-.2 1.3c-.8-.9-1.5 1.1-2.3 .3c.2-.2 .7-.7 .2-.8c-.8-.9-.9 1.1-1.8 .8l.4 .8c-.5-.4-1.1 .9-1.2 0c-.2 .4-1.1 0-.7 .8c-1.6-.3-3.2 1.4-4.5 .2c-.2 .2-.7 .2-.5 .6c.4 .4 .4-.4 .6-.2q-.2 .2-.1 .4c-.5-.1-.9 0-.6-.8c-1.1-.2-.6 1.7-1.9 1.8q0-.5-.5-.3l-.5 .8c-.8 .1-.7-.6-.9-1.2c-.4 .3-.9 .4-1 .9l-.7-.5c.5 .4-.2 .5-.4 .7l.2-.2c-.2-.2-.6 .1-.8 .3c.2 .3 .7 .3 1 .3c-.1 .3-.5 .4-.7 .8c-.1-.6-.8-.2-1.2-.1c-.4 0-.3 .6-.4 .7c-.1-.3-.6 .2-.5-.3c.1-.2 .4 .2 .5-.2c-.3-.1-.5-.6-.9-.1c-.3 .4 .5 1.1-.4 1c.2-.2 .1-.4 .2-.7l-.8 0 .2 .5-.2-.2c0 .6-1 .6-1 1.2c-.3 .2-.8-.1-1.2 0l.1-.1c-.5-.2-1 .3-1.2 .7v-.1a1.6 1.6 0 0 0 -.9 .7c-.7-.1-.9-1.8-1.3-.9c-.6 .3-.5 1.3-.2 1.5c-1.1 .1-1.9 1.4-3.2 1c-.1 .3 .1 .3-.2 .6c-1.6 .4-2.8 2-4.4 1.5c.3-.4-.2-.5-.3-.8c-.2 .6-.6-.3-.4 .5c.2 .4 .3 .6 .8 .6c-.8 .6-2 1.3-2.7 1.1c.3 .1 .2 .3 .1 .5c-.3-.7-1-.5-1.3 0l.1 .4-.5-.3c-.1 .2 .2 1-.4 .8q-.1-.3-.4-.4c-.3 .6-.7 1.5-1.4 1.4l-.7-.4c-.2 .2-.4 .7 .1 .7c-1.1 .1-1.7 .3-2.2 0c-.9 2.1-3.1 3.4-4.9 4.3l-.1-.4c-.6 0 .1 .7-.4 .6c0-.4-.7-.4-.5-1c-.9 0-.6 1-1 1.4c.2 .4 .2-.4 .4 .1c0 .2-1.1 .2-.9 .9c-.3-.1-.4-.6-.5-1l-.2 .5c-.9-.4 .4-1.9-.6-2.5l-.3 .3c-.7-.4 .6-1.3-.5-1c-.3 .5-.1 1.6 .4 1.7c-.8 .7 .4 1.7-.5 2.2c-.5-.2 .7-.5 .2-.9c-.7-.2-.7 .8-1.2 .9c.6 0 .6 .8 .4 1.1c-.6 0 0-.8-.7-.4c.1 .4-.3 1 .3 1c.3 .9-.8 .2-.8 1c-.5-.4-.1-1.7-1-1.5c.4 .4-.5 1.3 .4 1.8c-.4 0-.6-.4-.6-.8c-.6-.1-.4 1.6-1.2 .6l.2 .6c-.2-.1-.5-.1-.9-.3c-.3 .2-.6 1.5-1.2 .6c0 .2-.9 .6-.2 1c.7 0 .3-.8 1.1-.2c-.7-.4-.6 .6-.8 1l-.3-.3c-.1 .2-.4 .4-.4 .7a.3 .3 0 0 0 -.3-.3l.1 .6c-.5 .7-.7-.7-1.3-.1l.3-.7c0 .2-.6-.1-.8 .2l.4 1.6c-.2 .4-.4-.2-.5 .2l.1-.7c0-.2-.8-.5-1.3-.1c-.2 .4-.3 1.3 .4 1.2c-.3 .2-.8 .2-.8-.3c-.5 .5 .4 .4 .1 1c-.4-.1-1.3-.1-1.9-.2v-1.1l-.4 .2c0-.9-.5-.3-.7-1c-.3 .1-.4 .5-.5 .8c1.3 .5 .2 1.9 1 2.6c-.7 .9-2.1-1.7-2 .4c.3 .1 .3 .7 .5 .6c-.1 .4 .3 1-.4 1.1c.2-.7-1.2-.4-.8-1.5c.2 .3 .5-.1 .6-.2c-.5-.2-.6-.9-1.2-.5c-.3 .4-.8 .7-.4 1.1c.4 .5 .5-.4 .6 .2c-.6 .7-1.3 0-.9 1.1c.4-.4 .9 0 1.1 .4l-.3 .6-.2-.4c-1 .4 .2 .8-.6 1.3l-.9-.3c-.2-.7 1.3-.6 .5-1.4c-.5 .4-.4 1-1.1 1.1l.3-.4c-.2 .1-1.3-.9-1.5 .3c-.2 .6 .1 .4 .4 .8c-.7 .7-.7 1.3-1.2 1.7c-.4-.7-1 .7-.9-.4c.6 .1 1.7-.8 1.5-1.7c-.9-.5 .7-.4 .3-1.3c-.7 .5-1.2-.3-1.7-.6c-.2 .1-.2 .4-.3 .6c.3 .5 .5 .3 .9 .8a2.6 2.6 0 0 0 -1.4 2c-.4 0-.7-.5-.4-.8a12.8 12.8 0 0 1 -2.7 2.1c1 .2-.3 .7-.1 1.1c-.2-.2-.5-.4-.7-.7c-.3 .8-.3-.4-.9 0a9 8.6-1252 0 1 -1.3 2.3c-1.2 .2-2 1.7-2.6 2.4c-.6 0-1-.8-1.4-.5c-.4 .4 1 .3 0 .7l-.1-.2c-.1 .3-1.4 .6-1.1 1.6l-.3-.7c-.2 0-.2 .3-.2 .5c-.2-.2-.6-.3-.5-.6c-.9-.1-.8 .9-1.2 1.3l.7 .1c-.4 1-1.3 1.1-1.9 2l-.4-.4-.2 .6c-.2-.4-.6-.3-.8 0m104.4-52.3 .3-.1q-.1 0-.3 .1m-84.7 40c-.2 .1-.4 .5-.6 .1q.3-.2 .6-.1m0 0 .1 0zm4.2 10.1 19.9 24.5-3.7 3-17.2-8.1a258.1 246-1252 0 1 -6.4-3.2 33.2 31.6-1252 0 1 -3.8-2.4q3.5 3.8 7.7 9l10.1 12.5-2.9 2.3-19.9-24.5 3.9-3.2 18.6 8.8q5.7 2.7 8.5 4.7a138.3 131.8-1252 0 1 -2.9-3.1l-2.4-2.8-1.4-1.7a152.1 145-1252 0 1 -1.5-1.8l-9.6-11.8zm8.8-7.9 2.6 4-3.2 2.1-2.6-4zm5.5 8.7 12.5 19.5-3 2-12.5-19.5zm19.8-11.4 4.7 23.8-3.6 1.9l-17-17.1 3.4-1.8 9.6 10q.9 1 1.6 1.6l1.2 1.3q.6 .6 1.1 1.5q-.5-1.5-1-3.7l-3.3-15.8zm10.8 9.2q1.6 3.1 3.8 4.4t4.7 .3q1.4-.6 2.6-1.6a12.4 11.8-1252 0 0 2.2-2.7l1.4 3.9a15.5 14.7-1252 0 1 -2.4 2.4 10.6 10.1-1252 0 1 -2.6 1.5 8.8 8.3-1252 0 1 -4 .7 8.8 8.3-1252 0 1 -3.7-1.2q-1.7-1.1-3.2-3a19.6 18.7-1252 0 1 -2.4-4.5q-1.2-3.3-1.2-6.3q.1-3 1.5-5.1a7.6 7.2-1252 0 1 3.8-3.2q2.8-1.2 5.2-.1q2.3 1.1 4.1 3.6t3 6zm-1.1-3.2 9.4-3.8q-.9-1.7-1.9-2.9t-2.3-1.6-2.7 .2q-1.9 .8-2.6 2.9q-.7 2.2 0 5.2m15.6-27.2 8.6 33.3-3.4 1-8.6-33.2zM300.8 95l-.2 4.1q-2.8-1-4.9-.8q-1.4 .2-2.4 .8a4.1 3.8-1252 0 0 -1.5 1.7 4.8 4.6-1252 0 0 -.4 2.4q.1 2.1 1.4 3q1.3 1 4.3 2.6q3.1 1.5 4.7 3.3t1.9 5q.2 2.8-.7 5.1t-2.8 3.8-4.5 1.7a14 13.3-1252 0 1 -5.9-.6l.1-4.4q2.9 1.4 5.1 1.1q1.6-.2 2.7-1a4.6 4.4-1252 0 0 1.7-2.1q.5-1.3 .4-3q-.2-2.4-1.6-3.5t-4.3-2.5-4.5-3q-1.6-1.6-1.8-4.9q-.2-2.6 .7-4.7A7.6 7.2-1252 0 1 291 96q1.8-1.3 4.1-1.6a13.6 13-1252 0 1 5.7 .5m27.3 19.7q-.3 3.6-1.7 6.4q-1.4 2.8-3.7 4.3a8.5 8.1-1252 0 1 -5.1 1.4 8.2 7.8-1252 0 1 -4.8-1.7q-2-1.6-3.1-4.5q-1-2.9-.8-6.3a17.5 16.7-1252 0 1 1.1-5 12.9 12.3-1252 0 1 2.3-3.9 9.4 9-1252 0 1 3.2-2.6 8.3 7.9-1252 0 1 3.9-.8q2.1 .1 3.8 1q1.7 1 2.9 2.7a12.7 12.1-1252 0 1 1.7 4.1 18 17.1-1252 0 1 .3 5m-3.7 0q.1-1.9-.2-3.7q-.3-1.7-1-2.9a6.2 5.9-1252 0 0 -1.8-1.9 4.5 4.3-1252 0 0 -2.3-.7q-2.6-.1-4.4 2.4q-1.9 2.5-2.2 6.4q-.2 2.6 .4 4.6t1.9 3.2a4.7 4.5-1252 0 0 6.1 .2q1.4-1.1 2.4-3.1q.9-2 1.1-4.5m16.8-21.4-2.8 12.3a34.6 33-1252 0 1 -.7 2.7 6.6 6.3-1252 0 1 3.1-2.8 6.9 6.6-1252 0 1 4.2-.5q1.8 .3 3 1.4q1.3 1.1 2 2.8t.7 4-.5 5a21.7 20.6-1252 0 1 -1.7 4.9q-1 2.1-2.5 3.6t-3.1 2a6.7 6.4-1252 0 1 -3.4 .3 6.8 6.5-1252 0 1 -3.5-1.8q-1.4-1.4-1.8-3.6l-.9 3.9-3.3-.6 7.8-34.2zm2.2 15.2q-1.5-.3-3 .6q-1.5 .9-2.6 2.7q-1.1 1.8-1.6 4.1a12.9 12.3-1252 0 0 -.3 4.3q.3 2 1.2 3.3t2.4 1.6q1.4 .2 2.9-.6t2.5-2.7a13.8 13.2-1252 0 0 1.6-4.2q.8-3.7 0-6.2q-.9-2.6-3.1-2.9m15.1 0 3 1-1.3 4q1.6-1.9 3.2-2.6t3.4-.2q.9 .3 1.7 .8l-1.4 3.8a4.2 4-1252 0 0 -1.4-.9 3.9 3.7-1252 0 0 -3.3 .4q-1.6 .9-2.8 2.8a17.3 16.5-1252 0 0 -2 3.9l-3.7 10.5-3.3-1 4.9-13.8q1.2-3.3 2.9-8.9m10.1 17.2q-1.2 3.4-.5 5.9t2.9 3.5q1.4 .6 2.9 .6t3.4-.4l-1.8 3.9q-1.9 .2-3.4 .1a10.6 10.1-1252 0 1 -2.8-.8 8.8 8.3-1252 0 1 -3.2-2.3q-1.2-1.5-1.6-3.5q-.4-2 0-4.5a19.6 18.7-1252 0 1 1.7-5.1q1.6-3.3 3.7-5.4q2.2-2.1 4.7-2.8a7.6 7.2-1252 0 1 4.8 .4q2.8 1.2 3.6 3.6q.8 2.4 .2 5.5t-2.2 6.5zm1.5-3.1 9 3.8a14.7 14.1-1252 0 0 .8-3.4q.2-1.5-.4-2.8t-1.9-1.8q-1.9-.8-3.9 .3q-2 1.1-3.7 3.8m29.2 4.3-2.2 3.1q-.9-1.9-2.6-2.8q-1.2-.7-2.4-.4t-1.9 1.4q-.7 1.2-.4 2.2t1.4 3.3 1.3 4-1.1 3.9a9 8.6-1252 0 1 -2 2.3 6.5 6.1-1252 0 1 -2.4 1.3 6.2 5.9-1252 0 1 -2.7 .2 7.6 7.2-1252 0 1 -2.6-.9 9.6 9.1-1252 0 1 -3.4-3.5l2.1-3.4a13.8 13.2-1252 0 0 1.4 2.2q.7 .8 1.5 1.3q.9 .5 1.8 .5q.9 .1 1.7-.3t1.2-1.2q.7-1.2 .4-2.3t-1.4-3.3-1.2-4q-.2-1.8 1.1-3.8q1.1-1.8 2.6-2.8t3.2-1 3.4 .9q1.8 1 3.2 3m6.5 5.5a11.5 11-1252 0 1 3.4 .4q1.5 .4 2.9 1.4q2.1 1.5 2.7 3.6t-.3 4.4q-.7 1.9-3.6 5.7l-2.8 3.8-2.8 3.8q-1.2 1.6-2 2.8l-2.5-1.8a58.3 55.6-1252 0 1 2.5-3.3q-2.3 1.2-4.1 1.2q-1.8 0-3.6-1.3q-1.5-1.1-2.1-2.7a5.9 5.6-1252 0 1 -.3-3.4q.4-1.8 1.7-3.5q1.2-1.5 2.6-2.3q1.4-.8 3-.9t3.3 .5q1.8 .6 3.6 2q1.1 .8 2 1.6q1.9-2.6 1.9-4.4t-1.9-3.2a7.4 7-1252 0 0 -2.6-1.2q-1.3-.3-3.2-.1zm1.7 14.7a16.1 15.4-1252 0 0 -1.4-1.2q-5.5-4-8.3-.3q-.7 .9-.8 1.8a3.3 3.2-1252 0 0 .2 1.8 3.7 3.6-1252 0 0 1.2 1.4q1.5 1.1 3.1 .9q1.6-.2 3.1-1.4q1.5-1.2 2.9-3.1m25.3-10.6-23.7 26.7-2.6-2.2 23.7-26.7zm7.2 7.6-3.5 3.6-2.7-2.6 3.5-3.5zm-7.6 7.7-17 17.3-2.5-2.3 17-17.3zm-3.5 15.3q-2.5 2.7-3 5.3q-.5 2.6 1.1 4.4q1 1.1 2.3 1.8t3.2 1l-3.2 2.9a15.5 14.7-1252 0 1 -3-1.3 10.6 10.1-1252 0 1 -2.2-1.9 8.8 8.3-1252 0 1 -1.9-3.5 8.8 8.3-1252 0 1 0-4q.5-2 1.9-4.2a19.6 18.7-1252 0 1 3.6-4q2.8-2.5 5.6-3.6t5.3-.6a7.6 7.2-1252 0 1 4.2 2.3q1.9 2.2 1.7 4.8t-2.1 5.2-4.7 5.1zm2.6-2.3 6.5 7.3a14.7 14.1-1252 0 0 2.2-2.8 5.7 5.4-1252 0 0 .8-2.7q0-1.4-1-2.5q-1.3-1.5-3.6-1.3t-4.9 2m21.3 10.3-3 2.4q4.7-.8 7.1 2.6q1.3 1.9 1.2 3.6a6.5 6.2-1252 0 1 -1.2 3.4q-1.1 1.6-2.8 3t-4.2 3.3l-9.2 6.6-1.9-2.7 8.9-6.4a76.1 72.5-1252 0 0 3-2.2q1-.8 1.6-1.4q1.3-1.4 1.6-2.9t-.6-2.6q-1-1.3-2.8-1.6q-1.8-.3-4 .6a11.5 11-1252 0 0 -1.4 .6 18.4 17.6-1252 0 0 -1.6 1l-2.9 2-7.3 5.2-1.9-2.8 9.7-7 3-2.2a382.6 364.6-1252 0 0 6.8-5.1zm19.4 16.9-6.1 3.7 2.4 4.2-3 1.8-2.4-4.2-8.2 4.9q-2.8 1.7-4 2.7q-1 .8-1.3 1.8q-.3 1.1 .3 2q.5 .9 1.7 1.5l-3.3 2a8.8 8.3-1252 0 1 -2.1-2.3q-1.2-2-.7-3.7q.5-1.7 2.1-3.1t4.4-3.1l9.3-5.6-2.1-3.6 3-1.8 2.1 3.6 4.8-2.9zm-12.2 20q-3.1 2-4.2 4.4t-.1 4.6a8.3 7.9-1252 0 0 1.7 2.3q1.1 1 2.8 1.8l-3.8 2a15.5 14.7-1252 0 1 -2.6-2.1q-.9-1-1.6-2.4q-.9-1.9-.8-3.9a8.8 8.3-1252 0 1 1.1-3.8q1-1.9 2.9-3.6a19.6 18.7-1252 0 1 4.5-3q3.3-1.7 6.3-2q3-.3 5.2 .7t3.4 3.3q1.3 2.7 .3 5.1t-3.4 4.5-5.9 3.8zm3.1-1.6 4.2 8.8a14.7 14.1-1252 0 0 2.8-2.2q1.1-1.2 1.5-2.5t-.3-2.6q-.9-1.8-3.1-2.2q-2.2-.4-5.2 .7M413.4 404.5l44.4 45.6c-34.4 19.8-75.5 35.4-117.4 40.7l-49 1.2a200.5 191.1-1252 0 1 -26.9-4.3c-133.4-31-211.5-163.1-174.3-295c6.6-23.5 27.4-59.4 39.8-79.4l111.7 114.7 233 133.1-4.4 4.2a212 202-1252 0 1 -56.8 39.1M124.2 204.6a205.1 195.5-1252 0 1 7.7-32.8l1.8-5.5 93.5 53.4-96.5-99.1c-12.4 20.2-30.2 51.8-36.2 73c-36.5 129.6 40.2 259.2 171.2 289.7a195.9 186.7-1252 0 0 26 4.2l48.5-1.2c39.1-5 77.5-19.1 110.2-37.2L409 406.6a212 202-1252 0 1 -18.3 7.3l-.7 3.2 2.1 2.1 4.7 4.8 4.7 4.9 4.7 4.8 5.3 5.4-12.5 1.7-11.9 1.6-7.3 1-4.8 8.6-7.3 13.3-3.5 6.3-1.4-3.2-2.8-6.3-2.8-6.3-2.8-6.3-2.8-6.3-10.7-1.6-11.5-1.7-9-1.3 4.4-4 10.2-9.4a216.5 206.3-1252 0 1 -42.2-1.1l-1.2 .2-21.6 3-3.9 7.1-3.8 7-3.8 6.9-3.7 6.8-2.8 5.1-2.4-5.5-3.3-7.4-3.3-7.5-3.4-7.7-2.3-5.1-26.4-3.9-10-1.5 2.5-2.2 5.6-5.1 5.6-5.1 5.6-5.1 2.5-2.3a212 202-1252 0 1 -37.9-26.6l-.8 1.5-3.6 6.6-1.6 3-4.9-11.1-9.7-21.9-.1-.1-2.9-.4-8.1-1.2-7.9-1.2-7.7-1.2-7.7-1.2-2.1-.3 1.7-1.5 5.9-5.4 6-5.4 6-5.5 .5-.5a204 194.4-1252 0 1 -24.1-72l-4.1-.6-6.8-1-6.8-1-6.8-1-2.5-.4 3.8-3.5 20.2-18.4-1-7.9-1.4-11.1-1.2-10.6-.2-1.4 .8 .5 6 3.2zm267.7 204.1a207.4 197.6-1252 0 0 75.3-46.6L136.2 173a200.5 191.1-1252 0 0 -7.8 33.9l15.5 8.4 28.9-14.5-5.6 24.8-.8 3.6-.6 2.6 .5 .5 1.7 1.8 1.8 1.8 1.7 1.8 1.7 1.8 1.8 1.8 1.7 1.8 1.8 1.8 1.8 1.8 1.7 1.8 1.8 1.8 1.8 1.8 1.8 1.8 .1 .1-.3 0-4.5 .6-4.5 .6-4.3 .6-4.3 .6-4.2 .6-4.1 .6-4 .5-1.5 .2-2.6 4.7-13 23.5-.6-1.4-1.5-3.4-1.5-3.3-1.4-3.2-1.4-3.2-1.3-3.1-1.3-3-1.3-2.9-1.3-3a199.4 190-1252 0 0 22.7 66.4l1.6-1.5 2.8-2.6-1.8-14.6-1-8.4-.8-6.6-.7-5.7-.1-.9 .4 .2 2.5 1.3 2.5 1.3 2.5 1.4 2.6 1.3 2.5 1.4 2.6 1.4 2.6 1.4 2.5 1.4 2.6 1.4 2.6 1.4 2.6 1.4 2.6 1.4 1 .5 2.3-1.2 3.7-1.9 3.8-1.9 4-2 4.2-2.1 4.6-2.3 4.9-2.5 5.5-2.8 .7-.3-1.2 5.5-2.1 9.4-3.7 16.6-1.1 4.7 1.4 1.4 3.8 3.8 4.6 4.8 7.7 7.9 7.7 7.8-.4 .1-3.5 .5-3.4 .5-3.4 .4-3.3 .4-3.3 .5-3.3 .4-3.3 .4-3.3 .4-3.2 .4-3.2 .4-3.2 .4-.4 0-1.3 2.3-1.5 2.6-1.4 2.6-1.4 2.6-1.4 2.5-1.4 2.5-1.3 2.5-.1 .1a207.4 197.7-1252 0 0 39.1 27.5l.7-.6 1.9-1.8v-.1l-.3-2.6-.3-2.6-.3-2.7-.3-2.7-.4-2.8-.3-2.8-.4-2.9-.3-2.9-.4-3-.4-3.1-.4-3.3-.4-3.4-.2-1.3 24.4 13.2 7.6 4.1 2.9-1.4 3.4-1.7 3.5-1.7 3.6-1.8 3.7-1.9 3.9-2 4.2-2.1 4.6-2.3 3.9-2-.4 1.7-.5 2.3-.5 2.2-.5 2.2-.5 2.2-.5 2.2-.5 2.2-.5 2.2-.5 2.2-.5 2.2-.5 2.2-.5 2.2-.5 2.2-.5 2.2-.5 2.2-.5 2.2-.2 1 1.2 1.2 2.1 2.1 2.1 2.1 2 2.1 2 2.1 2 2 2 2 2 2 1.9 2 2 2 1.9 2 1.9 2 .8 .8a212 202-1252 0 0 34.8-.6l2.7-2.4 1.2-1.1-.2-1.6-.3-2.3-.3-2.3-.3-2.3-.3-2.3-.3-2.3-.3-2.4-.3-2.3-.3-2.4-.3-2.4-.3-2.4-.3-2.4-.3-2.4-.1-1.2 1.3 .7 2.6 1.4 2.5 1.4 2.5 1.3 2.5 1.4 2.5 1.3 2.5 1.3 2.5 1.4 2.5 1.3 2.5 1.3 2.5 1.3 1 .6 14.5-7.3 12.3-6.1 2.1-1.1-.7 3.1-.9 3.8-.8 3.7-.8 3.6-.8 3.5-.8 3.4zm-211.1-304a12.8 12.8 0 0 1 -3.4 4.3c-5.4 4.8-13.1 4.2-21.2-4.8c-9.4-10.4-7-18.6-2.6-22.6a9.6 9.6 0 0 1 4-2.4l1.6 3.2c-.9 .3-1.8 .6-3.3 1.9c-3 2.6-4 8.5 3.3 16.6s12.8 7.9 16.3 4.9a9.9 9.4-1252 0 0 2.4-3.1zm.5-15.1c4.6 6.4 8.2 5.8 10.7 4a9.6 9.6 0 0 0 3-3.4l2.3 2a14.4 14.4 0 0 1 -4.1 4.5c-5.2 3.8-10.8 1.7-15.4-4.7c-4.8-6.7-4.9-13.1-.5-16.2c4.4-3.2 9.4 0 12.7 4.6l1.3 2zm5-7.4c-2.9-4.2-5.9-4.8-7.5-3.6c-2.2 1.7-1.1 5.6 .8 8.5zm9.4-10.5c-1.1-1.9-2.5-4-3.5-5.6l3.3-2 2.2 3.4 .1-.1c-.4-2.6 .5-5.4 2.6-6.7q.4-.3 .8-.4l2.1 3.5-.8 .5c-2.3 1.4-2.8 4.5-1.7 7.2a16.1 15.4-1252 0 0 1 2.1l7.1 12.3-3.6 2.2zm17-23.7 2.5 5.4 4.6-2.2 1.3 2.8-4.6 2.2 6.4 13.8c1.4 3 2.9 3.3 4.3 2.6a6.4 6.4 0 0 0 1.5-.9l1.5 2.8a9.6 9.6 0 0 1 -2.7 1.8c-1.5 .8-3 1-4.4 .5c-1.5-.6-2.7-1.9-4.2-5.2l-6.3-13.5-2.9 1.4-1.3-2.8 2.9-1.4-1.8-3.9zm17.5-8.4c.6 1.5 0 2.9-1.5 3.5c-1.3 .5-2.6-.1-3.2-1.6c-.5-1.5 .1-2.9 1.4-3.4c1.4-.6 2.7 0 3.3 1.5m7.1 31.9-9-24 3.9-1.6 9 24zm13.3-5.2-5.9-21.9-3.2 1-.8-2.9 3.2-1-.4-1.7c-1.2-4.4-.3-10.1 6.7-12.3a9.6 9.6 0 0 1 5.2-.3v3.3a9.6 9.6 0 0 0 -4.5 .3c-4.1 1.2-4.4 4.3-3.3 8.1l.3 1.2 11.4-3.5 6.7 24.9-4 1.2-5.9-21.9-7.4 2.2 5.9 21.9zm36.9-9.9a9.6 9.6 0 0 1 -4.2 1.8c-5.7 1.1-10.2-2.7-11.5-11.1c-1.1-7.4 1.7-14 8.3-15.3a9.6 9.6 0 0 1 3.8 .1l-.3 3.5a6.9 6.6-1252 0 0 -3-.1c-4.2 .8-5.3 6-4.5 11c.9 6 3.8 9.1 7.6 8.4a6.4 6.4 0 0 0 2.9-1.3zM308 49c.1 2 .3 4.2 .5 5.9l-3.7 .3-.4-2.7h-.2a6.4 6.4 0 0 1 -5.1 3.6c-3.5 .3-6.3-2.3-6.5-6.8c-.3-6.5 4.8-9.9 10.8-10.5l0-.8c-.2-3.5-1.2-5.8-4.5-5.4a7.6 7.2-1252 0 0 -4.3 1.7l-1.1-2.8a12.8 12.8 0 0 1 6.1-2.3c5.2-.5 7.6 2.7 7.9 8.5zm-4.4-7.2c-2.1 .2-7.2 1.1-6.9 6.7c.2 3.4 1.9 4.5 3.4 4.3c1.8-.2 3.3-1.7 3.6-4.3a6.4 6.4 0 0 0 .1-1.5zM330.2 54a9.6 9.6 0 0 1 -4.4 1c-5.8 0-9.3-4.6-8.9-13.2c.4-7.5 4.5-13.6 11.1-13.5c1.4 0 2.9 .4 3.6 .8l-1 3.4a6.9 6.6-1252 0 0 -3-.7c-4.2 0-6.3 4.9-6.6 10c-.3 6.1 1.8 9.8 5.7 9.8a6.4 6.4 0 0 0 3-.7zm6.9 1.2 3.5-25.9 4.2 .3-3.5 26zm8.8-32.3c-.2 1.6-1.3 2.6-2.9 2.5c-1.3-.1-2.2-1.3-2-2.9s1.4-2.6 2.8-2.5c1.5 .1 2.3 1.3 2.1 2.9m23 23.5c-2.2 9.9-7.5 12.5-11.5 11.8c-4.6-.8-7.4-5.6-5.4-14.7c2.1-9.3 7.1-12.5 11.5-11.7c4.6 .8 7.4 5.8 5.3 14.6m-12.8-2.2c-.9 4.3-1.5 10.2 2.2 10.8c3.5 .6 5.6-5.2 6.5-9.3c.9-3.9 1.5-10.1-2.1-10.7c-3.6-.6-5.7 5.3-6.6 9.2M372 22.6l-7.2 6.2-2.7-.5 5.7-6.4zm8 19.8c1-2.9 1.4-4.5 2-6.5l3.4 1-.8 3.1 .1 0a7 7 0 0 1 6.9-1.7c3.4 1 5.1 4.3 3 10.4l-5.8 16.8-3.9-1.2 5.6-16.1c1-3 1.5-6.1-1.4-6.9c-1.6-.5-3.7 .4-5.1 2.9a9.6 9.6 0 0 0 -1 2.2l-5.4 15.7-4-1.2zm37.4 23.2-7.5 8.6-3.5-1.8 25.4-28.6 4 2.1-11.1 36-3.6-1.9 3.4-10.8zm8.3 .4 2.9-9.1c.8-2.6 1.9-5.4 2.9-8.1l-.2-.1c-1.7 2.2-3.8 4.8-5.4 6.7l-6.3 7.4zm16.9 3.4c1.9-2.5 2.8-3.9 4-5.6l2.9 2.1-1.9 2.8 .1 .1a6.4 6.4 0 0 1 6.9 .4c1.9 1.4 2.9 3.5 1.9 6.4l.1 .1a8.3 8.3 0 0 1 3.9-.9q1.9 .1 3.5 1.3c2.8 2 3.4 5.7-.8 11.1l-10.7 14-3.3-2.4 10.2-13.3c2.1-2.8 3.8-5.7 1.3-7.6c-1.4-1-3.5-.7-5.5 1a16.1 15.4-1252 0 0 -1.6 1.8l-10.4 13.6-3.3-2.4 10.6-13.9c1.8-2.3 3.3-5.1 .8-6.9c-1.4-1-3.6-.8-5.7 1.2a13.8 13.2-1252 0 0 -1.5 1.7l-10.3 13.5-3.2-2.4zm43.2 10.5 2.8 2.8-10.5 10.4 .1 .1c2.8-1 4.8-.3 6.4 1.3c2.9 2.8 1.6 8.3-4.7 14.5c-6.8 6.8-12.7 7.2-15.5 4.4c-1.9-1.9-1.7-4-.8-6.3l-.1-.2-2.7 2.2-2.4-2.4c1.2-1.1 3.4-3.1 4.7-4.4zm-17.7 23.1a7.8 7.5-1252 0 0 -1.1 1.3c-2.1 3.5-1.4 5.2-.6 6c2.3 2.3 6.4-.1 10.5-4.2c3.8-3.8 6.3-7.9 3.9-10.2c-1.3-1.4-4.2-.7-6.1 .6a18.4 17.6-1252 0 0 -1.4 1.2zm7.2 21.4 20.6-17.2 2.6 3.1-20.6 17.2zm28.7-18.2c-1.3 1.1-2.8 1.1-3.7-.1c-.9-1-.6-2.5 .6-3.5c1.3-1.1 2.8-1 3.6 0c1 1.2 .7 2.6-.6 3.6m-8.3 23.2c-6.7 4.7-6.4 8.3-4.7 10.7a9.6 9.6 0 0 0 3.2 2.9l-2.1 2.3a12.8 12.8 0 0 1 -4.3-3.9c-3.5-5-1-10.7 5.7-15.4c7-5 13.5-5.2 16.4-1s-.5 9.3-5.4 12.7a27.6 26.4-1252 0 1 -2 1.3zm7.2 4.8c4.4-3 5.2-6 4.1-7.6c-1.5-2.2-5.6-1-8.6 1zm10.2 9.2c2.8-1.5 4.1-2.4 5.9-3.5l1.7 3.1-2.8 1.8 .1 .1a6.4 6.4 0 0 1 5.9 3.4c1.7 3.1 .5 6.8-5.1 9.9l-15.7 8.6-1.9-3.6 15-8.3c2.8-1.5 5.3-3.6 3.9-6.2c-.8-1.5-2.9-2.2-5.6-1.3a9.6 9.6 0 0 0 -2.2 1l-14.7 8.1-1.9-3.6zm25.4 22.8-5.8 2.5 1.9 4.6-2.9 1.3-1.9-4.6-14.6 6.3c-3.2 1.4-3.6 2.8-3.1 4.2q.4 1 .8 1.5l-2.9 1.5a9.6 9.6 0 0 1 -1.6-2.6q-1-2.3 0-4.4c.7-1.5 2.2-2.6 5.6-4.1l14.2-6.2-1.2-2.9 2.9-1.3 1.2 2.9 4.2-1.8zM522 201.4c-2 .6-4.1 1.4-5.7 2.1l-1-3.5 2.6-1.1 0-.2a5.4 5.4 0 0 1 -4.5-3.9c-1-3.3 1.1-6.7 5.5-8.2c6.4-2.1 10.6 2 12.3 7.5l.8-.3c3.4-1.1 5.4-2.7 4.6-5.8a7.7 7.3-1252 0 0 -2.5-3.6l2.6-1.8a10.6 10.6 0 0 1 3.4 5.2c1.4 4.9-1.3 8.1-6.9 10zm6.2-6.2c-.6-2-2.4-6.7-7.9-4.8c-3.4 1.1-4 3.1-3.6 4.5c.5 1.7 2.2 2.7 4.9 2.4a6.4 6.4 0 0 0 1.5-.3zm-9.3 21-.8-4 36.9-8.7 .8 4zm19.3 42c4.8-.6 10.2-1.2 14.3-1.3v-.2a216.6 206.4-1252 0 1 -12.8-2.1l-17.2-3.4 0-2.7 16.4-5.2a168.3 160.3-1252 0 1 13.4-3.8v-.1c-4.3 .3-9.4 .4-14.6 .5l-15.5 .3-.1-3.7 36.7-.1 .1 4.5-16.7 5.2c-4.8 1.5-8.4 2.7-12.6 3.7v.2c4.2 .4 7.7 1 12.7 1.9l16.8 3 .1 4.6-36.6 4.4 0-3.9zM526.8 288q-4.2-.2-7.1-.3l.4-3.6 2.8-.1v-.1a6.4 6.4 0 0 1 -2.5-5.8c.6-4.5 4.4-6.1 10.8-5.6l16.5 1.3-.5 4.1-15.9-1.2c-4.1-.3-7.2 .1-7.6 2.9c-.3 2.4 1.8 3.7 3 4q1 .3 2.3 .4l17.2 1.3-.5 4.2zm10.2 12c3 .6 4.5 .7 6.6 1.1l-.9 3.5-3.1-.4 0 .1a6.8 6.5-1252 0 1 2 6.6c-.9 3.5-4.1 5.7-10.2 4.4l-17.2-3.4 1-4.1 16.4 3.2c3.1 .6 6.2 .6 6.9-2.3c.4-1.7-.6-3.6-3.2-4.6a9.6 9.6 0 0 0 -2.2-.7l-16.1-3.2 1-4zm-25.7 20.7 24.9 7.4-1.4 4-24.9-7.4zm29.8 13.6c-1.5-.4-2.2-1.7-1.7-3.2c.4-1.3 1.8-1.9 3.4-1.5s2.2 1.8 1.8 3.1c-.5 1.4-1.9 2.1-3.4 1.6m-38.9 11.1a9.6 9.6 0 0 1 .9-4.4c2.3-5.3 8.1-7.3 16.1-4.2c6.9 2.7 11 8.4 8.4 14.4a9.6 9.6 0 0 1 -2.2 3.1l-2.8-2a6.4 6.4 0 0 0 1.8-2.5c1.7-3.9-2.1-7.4-6.8-9.2c-5.6-2.2-9.9-1.3-11.5 2.2a6.4 6.4 0 0 0 -.5 3zm-3.8 6.1 23.1 11.3-2 3.7-23.2-11.2zm27 18.2c-1.4-.7-1.9-2-1.2-3.4c.6-1.2 2.1-1.7 3.5-1s1.9 2.1 1.2 3.4c-.7 1.3-2.1 1.8-3.6 1.1m-18.3 2.8c3.4 2 5.4 3.1 6.9 4l-2 3.1-2.9-1.5-.1 .1c1.5 2.7 1.2 4.9 .1 6.7c-2.6 3.9-8.3 4-15.5-.4c-8.2-5-9.2-10.3-6.9-13.9a5.1 5.1 0 0 1 5.1-2.4l.1-.1-10.9-6.6 2.2-3.5zm-9.3-.8a9.2 8.8-1252 0 0 -1.9-.9c-3.6-1.2-5.2 .1-5.8 1.1c-1.9 3 1.4 6.4 5.8 9c4.5 2.8 9.1 3.9 10.9 1.1c1-1.6 0-4.3-1.8-5.7a11.5 11-1252 0 0 -1.6-1.2zm-24.2 26.9a64 64 0 0 0 -4.8-3.4l2.4-2.9 2.3 1.4 .1-.1a6.1 6.1 0 0 1 .9-6.1c2.2-2.8 6.2-3.1 9.7-.4c5.1 3.9 3.9 9.8 .2 14.6l.6 .5c2.7 2.1 5.1 2.8 7.2 .2a7.7 7.3-1252 0 0 1.8-4.2l2.8 1a11.8 11.8 0 0 1 -2.6 5.9c-3.4 4.2-7.4 3.8-11.9 .4zm8.5 1.3c1.4-1.7 4.3-6-.1-9.4c-2.7-2.1-4.7-1.4-5.6-.3c-1.2 1.4-1.1 3.5 .6 5.4a6.4 6.4 0 0 0 1.1 1zm-22.5 5.1 2.9-3 26.7 25-2.9 3.1zM410.2 98.8c-1-.4 .1 .9-.8-.1c.3-.2 .6-.3 .7 .1m1.2 .6c0 .4 .5 1-.3 1.2c.1-.4 0-.9 .3-1.2m13.7 14.4c.1-.1 .1 .3 .1 .4c-.2-.1-.6 0-.6-.3c.2 .1 .3-.1 .5-.1m3.7 3.2c-.3 .2-1.3-.2-1.8-.5zm2.5 4.1q.1 .7-.5 .2c.1-.2 .3-.1 .5-.2m7.4 7c.2 .2 .8 .3 .6 .7c0-.4-1.1-.5-.6-.7m3.7 2.8c.1 .1 .1 .2 .3 .3c.1 .3-.3 .3-.5 .2zm43.1 70.6l.4 0 0 .4zm7 37.1c.3 .5-.3 .4-.4 .5c-.1-.4 .4 .1 .3-.5m2.2 20.2 0-.2 .7 .1zm-314-126.5c-.5 .7 .8 .1-.2 .6c-.1-.3-.2-.5 .2-.6m.6-.7c.4 .1 1-.1 1.1 .6c-.3-.2-.8-.3-1-.6m14.1-7.5c0-.1 .3 0 .4 0c-.1 .1 0 .5-.3 .4c.1-.2 0-.3 0-.4m3.1-2.3c.2 .3-.3 1.1-.6 1.4zm3.7-1.1q.6 0 .1 .4q-.1-.2-.1-.4m6.6-4.7c.2-.1 .3-.6 .7-.4c-.3-.1-.5 .9-.6 .4m2.7-2.6c.1 0 .2 0 .2-.2c.3 0 .2 .3 .1 .5zm58.8-29v-.4l.4 .1zm28.7-5.8c.4-.3 .3 .3 .4 .3c-.3 .1 .1-.4-.4-.3m15.4-2.9 .1-.7 .1 .7z"/></svg>