<svg fill="currentColor" xmlns="http://www.w3.org/2000/svg" viewBox="0 0 640 512"><path d="M442.5 135.1a.4 .4-1340.4 0 1 -.2 0 .4 .4-1340.4 0 1 .2 0m-7.6-8.4a.7 .6-1340.4 0 1 .3 .2q-.3-.1-.3-.2m-11.2-10.7a1.2 1.1-1340.4 0 1 -.6-.1q.5-.1 .5 .1m.4-.3v.1c.4 .6 .4 1.5-.2 1.6c-.3-.3 .3-.3 .3-.6c-.5 0-.4-.5-.6-.8q.3-.1 .4-.3m.1-.2a2.3 2.1-1340.4 0 1 -.1 .2q0-.2 .1-.2m-13.9-12.6 2.1-.1c.3 .6-.9 .3-.9 .9c0 .5 1.1 1 1.5 .7c-.3-.3-.4-.2-.8-.2c.3-.7 .9-.3 1.4-.6c-.1-.1-.3-.3-.4-.3c.5 0 .9 .2 1.5 .5c-.5 0-.2 .3-.3 .5c.4-.4 1.2-.2 1.8 .4c.1 1 1.8 .6 2.6 1.4a4.2 4.2 0 0 1 -2.3 .3c.4 .6 .6 .4 1 1.1c.6-.2 1.2-.7 2.1-.5l-.3 .4c.8 .3 1.3-.3 2 .4c1.3 1.2 2.8 2.3 3.8 3.2l-.3 .4c1.3-.4 2.2 1.2 3.4 1.5c1.1 1.4 3.3 2 3.4 3.2c2.6 1.7 4.9 3.2 7.1 5.4l-.9 .2c.8 0 0 .6 .4 .9c-.1-.9 1.1 0 1.7-.1c.6 1.4 2.4 2.2 3.6 2.7l-.3 .4c1.6 .2 2 1.9 3 3.1c0 .3-.2 .8 .2 1.1c1.2 .1 1.4 .4 2.7 1c.6 .7 1.5 1.9 1.8 2.9c3.2 1.8 4.9 5 7.6 7.4l-.3 .6c3.2 2 4.7 6.2 6.9 8.3l-1 .3c.3 1 1.4 1.6 1.9 1c.3 1 1.7 1.7 1.3 2.7c.4 .9 1.1 .7 1.6 1.3a12.8 12.8 0 0 0 1.9 3.5c-.3 0-.5 .2-.4 .6c.6 .4 1 2.3 1.7 1.1c.3 2 2.7 3.7 2.8 5.8c.2-.3 .5 .1 .8 .2c.8 1.5 1 3.4 2.1 4.4c0 .3-.7-.1-.4 .5c.3 .3 .4-.2 .8 .2c1.8 2.2 1.8 5.4 2.9 7.6c2.3 3.8 3.7 8.4 5.2 12.5h-.2c1.3 1.1 .2 3.6 1.8 4.2c-.1 .4 .3 1.3-.3 1.2c.9 .8 .4 2.9 1.3 4.3c0 1.8 1 3 1 4.8c-.1-.1-.3-.4-.5-.4c-.3 .8 1.3 1.3 .3 2c.1 .3 .5 .2 .5-.1c.4 3.9 1.9 7.7 2.8 11.7c-.2 3-1.9 .6-.7 2.7c-.2 .2 .4 0 .2 .1c.4 .8-1.1 1.6-.4 2.1c.6-.4 .4 .3 .9 .3c-.2 1.9-.8 2.3-.1 3.6h-.4c1.2 1.4 .8 3.4 2.2 4.6c1 9.1 1.7 17.9 1.3 27c-.8 8.9-1.4 17.7-3.8 26.7c-1.4 2-1.4 2.1-1.5 4.5c-.1-.1-.1-.3-.3-.1c.8 .3-.3 1.6 .4 2c-1 3.3-1.5 6.3-2.5 9.7c.1-.6-.5-1-.6-.3l.3 .8-.3 .1c0 .4 .2 1 .6 .6c-1.9 8.6-6.5 16.4-9.9 24.3c-1.2 1.8-2.1 4.5-3 6.6c-3.9 5.6-7.6 10.4-10.5 16.5c0 0-1.3-1.7-.3-4.3c.2-3.8 4.1-7 4.8-10.9c.1-.4 .8 .5 1.1-.5c.4-3.9 3.7-8.7 6.5-12.5l.2 .3c.5-.7 0-2 .5-2.8c.2 .1 .1 .4 .4 .3c-.4-.4 .4-1.6 .1-2.1c.3-.3 .7-.1 1.2-.4l-.4-.7c-.9-1.8 1.4-3.2 1.3-5.3c.1 .1 .1 .3 .3 .2c.2-3.2 1.6-6.9 2.2-10.3c.2 .2 .6 .4 .9 .3c-.6-.3-.4-1.4-.3-2.3c.8-.3-.2-1.7 .4-2.7l.2 .1c-.5-.9 .7-1.1 0-1.9l.7-.4c-.9-.5 .8-1.1 .5-1.8h-.2c-.1-.6 .5-.9 .5-1.5h.1c.1-1.4 .8-2.1 0-2.2c.7-.4 0 1.3 1.1 .7c.2-4.5 1.3-9 1.9-13.5c.4-.4 .5-.8 .8-.9c-.1-.4 .1-1.6-.2-2.1c.1 0 .4-.3 .5-.5c.4-.8-.7-1-.3-1.8q.3 .5 .7 .4c-.5-.8-.3-1.8-.4-2.7c.1 .1 .2 .4 .4 .3c-.6-1 .4-1.8 0-2.7l.4 .3c.7-1.4-.9-.4-.4-1.6c.1 .3 .3 .2 .5 .2c-.7-1.2-.3-2.9-.5-4.1q.2 .1 .2 .1c0-1.2 .3-2.5 0-3.8c.2-.5 1.1 .1 1-1.2c-.9 .1-.3-2.2-1.3-1.4c.2-1.1 .5-2.9 .3-3.6c.3 .5 1.1-.6 1.2 .3l.5-.7c.4 .1-.1 .7 .3 .5c0-.4-.4-1.8-.2-2.2c-.5-.8-1.6-1.5-1.7-2.9c.3 .5 .8-.2 1.1-.1l-1.6-1.7c-.1-.4 .7-.2 .4-.8c-.3 .1-.4-.2-.6-.4c.1-.2-.3-1.9 .6-2.2c.3-.2 .2 .7 .5 .2c0-.8-.3-.8-.4-1.7l.1 0c.1-.6-.5-1.6-1-1c0 .4 .5-.2 .3 .4c-.5-.3-.7-1.3-.8-2.1c.2 .3 .4 .2 .6 .3c-.7-1-1-2.1-1.4-3.3c.2 .1 .5 .2 .6 .4c.4-1.6-1.1-3-.5-4.4c-.1 .1-.5 .1-.4 .1c0-.8 .6-.9 .3-1.3c.3-.1-.2-.6-.4-1.1c-.2-.2 0-.2 .1 0a10.9 10.9 0 0 1 -.9-4.9c-.2 .1-1-.8-1-1.2h.6q.1-.2 .1-.4q-.1-.1 0-.2q-.1-.3 0-.6a6.9 6.4-1340.4 0 0 .2 .6h.1a2.5 2.4-1340.4 0 0 -.2-.6l.2-.1q-.3-.2-.2 .1c-.3-.5-.5-1-.3-1.5c-.1 .2 .9 .4 .7-.2c-.3-1-.3-.2-.6-1.1l-.3-.5c-.5 .1-.1-.9-.5-.5c.2-.3-.6-1.4 .3-1.5l.7 0c-.2-.4-.9-.6-1.3-.9q.1-.1 .3-.2c-1 .2-.1-1.2-1-1.5c.2-1.1-.5-2.4 .1-3.1c-.5-.6-1-1.2-1-2.1c.1 .2 .2 .4 .4 .4c.2-.6-.1-.6-.4-1.1c.2 .1 .4-1.2 .6-1.9c-.5-.6-1-.2-1.4-.2c.9-1-1.2-1.8-.5-2.9c.2 .2 .8 .9 .9 .2c.8-1-1.2-1.1-1-2.3l-.8 .6c.4-.6-1-1.4-.1-1.6c-.4-.2-.1-1.3-.9-.9c.2-2-1.7-4-.6-5.6c-.2-.2-.3-.9-.6-.6c-.3 .6 .5 .4 .3 .7q-.2-.2-.5-.1c0-.6-.1-1.1 .8-.8c.1-1.4-1.8-.6-2-2.2q.5-.1 .2-.7l-.9-.6c-.3-1 .5-.9 1.1-1.2c-.3-.5-.5-1.1-1-1.2l.4-1c-.3 .7-.5-.3-.7-.4l.2 .2c.2-.2-.2-.7-.4-1c-.3 .2-.2 .9-.2 1.2c-.4-.2-.5-.6-.9-.8c.6-.1 .1-1-.1-1.4c-.1-.5-.7-.3-.7-.4c.3-.2-.3-.8 .3-.6c.2 .1-.1 .5 .2 .6c.1-.4 .6-.6 0-1.1c-.5-.4-1 .6-1.1-.4c.2 .2 .5 .1 .7 .2l-.1-1-.5 .2c.1-.2 .2-.1 .2-.2c-.6 0-.7-1.2-1.4-1.1c-.2-.4-.1-1.1-.2-1.5l.1 .1c.1-.6-.4-1.2-1-1.4h.1a1.9 1.9 0 0 0 -.9-1.1c0-.8 1.7-1.2 .8-1.6c-.3-.7-1.4-.6-1.6-.1c-.3-1.4-1.7-2.3-1.6-3.8c-.3-.1-.3 .1-.6-.2c-.7-1.9-2.6-3.3-2.4-5.2c.5 .4 .5-.3 .7-.4c-.6-.2 .2-.8-.6-.4c-.4 .3-.6 .4-.5 1c-.8-.9-1.7-2.4-1.7-3.2c0 .4-.3 .3-.5 .1c.7-.4 .4-1.2-.2-1.6l-.4 .2 .2-.6c-.3-.1-1 .3-1-.4a1 1 0 0 0 .3-.4c-.7-.4-1.7-.8-1.8-1.6l.3-.9c-.2-.2-.9-.4-.7 .2c-.3-1.3-.7-2-.5-2.7c-2.4-.9-4.3-3.4-5.7-5.4l.3-.2c-.1-.7-.7 .1-.8-.4c.4 0 .3-.9 1-.7c-.3-1-1.3-.6-1.8-1c-.4 .2 .6 .2 0 .5c-.2 0-.5-1.3-1.2-1c.1-.3 .6-.5 .9-.6l-.6-.2c.2-1.1 2.2 .3 2.6-.9l-.4-.4c.3-.9 1.6 .6 1-.6c-.7-.3-1.8 0-1.7 .6c-1-.8-1.7 .6-2.5-.4c.1-.5 .7 .8 1.1 .2c0-.9-1.1-.8-1.3-1.3c.2 .6-.7 .7-1 .5c-.2-.7 .8-.1 .2-.9c-.4 .2-1.2-.3-1 .4c-1 .4-.4-.9-1.3-.8c.3-.7 1.8-.3 1.4-1.3c-.4 .5-1.5-.4-1.9 .6c-.1-.4 .2-.8 .7-.8c-.1-.7-1.8-.3-1-1.3l-.6 .3 .1-1.1c-.3-.4-1.8-.6-1-1.3c-.2 0-1-1-1.2-.1c.2 .8 1 .3 .5 1.2c.2-.9-.8-.7-1.3-.9l.3-.3c-.3-.1-.5-.4-.9-.4a.3 .3 0 0 0 .2-.4l-.6 .2c-.9-.5 .6-.9-.2-1.5l.8 .2c-.2-.1 0-.7-.5-.9c-.5 .2-1.2 .4-1.6 .6c-.5-.2 .1-.5-.3-.6l.7 .1c.2 0 .3-1-.2-1.5c-.5-.2-1.5-.2-1.2 .5c-.3-.3-.4-.9 .1-.9c-.7-.5-.3 .5-1.1 .2c.1-.4-.2-1.5-.3-2.2l1.2-.1-.4-.4c1 0 .1-.6 1-.9c-.2-.3-.7-.4-1.1-.5c-.1 1.6-2 .4-2.6 1.4c-1.2-.7 1.2-2.6-1-2.3c0 .3-.6 .4-.5 .6c-.5-.1-1 .4-1.3-.4c.9 .2 .2-1.3 1.4-1.1c-.3 .2 .3 .6 .4 .6c0-.5 .8-.7 .2-1.3c-.5-.3-1.1-.8-1.4-.3c-.4 .5 .7 .5 0 .7c-1-.6-.4-1.4-1.5-.9c.6 .4 .2 1-.1 1.3l-.8-.3 .4-.2c-.8-1.1-.8 .3-1.7-.6l.1-1c.7-.4 1.2 1.4 1.8 .4c-.6-.6-1.2-.3-1.5-1l.6 .2c-.2-.2 .6-1.5-.8-1.6c-.7-.2-.4 .2-.7 .5c-1.1-.7-1.7-.6-2.3-1.2c.7-.5-1.1-1 .2-1.1c0 .6 1.5 1.8 2.4 1.5c.3-1.1 .6 .7 1.6 .2c-.8-.7-.1-1.4 .2-2c-.2-.2-.6-.2-.8-.2c-.5 .4-.2 .6-.6 1.1a3.5 3.5 0 0 0 -2.8-1.3c-.1-.5 .4-.9 .8-.6a19.9 18.6-1340.4 0 1 -3.2-2.7c0 1.1-1-.2-1.3 0q.2-.5 .5-.8c-1-.2 .4-.4-.3-1a15.1 14.1-1340.4 0 1 -3-1.1c-.6-1.3-2.6-1.9-3.6-2.5c-.3-.6 .6-1.1 .2-1.6c-.6-.4-.1 1.1-.8 .1l.2-.1c-.4 0-1.2-1.5-2.2-1l.6-.4c-.1-.2-.4-.1-.6-.2c.2-.3 .2-.6 .5-.6c-.2-1-1.3-.7-1.9-1.1l.1 .7c-1.3-.3-1.8-1.3-2.9-1.8l.3-.4-.8-.1c.4-.3 .2-.7-.2-.8m76.5 118.3v-.1zm-73.5-117.9h-.2q.1-.1 .2 0M471 159a.7 .6-1340.4 0 1 .1 0l.2 .4zm18 42.6v-.1q.2 .2 .2 .4zm-.7 33.3q-.3-.1-.1-.1zm-2.6-17.5-.1 .1zM410.2 102.9h-.3a.7 .6-1340.4 0 1 .3 0m77 119.6 .2 .4q0-.2-.2-.4m-56.6-100c-.1-.2-.7-.4-.3-.6q.3 .3 .3 .6m0 0v.1zM186 133.3a2.3 2.1-1340.4 0 0 0 .2q-.1-.1 0-.2M237.9 94a.4 .4-1340.4 0 1 0-.2l.3-.1zm34.4-13.2q.1-.2 .3-.2a2.3 2.1-1340.4 0 1 -.3 .2m-87.1 54.8v.3a.4 .4-1340.4 0 1 0-.3M328 78h-.1zm-30.1 3.8q-.1 .2-.1 0zm-81.5 33.8a.4 .4-1340.4 0 1 0 .2 .4 .4-1340.4 0 1 0-.2m-7.7 4.9a.4 .4-1340.4 0 1 .2-.2q-.1 .2-.2 .2m-10.3 7.2a.8 .7-1340.4 0 1 -.2 .4q-.1-.4 .2-.4m-.3-.4h.1c.6-.2 1.4 0 1.4 .5c-.3 .2-.3-.3-.5-.4c0 .4-.4 .2-.7 .3q0-.3-.3-.4m-.2-.1 .2 .1zm-12.7 8.4 .2-1.7c.5-.1 .1 .8 .6 1c.5 .2 1.1-.6 .8-1.1c-.3 .2-.2 .3-.3 .6c-.6-.4-.2-.8-.3-1.3l-.3 .2q.1-.6 .7-1.1c-.1 .4 .3 .3 .4 .3q-.4-.7 .6-1.3c.9 .2 .7-1.3 1.5-1.8a3.2 3.2 0 0 1 0 2c.6-.1 .4-.4 1-.6c-.1-.5-.5-1.2-.1-1.9l.3 .3c.4-.6-.1-1.1 .6-1.6c1.2-.8 2.3-1.8 3.2-2.4l.3 .3c-.2-1.2 1.3-1.6 1.7-2.5c1.4-.5 2.1-2.3 3.1-2.1c1.7-1.8 3.2-3.5 5.3-4.9l.1 .8c.1-.7 .5 .2 .8-.2c-.7-.1 .1-1 .1-1.5c1.2-.2 2.1-1.6 2.6-2.6l.3 .4c.3-1.3 1.8-1.4 2.9-2c.2 .1 .6 .3 1 .1c.1-1 .5-1.2 1.1-2.2a9.6 9.6 0 0 1 2.5-1.1c1.8-2.5 4.6-3.4 6.8-5.4l.4 .4c1.9-2.5 5.4-3.2 7.2-4.9l.2 1c.8-.1 1.4-1 1-1.6c.8-.1 1.5-1.3 2.2-.8c.7-.2 .6-.8 1.2-1.2c1.4-.3 1.9-.6 2.9-1.3c0 .3 .2 .5 .5 .4c.4-.5 1.9-.6 1-1.4c1.7-.1 3.1-2 4.8-1.8c-.2-.3 .1-.4 .2-.7c1.2-.6 2.8-.5 3.6-1.5c.3 .1-.2 .6 .4 .4c.3-.2-.1-.4 .2-.7c1.9-1.4 4.4-1.1 6.2-2c3.1-1.9 6.8-2.8 10-3.9v.2c.9-1.2 2.8 .1 3.4-1.5c.3 .1 1-.2 .9 .3c.6-.8 2.3-.3 3.4-1.1c1.4 .1 2.3-.8 3.8-.7q-.3 .2-.3 .5c.6 .3 1-1.3 1.5-.3c.3-.1 .1-.5 0-.5c3-.3 6.1-1.7 9.1-2.6c2.3 .2 .4 1.9 2 .7c.2 .2 .1-.4 .1-.2c.6-.4 1.2 1.1 1.6 .4c-.3-.6 .3-.4 .2-.8c1.4 .2 1.8 .8 2.8 .1l0 .4c1.2-1.2 2.7-.9 3.6-2.2c7-1.2 13.7-2.5 20.6-2.8c6.8 0 13.5-.4 20.3 .7c1.5 1.1 1.6 1.1 3.4 .8q-.2 .2-.1 .3c.2-.8 1.2 .1 1.5-.7c2.5 .4 4.9 .4 7.4 .8c-.4 0-.8 .6-.3 .6l.6-.4v.2c.4-.1 .8-.4 .5-.7c6.6 .2 12.5 3 18.7 4.4c1.3 .7 3.5 1 5.1 1.2c4.3 2.3 8.1 4.5 12.9 5.4c0 0-1.4 1.7-3.5 1.5c-3 .9-5.5-1.9-8.6-1.6c-.3 0 .4-1-.4-.9c-3.1 .6-6.8-1.3-9.7-3.1l.3-.2c-.6-.3-1.6 .4-2.2 .1c0-.2 .3-.2 .2-.5c-.3 .5-1.2 0-1.6 .4c-.2-.3-.1-.7-.3-1l-.5 .5c-1.4 1.3-2.5-.6-4.1-.1q.3-.2 .2-.4c-2.5 .5-5.3-.1-8-.2c.2-.2 .3-.6 .3-.9c-.3 .6-1.1 .7-1.8 .8c-.2-.7-1.3 .5-2 0l.1-.1c-.7 .6-.8-.5-1.5 .3l-.3-.6c-.4 1-.8-.6-1.4-.2v.2c-.5 .2-.7-.3-1.2-.2V79c-1.1 .2-1.6-.4-1.7 .3c-.3-.6 1-.2 .6-1.1c-3.5 .5-6.9 .1-10.3 0c-.4-.3-.6-.4-.6-.7c-.4 .1-1.3 .1-1.6 .5c0-.1-.3-.4-.4-.4c-.6-.3-.7 .8-1.4 .5q.4-.3 .3-.7c-.6 .6-1.4 .5-2.1 .7c.1-.1 .3-.2 .3-.4c-.8 .7-1.4-.1-2.1 .3l.3-.5c-1-.5-.4 1-1.3 .6c.2-.2 .2-.3 .2-.5c-.9 .8-2.2 .6-3.1 .9q.1-.1 .1-.2c-1 .1-1.9-.1-2.9 .3c-.4-.2 .2-1.1-.8-.9c0 .9-1.7 .5-1.1 1.4c-.8-.1-2.1-.3-2.7 0c.4-.4-.4-1.1 .3-1.2l-.5-.5c.1-.4 .5 .1 .4-.4c-.4 .1-1.4 .5-1.7 .4c-.6 .6-1.2 1.7-2.2 1.9c.4-.3-.1-.8-.1-1l-1.3 1.7c-.4 .1-.1-.7-.6-.4q0 .3-.3 .6c-.1-.1-1.4 .3-1.6-.5c-.2-.3 .5-.3 .1-.5c-.6 .1-.6 .4-1.3 .4v-.1c-.4-.1-1.3 .5-.8 1c.3 0-.1-.5 .3-.3c-.3 .5-1 .8-1.7 .9c.2-.2 .2-.4 .3-.6a9.6 9.6 0 0 1 -2.6 1.5c.1-.2 .2-.5 .3-.6c-1.2-.3-2.4 1.1-3.4 .6c.1 .1 .1 .5 0 .4c-.6 0-.6-.6-1-.3c-.1-.3-.5 .2-.9 .4c-.1 .2-.1 0 0-.1c-.8 .4-2.6 1.1-3.8 .9c.1 .3-.6 1-1 1.1l.1-.6q-.2-.1-.4-.1q-.1 .1-.2 0q-.3 .1-.4 0l.4-.2a1.6 1.5-1340.4 0 0 -.4 .2q-.1 0-.1-.2q-.2 .3 .1 .2c-.4 .2-.8 .5-1.2 .2c.2 .1 .4-.8-.1-.7c-.8 .3-.2 .3-.9 .6l-.4 .3c.1 .5-.6 .1-.4 .5c-.3-.2-1.1 .5-1.2-.3v-.7c-.3 .1-.4 .8-.7 1.2q-.1-.1-.2-.3c.1 1-.9 .1-1.2 1c-.8-.2-1.9 .4-2.4-.1c-.5 .4-1 1-1.7 .9c.1-.1 .3-.2 .3-.4c-.5-.2-.5 .1-.9 .4c0-.2-1-.4-1.5-.6c-.5 .4-.2 1-.2 1.3c-.7-.9-1.5 1.1-2.3 .4c.2-.2 .7-.7 .2-.8c-.7-.9-.9 1-1.8 .8l.4 .8c-.5-.4-1.1 .8-1.2 0c-.2 .4-1.1 0-.8 .8c-1.5-.3-3.2 1.4-4.4 .3c-.2 .2-.7 .2-.4 .6c.4 .3 .4-.5 .6-.2c-.2 .1-.2 .3-.2 .4c-.4 0-.8 0-.6-.8c-1.1-.2-.6 1.7-1.9 1.8q0-.5-.5-.3l-.5 .8c-.8 .1-.6-.6-.8-1.2c-.4 .2-.9 .4-1 .9l-.7-.5c.5 .4-.3 .4-.4 .6l.1-.2c-.1-.2-.6 .1-.8 .3c.2 .3 .7 .3 1 .3c-.1 .3-.5 .4-.6 .8c-.1-.6-.8-.2-1.2-.1c-.4 0-.3 .6-.4 .6c-.1-.3-.6 .2-.5-.3c.1-.1 .4 .2 .5-.2c-.3-.1-.4-.6-.8-.1c-.3 .4 .4 1.1-.4 1c.1-.2 .1-.4 .2-.7l-.8 0 .1 .5-.2-.2c0 .6-1 .6-.9 1.2c-.3 .2-.8 0-1.2 0l.1 0c-.5-.1-1 .3-1.2 .7v-.1a1.6 1.6 0 0 0 -.9 .8c-.7-.2-.9-1.8-1.2-.9c-.5 .3-.5 1.3-.2 1.5c-1.1 .1-1.9 1.4-3.1 1c-.1 .3 .1 .4-.2 .6c-1.5 .4-2.8 1.9-4.3 1.5c.3-.4-.2-.5-.3-.8c-.2 .6-.6-.2-.4 .6c.2 .4 .3 .6 .8 .6c-.8 .6-2 1.2-2.7 1.1c.3 .1 .2 .3 .1 .5c-.2-.7-.9-.5-1.3 0l.1 .4-.5-.3c-.1 .2 .2 1-.4 .8a1.2 1.2-1340.4 0 0 -.4-.4c-.3 .6-.7 1.5-1.4 1.4l-.7-.4c-.2 .2-.4 .7 .1 .7c-1.1 .1-1.7 .4-2.2 0c-.9 2.1-3 3.4-4.8 4.3l-.1-.3c-.6 0 0 .6-.4 .6c0-.4-.7-.4-.5-1c-.8 .1-.6 1-1 1.4c.2 .4 .2-.5 .4 .1c0 .2-1.1 .3-.9 .9c-.3-.2-.4-.6-.4-1l-.3 .5c-.9-.4 .4-1.9-.5-2.4l-.3 .3c-.7-.4 .6-1.3-.5-1c-.3 .5-.1 1.6 .4 1.7c-.7 .7 .4 1.7-.5 2.2c-.4-.2 .7-.5 .2-.9c-.7-.2-.7 .8-1.2 .9c.5 0 .5 .8 .3 1.1c-.6 0 0-.7-.7-.4c.1 .4-.3 1 .3 1c.2 .9-.8 .2-.8 1c-.5-.4-.1-1.7-1-1.5c.4 .4-.4 1.3 .4 1.8c-.4 0-.6-.4-.6-.8c-.6-.1-.4 1.6-1.2 .6l.2 .6-.9-.3c-.3 .2-.6 1.4-1.1 .6c-.1 .2-.9 .6-.2 1c.7 0 .3-.8 1.1-.2c-.7-.4-.7 .5-.8 1l-.2-.3c-.1 .2-.4 .4-.4 .7a.3 .3 0 0 0 -.3-.3l.1 .6c-.5 .7-.7-.7-1.3-.1l.3-.7c-.1 .2-.6-.1-.8 .2c.2 .5 .3 1.2 .4 1.6c-.2 .4-.4-.2-.5 .2l.1-.7c0-.2-.8-.4-1.3-.1c-.2 .4-.3 1.3 .4 1.2c-.3 .2-.8 .2-.8-.3c-.5 .5 .4 .4 .1 1c-.4-.1-1.3-.1-1.9-.2l0-1.1-.3 .3c0-.9-.5-.3-.7-1c-.3 .1-.4 .5-.5 .8c1.3 .4 .2 1.8 1 2.5c-.8 .9-2-1.6-2 .4c.2 .1 .3 .7 .5 .6c-.2 .4 .3 .9-.5 1.1c.3-.7-1.1-.4-.8-1.5c.2 .3 .5-.1 .6-.3c-.5-.2-.6-.9-1.2-.4c-.3 .4-.8 .7-.4 1.1c.4 .4 .5-.5 .6 .2c-.6 .7-1.3 .1-.9 1.1c.4-.4 .8 0 1.1 .3l-.4 .6-.2-.4c-1 .4 .2 .8-.6 1.3l-.8-.3c-.2-.7 1.3-.6 .5-1.4c-.5 .4-.4 1-1 1.1l.2-.4c-.2 .1-1.3-.9-1.5 .4c-.2 .6 .1 .4 .4 .7c-.7 .8-.7 1.3-1.2 1.8c-.4-.7-1 .7-.9-.4c.5 .1 1.7-.8 1.5-1.7c-.9-.5 .7-.4 .3-1.3c-.6 .5-1.2-.3-1.7-.6c-.2 .1-.2 .4-.3 .6c.3 .5 .5 .3 .9 .8a2.5 2.4-1340.4 0 0 -1.4 2c-.4 0-.7-.5-.4-.8a12.8 12.8 0 0 1 -2.7 2.1c1 .2-.3 .7-.1 1.1q-.4-.3-.6-.6c-.3 .8-.3-.4-.9 0a8.7 8.1-1340.4 0 1 -1.3 2.3c-1.2 .2-2 1.7-2.6 2.4c-.6 .1-.9-.8-1.4-.5c-.4 .4 1 .4 0 .7l-.1-.2c-.1 .3-1.4 .7-1.1 1.6l-.3-.6c-.2 0-.2 .3-.2 .4c-.2-.2-.5-.3-.4-.6c-.9-.1-.8 .9-1.2 1.3l.6 .1c-.4 1-1.3 1.2-1.9 2l-.3-.4-.2 .6c-.2-.4-.6-.3-.8-.1m103.1-52.5 .3-.1q-.2 0-.3 .1m-83.8 40.3c-.2 .1-.4 .5-.6 .1q.3-.2 .6-.1m0 0h.1zm-7.3 22.1 20.4 22.8-2.8 2.5-20.4-22.7zm13-.5 2.2 2.9q-.3-1.3-.1-2.6a6 5.6-1340.4 0 1 2.7-4.2q1.8-1.2 3.6-1.1q1.8 .1 3.5 1.6q-1-4.8 2.6-7.3q1.6-1.2 3.2-1.2q1.6 0 2.9 .9t2.7 2.3a43.6 40.6-1340.4 0 1 2.6 3.4l6.7 9.7-2.9 2-6.1-9-2-2.8q-.7-1-1.3-1.4q-2.3-2.1-4.4-.6a3.4 3.2-1340.4 0 0 -1 1.1q-.4 .6-.5 1.5a6.9 6.4-1340.4 0 0 0 1.8 9.2 8.5-1340.4 0 0 .5 2 11.5 10.7-1340.4 0 0 .8 1.7q.5 1 1.8 2.8l5.3 7.8-2.9 2-6.5-9.5q-1.3-1.9-1.8-2.6a9.2 8.5-1340.4 0 0 -1.1-1.1q-1.1-1-2.2-1.2a2.6 2.4-1340.4 0 0 -2 .5q-1.2 .8-1.5 2.3q-.4 1.5 .1 3.3t1.7 3.6l6.5 9.5-2.9 2-7.1-10.4q-3.4-4.9-5.8-7.9zm30-19.3 1.8 3.5q.1-2.4 1.2-4.2a6.4 6-1340.4 0 1 2.9-2.7q1.7-.8 3.3-.7t3.2 1 3 2.6a19.9 18.6-1340.4 0 1 2.4 4 21.5 20.1-1340.4 0 1 1.4 4.6q.4 2.3 0 4.2a8.1 7.6-1340.4 0 1 -1.3 3.4q-1 1.4-2.7 2.2a7.1 6.6-1340.4 0 1 -2.7 .8 5.8 5.3-1340.4 0 1 -2.5-.4 10.1 9.4-1340.4 0 1 -2.4-1.6 45.9 42.8-1340.4 0 1 2 3.8l3.7 8.4-3.1 1.5-9-20.2q-2.1-4.7-4.2-8.9zm6.7 .2q-1.4 .7-2.1 2.2t-.6 3.5q.1 2 1 4.1a12.2 11.3-1340.4 0 0 2.3 3.4q1.4 1.4 3 1.8q1.5 .4 2.9-.3q2-1 2.4-3.7t-1-5.9a16 15-1340.4 0 0 -1.7-2.8q-.9-1.2-2-1.9a5.2 4.8-1340.4 0 0 -2.1-.8 3.9 3.6-1340.4 0 0 -2.1 .4m12-20.1 10.1 31.8-3.3 1.2-10.1-31.8zm15 19.3q1.1 3.2 3.1 4.7q2 1.5 4.4 .8q1.4-.4 2.7-1.3q1.2-.9 2.5-2.3l.8 4a15.4 14.3-1340.4 0 1 -2.7 2 10.6 9.8-1340.4 0 1 -2.7 1.2 8.7 8.1-1340.4 0 1 -4 .2 8.7 8.1-1340.4 0 1 -3.4-1.6q-1.5-1.3-2.6-3.3a19.5 18.2-1340.4 0 1 -1.7-4.7q-.7-3.4-.2-6.3t2.1-4.9a7.5 7-1340.4 0 1 4.1-2.6q2.9-.8 5 .5t3.4 4 2.1 6.2zm-.6-3.2 9.6-2.6a14.7 13.7-1340.4 0 0 -1.4-3 5.6 5.2-1340.4 0 0 -2-1.9q-1.2-.6-2.6-.2q-2 .5-2.9 2.6q-1 2-.7 5.1m20.9-14.4 .3 3.7a7.4 6.8-1340.4 0 1 1.3-2.3q.8-1 1.9-1.6t2.5-.7q2.1-.2 3.5 .9t2 3.3q1.7-4.8 6-5.2q2-.2 3.2 .6q1.3 .9 2 2.3a13.8 12.8-1340.4 0 1 .9 3.4q.3 1.9 .3 4.4l.3 12.1-3.4 .3-.3-11.3q-.1-2.2-.2-3.5a12.4 11.5-1340.4 0 0 -.3-1.9q-.8-3.1-3.2-2.9a3.4 3.2-1340.4 0 0 -1.4 .5 3.9 3.6-1340.4 0 0 -1.2 1.1 6.9 6.4-1340.4 0 0 -1 1.6 9.2 8.5-1340.4 0 0 -.6 2q-.2 .8-.2 1.9v3.4l.3 9.8-3.4 .3-.3-11.8q0-2.4-.1-3.3a9.9 9.2-1340.4 0 0 -.3-1.6q-.4-1.4-1.2-2.2a2.6 2.5-1340.4 0 0 -1.9-.6q-1.3 .1-2.4 1.2t-1.7 3-.5 4.2l.3 11.8-3.4 .3-.3-13q-.1-6.1-.4-10.1zm31.9 11.3q-.2 3.5 1.2 5.6t3.7 2.3q1.4 .1 2.9-.3q1.5-.4 3.1-1.4l-.6 4.1a15.4 14.3-1340.4 0 1 -3.2 1.1 10.6 9.8-1340.4 0 1 -2.9 .1 8.7 8.1-1340.4 0 1 -3.7-1.2 8.7 8.1-1340.4 0 1 -2.6-2.8q-.9-1.7-1.2-4.1a19.5 18.2-1340.4 0 1 .2-5.1q.5-3.5 2-6.1t3.7-3.9a7.5 7-1340.4 0 1 4.7-1.1q2.9 .3 4.4 2.2t1.7 5-.3 6.7zm.6-3.3 9.6 .8q.1-1.9-.2-3.4q-.3-1.5-1.1-2.5t-2.3-1.1q-2-.2-3.6 1.4t-2.4 4.6m23.6-6.4-1 3.6q3.2-3.5 7.3-2.5q2.2 .5 3.2 1.9a6.4 6-1340.4 0 1 1.1 3.2q.1 1.8-.3 3.9q-.4 2.1-1.3 5l-3.2 10.5-3.2-.8 3.1-10.1q.7-2.4 1-3.6t.4-2q.2-1.9-.5-3.1t-2.1-1.5q-1.6-.4-3.2 .5t-2.8 2.9a11.5 10.7-1340.4 0 0 -.7 1.4 18.3 17.1-1340.4 0 0 -.6 1.7l-1 3.3-2.5 8.3-3.3-.8 3.4-11.1 1-3.5 1.1-3.8 1.2-4.1zm26.3 .6-2.8 6.4 4.5 1.6-1.4 3.2-4.5-1.7-3.7 8.5q-1.3 2.9-1.7 4.4q-.3 1.2 0 2.1q.4 1 1.4 1.3q1 .3 2.3 .1l-1.5 3.5a8.7 8.1-1340.4 0 1 -3.2-.5q-2.2-.8-2.8-2.4t-.1-3.5 1.8-5l4.2-9.8-3.9-1.4 1.3-3.1 3.9 1.4 2.2-5zm6.4 11.9q1.9-.3 3.4-.2q1.5 .2 3 .9q2.2 1.1 3.1 3t.3 4.2q-.4 2-2.7 6l-2.2 4.1q-1.3 2.3-2.3 4.1q-1 1.8-1.5 3l-2.7-1.4a58.8 54.8-1340.4 0 1 2-3.6q-2 1.5-3.8 1.8t-3.6-.6q-1.7-.8-2.5-2.2t-.7-3.2 1.2-3.6q.9-1.6 2.2-2.6q1.2-1 2.8-1.3q1.5-.3 3.3 0t3.8 1.3q1.2 .6 2.2 1.2q1.5-2.7 1.2-4.5t-2.2-2.7a7.4 6.8-1340.4 0 0 -2.7-.7q-1.3-.1-3.2 .4zm3.6 13.9a16 15-1340.4 0 0 -1.5-.9q-5.9-2.9-8.1 1a4.1 3.8-1340.4 0 0 -.6 1.9q0 .9 .4 1.7t1.3 1.2q1.6 .8 3.2 .4q1.5-.4 2.8-1.8t2.4-3.4m24 .9-2.4 3.1q-.5-1.6-2.1-2.7a5.5 5.1-1340.4 0 0 -3.2-.8q-1.7 .1-3.5 1.2t-3.1 3.1q-1.4 2-2 4.1q-.5 2 0 3.7a5.2 4.9-1340.4 0 0 1.9 2.6q.9 .6 1.8 .8t2.2 .1l-2.1 3.5a9.2 8.5-1340.4 0 1 -2.2-.4 9.2 8.5-1340.4 0 1 -2.1-1q-2.2-1.5-3-3.8q-.8-2.4-.2-5.2t2.8-5.9q2-2.8 4.6-4.5t5.2-1.9a8 7.5-1340.4 0 1 4.7 1.2q1.7 1.2 2.8 3m14.7-2.9-3.1 3.8-2.8-2.2 3.1-3.8zm-6.8 8.2-15.2 18.5-2.6-2 15.2-18.5zm9.2 24.6q-2.6 2.6-5.4 3.9t-5.4 1a8.5 7.9-1340.4 0 1 -4.5-2 8.1 7.6-1340.4 0 1 -2.2-4.4q-.3-2.6 .9-5.4t3.6-5.4a17.4 16.3-1340.4 0 1 4-3.2 12.6 11.8-1340.4 0 1 4.2-1.6 9.4 8.8-1340.4 0 1 3.9 .1 8.2 7.6-1340.4 0 1 3.3 1.8 8.5 7.9-1340.4 0 1 2 3.1 9.2 8.5-1340.4 0 1 .3 3.9 12.4 11.5-1340.4 0 1 -1.5 4.2 17.9 16.7-1340.4 0 1 -3.1 4.1m-2.6-2.3a15.1 14.1-1340.4 0 0 2.2-2.9 9.9 9.2-1340.4 0 0 1.3-2.9q.3-1.4 0-2.6q-.3-1.2-1.1-2q-1.8-1.7-4.7-.9q-3 .8-5.7 3.6q-1.8 1.9-2.7 3.8q-1 2-.8 3.7a4.7 4.4-1340.4 0 0 1.3 2.8q1.2 1.1 2.9 1.2t3.6-1 3.7-2.8m15.7-17.9-7.7 2-1.7-1.6 6.7-2.9zm.9 18-2.8 2.6q4.5-1.1 7.1 2q1.4 1.7 1.4 3.5a6.4 6-1340.4 0 1 -1 3.4 15.6 14.6-1340.4 0 1 -2.6 3.2 57.3 53.5-1340.4 0 1 -3.9 3.5l-8.5 7.1-2.1-2.5 8.3-6.9 2.9-2.5q.8-.8 1.4-1.5q1.2-1.5 1.4-2.9q.2-1.4-.8-2.5q-1-1.3-2.9-1.4t-3.8 1a11.5 10.7-1340.4 0 0 -1.3 .7 18.3 17.1-1340.4 0 0 -1.5 1.1 233.8 218.2-1340.4 0 0 -2.7 2.2l-6.8 5.6-2.1-2.5 9.1-7.6 2.8-2.4a387.4 361.5-1340.4 0 0 6.3-5.5zM153.2 83.9l2.8 3.6a10.8 10-1340.4 0 0 -3.3 .7 9.6 9-1340.4 0 0 -2.9 1.8q-2.2 1.9-2.9 4.6t.3 5.8 3.3 5.8q2.5 2.9 5.4 4.4t5.8 1.2q2.8-.3 5.1-2.2q1.2-1.1 2.1-2.8l-6.3-7.4-4.1 3.5-2.6-3.1 6.7-5.9 11.1 12.9a17.2 16-1340.4 0 1 -1.9 3.2 16 15-1340.4 0 1 -2.5 2.6q-2.4 2-5.1 2.8t-5.6 .3-5.7-2.3-5.4-4.8q-3.4-3.9-4.5-8q-1.1-4-.1-7.6a12.2 11.3-1340.4 0 1 4-6q2.8-2.5 6.2-3.3m33.2 .4q2.1 3.1 2.8 6.2t-.2 5.7a7.6 7-1340.4 0 1 -3.1 4.2q-2.2 1.5-4.8 1.4q-2.7-.1-5.3-1.9T171 95q-1.6-2.3-2.4-4.7t-.7-4.5 1-4a7.2 6.7-1340.4 0 1 2.5-2.9 7.4 6.9-1340.4 0 1 3.6-1.4q1.9-.2 4 .5t3.9 2.3a21.8 20.3-1340.4 0 1 3.5 3.9m-2.9 2.1q-1.2-1.7-2.5-2.9a11.5 10.7-1340.4 0 0 -2.7-1.8q-1.3-.6-2.6-.6a3.9 3.6-1340.4 0 0 -2.3 .8q-2 1.4-1.9 4.6q.1 3.2 2.4 6.5q1.5 2.2 3.3 3.6t3.5 1.5 3.1-.7q1.3-1 1.8-2.7t-.2-3.9-2-4.4m-1.2-27.8 6.2 11.5a43.6 40.6-1340.4 0 1 1.3 2.6 7.1 6.6-1340.4 0 1 .4-4.2 6.1 5.7-1340.4 0 1 2.8-3.1q1.5-.9 3.2-.9q1.7 0 3.4 1t3.3 2.7 2.9 4.3a26.6 24.8-1340.4 0 1 2 4.9q.6 2.4 .5 4.4q-.1 2-1 3.6q-.8 1.5-2.4 2.4a6 5.6-1340.4 0 1 -3.8 .8q-2-.2-3.7-1.7l2 3.7-2.8 1.6-17.2-31.9zm11.9 10.6q-1.3 .8-1.8 2.4q-.5 1.6-.2 3.8a15.6 14.6-1340.4 0 0 1.6 4.3 15.6 14.6-1340.4 0 0 2.7 3.6q1.5 1.4 3.1 1.9t2.9-.3 1.8-2.3 .1-3.7-1.6-4.3q-1.9-3.5-4.2-4.9q-2.3-1.4-4.3-.3m18.8 1.2q1.7 3.2 4 4.5q2.3 1.3 4.5 .3q1.3-.6 2.3-1.7q1.1-1.1 1.9-2.8l1.7 4.1q-1.1 1.6-2.2 2.6a9.2 8.5-1340.4 0 1 -2.4 1.6 7.6 7-1340.4 0 1 -3.8 .7 8.7 8.1-1340.4 0 1 -3.7-1.2q-1.8-1.1-3.3-3.1q-1.6-2-2.7-4.7q-1.4-3.5-1.6-6.6t1-5.4a6.8 6.3-1340.4 0 1 3.5-3.4q2.7-1.2 5-.2q2.3 1.1 4.2 3.7q1.9 2.6 3.4 6.2zm-1.3-3.3 8.8-4.1a17.9 16.7-1340.4 0 0 -2-3q-1.1-1.2-2.3-1.6a3.4 3.1-1340.4 0 0 -2.6 .2q-1.8 .9-2.3 3.1t.4 5.4m13.7-17 2.9-1.1 1.5 4.1q0-2.5 .9-4.1a4.3 4-1340.4 0 1 2.5-2.2q.9-.3 1.8-.3l1.3 4q-1-.1-1.6 .2q-1.7 .6-2.3 2.4t-.5 4a21.3 19.9-1340.4 0 0 1 4.5l3.6 10.9-3.1 1.2-4.7-14.4q-1.2-3.5-3.3-9.1m17.3-6.3 1.1 3.8q1-4.9 4.9-6.1q2.2-.6 3.8 .1q1.6 .7 2.7 2.4a18.8 17.5-1340.4 0 1 1.8 3.7 68.8 64.2-1340.4 0 1 1.5 5.2l2.7 11.3-3.2 1-2.6-10.9-1-3.8q-.4-1.2-.7-2.1q-.8-1.8-2-2.6a3.3 3-1340.4 0 0 -2.6-.3q-1.6 .5-2.5 2.2t-.9 4.2q0 .7 .1 1.6q.1 .9 .3 1.9l.8 3.6 2.1 8.9-3.2 1-2.9-11.9-1-3.8-1.1-4.1-1.2-4.4zm21-3.9q1.3-1.5 2.6-2.3t3-1.2q2.5-.5 4.4 .4t2.9 3.3q.8 1.9 1.5 6.8l.7 4.8 .8 4.9a98.6 92-1340.4 0 0 .6 3.5l-3 .6-.3-1.9-.3-2.3q-.6 2.6-1.9 4q-1.2 1.4-3.3 1.8a5.9 5.5-1340.4 0 1 -3.4-.3q-1.5-.6-2.5-2.2t-1.3-3.7q-.3-2 .1-3.6a7.2 6.7-1340.4 0 1 1.4-2.9 7.8 7.3-1340.4 0 1 2.7-2.1q1.6-.9 3.9-1.3q1.3-.3 2.5-.4q-.5-3.2-1.8-4.5t-3.5-.8a6.4 6-1340.4 0 0 -2.6 1.1q-1.1 .8-2.3 2.3zM275 49a13.8 12.8-1340.4 0 0 -1.8 .2q-6.5 1.3-5.9 6a4.8 4.5-1340.4 0 0 .7 1.9q.5 .8 1.4 1.1t1.8 .1q1.8-.4 2.8-1.7t1.1-3.3-.2-4.4m21.2-16.5 .2 4-7.7 15.8-1 1.8-.8 1.5q.6-.3 1.2-.4l9.6-1.2 .2 3.6-14.4 1.8-.2-3.8 7.6-15.6a50.4 47-1340.4 0 1 1.8-3.4q-.8 .2-2.5 .4l-7.5 .9-.2-3.7zm7.2 1.3q1.5-1.3 2.9-1.9t3.1-.6q2.5-.1 4.2 1.2t2.2 3.7q.5 2 .4 7l-.1 4.9-.1 5 0 3.6-3 .1v-2l.1-2.4q-1.1 2.5-2.6 3.7q-1.4 1.2-3.5 1.3a6 5.6-1340.4 0 1 -3.3-.8q-1.4-.9-2.1-2.6t-.6-4q0-2 .6-3.5a7.2 6.7-1340.4 0 1 1.9-2.7q1.2-1.2 2.9-1.8q1.8-.6 4-.7q1.4-.1 2.5 0q0-3.3-1-4.7q-1.1-1.5-3.3-1.4a6.3 5.9-1340.4 0 0 -2.7 .7q-1.2 .6-2.6 2zm9.7 11a13.8 12.8-1340.4 0 0 -1.8-.1q-6.6 .3-6.7 5.1a4.8 4.5-1340.4 0 0 .4 2q.4 .9 1.2 1.3t1.8 .4q1.8-.1 3-1.3t1.6-3.1 .6-4.4m34.2-21.4 4.7 35.4-3.9-.4-1.1-9-11.6-1.1-3.9 8.5-3.7-.3 15.9-33.4zm-.8 21.8-1.2-9.9-.5-4.4q-.1-1.6-.2-3.5q-.5 1.4-1.1 2.7l-2.2 4.9-4.2 9.3zm18.2-10.1-1 4q.9-1.2 1.9-2t2.3-1.1 2.4 0q1.9 .4 2.8 2q.9 1.6 .7 4.1q3.2-4.5 7.1-3.6q1.8 .4 2.7 1.7q.8 1.3 1 3.1q.1 1.8-.4 3.9q-.4 2.1-1.2 4.7l-3.8 13-3.2-.7 3.6-12.1a91.7 85.6-1340.4 0 0 1-3.7 15.1 14.1-1340.4 0 0 .4-2.1q.3-3.5-1.9-4a3 2.8-1340.4 0 0 -1.4 0 4 3.7-1340.4 0 0 -1.5 .8 7.8 7.3-1340.4 0 0 -1.4 1.4 11.5 10.7-1340.4 0 0 -1.2 2q-.4 .8-.9 2q-.4 1.2-1.1 3.6l-3.1 10.5-3.2-.7 3.8-12.7q.8-2.6 1-3.5t.3-1.8q.1-1.6-.3-2.7q-.5-1.1-1.5-1.3q-1.3-.3-2.6 .6q-1.3 .8-2.5 2.7q-1.2 1.8-1.9 4.3l-3.8 12.7-3.2-.7 4.2-13.9q2-6.6 3-10.9zm37.3-2.7-5.4 12.7q-.6 1.4-1.3 2.8q1.5-1.8 3.6-2.6a6.1 5.7-1340.4 0 1 4 0q1.6 .6 2.6 1.9q.9 1.3 1.2 3.2t-.2 4.4-1.7 5.2-2.7 4.9-3.1 3.4-3.4 1.7a5.9 5.5-1340.4 0 1 -3.3-.2 6 5.6-1340.4 0 1 -2.8-2.4q-1-1.7-.9-4.1l-1.7 4.1-2.9-1.1 15-35.1zm-1.4 16.4q-1.3-.5-2.9 .2q-1.6 .7-3 2.4q-1.5 1.8-2.5 4.2a15.6 14.6-1340.4 0 0 -1.2 4.5q-.2 2.2 .4 3.7q.6 1.5 1.9 2t2.8-.2 3-2.5a16.7 15.6-1340.4 0 0 2.5-4.2q1.6-3.8 1.4-6.6t-2.2-3.6m22.6-7.2-2.4 4.8-3.2-1.4 2.4-4.7zm-5.3 10.3-11.8 23.2-2.9-1.3 11.8-23.2zm1.2 16.3q-1.7 3.5-1.5 6.2q.2 2.7 2.3 3.8q1.2 .6 2.7 .7q1.4 .1 3.3-.3l-2.3 4q-1.9 .2-3.3-.1a9.2 8.5-1340.4 0 1 -2.6-.9 7.6 7-1340.4 0 1 -2.7-2.6q-1-1.6-1-3.7q-.1-2.1 .7-4.7a23.8 22.2-1340.4 0 1 2.4-5.2q2-3.4 4.5-5.6q2.4-2.1 4.9-2.7a6.8 6.3-1340.4 0 1 4.6 .5q2.5 1.3 2.9 3.9t-.7 5.8-3.2 6.7zm1.9-3.3 8.1 4.4a18.3 17.1-1340.4 0 0 1.3-3.6q.4-1.6 .1-2.9q-.3-1.3-1.6-1.9q-1.7-.9-3.8 .2q-2.1 1.1-4.2 3.9m23.9 1.5-2.3 3.5q4.3-2.7 7.6-.5q1.8 1.2 2.2 2.9q.4 1.7-.3 3.7q-.6 1.9-1.8 4q-1.2 2-3.2 4.8l-7 9.9-2.7-1.8 6.8-9.6a94 87.7-1340.4 0 0 2.4-3.4q.7-1.1 1.2-2q.9-1.9 .8-3.3a3.3 3-1340.4 0 0 -1.3-2.2q-1.3-.9-3.2-.4q-1.9 .5-3.7 2.2a13.8 12.8-1340.4 0 0 -1.2 1.2q-.6 .7-1.3 1.6t-2.2 3.1l-5.6 7.8-2.7-1.8 7.5-10.6 2.3-3.3a483.7 451.3-1340.4 0 0 5.2-7.6zm24.3 8.1-4.9 5.9 3.6 2.8-2.4 2.9-3.6-2.8-6.6 7.9q-2.2 2.7-3.1 4.1q-.8 1.2-.8 2.2t.9 1.8q.8 .6 2.1 .6l-2.7 3.2a7.6 7-1340.4 0 1 -2.8-1.3q-1.8-1.4-1.8-3.1t1.2-3.7 3.5-4.7l7.5-9.1-3.1-2.5 2.4-2.9 3.1 2.5 3.8-4.6zm2.1 14.1q1.9 .1 3.3 .6q1.4 .5 2.6 1.6q1.8 1.7 2 3.8q.2 2.1-1.1 4.4q-1.1 1.9-4.6 5.6l-3.5 3.7q-2.1 2.1-3.6 3.8t-2.5 2.8l-2.1-2 1.4-1.5 1.7-1.8q-2.5 1.2-4.3 1.1q-1.8-.1-3.3-1.5a6 5.6-1340.4 0 1 -1.6-2.9q-.3-1.6 .4-3.4t2.3-3.5q1.4-1.5 2.9-2.2q1.5-.7 3.1-.8q1.6 0 3.2 .7q1.6 .7 3.2 2.2q1 .9 1.7 1.7q2.3-2.5 2.7-4.3q.3-1.9-1.2-3.3a6.4 6-1340.4 0 0 -2.2-1.3q-1.3-.4-3.2-.3zm-1.2 15.1a13.8 12.8-1340.4 0 0 -1.2-1.3q-4.6-4.4-8.1-.7a4.8 4.5-1340.4 0 0 -1.2 1.8q-.3 1-.1 1.8a3.3 3.1-1340.4 0 0 .9 1.5q1.3 1.2 2.9 1.1t3.3-1.3 3.5-3m27.6-9.3-28.4 26.3-2.1-2.3 28.4-26.3zm-3 33.1-3.2 2.5-5.3-7 3.2-2.5zm33.3 16.8-4.3 2.3q.3-1.8 .2-2.9q-.2-1.2-.8-2.4a7.7 7.2-1340.4 0 0 -2.6-2.6q-1.6-.9-3.8-1t-4.6 .6a20.2 18.8-1340.4 0 0 -5 2.2q-3.4 2.1-5.5 4.7t-2.6 5.4 .8 4.9q1.2 2.1 3.8 3.5l-4.1 2.8a13.8 12.8-1340.4 0 1 -2-1.7q-.8-.8-1.6-2.2q-1.8-3.2-1.4-6.8q.4-3.6 3.2-7.2q2.7-3.6 7.6-6.5q4.4-2.7 8.7-3.5t7.6 .5 5.1 4.3q1.5 2.7 1.3 5.4m7.6 6.2-34.2 17.8-1.4-2.9 34.2-17.8zm3.6 10-4.9 2.3-1.3-3.2 4.8-2.3zm-10.6 4.9-23.6 11.1-1.2-2.9 23.7-11.1zm4.1 9.9-3.8 1.6q1.4-.1 2.7 .3t2 1.3 1.2 2q.6 1.9-.3 3.6q-.9 1.7-3.1 3.1q5.4-.1 6.6 3.7q.5 1.8-.1 3.2q-.6 1.5-2.1 2.7a16.5 15.4-1340.4 0 1 -3.5 2.1q-2 1-4.6 1.9l-12.8 4.6-1-3.1 11.9-4.3 3.6-1.4q1.3-.5 2-1q3.1-1.9 2.5-4.1a3 2.8-1340.4 0 0 -.7-1.2 3.9 3.6-1340.4 0 0 -1.4-.8 7.6 7-1340.4 0 0 -1.9-.3 11.5 10.7-1340.4 0 0 -2.2 .2 13.8 12.8-1340.4 0 0 -2.1 .5 80.2 74.9-1340.4 0 0 -3.6 1.2l-10.4 3.7-1-3.1 12.6-4.5 3.5-1.3q.9-.4 1.6-.8q1.5-.9 2.1-1.9q.6-1.1 .3-2q-.4-1.2-1.8-1.8q-1.4-.6-3.5-.5q-2.1 .1-4.5 1l-12.6 4.5-1-3.1 13.8-5q6.6-2.4 10.7-4.1zm6.3 30.3q1.5 1.1 2.2 2.4a8.5 7.9-1340.4 0 1 1.1 2.8q.4 2.4-.6 4.4t-3.4 3.2q-2 1-6.9 2.2l-4.9 1.2q-2.8 .6-5 1.2a98.6 92-1340.4 0 0 -3.5 1l-.5-2.9 2-.5 2.4-.5q-2.6-.4-4-1.5q-1.3-1.1-1.7-3.1q-.3-1.8 .4-3.4q.7-1.6 2.3-2.7t3.8-1.7q2-.4 3.6-.2t2.9 1.1 2.1 2.4 1.2 3.7q.2 1.3 .3 2.4q3.2-.8 4.6-2.2t1-3.5a6.3 5.9-1340.4 0 0 -1-2.5q-.8-1-2.2-2zm-9.7 12.3q0-1.1-.2-1.8q-1.1-6.3-5.9-5.2a4.9 4.6-1340.4 0 0 -2 .9 3.4 3.2-1340.4 0 0 -1.2 1.5q-.4 .9-.2 1.9q.3 1.8 1.6 2.6q1.3 .8 3.3 .8t4.5-.6m25.4-5.4-7.7-2.4-.4-2.2 7.6 1.1zm-3.1 15.6-7.4 1.2 .4 4.6-3.7 .6-.4-4.6-10 1.6q-3.4 .5-5 1q-1.4 .4-2.1 1.2t-.6 1.9q.1 1 1 2l-4.1 .6q-.8-1.4-1-2.9q-.2-2.2 1-3.6q1.3-1.4 3.4-2t5.6-1.2l11.4-1.8-.4-4 3.7-.6 .4 4 5.9-.9zm4.8 13-5.2 .5-.1-3.6 5.2-.5zm-11.3 1.1-25.5 2.7-.2-3.3 25.5-2.7zm-.7 19h-4.2q1.2-1.4 1.2-3.3q0-1.7-1.1-3q-1.1-1.3-3.1-2t-4.5-.5q-2.7 .1-4.8 1t-3.3 2.2a4.7 4.4-1340.4 0 0 -1.2 3.1 4.6 4.3-1340.4 0 0 .4 1.9 8.3 7.7-1340.4 0 0 1.2 1.8l-4.3 .5q-.6-1-1-2t-.3-2.3q0-2.6 1.7-4.7q1.7-2.1 4.6-3.4q3-1.3 6.9-1.5q3.7-.2 6.7 .8q3 1 4.6 2.9q1.7 2 1.6 4.5a8.7 8.1-1340.4 0 1 -1.1 4m-1.5 6q1.1 1.5 1.5 2.9t.3 3.1q-.3 2.5-1.8 4.1q-1.5 1.6-4.1 2.2q-2.1 .4-7.1 .3l-4.9-.2q-2.9-.1-5-.1a98.6 92-1340.4 0 0 -3.6 0l.3-3h2l2.4 .1q-2.3-1.1-3.3-2.6q-1-1.4-.8-3.5a6 5.6-1340.4 0 1 1.2-3.2q1.1-1.4 2.9-2.1q1.8-.7 4.1-.6q2 .1 3.5 .7t2.4 1.9a7.8 7.3-1340.4 0 1 1.3 2.9q.4 1.7 .2 4l-.4 2.5q3.3 .1 4.9-1t1.9-3.3q.1-1.4-.3-2.7t-1.6-2.6zm-12.5 9.5q.3-1.1 .3-1.8q.6-6.5-4.2-6.7a4.8 4.5-1340.4 0 0 -2.1 .4 3.4 3.2-1340.4 0 0 -1.5 1.2 3.3 3.1-1340.4 0 0 -.7 1.7q-.2 1.8 .8 2.9q1.1 1.1 2.9 1.7q1.9 .5 4.4 .6m13.9 39.6-4.6-1.1q1.4-1.2 2.1-2.2a7.1 6.6-1340.4 0 0 1.1-2.4 7.7 7.2-1340.4 0 0 0-3.8q-.5-1.8-1.9-3.3t-3.6-2.6a20.2 18.8-1340.4 0 0 -5-1.6q-3.7-.6-7 0q-3.3 .7-5.5 2.5t-2.8 4.4q-.6 2.4 .3 5.3l-4.7-.5q-.3-1.5-.3-2.7a12.8 12-1340.4 0 1 .4-2.8q.9-3.7 3.6-6.3t7.1-3.6 9.7 0q4.9 .8 8.4 3.1q3.5 2.2 4.9 5.4a11 10.2-1340.4 0 1 .6 6.8q-.8 3.1-2.8 5.2M517 333.5q-3.6-1-6.1-2.9t-3.4-4.4a7.6 7-1340.4 0 1 0-5q.9-2.5 3.2-4t5.6-1.8 6.8 .7q2.8 .8 4.9 2.1q2.1 1.3 3.4 3q1.3 1.7 1.7 3.5a7.2 6.7-1340.4 0 1 -.3 3.7 7.4 6.9-1340.4 0 1 -2.1 3.2q-1.5 1.4-3.6 2.1t-4.7 .6a21.8 20.3-1340.4 0 1 -5.3-.8m1.1-3.4a18.3 17.1-1340.4 0 0 3.8 .6q1.9 .1 3.4-.3q1.5-.4 2.5-1.2q1-.8 1.4-1.9q.8-2.3-1.3-4.6q-2-2.3-6-3.4q-2.6-.7-5-.6t-3.9 1-2.1 2.5 .2 3.1q.7 1.5 2.6 2.8t4.4 2m7.3 15.9-3.7-1.4q1 1 1.6 2.1a6 5.6-1340.4 0 1 .5 2.4 5.5 5.1-1340.4 0 1 -.6 2.4q-.9 1.9-2.7 2.6q-1.8 .8-4.3 .3q3.8 3.6 2 7.3q-.9 1.7-2.3 2.4t-3.3 .6a16.5 15.4-1340.4 0 1 -3.8-.8 52.7 49.2-1340.4 0 1 -4.4-1.7l-12-5.1 1.5-3 11.1 4.7q2.2 1 3.5 1.4q1.2 .5 2 .6q3.4 .7 4.5-1.5q.3-.6 .3-1.4q0-.7-.4-1.5q-.4-.8-1.1-1.5a11.5 10.7-1340.4 0 0 -1.7-1.4 13.8 12.8-1340.4 0 0 -1.8-1.1 82.5 77-1340.4 0 0 -3.3-1.5l-9.7-4.2 1.5-3 11.7 5q2.4 1 3.3 1.3t1.7 .5q1.6 .3 2.8-.1q1.2-.3 1.6-1.3q.6-1.2 .1-2.7t-2.1-2.8-3.8-2.3l-11.7-5 1.5-3 12.8 5.5q6.1 2.6 10.1 4.1zm-23 41.3-13.4-7.9q-1.7-1-8-4.4l1.7-2.6 3.4 1.8q-1.2-2-1.3-3.8t1-3.5q2-3.2 5.6-2.8t8.3 3.2l11.2 6.6-1.8 2.9-9.9-5.8a96.3 89.8-1340.4 0 0 -2.4-1.4 32.1 30-1340.4 0 0 -2-1 11.5 10.7-1340.4 0 0 -1.5-.5q-1.7-.4-2.9-.1a3 2.8-1340.4 0 0 -1.9 1.4 3.6 3.4-1340.4 0 0 -.6 2.1q0 1.1 .7 2.2a11.2 10.5-1340.4 0 0 1.9 2.3q1.2 1.2 2.9 2.1l10.7 6.3zm-6.6 9.3-3.3-2.2q2.2 4.2-.4 7.5q-1.4 1.8-3.2 2.2q-1.7 .4-3.6-.2a19 17.8-1340.4 0 1 -3.8-1.7 71 66.3-1340.4 0 1 -4.5-3.1l-9.2-6.8 2.1-2.7 8.9 6.6q2.1 1.6 3.2 2.2q1 .7 1.9 1.1q1.8 .9 3.3 .7t2.4-1.3q1-1.3 .8-3.2q-.3-1.8-1.8-3.6a13.8 12.8-1340.4 0 0 -1.1-1.1 22.9 21.4-1340.4 0 0 -1.5-1.2l-2.9-2.2-7.3-5.3 2.1-2.7 9.8 7.2 3.1 2.2 3.4 2.4q1.9 1.4 3.6 2.6zm-15.1 15.7q-.1 1.9-.7 3.4t-1.8 2.7q-1.8 1.9-3.9 2.3q-2.1 .4-4.4-.7q-1.9-.9-5.4-4.2l-3.5-3.2-3.6-3.2a96.3 89.8-1340.4 0 0 -2.7-2.3l2.1-2.3 1.4 1.3q1 .8 1.7 1.5q-1-2.4-.8-4.2t1.7-3.4a6 5.6-1340.4 0 1 2.9-1.9q1.7-.4 3.5 .1q1.8 .6 3.4 2q1.4 1.3 2.1 2.8a7.2 6.7-1340.4 0 1 .6 3 7.8 7.3-1340.4 0 1 -.9 3.2q-.8 1.7-2.4 3.4q-1 1-1.8 1.8q2.4 2.1 4.2 2.3t3.4-1.5a6.4 6-1340.4 0 0 1.5-2.4q.4-1.3 .5-3.1zm-15.2 .1q.9-.7 1.4-1.3q4.6-4.9 1.2-8.1a4.8 4.5-1340.4 0 0 -1.8-1 3.4 3.2-1340.4 0 0 -1.8 0q-.9 .3-1.6 1q-1.3 1.4-1.3 2.9q.1 1.6 1.1 3.2a19.7 18.4-1340.4 0 0 2.8 3.2m7.9 26.7-25-26.1 2.5-2.4 25 26.1zm-64.4-37.4 43.1 44.4c-34 19.8-74.6 35.7-115.9 41.4L288 489.1a199.4 186.1-1340.4 0 1 -26.4-3.9c-130.8-29.1-206.1-158.5-168.2-288.9c6.8-23.2 27.6-58.8 40-78.6L241.9 229.6l227.6 128.8-4.4 4.2a210.9 196.8-1340.4 0 1 -56.3 39.2M124.2 236.3q0-2.2 .1-4.4a202.9 189.3-1340.4 0 1 10.3-56.5l1.8-5.4 91.4 51.6-93.8-96.6c-12.4 20.1-30.2 51.4-36.4 72.3c-37.2 128.1 36.7 255 165.2 283.6a194.8 181.8-1340.4 0 0 25.6 3.8l47.7-1.7c38.5-5.3 76.4-19.6 108.8-37.8l-40.3-41.6a210.9 196.8-1340.4 0 1 -23.3 9.2l-.6 3.1-2 9.2 1 1 4.7 4.6 4.7 4.6 2.4 2.3-5.9 1-12.7 2.2-7.4 13.9-1.6 3-.7-1.5-2.8-6.1-2.8-6.1-1.3-2.8-5.6-.6-10.6-1.2-2.2-.3 13.9-13.3-.3-2-.4-3.4a216.2 201.7-1340.4 0 1 -48.7 2.9l0 .1-.7 3.3 .8 .8 5.3 5.2 5.3 5.2 3.6 3.6-21.8 3.7-3.5 6.6-4.2 7.8-2.9 5.3-2-4.5-3-6.4-3-6.5-.9-1.9-21.6-2.6 1.4-1.3 7.2-6.9 7.7-7.4 .1-.1-.9-6.7-.3-1.9v-.3a210.9 196.8-1340.4 0 1 -34.9-11.5l-.6 .1-7.3 1.5-12.5 2.6-.5 .1-2.9 6.1-3.1 6.3-3.1 6.3-3.1 6.3-1.4 3-2.5-4.9-5.7-11.3-5.2-10.2-10.2-.8-11.6-1-8.5-.6 3.9-4 5-5.1 5-5.1 5-5.1 3.3-3.3-.8-4.5-2.6-15.4-.4-2.6-.2-.9a207.7 193.8-1340.4 0 1 -18.8-23.5l-.6 .1-.7 .1-3.8 7.3-4.5 8.4-2.2 4.1-8.9-19.3-.6-.1-7.3-.8-7.2-.9-6.6-.8 5.6-5.3 6.3-6 4.5-4.3-2.8-21.4 4.7 2.4 5.8 2.9 .7 .4a202.7 189.1-1340.4 0 1 -10.4-36l-.4-1.1-.2-.4-1.9-4-.1-.2-6.7-.8-6.8-.8-5-.6 7.6-7.3 6.3-6.1-1-7.1-1.4-11.1 5.5 2.8 .7 .4zm258 171.7a206.3 192.5-1340.4 0 0 79.9-48.6L138.8 176.5a198.5 185.2-1340.4 0 0 -10.2 62.1l5.2 2.6 16.9-9.1-2.8 13.1-1 4.5-.2 .8 1.5 1.5 1.8 1.8 1.8 1.8 1.8 1.8 1.8 1.8 1.8 1.8 1.9 1.8 .4 .4-.9 .1-4 .7-3.9 .6-3.8 .7-3.8 .6-2.2 .4-7.6 14.4a197.8 184.6-1340.4 0 0 10.3 30.9l1.5 .8 1.5-.8 3.3-1.8 3.4-1.8 3.4-1.8 3.5-1.9 3.6-1.9 1.1-.6-4.6 21.6 3 2.9 3.2 3.1 3.4 3.3 3.7 3.6 1.9 1.8-1.4 .2-2.9 .5-2.9 .5-2.9 .5-2.9 .5-2.6 .4a204 190.4-1340.4 0 0 15.4 19.3l3.6 1.7 5.4 2.5 6.1 2.8 7.4 3.4 1.8 .8 1.9-1.1 2.4-1.4 2.4-1.4 2.4-1.4 2.4-1.4 2.4-1.4 2.5-1.4 2.4-1.4 2.4-1.4 2.4-1.4 2.4-1.4 1.1-.6-.2 1.3-.5 2.8-.5 2.8-.5 2.7-.5 2.7-.5 2.7-.4 2.6-.4 2.6-.4 2.6-.4 2.5-.4 2.5-.4 2.5v.1l5.1 4.6 4.5 4.1 3.9 3.6 3.6 3.3 3.4 3.1 1.3 1.2-1.5 .3a206.3 192.5-1340.4 0 0 26.4 8.3l0-.2-.3-2.2-.3-2.2-.3-2.2-.1-.9 1.9 1 4.4 2.2 4.2 2.1 4 2 3.9 1.9 .6 .3 .7-.4 4.9-2.6 5.3-2.9 5.8-3.1 3.1-1.7-.3 1.2-.5 2.3-.5 2.3-.5 2.3-.5 2.3-.5 2.3-.3 1.2a213.2 198.9-1340.4 0 0 18.1 .2 210.9 196.8-1340.4 0 0 29.2-3l0-.3-.3-2.3-.3-2.3-.3-2.3-.2-1.3 1.4 .7 2.6 1.3 2.6 1.3 2.6 1.3 2.6 1.3 .5 .3a208.6 194.7-1340.4 0 0 15.4-4.2l5.4-2.9-.1 .4zM409 100.4c-1-.4 .1 .8-.7-.1c.3-.2 .6-.3 .7 .1m1.1 .6c0 .4 .4 1-.3 1.2c.1-.4 .1-.9 .3-1.2m13.3 14.1c.1-.1 .1 .3 .1 .4c-.2-.1-.6 0-.6-.3c.2 .1 .3-.1 .5-.1m3.6 3.2c-.3 .2-1.3-.2-1.8-.5zm2.4 4q.1 .7-.5 .2c.1-.2 .3-.1 .5-.2m7.2 6.8c.2 .2 .8 .3 .6 .7c0-.4-1.2-.4-.6-.7m3.6 2.8c.1 .1 .1 .2 .3 .3c.1 .3-.3 .3-.5 .2zm41.6 69.1 .3 0v.4zm6.5 36.5c.2 .5-.3 .4-.4 .5c-.1-.4 .4 .1 .4-.5m1.9 19.9v-.1h.7zM182.9 136c-.5 .7 .8 .1-.2 .5c-.1-.3-.2-.5 .2-.5m.6-.8c.4 .1 1-.1 1 .6c-.3-.2-.8-.3-1-.6m14-7.5c-.1-.1 .3 0 .3 0c-.1 .1 0 .5-.3 .4c.1-.1 0-.3 0-.4m3.1-2.3c.2 .3-.3 1.1-.6 1.4zm3.7-1.2q.6 .1 .1 .4c-.1-.1-.1-.3-.1-.4m6.5-4.7c.1-.1 .3-.6 .6-.4c-.3-.1-.5 .9-.6 .4m2.7-2.5q.1 0 .2-.2c.3 0 .2 .3 .1 .4zm58.1-29.2v-.3l.3 .1zm28.3-6c.4-.3 .3 .3 .4 .3c-.3 .1 .1-.4-.3-.3m15.1-3.1 .1-.7 .1 .7z"/></svg>