<svg fill="currentColor" xmlns="http://www.w3.org/2000/svg" viewBox="0 0 640 512"><path d="M424.3 115.6a2.3 2.1-1304.6 0 1 -.1 .2q0-.2 .1-.2m-14-12.6 2.1-.1c.3 .6-.9 .3-.9 .9c0 .5 1.1 1 1.5 .7c-.3-.3-.4-.2-.8-.2c.3-.7 .9-.3 1.4-.6c-.1-.1-.3-.3-.4-.3c.5 0 .9 .2 1.5 .5c-.5 0-.2 .4-.2 .5c.4-.4 1.2-.2 1.8 .4c.1 1 1.8 .6 2.6 1.4a4.2 4.2 0 0 1 -2.3 .3c.4 .6 .6 .4 1 1.1c.6-.2 1.2-.7 2.1-.5l-.3 .4c.8 .3 1.3-.3 2 .4c1.3 1.2 2.8 2.3 3.8 3.2l-.3 .4c1.3-.4 2.2 1.2 3.4 1.5c1.1 1.4 3.2 2 3.4 3.2c2.6 1.7 4.9 3.2 7.1 5.4l-.9 .2c.8 0 0 .6 .4 .9c-.1-.9 1.1 0 1.7-.1c.6 1.4 2.4 2.2 3.6 2.7l-.3 .4c1.6 .2 2 1.9 3 3.1c0 .3-.2 .8 .2 1.1c1.2 .1 1.4 .4 2.7 1c.6 .7 1.5 1.9 1.8 2.8c3.2 1.8 4.9 5 7.6 7.5l-.3 .6c3.2 2 4.8 6.2 7 8.3l-1 .4c.3 1 1.4 1.6 1.9 1c.3 1 1.7 1.7 1.3 2.7c.4 .9 1 .7 1.6 1.3a12.8 12.8 0 0 0 1.9 3.5c-.3 0-.5 .3-.3 .6c.6 .4 1 2.3 1.7 1.1c.4 2 2.7 3.6 2.8 5.8c.2-.3 .5 .1 .8 .1c.8 1.5 1 3.5 2.1 4.4c0 .3-.7-.1-.4 .5c.3 .3 .4-.2 .8 .2c1.8 2.2 1.8 5.4 2.9 7.6c2.3 3.8 3.7 8.4 5.2 12.4l-.3 0c1.3 1.1 .2 3.6 1.8 4.2c-.1 .4 .3 1.3-.2 1.2c.9 .8 .4 2.9 1.3 4.4c0 1.7 1 2.9 1 4.8c-.1-.2-.3-.4-.5-.4c-.3 .8 1.3 1.3 .3 2c.1 .3 .5 .2 .5-.1c.4 3.9 1.9 7.7 2.8 11.7c-.2 3-1.9 .6-.7 2.7c-.2 .2 .5 0 .2 .1c.4 .8-1.1 1.6-.4 2.1c.6-.4 .4 .3 .9 .3c-.2 1.9-.8 2.3-.1 3.6l-.4 0c1.2 1.4 .9 3.4 2.2 4.6c1 9.1 1.7 17.9 1.3 26.9c-.8 8.9-1.4 17.7-3.8 26.7c-1.4 2-1.4 2.1-1.5 4.5c-.1-.1-.1-.3-.3-.1c.8 .2-.3 1.6 .4 2c-1 3.3-1.5 6.4-2.5 9.7c.1-.5-.5-1-.6-.3l.3 .8-.3 .1c0 .4 .2 1 .6 .6c-1.9 8.6-6.5 16.4-9.9 24.3c-1.2 1.8-2.1 4.5-3 6.6c-3.9 5.6-7.5 10.4-10.5 16.4c0 0-1.3-1.7-.3-4.3c.2-3.8 4.1-7 4.8-10.9c.1-.4 .8 .5 1.1-.5c.4-3.9 3.7-8.7 6.4-12.5l.2 .4c.5-.7 .1-2 .5-2.8c.2 0 .2 .3 .5 .2c-.4-.4 .4-1.6 .1-2.1c.3-.3 .7-.1 1.2-.4l-.4-.7c-.9-1.8 1.3-3.2 1.3-5.3c.1 .2 .1 .4 .3 .3c.2-3.2 1.6-6.9 2.2-10.3c.2 .2 .6 .4 .9 .3c-.6-.3-.5-1.4-.3-2.3c.8-.3-.2-1.7 .4-2.6l.1 .1c-.5-.9 .7-1.1 0-1.9l.7-.4c-.9-.5 .8-1 .4-1.8h-.2c-.1-.7 .5-.9 .4-1.5l.1 0c.1-1.4 .8-2.1 0-2.1c.7-.4 0 1.3 1.1 .7c.2-4.5 1.2-9 1.9-13.5c.4-.4 .5-.8 .8-.9c-.1-.4 .1-1.6-.2-2.1c.1 0 .4-.3 .5-.5c.4-.8-.7-1-.3-1.8q.3 .6 .7 .4c-.5-.8-.3-1.8-.4-2.7c.1 .1 .2 .4 .4 .3c-.6-1 .3-1.8 0-2.7l.4 .3c.6-1.3-.9-.4-.5-1.6c.1 .3 .3 .2 .5 .2c-.7-1.1-.3-2.9-.5-4.1q.2 .1 .2 .1c0-1.2 .3-2.5 0-3.8c.3-.5 1.1 .2 1-1.1c-.9 .1-.3-2.2-1.3-1.4c.2-1.1 .5-2.9 .3-3.6c.3 .4 1.1-.6 1.2 .3l.6-.7c.4 .1-.1 .7 .3 .5c0-.4-.4-1.8-.2-2.2c-.5-.8-1.6-1.5-1.7-2.9c.3 .5 .8-.2 1.1-.1l-1.7-1.7c-.1-.4 .7-.2 .4-.8c-.2 .1-.4-.2-.6-.4c.1-.2-.3-1.9 .6-2.1c.3-.3 .2 .7 .5 .2c-.1-.8-.4-.8-.4-1.7l.1 0c.1-.6-.5-1.6-.9-1c0 .4 .5-.2 .3 .4c-.5-.3-.8-1.3-.8-2.1c.2 .3 .4 .2 .6 .3c-.7-1-1.1-2.1-1.4-3.3c.2 .1 .5 .3 .6 .4c.4-1.6-1.1-3-.5-4.4c-.1 .1-.5 .1-.4 .1c0-.8 .6-.8 .3-1.3c.3-.1-.2-.6-.4-1.1c-.2-.2 0-.2 .1 0a10.9 10.9 0 0 1 -.9-4.9c-.2 .1-1-.8-1-1.2h.6q.1-.2 .1-.4q-.1-.2 0-.2q-.1-.3 0-.6a6.9 6.4-1304.6 0 0 .2 .5h.1l-.2-.6 .2-.2q-.3-.2-.2 .1c-.2-.5-.5-1-.2-1.6c-.1 .3 .9 .4 .7-.2c-.3-1-.3-.2-.6-1.1l-.3-.5c-.5 .1-.2-.9-.5-.5c.2-.4-.6-1.4 .3-1.5l.7 0c-.2-.4-.9-.6-1.3-.9q.1-.1 .3-.2c-1 .2-.1-1.2-1-1.5c.2-1.1-.5-2.4 .1-3.1c-.5-.6-1-1.2-1-2.1c.1 .1 .2 .3 .4 .3c.2-.6-.1-.6-.4-1.1c.2 .1 .4-1.2 .6-1.9c-.5-.6-1-.2-1.4-.2c.9-1-1.2-1.8-.5-3c.2 .2 .8 .9 .9 .2c.9-1-1.1-1.1-1-2.3l-.8 .5c.4-.6-1-1.4 0-1.6c-.4-.2-.1-1.3-.9-.9c.2-2-1.8-4-.6-5.6c-.2-.2-.3-.8-.7-.5c-.3 .6 .5 .4 .3 .7c-.1-.2-.3-.2-.4-.2c0-.6-.1-1 .8-.8c.1-1.4-1.8-.6-2-2.3q.5-.1 .2-.6l-.9-.6c-.3-1 .5-.9 1.1-1.2c-.3-.5-.5-1.1-1-1.2l.4-1c-.3 .7-.5-.3-.7-.4l.2 .2c.2-.2-.2-.7-.4-1c-.3 .2-.2 .9-.2 1.2c-.4-.2-.5-.6-.9-.8c.6-.1 .1-1-.1-1.4c-.1-.5-.7-.3-.7-.4c.3-.2-.3-.8 .3-.6c.2 .1-.1 .5 .2 .6c.1-.4 .6-.6 0-1.1c-.5-.3-1 .6-1.1-.4c.3 .2 .5 .1 .8 .2l-.1-1-.5 .2c.1-.2 .2-.1 .2-.2c-.6 0-.7-1.2-1.4-1.1c-.2-.4-.1-1-.2-1.5l.1 .1c.1-.6-.4-1.2-1-1.4h.1a1.9 1.9 0 0 0 -.9-1.1c.1-.9 1.8-1.2 .8-1.6c-.4-.7-1.4-.6-1.6-.2c-.3-1.4-1.8-2.3-1.6-3.8c-.3-.1-.4 .1-.6-.2c-.7-1.9-2.6-3.3-2.4-5.2c.5 .4 .5-.3 .8-.4c-.7-.2 .2-.8-.7-.5c-.4 .3-.6 .4-.5 1c-.8-.9-1.7-2.4-1.7-3.2c0 .4-.3 .3-.5 .1c.7-.3 .4-1.2-.2-1.6l-.4 .2 .2-.6c-.3-.1-1 .3-1-.5a1 1 0 0 0 .3-.4c-.7-.3-1.8-.8-1.8-1.6l.3-.9c-.2-.2-.9-.4-.7 .2c-.3-1.3-.8-2-.5-2.7c-2.4-1-4.3-3.4-5.7-5.4l.3-.2c-.1-.7-.7 .1-.8-.4c.4 0 .3-.9 1-.7c-.3-1-1.3-.6-1.8-1c-.4 .2 .5 .2 0 .5c-.2 0-.5-1.3-1.2-1c.1-.3 .6-.5 .9-.6l-.6-.2c.2-1.1 2.2 .3 2.6-.9l-.4-.4c.3-.9 1.6 .6 .9-.6c-.6-.3-1.8 0-1.7 .6c-1-.9-1.7 .6-2.5-.4c.1-.5 .7 .8 1.1 .2c.1-.9-1.1-.8-1.2-1.3c.2 .7-.7 .7-1.1 .5c-.2-.7 .8-.1 .2-.9c-.4 .2-1.2-.3-1 .5c-1 .3-.4-1-1.3-.9c.3-.6 1.8-.3 1.4-1.3c-.4 .5-1.5-.4-1.9 .6c-.1-.4 .2-.8 .7-.8c-.1-.7-1.8-.3-1-1.3l-.6 .3 .1-1.1c-.4-.4-1.8-.6-1-1.3c-.2-.1-1-1-1.2-.2c.2 .8 1 .3 .5 1.2c.2-.9-.8-.7-1.2-.8l.3-.3c-.3-.1-.5-.4-.9-.4a.3 .3 0 0 0 .2-.4l-.6 .2c-.9-.5 .6-.9-.2-1.5l.8 .2c-.2 0 0-.6-.5-.9c-.5 .3-1.2 .4-1.6 .6c-.5-.3 .1-.5-.3-.6l.8 .1c.2 0 .3-1-.2-1.5c-.5-.2-1.6-.2-1.2 .5c-.3-.3-.4-.9 .1-1c-.7-.4-.3 .5-1.1 .2c0-.5-.3-1.5-.3-2.2l1.2-.1-.4-.4c1 0 .2-.6 1-.9c-.2-.3-.6-.4-1.1-.5c-.1 1.6-2 .4-2.6 1.4c-1.2-.8 1.3-2.6-1-2.3c0 .3-.7 .4-.6 .6c-.5-.1-1 .4-1.3-.4c.9 .2 .2-1.4 1.4-1.1c-.3 .2 .3 .6 .4 .6c0-.5 .8-.7 .2-1.3c-.5-.3-1.1-.8-1.4-.3c-.4 .5 .7 .5 0 .8c-1-.6-.4-1.4-1.5-.9c.6 .4 .3 1-.1 1.3l-.8-.3 .4-.2c-.8-1.1-.8 .3-1.7-.6l.1-1c.7-.3 1.2 1.4 1.8 .4c-.6-.6-1.2-.3-1.5-1c.2 0 .4 .2 .6 .2c-.2-.2 .6-1.6-.8-1.6c-.7-.1-.4 .2-.7 .5c-1.1-.7-1.7-.6-2.3-1.1c.7-.5-1.1-1 .2-1.1c0 .6 1.5 1.8 2.3 1.5c.3-1.1 .7 .8 1.6 .2c-.8-.7-.1-1.4 .2-2c-.2-.2-.6-.2-.8-.3c-.5 .4-.2 .6-.6 1.1a3.5 3.5 0 0 0 -2.8-1.3c-.1-.5 .4-.9 .8-.6a19.9 18.6-1304.6 0 1 -3.2-2.7c0 1.1-.9-.2-1.3 0c.2-.3 .3-.6 .6-.8c-1-.2 .4-.4-.4-1a15.1 14.1-1304.6 0 1 -3-1.1c-.6-1.3-2.6-1.9-3.6-2.5c-.3-.6 .6-1.1 .2-1.6c-.6-.4-.1 1.1-.8 .1l.2-.1c-.4 0-1.2-1.5-2.2-.9l.6-.4c-.1-.2-.4-.1-.6-.1c.2-.3 .2-.6 .6-.6c-.2-.9-1.3-.7-2-1.1l.1 .7c-1.4-.3-1.8-1.3-2.9-1.8l.3-.4-.8-.1c.3-.3 .2-.8-.2-.9M487 221.1v-.1zm-1.1-3.8-.1 .1zm-43.4-82.1a.4 .4-1304.6 0 1 -.2 .1 .4 .4-1304.6 0 1 .2-.1m-7.6-8.4 .3 .2q-.3-.1-.3-.2m-11.2-10.7a1.2 1.1-1304.6 0 1 -.5-.1q.4-.1 .5 .1m.4-.3c.4 .6 .4 1.5-.1 1.6c-.3-.3 .3-.3 .3-.6c-.5 .1-.4-.5-.5-.7q.3-.1 .4-.3m-13.8-12.9h-.3a.7 .6-1304.6 0 1 .3 0m3 .4a2.3 2.1-1304.6 0 0 -.2 0q.1-.1 .2 0m57.9 55.7a.4 .4-1304.6 0 1 .1 0l.2 .4zm18 42.6v-.1q.2 .2 .2 .4zm-.8 33.2q-.2-.1 0-.1zm-1.1-12.4 .2 .4q0-.1-.2-.4m-56.8-99.9c-.1-.2-.7-.3-.3-.6q.3 .3 .3 .6m0 0q.1 .1 0 .2zm-245 10.8v.2q-.1-.1 0-.2m52-39.3a.4 .4-1304.6 0 1 0-.1l.3-.1zm-39.6 33.8a.8 .7-1304.6 0 1 -.2 .4q-.1-.4 .2-.4m-.2-.4 0 0c.6-.2 1.4 0 1.4 .5c-.3 .2-.3-.3-.5-.4c0 .4-.5 .2-.7 .3q0-.3-.2-.5m-.2-.1a2.3 2.1-1304.6 0 1 .2 .1q-.2-.1-.2-.1m-12.8 8.4 .2-1.7c.5-.1 .1 .8 .6 1c.5 .1 1.1-.6 .8-1.1c-.3 .2-.2 .3-.3 .6c-.6-.4-.2-.8-.3-1.3q-.1 .1-.3 .2c.1-.4 .3-.7 .7-1.1c-.1 .4 .3 .3 .4 .3q-.4-.7 .6-1.3c.9 .2 .7-1.3 1.5-1.8a3.2 3.2 0 0 1 0 2c.6-.1 .4-.4 1-.6c-.1-.5-.5-1.2-.1-1.9l.4 .3c.3-.6-.2-1.1 .6-1.6c1.2-.8 2.3-1.8 3.2-2.4l.3 .3c-.2-1.2 1.3-1.6 1.7-2.5c1.4-.5 2.1-2.3 3.1-2.1c1.7-1.8 3.2-3.5 5.4-4.8l.1 .8c.1-.7 .4 .1 .8-.2c-.7-.1 .1-1 .1-1.5c1.2-.3 2.1-1.6 2.7-2.6l.3 .4c.3-1.3 1.8-1.4 2.9-2c.2 .1 .6 .3 1 .1c.1-1.1 .5-1.2 1.1-2.2a9.6 9.6 0 0 1 2.5-1.1c1.8-2.5 4.5-3.4 6.7-5.4l.5 .4c1.8-2.5 5.4-3.2 7.2-4.9l.2 1c.8-.1 1.4-1 1-1.5c.8-.1 1.4-1.3 2.2-.8c.7-.2 .6-.8 1.2-1.2c1.4-.3 1.9-.6 2.9-1.3c0 .3 .2 .5 .5 .4c.4-.5 1.9-.6 1-1.4c1.7-.1 3.1-2 4.8-1.8c-.2-.2 .1-.4 .2-.7c1.2-.5 2.8-.5 3.6-1.4c.3 .1-.1 .6 .4 .4c.3-.3-.1-.4 .2-.7c1.9-1.4 4.4-1.1 6.2-2c3.2-1.8 6.8-2.8 10-3.9v.2c.9-1.2 2.8 .1 3.4-1.5c.3 .1 1-.2 .9 .3c.7-.8 2.3-.3 3.4-1.1c1.3 .1 2.3-.8 3.8-.7c-.1 .2-.4 .3-.4 .5c.6 .3 1.1-1.3 1.5-.3c.3-.1 .2-.5 0-.5c3-.3 6.1-1.7 9.1-2.6c2.3 .2 .4 1.8 2 .6c.2 .2 .1-.4 .1-.2c.6-.4 1.2 1.1 1.6 .4c-.3-.6 .3-.4 .3-.9c1.4 .2 1.8 .8 2.8 .1v.4c1.1-1.2 2.7-.9 3.6-2.2c7-1.2 13.8-2.4 20.7-2.8c6.8 0 13.5-.4 20.3 .7c1.5 1.1 1.6 1.1 3.4 .8c-.1 .2-.2 .2-.1 .3c.2-.8 1.3 0 1.5-.7c2.5 .4 4.9 .4 7.4 .8c-.4 0-.7 .6-.3 .6l.6-.4v.2c.4-.1 .8-.4 .5-.7c6.7 .2 12.5 3 18.8 4.4c1.3 .7 3.5 .9 5.1 1.2c4.3 2.3 8.1 4.5 12.9 5.4c0 0-1.4 1.7-3.5 1.5c-3.1 .9-5.5-1.9-8.6-1.6c-.3 0 .4-.9-.3-.9c-3.1 .6-6.8-1.3-9.8-3.1l.3-.2c-.5-.3-1.6 .4-2.2 .1c0-.2 .3-.2 .2-.5c-.3 .5-1.2 0-1.6 .4c-.2-.3-.1-.7-.3-1l-.5 .6c-1.4 1.3-2.5-.6-4.1-.1c.1-.2 .3-.2 .2-.4c-2.5 .5-5.3-.2-7.9-.2c.1-.2 .3-.6 .2-.9c-.3 .6-1.1 .7-1.8 .8c-.2-.7-1.3 .5-2 0l.1-.2c-.7 .6-.8-.5-1.5 .3l-.3-.6c-.4 1-.8-.6-1.4-.1v.2c-.5 .2-.7-.3-1.2-.2v-.1c-1.1 .2-1.6-.4-1.7 .3c-.3-.6 1-.2 .6-1.1c-3.5 .5-6.9 .1-10.3 0c-.3-.3-.6-.4-.6-.7c-.4 .1-1.3 .1-1.6 .4c0-.1-.3-.4-.4-.4c-.6-.3-.7 .8-1.4 .5q.4-.3 .3-.7c-.6 .6-1.4 .5-2.1 .7c.1-.2 .3-.2 .3-.4c-.8 .6-1.3-.2-2 .3l.3-.4c-1-.5-.4 .9-1.3 .6c.2-.2 .2-.3 .2-.5c-.9 .8-2.2 .5-3.1 .9q.1-.1 0-.2c-.9 .1-1.9-.1-2.9 .3c-.4-.2 .2-1.1-.8-.9c0 .9-1.7 .4-1.1 1.4c-.8-.1-2.2-.4-2.7 0c.4-.4-.4-1.1 .3-1.2l-.6-.5c.1-.4 .6 .1 .4-.3c-.3 0-1.4 .4-1.7 .3c-.6 .6-1.2 1.7-2.2 1.9c.4-.3-.1-.8-.1-1.1l-1.3 1.8c-.3 .1-.1-.7-.6-.4q0 .3-.3 .6c-.1-.1-1.4 .4-1.6-.5c-.2-.3 .5-.2 .1-.5c-.6 .1-.6 .4-1.3 .5v-.1c-.4-.1-1.3 .5-.8 1c.3 0-.1-.5 .3-.3c-.3 .5-1 .8-1.7 .9c.2-.2 .2-.4 .3-.6c-.8 .8-1.7 1.1-2.6 1.5c.1-.2 .2-.5 .3-.6c-1.2-.3-2.4 1.1-3.4 .6c.1 .2 .1 .5 0 .4c-.6 0-.6-.6-1-.3c-.1-.3-.5 .2-.9 .4c-.1 .2-.1 .1 0-.1c-.7 .4-2.6 1.1-3.7 .9c0 .2-.7 1-1 1l0-.6q-.1-.1-.3-.1q-.1 .1-.2 0q-.3 .1-.4 0l.4-.2a1.6 1.5-1304.6 0 0 -.4 .2l-.1-.2q-.2 .3 .1 .2c-.4 .2-.8 .5-1.2 .2c.2 .1 .4-.8-.1-.7c-.8 .3-.2 .3-.8 .6l-.4 .3c.1 .5-.6 .1-.4 .5c-.3-.2-1.1 .5-1.2-.3v-.7c-.3 .1-.4 .9-.7 1.2q-.1-.1-.2-.3c.1 1-.9 .1-1.2 1c-.8-.2-1.9 .4-2.4-.1c-.5 .4-1 1-1.7 .9c.1-.1 .3-.2 .3-.4c-.5-.2-.5 .1-.9 .4c0-.2-1-.4-1.5-.6c-.5 .4-.2 1-.2 1.3c-.7-.9-1.5 1.1-2.3 .4c.2-.2 .7-.7 .2-.9c-.8-.9-.9 1.1-1.9 .8l.4 .8c-.5-.4-1.1 .8-1.2 0c-.2 .4-1 0-.7 .8c-1.5-.3-3.2 1.4-4.4 .3c-.2 .2-.7 .2-.5 .6c.4 .4 .4-.4 .6-.2q-.2 .2-.2 .4c-.4-.1-.8 0-.6-.8c-1.1-.2-.6 1.7-1.9 1.8q0-.5-.5-.3l-.5 .8c-.8 .1-.6-.6-.8-1.2c-.4 .3-.9 .4-1 .9l-.7-.5c.5 .4-.3 .4-.4 .6l.1-.2c-.1-.2-.6 .1-.8 .3c.2 .3 .7 .3 1 .3c-.1 .3-.5 .4-.6 .8c-.1-.6-.8-.2-1.2-.1c-.4 0-.3 .6-.4 .7c-.1-.3-.6 .2-.4-.3c.1-.1 .4 .2 .5-.2c-.3-.1-.4-.6-.8-.1c-.3 .4 .4 1.1-.4 1c.1-.2 .1-.4 .2-.7h-.8l.2 .5c-.2-.1-.1-.2-.2-.2c0 .6-1 .6-1 1.2c-.3 .2-.8-.1-1.2 0l0-.1c-.5-.1-1 .3-1.2 .7v-.1a1.6 1.6 0 0 0 -.9 .7c-.7-.2-.9-1.8-1.3-.9c-.5 .2-.5 1.2-.2 1.5c-1.1 .1-1.9 1.4-3.1 1c-.1 .3 .1 .3-.2 .6c-1.5 .4-2.8 2-4.3 1.6c.3-.4-.2-.5-.3-.8c-.2 .6-.6-.3-.4 .5c.2 .4 .3 .6 .8 .6c-.7 .6-2 1.2-2.7 1.1c.3 .1 .2 .3 .1 .5c-.2-.7-.9-.5-1.3 0l.1 .4-.5-.3c-.1 .2 .2 1-.4 .8a1.2 1.1-1304.6 0 0 -.4-.4c-.3 .6-.7 1.5-1.4 1.4l-.7-.4c-.2 .2-.4 .8 .1 .7c-1.1 .1-1.7 .4-2.2 0c-.9 2.1-3.1 3.4-4.9 4.3l-.1-.3c-.6 0 .1 .6-.4 .6c0-.4-.7-.4-.5-1c-.8 .1-.5 1-.9 1.4c.2 .4 .2-.5 .4 .1c0 .2-1.1 .3-.9 .9c-.3-.1-.4-.6-.5-.9l-.2 .5c-.9-.4 .4-1.9-.6-2.5l-.3 .3c-.7-.4 .6-1.3-.5-1c-.3 .5-.1 1.6 .4 1.7c-.8 .7 .4 1.7-.5 2.1c-.4-.2 .7-.5 .2-.9c-.7-.2-.7 .8-1.2 .9c.6 0 .5 .8 .4 1.1c-.6 0 0-.7-.7-.4c.1 .4-.4 1 .3 1c.2 .9-.8 .2-.8 1c-.5-.4-.1-1.7-1-1.5c.4 .4-.4 1.3 .4 1.8c-.4 0-.6-.4-.6-.8c-.6-.1-.4 1.5-1.1 .6l.2 .6-.9-.3c-.3 .2-.6 1.4-1.1 .6c-.1 .2-.9 .6-.2 1c.7 0 .3-.8 1.1-.2c-.7-.4-.6 .5-.8 .9l-.3-.3c-.1 .2-.4 .4-.4 .7a.3 .3 0 0 0 -.4-.3l.1 .6c-.5 .7-.7-.7-1.3-.1l.3-.7c-.1 .2-.5-.1-.8 .3c.2 .5 .3 1.2 .4 1.6c-.2 .4-.4-.2-.5 .2l.1-.7c0-.2-.8-.5-1.3-.1c-.2 .4-.3 1.3 .4 1.2c-.3 .2-.8 .2-.8-.3c-.5 .5 .4 .4 .1 1c-.4-.1-1.3-.1-1.9-.2l0-1.1-.3 .2c0-.9-.5-.3-.7-1c-.3 .1-.4 .4-.5 .8c1.3 .4 .1 1.8 1 2.5c-.8 .9-2-1.6-2 .4c.2 .1 .3 .6 .5 .6c-.1 .4 .3 .9-.4 1c.2-.7-1.2-.4-.8-1.5c.2 .3 .5-.1 .6-.3c-.5-.1-.6-.9-1.2-.4c-.3 .3-.8 .7-.4 1.1c.4 .5 .5-.4 .6 .2c-.6 .7-1.2 .1-.9 1.1c.4-.4 .9 0 1.1 .3l-.4 .6-.1-.4c-1 .4 .2 .7-.6 1.3l-.9-.3c-.2-.7 1.3-.6 .5-1.4c-.5 .4-.4 1-1 1.1l.2-.4c-.2 .1-1.3-.9-1.5 .4c-.2 .6 .2 .4 .4 .7c-.7 .7-.7 1.2-1.2 1.7c-.4-.7-1 .7-.9-.4c.6 .1 1.7-.8 1.5-1.7c-.9-.5 .7-.4 .3-1.3c-.7 .5-1.2-.3-1.7-.6c-.2 .1-.2 .4-.3 .6c.3 .5 .5 .3 .9 .8a2.6 2.6 0 0 0 -1.4 2c-.4 0-.7-.5-.5-.8a12.8 12.8 0 0 1 -2.7 2.1c1 .2-.2 .7-.1 1.1q-.4-.3-.7-.6c-.3 .8-.3-.4-.9 0a8.7 8.1-1304.6 0 1 -1.3 2.3c-1.3 .2-2 1.7-2.6 2.3c-.6 .1-.9-.8-1.4-.5c-.4 .4 1 .4 0 .7l0-.2c-.1 .3-1.4 .7-1.1 1.6l-.3-.6c-.2 0-.2 .3-.2 .4c-.2-.2-.5-.3-.4-.6c-.9-.1-.8 .9-1.2 1.3l.6 .1c-.4 1-1.3 1.1-1.9 2l-.3-.4-.2 .6c-.2-.4-.6-.4-.8-.1m0 0 0 .3a.4 .4-1304.6 0 1 0-.3m87.3-54.8h-.1q.2-.2 .3-.2a2.3 2.1-1304.6 0 1 -.3 .2m25.6 1.1q-.1 .2-.1 0zm-81.7 33.8a.4 .4-1304.6 0 1 0 .1 .4 .4-1304.6 0 1 0-.1m-7.8 4.9a.3 .3-1304.6 0 1 .2-.3q-.1 .2-.2 .3m79.8-37.5 .3-.2q-.1 0-.3 .2m-83.8 40.3c-.2 .1-.4 .5-.6 .1q.3-.2 .6-.1m0 0 .1 0zM152.8 83.9l2.9 3.7a10.8 10-1304.6 0 0 -3.4 .7 9.9 9.2-1304.6 0 0 -2.9 1.8q-2.2 1.9-2.9 4.6t.3 5.8 3.4 5.8q2.5 2.9 5.4 4.4q2.9 1.4 5.8 1.2a8.6 8.1-1304.6 0 0 5.1-2.2q1.2-1 2.1-2.8l-6.3-7.4-4.1 3.5-2.6-3 6.7-5.9 11.1 12.9a17.2 16.1-1304.6 0 1 -1.9 3.2 16.1 15-1304.6 0 1 -2.5 2.6q-2.4 2-5.1 2.8t-5.6 .2-5.7-2.3-5.4-4.8q-3.4-3.9-4.5-8q-1.1-4 0-7.6a12.2 11.3-1304.6 0 1 4-6q2.8-2.4 6.2-3.3m33.2 .4q2.1 3.1 2.8 6.2q.7 3.1-.2 5.7a7.6 7-1304.6 0 1 -3.1 4.2q-2.2 1.5-4.9 1.4q-2.7-.1-5.3-1.9t-4.7-4.7a21.3 19.9-1304.6 0 1 -2.4-4.7q-.8-2.3-.7-4.5q0-2.2 .9-4a7.2 6.7-1304.6 0 1 2.5-2.9 7.4 6.9-1304.6 0 1 3.6-1.4q2-.3 4 .5t3.9 2.3 3.5 3.9m-2.9 2.2a18.3 17.1-1304.6 0 0 -2.5-2.9q-1.4-1.2-2.7-1.9q-1.3-.6-2.6-.5a3.9 3.6-1304.6 0 0 -2.3 .7q-2 1.5-1.9 4.6t2.4 6.5q1.5 2.2 3.3 3.6q1.8 1.3 3.5 1.5q1.8 .2 3.2-.7q1.3-1 1.7-2.7t-.1-3.9-2-4.3m-1.2-27.8 6.2 11.5q.7 1.2 1.3 2.6a7.2 6.7-1304.6 0 1 .4-4.2 6.1 5.7-1304.6 0 1 2.8-3.1 6 5.6-1304.6 0 1 3.2-.9q1.7 0 3.4 1q1.7 1 3.3 2.7t2.9 4.3a26.6 24.8-1304.6 0 1 2 4.9q.6 2.3 .5 4.4t-1 3.6a5.9 5.4-1304.6 0 1 -2.4 2.4 6 5.6-1304.6 0 1 -3.8 .8q-2-.2-3.7-1.7l2 3.6-2.8 1.6-17.2-31.9zm11.9 10.6q-1.3 .8-1.9 2.4t-.2 3.7a15.8 14.8-1304.6 0 0 1.5 4.3 15.6 14.6-1304.6 0 0 2.7 3.6q1.5 1.5 3.1 1.9t2.9-.3 1.8-2.3 .1-3.7-1.6-4.3q-1.8-3.5-4.2-4.9t-4.3-.3m18.8 1.2q1.8 3.2 4.1 4.5t4.5 .3a7.1 6.6-1304.6 0 0 2.3-1.7q1.1-1.1 1.9-2.8l1.7 4.1q-1.1 1.6-2.2 2.6a9.2 8.5-1304.6 0 1 -2.4 1.6 7.6 7-1304.6 0 1 -3.8 .7q-1.9-.1-3.7-1.2q-1.8-1.1-3.3-3.1q-1.6-2-2.7-4.7q-1.5-3.5-1.6-6.6q-.2-3.1 1-5.4a6.8 6.3-1304.6 0 1 3.5-3.3q2.7-1.3 5-.2q2.3 1.1 4.3 3.7q1.9 2.7 3.4 6.2zm-1.3-3.3 8.8-4.1a17.9 16.7-1304.6 0 0 -2-3q-1.1-1.2-2.3-1.7a3.4 3.1-1304.6 0 0 -2.6 .2q-1.8 .8-2.3 3.1t.4 5.4m13.7-17 2.9-1.1 1.5 4.1q0-2.5 .9-4.1a4.4 4.1-1304.6 0 1 2.5-2.2q.9-.3 1.8-.3l1.3 4q-1-.1-1.6 .2q-1.7 .6-2.3 2.4t-.4 4a21.3 19.9-1304.6 0 0 .9 4.5l3.6 10.9-3.1 1.2-4.7-14.3q-1.2-3.5-3.3-9.1m17.3-6.3 1.1 3.8q1-4.8 4.9-6q2.2-.6 3.8 .1t2.7 2.4a18.8 17.5-1304.6 0 1 1.8 3.7 68.8 64.2-1304.6 0 1 1.5 5.2l2.7 11.2-3.2 1-2.6-10.9q-.6-2.6-1-3.8q-.3-1.2-.7-2q-.8-1.8-2-2.6a3.3 3-1304.6 0 0 -2.6-.3q-1.6 .5-2.5 2.2t-.9 4.2a13.8 12.8-1304.6 0 0 .1 1.6q.1 .9 .4 1.9l.8 3.5 2.1 8.9-3.2 1-2.9-11.9-1-3.7-1.1-4.1-1.2-4.4zm21.1-4q1.3-1.5 2.6-2.3t2.9-1.2q2.5-.5 4.4 .5q1.9 1 2.9 3.3q.8 1.9 1.5 6.8l.7 4.8q.4 2.8 .7 4.9t.6 3.5l-3 .6-.3-1.9-.3-2.3q-.6 2.6-1.9 4t-3.3 1.8a6 5.6-1304.6 0 1 -3.4-.3q-1.5-.6-2.6-2.2q-1-1.5-1.3-3.8q-.3-1.9 .1-3.6a7.1 6.6-1304.6 0 1 1.4-2.9 7.8 7.3-1304.6 0 1 2.7-2.2q1.6-.9 3.9-1.3l2.5-.4q-.5-3.2-1.8-4.4t-3.5-.8a6.4 6-1304.6 0 0 -2.6 1.1q-1.1 .8-2.3 2.3zm11.5 9.2a13.8 12.8-1304.6 0 0 -1.8 .2q-6.5 1.3-5.9 6a4.8 4.5-1304.6 0 0 .7 1.9q.5 .8 1.4 1.1t1.8 .1q1.8-.4 2.8-1.7t1.1-3.3-.2-4.4m21.2-16.5 .3 3.9-7.7 15.8-.9 1.8-.8 1.5q.6-.3 1.2-.4l9.6-1.2 .2 3.6-14.5 1.8-.2-3.8 7.6-15.6a50.4 47.1-1304.6 0 1 1.8-3.4 22.9 21.4-1304.6 0 1 -2.5 .4l-7.5 1-.2-3.7zm7.2 1.3q1.5-1.3 2.9-1.9t3.1-.6q2.5-.1 4.2 1.1q1.7 1.3 2.3 3.7q.5 2 .4 7l-.1 4.9a243 226.8-1304.6 0 0 -.1 5l0 3.6-3 .1v-2l.1-2.4q-1.1 2.5-2.6 3.7q-1.4 1.2-3.5 1.3q-1.9 .1-3.3-.8t-2.1-2.6-.6-4q0-2 .7-3.6q.6-1.6 1.9-2.7t2.9-1.7 4-.7q1.4-.1 2.5 0q0-3.3-1-4.7q-1.1-1.5-3.3-1.4a6.4 6-1304.6 0 0 -2.7 .7q-1.2 .6-2.6 2zm9.7 11a13.8 12.8-1304.6 0 0 -1.8-.1q-6.6 .3-6.7 5.1a4.8 4.5-1304.6 0 0 .4 2q.4 .9 1.2 1.3t1.8 .4q1.9-.1 3-1.3t1.6-3.1 .6-4.4m34.2-21.4 4.7 35.4-3.9-.4-1.1-9-11.7-1.1-3.9 8.4-3.7-.3 15.9-33.4zm-.8 21.8-1.2-9.9q-.4-2.8-.5-4.4q-.2-1.6-.2-3.4l-1.1 2.7q-.6 1.3-2.2 4.9l-4.2 9.2zm18.2-10.1-1 4a8.3 7.7-1304.6 0 1 2-2q1.1-.8 2.3-1.1t2.4 0q1.9 .4 2.8 2t.7 4.1q3.2-4.5 7.1-3.6q1.8 .4 2.7 1.7t1 3.1-.3 3.9a52.7 49.2-1304.6 0 1 -1.2 4.7l-3.8 13-3.2-.7 3.6-12.1q.7-2.4 1.1-3.7t.4-2.1q.4-3.5-1.9-4a3 2.8-1304.6 0 0 -1.4 0 3.9 3.6-1304.6 0 0 -1.5 .8 7.8 7.3-1304.6 0 0 -1.4 1.4q-.7 .9-1.2 2q-.4 .8-.9 2t-1.1 3.6l-3.1 10.5-3.2-.7 3.8-12.7a100.9 94.1-1304.6 0 0 1-3.5q.2-.9 .3-1.7q.1-1.7-.3-2.7q-.5-1.1-1.5-1.3q-1.3-.3-2.6 .6q-1.4 .8-2.5 2.7t-1.9 4.3l-3.8 12.7-3.2-.7 4.2-13.9q1.9-6.6 3-10.9zm37.3-2.7-5.4 12.6q-.6 1.4-1.3 2.8q1.5-1.9 3.6-2.6a6.1 5.7-1304.6 0 1 4 0q1.6 .6 2.6 1.9q.9 1.3 1.2 3.2t-.2 4.4q-.4 2.4-1.7 5.2q-1.2 2.8-2.7 4.9t-3.1 3.5-3.4 1.7a5.9 5.4-1304.6 0 1 -3.3-.2 6 5.6-1304.6 0 1 -2.9-2.4q-1-1.7-.9-4l-1.7 4-2.9-1.1 15-35.1zm-1.4 16.4q-1.4-.5-2.9 .2q-1.6 .7-3.1 2.4q-1.4 1.7-2.5 4.2a15.6 14.6-1304.6 0 0 -1.2 4.5q-.2 2.2 .4 3.7t1.9 2q1.3 .4 2.8-.3t2.9-2.5a16.7 15.6-1304.6 0 0 2.5-4.2q1.6-3.8 1.4-6.6t-2.2-3.5m22.6-7.2-2.4 4.7-3.2-1.4 2.4-4.7zm-5.3 10.2-11.8 23.2-2.9-1.3 11.8-23.2zm1.3 16.3q-1.7 3.5-1.5 6.2t2.2 3.8q1.2 .6 2.7 .7t3.4-.3l-2.4 4q-1.9 .2-3.3-.1a9.2 8.5-1304.6 0 1 -2.6-.9 7.6 7-1304.6 0 1 -2.7-2.6 8.7 8.1-1304.6 0 1 -1-3.7q-.1-2.1 .7-4.7a24.1 22.5-1304.6 0 1 2.4-5.2q2-3.5 4.5-5.6t4.9-2.7 4.6 .5q2.5 1.3 2.9 3.9t-.7 5.8-3.2 6.7zm1.9-3.2 8.1 4.3a17.9 16.7-1304.6 0 0 1.3-3.5q.4-1.7 .1-2.9t-1.6-2q-1.7-.9-3.8 .2t-4.2 3.9m24 1.5-2.3 3.5q4.3-2.7 7.6-.4q1.8 1.2 2.2 2.9t-.3 3.6-1.9 4-3.2 4.8l-7 9.9-2.7-1.8 6.9-9.6a94 87.7-1304.6 0 0 2.3-3.4q.7-1.1 1.2-2q.9-1.9 .8-3.3t-1.3-2.2q-1.3-.9-3.2-.4q-1.9 .5-3.7 2.2a13.8 12.8-1304.6 0 0 -1.2 1.2 22.9 21.4-1304.6 0 0 -1.3 1.6l-2.2 3.1-5.6 7.8-2.7-1.8 7.5-10.5 2.3-3.4 2.6-3.6 2.7-3.9zm24.3 8.1-4.9 5.9 3.6 2.8-2.4 2.9-3.6-2.8-6.6 7.9q-2.2 2.7-3.1 4.1q-.8 1.2-.8 2.2a2.4 2.2-1304.6 0 0 .9 1.7q.8 .6 2.1 .7l-2.7 3.2a7.6 7-1304.6 0 1 -2.8-1.2q-1.7-1.4-1.7-3.1t1.2-3.7 3.5-4.7l7.5-9.1-3.1-2.5 2.4-2.9 3.1 2.5 3.8-4.6zm2.1 14.1q1.9 .1 3.3 .6q1.4 .5 2.6 1.6q1.8 1.7 2 3.8q.2 2.1-1.1 4.4q-1.1 1.9-4.6 5.6l-3.6 3.7-3.6 3.8-2.5 2.8-2.1-2 1.4-1.5 1.7-1.8q-2.5 1.2-4.3 1.1t-3.3-1.5q-1.3-1.2-1.6-2.8t.4-3.4 2.3-3.5q1.4-1.5 3-2.2q1.5-.7 3.1-.7q1.6 0 3.2 .7t3.2 2.2q1 .9 1.7 1.7q2.3-2.5 2.7-4.3q.3-1.9-1.2-3.3a6.4 6-1304.6 0 0 -2.3-1.3q-1.3-.4-3.2-.3zm-1.2 15.1a13.8 12.8-1304.6 0 0 -1.2-1.3q-4.6-4.3-8.1-.7q-.8 .9-1.2 1.8a3.4 3.2-1304.6 0 0 -.1 1.8 3.3 3.1-1304.6 0 0 .9 1.6q1.3 1.2 2.9 1.1t3.3-1.3 3.5-3m27.6-9.3-28.5 26.2-2.2-2.3 28.5-26.2zm-3 33-3.2 2.5-5.3-7 3.2-2.5zm33.3 16.8-4.3 2.3q.3-1.8 .2-2.9t-.9-2.4a7.7 7.2-1304.6 0 0 -2.6-2.6q-1.7-.9-3.8-1t-4.6 .6a20.2 18.8-1304.6 0 0 -5 2.3q-3.4 2-5.5 4.7t-2.7 5.4 .8 4.9q1.2 2.1 3.8 3.5l-4.1 2.8q-1.3-.8-2.1-1.7A12.8 12-1304.6 0 1 496 158q-1.8-3.2-1.4-6.8q.4-3.6 3.1-7.2t7.6-6.5q4.4-2.7 8.7-3.5q4.3-.8 7.6 .5q3.4 1.2 5.1 4.3q1.6 2.7 1.4 5.4m7.6 6.2-34.2 17.8-1.4-2.9 34.2-17.8zm3.6 10-4.8 2.3-1.4-3.2 4.9-2.3zm-10.6 4.9-23.7 11.1-1.2-3 23.7-11.1zm4.1 9.9-3.9 1.6q1.5 0 2.7 .4t2 1.2 1.2 2q.6 1.9-.3 3.6t-3.1 3.1q5.4-.1 6.6 3.7q.5 1.8-.1 3.2q-.6 1.5-2.1 2.7a16.5 15.4-1304.6 0 1 -3.5 2.1 52.7 49.2-1304.6 0 1 -4.6 1.9l-12.9 4.7-1-3.1 12-4.3 3.6-1.4q1.3-.5 2-1q3.2-1.9 2.5-4.1q-.2-.6-.7-1.2a4 3.7-1304.6 0 0 -1.4-.8 7.8 7.3-1304.6 0 0 -1.9-.3 11.5 10.7-1304.6 0 0 -2.2 .2 13.8 12.8-1304.6 0 0 -2.1 .5 84.8 79.2-1304.6 0 0 -3.6 1.2l-10.4 3.7-1-3.1 12.6-4.5q2.6-.9 3.5-1.3q1-.4 1.6-.8q1.5-.9 2.1-1.9q.6-1 .3-2q-.4-1.2-1.8-1.9q-1.4-.6-3.5-.4q-2.1 .1-4.5 1l-12.6 4.5-1-3.1 13.8-5q6.6-2.4 10.7-4.1zm6.4 30.3q1.4 1.1 2.2 2.4a8.7 8.1-1304.6 0 1 1.1 2.8q.4 2.4-.6 4.4t-3.4 3.2q-2 1-6.9 2.1l-4.9 1.2a282 263.2-1304.6 0 0 -5 1.2 107.7 100.6-1304.6 0 0 -3.6 1l-.5-2.9 1.9-.5 2.4-.5q-2.6-.4-4-1.5q-1.4-1.1-1.7-3.1a5.9 5.5-1304.6 0 1 .4-3.4q.7-1.6 2.3-2.7t3.9-1.7q2-.5 3.6-.3q1.6 .3 2.9 1.2t2.1 2.4q.8 1.6 1.2 3.7q.3 1.3 .3 2.4q3.3-.8 4.6-2.2t1-3.6q-.3-1.4-1-2.4t-2.3-2zm-9.7 12.3q0-1.1-.2-1.8q-1.1-6.3-5.9-5.2a4.9 4.6-1304.6 0 0 -2 .9 3.4 3.2-1304.6 0 0 -1.2 1.5 3.3 3.1-1304.6 0 0 -.2 1.9q.3 1.8 1.6 2.6q1.3 .8 3.3 .8q2 0 4.5-.6m25.5-5.4-7.8-2.4-.4-2.2 7.6 1.1zm-3.1 15.6-7.4 1.2 .4 4.6-3.7 .6-.4-4.6-10 1.6q-3.4 .5-5 1q-1.4 .4-2.1 1.2t-.6 1.9q.1 1 1 2l-4.1 .6q-.9-1.4-1-2.9q-.2-2.2 1-3.6q1.2-1.3 3.4-2q2.2-.7 5.6-1.2l11.4-1.8-.4-4 3.7-.6 .4 4 5.9-.9zm4.9 13-5.2 .6-.2-3.6 5.2-.6zm-11.4 1.2-25.5 2.7-.1-3.3 25.5-2.7zm-.7 18.9h-4.2q1.2-1.4 1.2-3.3q0-1.7-1.1-3q-1.1-1.3-3.1-2t-4.5-.5q-2.7 .1-4.8 1q-2.1 .9-3.4 2.2a4.7 4.4-1304.6 0 0 -1.2 3.1 4.6 4.3-1304.6 0 0 .3 1.9 8.3 7.7-1304.6 0 0 1.2 1.8l-4.4 .5q-.6-1-1-2t-.3-2.3a7.7 7.1-1304.6 0 1 1.7-4.7q1.7-2.1 4.6-3.4q3-1.3 6.9-1.5q3.7-.2 6.7 .8t4.6 2.9q1.6 2 1.6 4.5a8.7 8.1-1304.6 0 1 -1.1 4m-1.5 6q1.1 1.5 1.5 2.9q.4 1.5 .3 3.1q-.3 2.5-1.8 4.2q-1.5 1.6-4.1 2.2q-2.1 .5-7.1 .3l-4.9-.1a245.3 229-1304.6 0 0 -5-.1h-3.6l.3-3h2l2.4 .1q-2.4-1.1-3.4-2.6t-.8-3.5a5.9 5.5-1304.6 0 1 1.3-3.2q1.1-1.4 2.9-2t4.1-.6q2 .1 3.5 .7q1.5 .6 2.4 1.9a7.8 7.3-1304.6 0 1 1.3 2.9q.4 1.7 .2 4l-.4 2.4q3.3 .1 4.9-1q1.6-1 1.9-3.2q.1-1.4-.3-2.7t-1.6-2.6zm-12.5 9.5a13.8 12.8-1304.6 0 0 .3-1.8q.6-6.5-4.2-6.7a4.8 4.5-1304.6 0 0 -2.1 .3 3.4 3.2-1304.6 0 0 -1.5 1.2q-.6 .8-.6 1.8q-.2 1.8 .8 2.9q1 1.2 2.9 1.7t4.4 .6m13.9 39.5-4.6-1.1q1.4-1.2 2.1-2.2a7.1 6.6-1304.6 0 0 1.1-2.4 7.7 7.2-1304.6 0 0 0-3.8q-.5-1.8-1.9-3.3q-1.4-1.5-3.6-2.6a20.2 18.8-1304.6 0 0 -5-1.6q-3.7-.6-7 0t-5.5 2.5-2.8 4.4q-.6 2.4 .3 5.3l-4.7-.5q-.3-1.5-.3-2.7a12.8 12-1304.6 0 1 .4-2.8q.9-3.7 3.7-6.3q2.8-2.6 7.1-3.5t9.7 0q4.9 .8 8.4 3.1t4.9 5.5a11 10.3-1304.6 0 1 .6 6.8q-.8 3.1-2.8 5.1m-27.4 17.4q-3.6-1.1-6.1-3t-3.4-4.4a7.6 7-1304.6 0 1 0-5q.9-2.5 3.2-4q2.3-1.5 5.6-1.8q3.3-.3 6.9 .7a21.3 19.9-1304.6 0 1 4.9 2.1q2.1 1.3 3.4 3q1.3 1.7 1.7 3.5a7.2 6.7-1304.6 0 1 -.3 3.7 7.4 6.8-1304.6 0 1 -2.1 3.2q-1.5 1.3-3.6 2t-4.7 .7a22 20.5-1304.6 0 1 -5.3-.8m1.1-3.4a18.3 17.1-1304.6 0 0 3.8 .6q1.9 .1 3.4-.3t2.5-1.2a3.9 3.7-1304.6 0 0 1.4-1.9q.8-2.4-1.2-4.6q-2-2.3-6-3.4q-2.6-.8-5-.6t-3.9 1-2.1 2.5q-.5 1.5 .2 3t2.6 2.8 4.4 2m7.3 15.9-3.8-1.4q1.1 1 1.6 2.1t.5 2.3-.6 2.4q-.9 1.9-2.7 2.6t-4.3 .3q3.8 3.6 2 7.3q-.8 1.7-2.3 2.4q-1.5 .7-3.3 .6a16.5 15.4-1304.6 0 1 -3.8-.7 52.7 49.2-1304.6 0 1 -4.5-1.7l-12-5.1 1.5-3 11.2 4.8q2.2 1 3.5 1.4t2 .6q3.4 .7 4.5-1.5a3 2.8-1304.6 0 0 .3-1.4q0-.7-.4-1.5t-1.1-1.5a11.5 10.7-1304.6 0 0 -1.7-1.4 13.8 12.8-1304.6 0 0 -1.8-1 82.6 77-1304.6 0 0 -3.3-1.5l-9.7-4.1 1.5-3 11.7 5 3.3 1.3q.9 .3 1.7 .5q1.6 .3 2.8-.1t1.6-1.3q.6-1.2 .1-2.6t-2.1-2.8q-1.5-1.3-3.8-2.3l-11.7-5 1.5-3 12.9 5.5q6.1 2.6 10.1 4.1zm-23 41.2-13.4-7.9q-1.7-1-8-4.4l1.7-2.6 3.4 1.8q-1.2-2-1.3-3.8a5.9 5.5-1304.6 0 1 1-3.5q2.1-3.2 5.7-2.8t8.3 3.2l11.2 6.6-1.8 2.9-9.9-5.8a100.9 94.1-1304.6 0 0 -2.5-1.4 32.1 30-1304.6 0 0 -2-1.1 11.5 10.7-1304.6 0 0 -1.4-.5q-1.7-.4-2.9-.1a3 2.8-1304.6 0 0 -1.9 1.4q-.6 1-.6 2.1t.7 2.3a11.2 10.5-1304.6 0 0 1.9 2.3 19 17.8-1304.6 0 0 2.9 2.1l10.8 6.3zm-6.7 9.3-3.2-2.2q2.2 4.2-.4 7.5q-1.4 1.8-3.2 2.2t-3.6-.2a19 17.8-1304.6 0 1 -3.8-1.8q-1.9-1.2-4.5-3l-9.2-6.8 2-2.7 8.9 6.6q2.1 1.6 3.2 2.2q1 .7 1.9 1.1q1.8 .9 3.3 .7q1.5-.2 2.4-1.3q1.1-1.3 .8-3.2q-.3-1.8-1.8-3.6a13.8 12.8-1304.6 0 0 -1.1-1.1q-.6-.6-1.5-1.2a263.7 246.1-1304.6 0 0 -2.9-2.1l-7.3-5.4 2.1-2.7 9.8 7.2 3.1 2.2 3.4 2.4 3.6 2.6zm-15.1 15.7q-.1 1.9-.7 3.3a8.7 8.1-1304.6 0 1 -1.8 2.7q-1.8 1.9-3.9 2.3t-4.4-.7q-1.9-.9-5.4-4.2l-3.5-3.2-3.6-3.2a98.6 92-1304.6 0 0 -2.7-2.2l2.1-2.3 1.4 1.3 1.7 1.6q-1-2.4-.8-4.2t1.7-3.4a6 5.6-1304.6 0 1 2.9-1.9q1.7-.4 3.5 .1t3.4 2q1.4 1.3 2.1 2.8q.6 1.5 .6 3.1a7.8 7.3-1304.6 0 1 -.9 3.2q-.8 1.7-2.4 3.4a29.8 27.8-1304.6 0 1 -1.8 1.8q2.4 2.1 4.2 2.2q1.9 .2 3.5-1.5q1-1.1 1.5-2.4t.4-3.2zm-15.2 0q.9-.7 1.4-1.3q4.6-4.9 1.2-8.1a4.8 4.5-1304.6 0 0 -1.8-1 3.4 3.2-1304.6 0 0 -1.9 0 3.3 3.1-1304.6 0 0 -1.6 1q-1.3 1.4-1.3 2.9t1.1 3.2 2.8 3.2m7.9 26.7-25-26.1 2.5-2.4 25.1 26.1zm-273.6-299l28.2 16.9-3.2 2.7-7-4.4-9.8 8 2.8 7.8-3.1 2.6-10.8-31.1zm14.5 13.1-7.7-4.8a100.9 94.1-1304.6 0 1 -3.5-2.2 39 36.4-1304.6 0 1 -2.5-1.9q.6 1.2 1.1 2.4l1.7 4.5 3.1 8.4zm6.9-18.4 2.2 3.3q-.1-2.4 .8-4.3a6.5 6.1-1304.6 0 1 2.7-3 6.7 6.2-1304.6 0 1 3.3-1.1q1.7-.1 3.4 .6q1.7 .7 3.3 2.3a20.2 18.8-1304.6 0 1 2.9 3.7 21.8 20.3-1304.6 0 1 1.9 4.5q.6 2.2 .4 4.2t-1 3.5a6.5 6.1-1304.6 0 1 -2.5 2.5 7.2 6.7-1304.6 0 1 -2.6 1 5.8 5.3-1304.6 0 1 -2.6-.1q-1.3-.4-2.6-1.3q1.3 1.7 2.4 3.6l4.6 8-3 1.9-11.1-19.3q-2.6-4.5-5.2-8.4zm6.8-.4q-1.3 .8-1.9 2.4t-.3 3.6 1.5 4a12.4 11.6-1304.6 0 0 2.7 3.1q1.6 1.2 3.2 1.5t2.9-.5q2-1.2 2.1-4t-1.6-5.8a16.1 15-1304.6 0 0 -2-2.7 9.4 8.8-1304.6 0 0 -2.2-1.7 5.2 4.8-1304.6 0 0 -2.2-.6 3.9 3.6-1304.6 0 0 -2.1 .6m11.4-9.9 3-1.4 1.7 3.6q-.1-2.3 .7-3.9t2.5-2.4a6.2 5.8-1304.6 0 1 1.9-.5l1.5 3.6a4.1 3.8-1304.6 0 0 -1.6 .4 3.9 3.7-1304.6 0 0 -2.3 2.5q-.6 1.7-.3 3.8a17.4 16.3-1304.6 0 0 1.2 4.1l4.2 9.7-3.2 1.5-5.4-12.8q-1.3-3.1-3.7-8.1m19.3 5.1q1.3 3.1 3.5 4.5t4.5 .4q1.4-.5 2.7-1.5q1.2-1 2.3-2.6l1.2 3.9a15.6 14.6-1304.6 0 1 -2.6 2.3 10.6 9.9-1304.6 0 1 -2.7 1.3 8.7 8.1-1304.6 0 1 -4 .5 8.8 8.2-1304.6 0 1 -3.6-1.4q-1.7-1.1-3-3.1a19.7 18.4-1304.6 0 1 -2.1-4.6q-1-3.3-.8-6.3q.3-2.9 1.8-5a7.6 7-1304.6 0 1 4-3q2.9-1 5.1 .1t3.8 3.7q1.6 2.6 2.6 6zm-.9-3.2 9.5-3.4a14.9 13.9-1304.6 0 0 -1.6-2.9q-.9-1.2-2.2-1.7q-1.2-.5-2.6 0q-2 .7-2.8 2.8q-.8 2.1-.3 5.1m25.5-16.4 .3 3.6q-2-.7-3.9-.3q-1.4 .3-2.1 1.3q-.7 1-.5 2.3q.2 1.3 1.2 1.8t3.3 1.3 3.7 2 1.7 3.4a9 8.3-1304.6 0 1 0 2.9 6.7 6.2-1304.6 0 1 -1 2.5 6.2 5.8-1304.6 0 1 -1.9 1.9 7.6 7-1304.6 0 1 -2.6 1.1 9.6 8.9-1304.6 0 1 -5-.2l-.6-3.8q1.5 .5 2.6 .6q1.1 .1 2-.1q1-.2 1.7-.8q.8-.6 1.1-1.3t.2-1.6q-.2-1.3-1.2-1.8q-1-.5-3.3-1.4t-3.6-2-1.7-3.3q-.3-2 .2-3.7t1.9-2.8 3.2-1.6q2-.4 4.4 0m12.1-9.2 .4 6.8 4.9-.6 .2 3.4-4.9 .6 .6 9.1q.2 3.1 .5 4.5q.3 1.2 1.1 1.9q.8 .6 1.9 .5q1.1-.1 2.2-1l.2 3.7a8.7 8.1-1304.6 0 1 -3.1 1.1q-2.4 .3-3.7-.8t-1.8-3-.6-5.1l-.7-10.4-4.3 .5-.2-3.4 4.3-.5-.3-5.3zm27.9 17.2q-.2 3.5-1.6 6.3t-3.6 4.4a8.5 8-1304.6 0 1 -5 1.6 8.2 7.6-1304.6 0 1 -4.8-1.5q-2-1.6-3.1-4.4t-.9-6.3a17.4 16.3-1304.6 0 1 1-5 12.8 12-1304.6 0 1 2.2-3.9 9.4 8.8-1304.6 0 1 3.2-2.6 8.3 7.7-1304.6 0 1 3.8-1q2 0 3.7 .9t2.9 2.5a12.6 11.8-1304.6 0 1 1.8 3.9 17.9 16.7-1304.6 0 1 .4 5m-3.6 .1q.1-1.9-.2-3.6a10.1 9.4-1304.6 0 0 -1.1-2.9 6.2 5.8-1304.6 0 0 -1.8-1.9 4.5 4.2-1304.6 0 0 -2.3-.6q-2.6 0-4.4 2.6q-1.8 2.6-2 6.4q-.2 2.6 .5 4.6t1.9 3.1 2.9 1.1a4.6 4.4-1304.6 0 0 3.1-1.1q1.4-1.1 2.2-3.1t1.1-4.5m89.1 283.8 43.2 44.4c-34.1 19.8-74.7 35.6-116 41.3l-48.3 1.6a199.5 186.2-1304.6 0 1 -26.4-3.9c-131.1-29.1-206.5-158.4-168.6-288.6c6.8-23.2 27.6-58.7 40-78.5l108.8 111.8 228.1 128.7-4.4 4.2a210.9 196.9-1304.6 0 1 -56.4 39.1M123.9 236.2q0-2.2 .1-4.4a203.1 189.6-1304.6 0 1 10.2-56.4l1.9-5.5 91.5 51.6-94-96.5c-12.4 20-30.2 51.3-36.4 72.3c-37.3 127.9 36.9 254.8 165.5 283.4a194.9 181.9-1304.6 0 0 25.6 3.8l47.8-1.7c38.6-5.3 76.5-19.6 108.9-37.7l-40.4-41.5a210.9 196.9-1304.6 0 1 -23.4 9.2l-.6 3.1-2 9.2 1 1 4.8 4.6 4.7 4.6 2.4 2.3-6 1-12.7 2.2-7.4 13.9-1.6 3-.7-1.4-2.9-6.1-2.8-6.1-1.3-2.7-5.6-.6-10.6-1.3-2.2-.2 14-13.3-.3-2-.4-3.4a215.5 201.2-1304.6 0 1 -29.9 3.1 217.8 203.3-1304.6 0 1 -18.9-.2l0 .1-.7 3.3 .9 .8 5.3 5.2 5.2 5.1 3.7 3.6-21.9 3.7-3.5 6.6-4.2 7.8-2.9 5.4-2-4.5-3-6.4-3-6.5-.9-1.9-21.6-2.6 1.4-1.3 7.2-6.9 7.7-7.3 .1-.1-.9-6.7-.3-1.9 0-.3a210.9 196.9-1304.6 0 1 -34.9-11.5l-.6 .2-7.3 1.5-12.5 2.6-.5 .1-3 6.1-3.1 6.3-3.1 6.3-3.1 6.3-1.5 3-2.5-4.9-5.8-11.2-5.2-10.2-10.2-.9-11.6-.9-8.5-.7 3.9-4 5-5.1 5-5.1 5-5.1 3.3-3.3-.8-4.5-2.6-15.4-.4-2.6-.2-.9a208.6 194.7-1304.6 0 1 -18.8-23.5l-.6 .1-.7 .1-3.9 7.2-4.5 8.4-2.2 4.1-9-19.3-.6-.1-7.3-.9-7.2-.8-6.6-.8 5.6-5.4 6.3-6 4.5-4.3-2.8-21.4 4.7 2.4 5.8 2.9 .7 .4a202.4 188.9-1304.6 0 1 -10.4-36l-.5-1.1-.2-.4-1.9-4-.1-.2-6.7-.8-6.8-.8-5-.6 7.6-7.3 6.4-6.1-1-7.1-1.5-11 5.5 2.8 .7 .4zm258.6 171.6a206.3 192.5-1304.6 0 0 80-48.5L138.5 176.4a198.6 185.3-1304.6 0 0 -10.2 62l5.2 2.6 17-9.1-2.8 13.1-1 4.5-.2 .8 1.5 1.5 1.8 1.8 1.8 1.8 1.8 1.8 1.8 1.8 1.8 1.8 1.9 1.8 .4 .4-.9 .2-4 .7-3.9 .6-3.9 .7-3.8 .6-2.2 .4-7.6 14.4a197.9 184.6-1304.6 0 0 10.3 30.9l1.5 .8 1.5-.8 3.3-1.8 3.4-1.8 3.4-1.8 3.5-1.9 3.6-1.9 1.2-.6-4.6 21.6 3 2.9 3.2 3.1 3.4 3.3 3.7 3.6 1.8 1.8-1.3 .3-2.9 .5-2.9 .5-2.9 .5-2.9 .5-2.6 .4a204.1 190.4-1304.6 0 0 15.5 19.3l3.6 1.7 5.4 2.5 6.2 2.8 7.4 3.4 1.8 .8 1.9-1.1 2.4-1.4 2.4-1.4 2.4-1.4 2.4-1.4 2.4-1.4 2.5-1.4 2.4-1.4 2.4-1.4 2.4-1.4 2.4-1.4 1.1-.6-.3 1.3-.5 2.8-.5 2.8-.5 2.7-.4 2.7-.5 2.7-.4 2.6-.5 2.6-.4 2.6-.4 2.5-.4 2.5-.4 2.5v.1l5.1 4.6 4.5 4 4 3.6 3.6 3.3 3.4 3.1 1.3 1.2-1.5 .3a206.3 192.6-1304.6 0 0 26.4 8.3v-.2l-.3-2.2-.3-2.2-.3-2.2-.1-.9 1.9 1 4.4 2.2 4.2 2.1 4 2 3.9 1.9 .6 .3 .7-.4 4.9-2.7 5.3-2.8 5.8-3.1 3.1-1.7-.2 1.1-.5 2.3-.5 2.3-.5 2.3-.5 2.3-.5 2.3-.3 1.2a213.2 199-1304.6 0 0 18.1 .2 210.9 196.9-1304.6 0 0 29.2-3.1l-.1-.3-.3-2.3-.3-2.3-.3-2.3-.2-1.3 1.4 .7 2.6 1.3 2.6 1.3 2.6 1.3 2.6 1.3 .5 .3a206.3 192.6-1304.6 0 0 15.5-4.2l5.4-2.9-.1 .4zm26.7-307.2c-1-.4 .1 .8-.7-.1c.3-.2 .6-.3 .7 .1m1.1 .5c-.1 .5 .4 1-.3 1.2c.1-.4 0-.9 .3-1.2m13.3 14.1c.1-.1 .1 .3 .1 .4c-.2-.1-.6 0-.6-.3c.2 .1 .3-.1 .5-.1m3.6 3.1c-.3 .3-1.3-.2-1.8-.5zm2.4 4q.1 .7-.5 .2c.1-.2 .3-.1 .5-.2m7.2 6.8c.2 .1 .8 .3 .6 .7c0-.4-1.1-.4-.6-.7m3.6 2.8c.1 .1 .1 .2 .3 .3c.1 .3-.3 .3-.5 .2zm41.7 69.1 .4-.1 0 .5zm6.5 36.4c.3 .5-.3 .4-.4 .5c-.1-.4 .4 .1 .3-.5m2 19.9v-.2l.7 0zM182.6 136c-.5 .7 .7 .1-.2 .5c-.1-.3-.2-.5 .2-.6m.6-.7c.4 .1 1-.1 1 .6c-.3-.2-.8-.3-1-.6m14-7.5c-.1-.1 .3 0 .3 0c-.1 .1 0 .5-.3 .4c.1-.2 0-.3-.1-.4m3.1-2.3c.2 .3-.3 1.1-.6 1.4zm3.7-1.2q.6 .1 .1 .5q-.1-.2-.1-.5m6.5-4.7c.1-.1 .3-.6 .6-.4c-.3-.1-.5 .9-.6 .4m2.7-2.6q.1 0 .2-.2c.3 0 .2 .3 .1 .5zm58.2-29.2v-.3l.3 .1zm28.3-6c.4-.3 .3 .3 .4 .3c-.3 .1 .1-.4-.3-.3m15.2-3.1 0-.7 .1 .7z"/></svg>