<svg fill="currentColor" xmlns="http://www.w3.org/2000/svg" viewBox="0 0 640 512"><path d="M408.2 100.5h-.3zm3 .5h-.2q.1-.1 .2 0m61 59.7h.2l.2 .5zm19.9 44.8v-.1q.2 .2 .3 .4zm.4 34.4q-.2-.1 0-.1zm-3.3-18.2-.1 .1zm-66.4-107.6-.1 .2q0-.2 .1-.2m-14.7-13.6h2.1c.3 .5-.9 .2-.9 .8c0 .6 1.1 1.1 1.6 .8c-.4-.3-.4-.2-.9-.3c.3-.7 .9-.3 1.4-.5c-.2-.1-.3-.3-.4-.3q.7 0 1.6 .6c-.5-.1-.2 .3-.2 .5c.4-.4 1.2-.2 1.8 .5c.1 1.1 1.9 .6 2.7 1.5a4.2 4.2 0 0 1 -2.3 .2c.4 .7 .7 .4 1.1 1.2c.6-.2 1.2-.7 2.2-.4l-.3 .4c.9 .3 1.3-.3 2.1 .4c1.4 1.3 2.9 2.5 4 3.5l-.3 .4c1.3-.3 2.3 1.3 3.5 1.7c1.2 1.5 3.4 2.2 3.6 3.5c2.7 1.8 5.1 3.4 7.4 5.9l-.9 .2c.8 0 0 .6 .5 .9c-.1-.9 1.1 0 1.7 0c.7 1.4 2.5 2.3 3.8 2.9l-.3 .4c1.6 .3 2.1 2 3.2 3.4c0 .3-.2 .8 .2 1.2c1.2 .1 1.5 .5 2.8 1.1c.6 .7 1.6 2 2 3c3.3 2 5.1 5.4 8 8l-.3 .6c3.3 2.2 5.1 6.6 7.4 8.8l-1 .3c.3 1 1.4 1.7 1.9 1.1c.3 1 1.8 1.8 1.4 2.8c.4 1 1.1 .8 1.6 1.4a12.8 12.8 0 0 0 2 3.6c-.3 0-.5 .2-.3 .6c.6 .5 1.1 2.4 1.8 1.2c.4 2.1 2.9 3.9 3 6.1c.2-.3 .5 .1 .8 .2c.9 1.6 1.2 3.6 2.3 4.6c0 .3-.7-.2-.4 .5c.3 .3 .4-.2 .8 .2c1.9 2.4 2 5.6 3.2 8c2.5 4.1 4.1 8.8 5.7 13.1h-.2c1.4 1.2 .3 3.7 2 4.4c-.1 .4 .3 1.3-.2 1.2c.9 .9 .5 3.1 1.5 4.5c0 1.8 1.1 3.1 1.2 5c-.2-.1-.3-.4-.6-.4c-.3 .8 1.4 1.4 .4 2.1c.1 .4 .5 .2 .5 0c.6 4 2.2 8.1 3.3 12.2c-.1 3.2-1.9 .6-.6 2.8c-.2 .2 .5 .1 .3 .1c.5 .9-1 1.6-.3 2.2c.6-.4 .4 .4 .9 .3c-.2 1.9-.8 2.4 0 3.7l-.4-.1c1.3 1.5 1 3.6 2.4 4.9c1.3 9.4 2.4 18.6 2.2 28c-.4 9.2-.8 18.3-2.9 27.5c-1.4 2-1.3 2.1-1.4 4.6c-.2-.1-.2-.3-.3-.1c.8 .3-.3 1.7 .4 2c-.8 3.4-1.3 6.5-2.2 10c.1-.6-.5-1-.6-.4l.3 .8-.2 .1c0 .4 .3 1.1 .6 .6c-1.6 8.9-6 16.8-9.2 24.9c-1.1 1.8-2 4.6-2.8 6.7c-3.8 5.6-7.4 10.5-10.1 16.7c0 0-1.3-1.8-.4-4.5c.1-3.9 3.9-7.1 4.5-11.1c.1-.4 .9 .5 1.1-.5c.3-4 3.5-8.9 6.1-12.7l.2 .4c.5-.7 0-2.1 .4-2.9c.2 .1 .2 .4 .5 .3c-.4-.4 .3-1.7 .1-2.2c.3-.3 .7-.1 1.2-.4l-.4-.7c-1-1.9 1.3-3.3 1.1-5.4c.1 .1 .2 .3 .4 .2c.1-3.3 1.4-7 1.9-10.6c.2 .2 .6 .4 .9 .3c-.6-.4-.5-1.5-.4-2.4c.8-.3-.2-1.8 .4-2.7l.2 .1c-.6-1 .7-1.1 0-2l.6-.4c-.9-.6 .8-1.1 .4-1.8l-.2 0c-.1-.7 .4-.9 .4-1.5h.1c0-1.4 .7-2.1-.1-2.2c.7-.4 0 1.4 1.1 .8c.1-4.7 1-9.3 1.5-13.9c.4-.5 .5-.8 .8-.9c-.1-.5 .1-1.7-.3-2.2c.1 0 .4-.3 .5-.5c.4-.8-.8-1-.3-1.9q.3 .6 .7 .4c-.5-.8-.3-1.9-.5-2.8c.1 .2 .2 .4 .4 .4c-.6-1.1 .3-1.9-.1-2.8l.4 .3c.6-1.4-.9-.4-.5-1.7c.1 .3 .3 .2 .5 .3c-.7-1.2-.4-3.1-.6-4.3q.2 .1 .2 .1c-.1-1.3 .2-2.6-.1-4c.2-.5 1.1 .2 1-1.2c-.9 0-.4-2.3-1.4-1.5c.2-1.1 .5-2.9 .2-3.7c.4 .5 1.1-.6 1.2 .4l.5-.7c.4 .1-.1 .7 .4 .5c0-.5-.4-1.9-.3-2.3c-.6-.9-1.6-1.6-1.8-3c.3 .5 .8-.1 1.1-.1l-1.7-1.8c-.1-.4 .7-.1 .4-.8c-.3 .1-.4-.2-.6-.4c.1-.2-.3-1.9 .5-2.2c.3-.3 .3 .7 .5 .2c-.1-.9-.4-.9-.5-1.8h.1c.1-.6-.5-1.7-1-1c0 .4 .5-.2 .3 .4c-.6-.4-.8-1.3-.9-2.2c.2 .3 .4 .2 .6 .3c-.7-1.1-1.1-2.2-1.5-3.4c.2 .1 .5 .3 .6 .4c.3-1.7-1.2-3.2-.6-4.6c-.1 .1-.5 .1-.4 0c0-.8 .6-.8 .3-1.3c.3-.1-.2-.6-.4-1.2c-.2-.2 0-.2 .1 0a12.8 12.8 0 0 1 -1.1-5.1c-.3 .1-1.1-.9-1.1-1.3l.6 0q.1-.2 .1-.5q-.1-.1 0-.2q-.1-.4-.1-.6l.2 .6h0l-.2-.6 .2-.2q-.3-.2-.2 .1c-.3-.5-.6-1-.3-1.6c0 .2 .9 .5 .7-.2c-.3-1.1-.3-.3-.7-1.1l-.3-.5c-.5 .1-.2-.9-.6-.5c.2-.4-.6-1.5 .2-1.6h.7c-.2-.5-.9-.6-1.3-.9q0-.1 .2-.2c-1 .1-.1-1.2-1.1-1.5c.1-1.1-.6-2.6-.1-3.2c-.5-.7-1.1-1.3-1.1-2.2c.1 .2 .2 .4 .4 .4c.2-.6-.1-.7-.4-1.2c.2 .1 .3-1.3 .5-2c-.5-.7-1-.3-1.4-.2c.8-1-1.3-1.9-.6-3.1c.3 .2 .9 1 1 .2c.8-1-1.2-1.2-1.1-2.4l-.8 .5c.4-.6-1-1.5-.1-1.6c-.4-.3-.2-1.4-1-1c.1-2.1-1.9-4.2-.8-5.9c-.2-.2-.3-.9-.7-.6c-.3 .6 .5 .5 .3 .8c-.1-.2-.4-.2-.5-.2c0-.6-.1-1.1 .8-.8c.1-1.4-1.9-.7-2.1-2.4q.5-.1 .2-.6l-.9-.6c-.3-1.1 .5-.9 1.1-1.2c-.3-.5-.5-1.2-1.1-1.2l.4-1c-.3 .7-.5-.3-.8-.5l.2 .2c.2-.2-.2-.7-.4-1c-.3 .2-.2 .9-.1 1.3c-.4-.2-.5-.6-1-.8c.6-.1 0-1-.1-1.5c-.1-.5-.7-.3-.8-.5c.3-.1-.3-.8 .3-.6c.2 .2-.1 .5 .3 .7c.1-.4 .6-.6-.1-1.1c-.5-.4-1 .6-1.1-.5c.2 .2 .5 .1 .8 .2l-.1-1-.5 .2c.1-.2 .2-.1 .2-.2c-.6 0-.8-1.3-1.5-1.2c-.2-.4-.1-1.1-.2-1.5l.1 0c0-.6-.5-1.2-1-1.5h.1a2.2 2.2 0 0 0 -1-1.2c0-.9 1.7-1.2 .7-1.6c-.4-.7-1.5-.7-1.6-.2c-.3-1.4-1.9-2.5-1.8-4c-.3-.1-.3 .1-.6-.2c-.8-2-2.7-3.5-2.6-5.5c.5 .4 .5-.3 .7-.4c-.6-.2 .1-.8-.7-.5c-.4 .3-.6 .4-.5 1c-.9-.9-1.9-2.6-1.8-3.4c0 .4-.3 .3-.5 .1c.7-.4 .3-1.2-.3-1.7l-.4 .2 .2-.6c-.3-.2-1 .3-1-.5q.3-.2 .3-.4c-.7-.4-1.8-.9-1.9-1.8l.2-.9c-.2-.2-.9-.4-.7 .2c-.4-1.3-.8-2.1-.6-2.8a16 16 0 0 1 -6-5.9l.3-.2c-.1-.8-.7 .1-.8-.4c.4 0 .3-.9 1-.7c-.3-1.1-1.3-.6-1.9-1.1c-.4 .2 .6 .2 0 .5c-.2 0-.6-1.3-1.2-1c.1-.4 .6-.5 .9-.6l-.7-.3c.2-1.2 2.2 .4 2.6-.9l-.4-.4c.2-.9 1.6 .7 .9-.6c-.6-.3-1.8 0-1.7 .6c-1-1-1.7 .6-2.6-.5c.1-.6 .8 .8 1.1 .2c0-.9-1.1-.8-1.3-1.4c.2 .7-.7 .7-1.1 .5c-.2-.8 .8-.1 .2-.9c-.4 .2-1.2-.4-1 .4c-1 .3-.5-1-1.4-.9c.3-.7 1.8-.2 1.4-1.3c-.4 .5-1.6-.5-1.9 .6c-.1-.4 .2-.8 .7-.8c-.1-.7-1.9-.4-1.1-1.4l-.6 .3 0-1.1c-.4-.4-1.8-.7-1.1-1.3c-.2-.1-1-1-1.2-.2c.2 .8 1 .3 .6 1.3c.2-1-.8-.8-1.3-1l.2-.3c-.3-.1-.5-.4-.9-.4q.3-.2 .2-.4l-.6 .2c-1-.6 .6-.9-.3-1.5l.9 .3c-.2-.1 0-.7-.5-1c-.5 .3-1.2 .4-1.7 .6c-.5-.2 .1-.5-.4-.6l.8 .1c.2 0 .3-1-.3-1.5c-.4-.3-1.6-.3-1.2 .5c-.3-.3-.4-.9 .1-1c-.8-.5-.3 .5-1.1 .2c0-.4-.3-1.5-.4-2.3l1.2 0-.4-.4c1 0 .1-.6 1-.9c-.2-.4-.7-.5-1.1-.6c-.1 1.6-2 .3-2.6 1.3c-1.3-.8 1.2-2.6-1.1-2.4c0 .3-.7 .4-.6 .6c-.5-.1-1 .4-1.3-.4c.9 .2 .1-1.4 1.4-1.1c-.3 .2 .3 .6 .5 .7c0-.5 .8-.7 .1-1.4c-.5-.3-1.1-.8-1.4-.3c-.4 .5 .7 .5 0 .8c-1-.6-.5-1.5-1.6-1c.6 .4 .3 1 0 1.3l-.8-.4 .4-.2c-.8-1.2-.8 .3-1.7-.7l.1-1c.7-.3 1.2 1.5 1.8 .5c-.6-.6-1.2-.3-1.6-1.1l.6 .3c-.2-.3 .6-1.6-.9-1.7c-.7-.2-.4 .2-.7 .5c-1.1-.8-1.7-.7-2.4-1.3c.7-.5-1.1-1 .2-1.1c0 .7 1.6 1.9 2.5 1.6c.3-1.1 .7 .8 1.6 .3c-.8-.7-.1-1.4 .2-2c-.2-.3-.6-.3-.8-.3c-.5 .4-.2 .6-.5 1.1a3.8 3.8 0 0 0 -2.9-1.4c-.1-.5 .4-.9 .8-.6a19.7 19.8 0 0 1 -3.4-2.9c.1 1.1-1-.2-1.3 0q.1-.5 .5-.9c-1.1-.3 .4-.4-.4-1a14.7 14.8 0 0 1 -3.1-1.2c-.6-1.4-2.7-2.1-3.7-2.8c-.3-.7 .6-1.2 .1-1.7c-.6-.4-.1 1.1-.8 .1l.2-.1c-.4 0-1.3-1.5-2.3-1l.6-.4c-.1-.2-.4-.1-.6-.2c.2-.3 .1-.6 .5-.6c-.2-1-1.3-.8-2-1.2l.1 .8c-1.4-.4-1.9-1.4-3.1-1.9l.3-.4-.8-.2c.4-.3 .2-.8-.3-.9m34 34.5h-.2zm-8.1-9 .3 .3q-.3-.2-.3-.3m-11.8-11.4-.5-.2q.4-.1 .6 .2m.4-.3v.1c.4 .6 .5 1.6-.1 1.7c-.3-.3 .3-.3 .3-.6c-.5 .1-.4-.5-.6-.8q.3 0 .4-.3m68.3 112.7 .2 .4q0-.2-.2-.4m-61.4-105.5c-.1-.2-.7-.4-.3-.7q.4 .3 .3 .7m0 0v.1zM323.3 71.8h-.1zm-30.6 2.9q-.1 .3-.1 .1zm-82 32.2v.2zm-7.7 4.8 .2-.2q-.1 .2-.2 .2m-10.2 7-.2 .4q-.1-.4 .2-.4m-.3-.4h0c.6-.2 1.4 0 1.4 .6c-.3 .2-.3-.3-.5-.4c0 .4-.4 .2-.7 .3q0-.3-.3-.4m-.2-.2 .2 .2zm-12.7 8.3 .1-1.8c.5-.1 .1 .8 .7 1c.5 .2 1.1-.6 .8-1.1c-.3 .2-.2 .3-.3 .6c-.6-.5-.2-.8-.4-1.4l-.3 .2q.1-.6 .6-1.1c-.1 .4 .3 .3 .4 .3c-.3-.5 0-1 .6-1.3c.9 .2 .6-1.3 1.5-1.8a3.2 3.2 0 0 1 0 2c.6-.1 .5-.4 1.1-.5c-.1-.6-.5-1.3-.2-2l.4 .3c.3-.6-.2-1.2 .5-1.6c1.2-.8 2.3-1.8 3.2-2.4l.4 .4c-.2-1.2 1.3-1.6 1.6-2.5c1.4-.5 2-2.3 3.1-2a25.6 25.6 0 0 1 5.3-4.9l.1 .9c.1-.7 .5 .2 .8-.2c-.8-.2 0-1 0-1.5c1.3-.2 2.1-1.6 2.6-2.6l.3 .4c.3-1.4 1.8-1.4 2.9-2c.3 .1 .7 .4 1 .1c.1-1.1 .5-1.2 1-2.2a7.7 7.7 0 0 1 2.6-1.1c1.7-2.5 4.5-3.3 6.7-5.3l.5 .4c1.8-2.5 5.4-3.1 7.2-4.8l.3 1c.8 0 1.4-1 .9-1.5c.8-.1 1.5-1.3 2.2-.8c.8-.2 .6-.8 1.2-1.2a6.4 6.4 0 0 0 2.9-1.2c0 .3 .2 .5 .5 .4c.4-.5 1.9-.6 .9-1.5c1.7 0 3.1-2 4.8-1.7c-.2-.3 .1-.4 .2-.7c1.3-.5 2.8-.5 3.6-1.4c.3 .1-.1 .6 .4 .5c.3-.3-.2-.4 .2-.7c1.8-1.4 4.4-1 6.2-1.8c3.1-1.8 6.8-2.6 10-3.7l0 .2c.9-1.2 2.8 .2 3.4-1.4c.3 .1 1-.2 1 .3c.6-.8 2.3-.2 3.5-1c1.4 .2 2.4-.8 3.8-.6c-.1 .1-.4 .3-.4 .5c.6 .3 1-1.3 1.6-.2c.3-.1 .1-.5 0-.6c3.1-.2 6.1-1.5 9.2-2.3c2.4 .3 .4 1.9 2.1 .8c.2 .2 0-.4 .1-.2c.6-.4 1.3 1.2 1.6 .5c-.3-.7 .3-.4 .2-.9c1.4 .3 1.8 .9 2.8 .2v.4c1.1-1.2 2.7-.8 3.6-2.2c7.1-1 13.9-2 21-2.2c6.9 .3 13.8 .1 20.7 1.4c1.5 1.2 1.7 1.2 3.5 1c-.1 .2-.2 .2-.1 .4c.2-.8 1.3 .1 1.5-.6c2.6 .5 5 .6 7.6 1.1c-.4 0-.7 .6-.2 .6l.6-.4v.2c.4-.1 .8-.4 .5-.7c6.8 .5 12.9 3.6 19.3 5.2c1.4 .8 3.6 1.1 5.3 1.4c4.5 2.6 8.4 4.9 13.4 6.1c0 0-1.4 1.7-3.5 1.4c-3.1 .8-5.7-2.1-8.8-1.9c-.3 0 .4-1-.4-1c-3.1 .5-7-1.6-10-3.6l.3-.2c-.6-.4-1.6 .4-2.2 .1c.1-.2 .3-.2 .2-.5c-.3 .5-1.3 0-1.7 .3c-.2-.3-.1-.7-.3-1.1l-.6 .6c-1.4 1.3-2.6-.7-4.2-.3c.1-.1 .3-.2 .2-.4c-2.6 .4-5.4-.3-8.1-.4c.2-.2 .3-.6 .2-.9c-.3 .7-1.1 .7-1.8 .7c-.2-.8-1.3 .4-2.1-.1l.1-.2c-.7 .6-.8-.6-1.5 .3l-.3-.6c-.4 1-.8-.6-1.4-.2v.2c-.5 .2-.7-.4-1.2-.3v-.1c-1.1 .1-1.6-.5-1.7 .3c-.3-.7 1.1-.2 .6-1.2c-3.5 .4-7-.1-10.5-.3c-.4-.4-.6-.5-.7-.8c-.4 .2-1.3 .1-1.6 .4c0-.1-.3-.4-.4-.4c-.6-.3-.7 .8-1.4 .4q.4-.3 .3-.8c-.6 .6-1.4 .5-2.1 .6c.1-.1 .3-.2 .3-.4c-.8 .7-1.4-.2-2.1 .2l.3-.4c-1.1-.6-.3 1-1.3 .6c.3-.2 .2-.3 .2-.5c-.9 .8-2.3 .5-3.2 .8q.1-.1 0-.2c-1 .1-1.9-.2-3 .2c-.4-.2 .1-1.1-.9-1c0 1-1.7 .4-1.1 1.5c-.9-.1-2.2-.4-2.8-.1c.4-.4-.4-1.1 .3-1.2l-.5-.5c.1-.4 .5 .1 .4-.4c-.4 .1-1.4 .4-1.7 .3c-.6 .6-1.2 1.7-2.2 1.9c.4-.3-.2-.8-.1-1.1l-1.3 1.8c-.4 .1-.1-.7-.6-.4c.1 .3-.2 .4-.3 .6c-.1-.1-1.4 .3-1.7-.6c-.2-.4 .6-.3 .2-.5c-.6 .1-.6 .4-1.3 .4v-.1c-.4-.1-1.3 .5-.7 1c.3 0-.2-.5 .3-.3c-.3 .6-1 .8-1.7 .8c.2-.2 .2-.4 .2-.6c-.8 .8-1.7 1.1-2.6 1.4c.1-.2 .2-.5 .3-.6c-1.3-.4-2.4 1.1-3.5 .4c.1 .2 .1 .5 0 .4c-.6 0-.6-.6-1-.3c-.1-.4-.5 .2-.9 .3c-.1 .2-.1 0 0-.1c-.8 .4-2.6 1.1-3.8 .8c.1 .3-.6 1-.9 1v-.5q-.1-.1-.3-.1q-.1 .1-.2 0q-.3 .1-.4 0l.4-.1v-.1l-.4 .2-.1-.2q-.2 .3 .1 .2c-.4 .2-.8 .5-1.2 .2c.2 .1 .3-.9-.1-.7c-.8 .3-.2 .3-.8 .6l-.4 .3c.1 .5-.7 .1-.4 .5c-.3-.2-1.1 .5-1.2-.3v-.7c-.4 .1-.5 .8-.7 1.2l-.2-.3c.1 1-.9 .1-1.1 1c-.9-.2-1.9 .4-2.4-.2c-.5 .4-1 1-1.7 .9c.1-.1 .3-.2 .3-.4c-.5-.2-.5 .1-.9 .4c.1-.2-1-.4-1.5-.7c-.5 .4-.2 1-.1 1.3c-.8-.9-1.5 1.1-2.3 .3c.2-.2 .7-.8 .2-.9c-.8-1-.9 1.1-1.9 .7l.4 .8c-.5-.4-1.1 .8-1.3-.1c-.2 .4-1.1 0-.7 .8c-1.6-.4-3.2 1.4-4.5 .1c-.2 .2-.7 .2-.5 .6c.5 .3 .4-.5 .6-.2q-.2 .2-.1 .4c-.5-.1-.9 0-.6-.8c-1.1-.3-.5 1.7-1.9 1.8q-.1-.5-.5-.3l-.5 .8c-.8 .1-.7-.6-.9-1.2c-.4 .3-.9 .4-1 .9l-.7-.6c.5 .4-.2 .5-.4 .7l.2-.2c-.2-.2-.6 .1-.8 .2c.2 .4 .7 .3 1 .4c-.1 .3-.4 .4-.6 .8c-.1-.6-.8-.2-1.2-.1c-.4 0-.2 .6-.4 .7c-.1-.3-.6 .2-.5-.4c.1-.2 .4 .2 .5-.2c-.3-.1-.5-.6-.9-.1c-.3 .4 .5 1.1-.4 1q.1-.3 .2-.7l-.8-.1 .2 .5c-.1-.1-.1-.2-.2-.2c0 .6-1 .5-.9 1.2c-.3 .2-.9-.1-1.2 0l.1-.1c-.5-.2-1 .3-1.2 .7v-.1a1.3 1.3 0 0 0 -.9 .7c-.7-.2-1-1.9-1.3-1c-.6 .2-.5 1.3-.2 1.5c-1.1 .1-1.9 1.3-3.2 1c-.1 .3 .1 .4-.2 .6c-1.5 .4-2.8 1.9-4.4 1.4c.3-.4-.2-.5-.3-.8c-.2 .6-.6-.3-.4 .5c.2 .4 .3 .7 .8 .7c-.8 .6-2 1.3-2.7 1.1c.3 .1 .2 .3 .1 .5c-.3-.8-1-.6-1.3-.1l.1 .5-.5-.3c-.1 .3 .3 1.1-.4 .9l-.4-.4c-.3 .6-.7 1.5-1.4 1.4l-.8-.4c-.2 .2-.4 .8 .1 .7c-1.1 .1-1.7 .3-2.2-.1c-.9 2.1-3 3.4-4.8 4.3l-.1-.3c-.6 0 .1 .7-.4 .6c0-.4-.7-.4-.6-1c-.9 0-.5 1.1-.9 1.4c.2 .4 .2-.5 .4 .1c0 .2-1.1 .2-.9 .9c-.3-.1-.4-.7-.5-1l-.2 .5c-.9-.4 .4-2-.6-2.6l-.3 .3c-.8-.5 .5-1.4-.5-1c-.2 .5 0 1.7 .5 1.7c-.7 .7 .5 1.7-.4 2.2c-.5-.2 .6-.5 .2-1c-.7-.2-.7 .8-1.2 .9c.6 0 .6 .8 .4 1.1c-.6 0-.1-.8-.7-.4c.1 .4-.3 1.1 .3 1c.3 1-.8 .2-.8 1.1c-.6-.4-.2-1.7-1-1.6c.4 .5-.4 1.3 .4 1.9c-.4 0-.6-.4-.6-.8c-.6-.1-.4 1.6-1.2 .6l.2 .6-.9-.3c-.4 .3-.6 1.5-1.2 .6c0 .2-.9 .6-.2 1c.7 0 .3-.8 1.1-.2c-.8-.4-.6 .5-.8 1l-.3-.3c-.1 .2-.4 .4-.4 .7q-.1-.3-.4-.3l.1 .6c-.5 .7-.7-.7-1.3-.2l.2-.7c0 .2-.6-.2-.8 .2c.2 .5 .3 1.2 .4 1.6c-.2 .4-.4-.2-.5 .2l.1-.7c0-.2-.8-.5-1.3-.2c-.2 .4-.3 1.3 .4 1.2c-.3 .2-.8 .2-.8-.3c-.4 .5 .4 .4 .1 1c-.4-.2-1.3-.1-2-.3v-1.1l-.4 .3c0-.9-.5-.3-.7-1.1c-.3 .1-.4 .5-.5 .8c1.4 .5 .2 1.9 1.1 2.6c-.7 .9-2.1-1.7-2 .3c.2 .1 .3 .7 .5 .7c-.2 .4 .3 1-.4 1.1c.2-.7-1.2-.5-.9-1.6c.2 .3 .5-.1 .6-.2c-.5-.2-.6-.9-1.2-.5c-.3 .3-.8 .7-.4 1.1c.4 .5 .5-.4 .6 .2c-.5 .7-1.3 0-.9 1.1c.4-.4 .9 0 1.2 .4l-.4 .6-.2-.4c-1 .4 .2 .8-.6 1.3l-.9-.3c-.2-.7 1.3-.6 .5-1.5c-.5 .4-.4 1-1 1.1l.2-.4c-.2 .1-1.3-1-1.5 .3c-.2 .6 .2 .4 .4 .7c-.7 .8-.7 1.3-1.2 1.8c-.4-.7-1 .7-.9-.4c.6 .2 1.7-.8 1.5-1.7c-.9-.6 .7-.4 .3-1.3c-.6 .5-1.2-.3-1.7-.7c-.2 .1-.2 .5-.3 .6c.3 .5 .5 .3 1 .8a2.6 2.6 0 0 0 -1.3 2c-.4 0-.7-.5-.5-.8a9.6 9.6 0 0 1 -2.6 2.1c1 .3-.2 .7-.1 1.1q-.4-.3-.7-.7c-.3 .8-.3-.4-.9 0a9.6 9.6 0 0 1 -1.2 2.3c-1.2 .1-1.9 1.7-2.6 2.4c-.6 0-1-.9-1.5-.6c-.4 .4 1 .4 0 .7l0-.2c-.1 .3-1.4 .6-1.1 1.6l-.3-.7c-.2 0-.2 .3-.2 .5c-.2-.2-.5-.3-.5-.6c-.9-.1-.8 .9-1.2 1.3l.6 .1c-.4 1-1.3 1.1-1.9 2l-.4-.4-.2 .6c-.2-.4-.7-.3-.8 0M282 76.1h-.1zm-50.1 9V85l.3-.1zm34.7-12.4h-.1q.2-.2 .3-.2zm-87.1 53.7v.3zm.6-2.4v.2zm102.8-48.4 .3-.1q-.1 0-.3 .1m-84.1 38.8c-.2 .1-.3 .5-.6 .1q.3-.2 .6-.1m0 0 .1 0zm218.5 295.3 45.6 47.6c-34.1 19.3-74.9 34.3-116.9 38.7H297a197.4 198.6 0 0 1 -27.1-5c-134.7-34.8-216.1-171.4-182-305c6.1-23.8 26.1-59.9 38.1-79.9l114.8 119.6 237.1 141.3-4.3 4.2a208.7 210 0 0 1 -56.1 38.6m-295.8-167a204.2 205.4 0 0 1 -.9-18.8 201 202.2 0 0 1 8.5-58.1l1.7-5.6 95.1 56.7-99.2-103.4c-11.9 20.3-29.1 52.1-34.6 73.6c-33.5 131.2 46.5 265.3 178.7 299.5a192.9 194 0 0 0 26.3 4.8h48.7c39.1-4.2 77.3-17.6 109.8-35.2L413 411.7A209 210.2 0 0 1 352.6 428l16.9 19.3-32.6 3.7-17.3 31.5-15.8-33.6-33.1-3.7 20.9-19a208.7 210 0 0 1 -54.5-17.7l-10.4 1.2-20.9 37.6-19-40.1-39.9-4.4 32.6-29.3-1.6-7.9a205.1 206.3 0 0 1 -31.6-42.8l-6.5 11.8-15.8-33.7-33.1-3.7 27-24.6-7-35.3zm227.3 181.2a204.6 205.9 0 0 0 65.2-17.6 204.2 205.4 0 0 0 56.3-38.4L133.5 167a196.5 197.6 0 0 0 -8.3 56.8q0 10.8 1.1 21.3l17.8 9.2 29.8-13.3-6.3 33.1 22.1 25.1-32.6 3.7-8.3 15a200.3 201.5 0 0 0 27.3 38.9l-5.2-25.5 40.1 20.4 35.8-15.9-7.6 39.5 26.6 30-20.1 2.3a204.6 205.9 0 0 0 50.1 14.8l1.8-1.7-7-35.2 33.3 17.1 29.8-13.4-6.3 33.2zM176.6 98.5a12.8 12.8 0 0 1 -3.3 4.3c-5.3 4.8-13 4-21.4-5.4c-9.7-10.8-7.5-19.2-3.1-23.1a9.6 9.6 0 0 1 4-2.4l1.7 3.3c-.9 .3-1.8 .6-3.2 1.9c-2.9 2.6-3.8 8.6 3.7 17s13.1 8.4 16.4 5.3a9.8 9.8 0 0 0 2.3-3.1zm.1-15.5c4.8 6.6 8.4 6.1 10.8 4.3a9.6 9.6 0 0 0 2.9-3.4l2.4 2.1a12.8 12.8 0 0 1 -4 4.5c-5.1 3.7-10.8 1.4-15.6-5.1c-5-6.9-5.2-13.4-.9-16.6c4.3-3.1 9.4 .2 12.9 5c.6 .9 1 1.5 1.3 2zm4.9-7.4c-3-4.3-6-5.1-7.6-3.8c-2.2 1.6-1 5.7 1 8.7zm9.2-10.5c-1.1-1.9-2.6-4.1-3.6-5.8l3.2-2 2.3 3.5 .1-.1c-.5-2.6 .3-5.5 2.4-6.8q.4-.3 .8-.4l2.1 3.7-.7 .4c-2.3 1.4-2.8 4.5-1.6 7.3q.4 1 1.1 2.1l7.4 12.6-3.6 2.2zm16.5-23.7 2.7 5.6 4.6-2.2 1.3 2.9-4.6 2.2 6.8 14.2c1.5 3.1 3 3.4 4.4 2.8a6.8 6.8 0 0 0 1.5-.9l1.6 2.8a9.6 9.6 0 0 1 -2.6 1.8c-1.5 .7-3 1-4.4 .4c-1.5-.6-2.7-2-4.3-5.3l-6.6-13.9-2.9 1.4-1.4-2.9 2.9-1.4-1.9-4.1zm17.4-8.2c.6 1.5 .1 2.9-1.4 3.5c-1.3 .5-2.6-.2-3.2-1.7c-.6-1.5 0-2.9 1.3-3.4c1.4-.6 2.7 .1 3.3 1.6m7.9 32.8-9.6-24.7 3.9-1.5 9.6 24.7zm13.2-5-6.4-22.5-3.2 1-.9-3.1 3.2-1-.5-1.7c-1.2-4.5-.5-10.3 6.5-12.4a9.6 9.6 0 0 1 5.3-.2l.1 3.4a9.6 9.6 0 0 0 -4.5 .2c-4.1 1.2-4.3 4.3-3.2 8.2l.4 1.3 11.4-3.3 7.3 25.5-4 1.2-6.4-22.5-7.4 2.1 6.4 22.5zm36.8-9.2a9.6 9.6 0 0 1 -4.2 1.7c-5.7 1-10.3-2.9-11.8-11.6c-1.3-7.5 1.4-14.3 7.9-15.4a9.6 9.6 0 0 1 3.8 .2l-.2 3.5a6.8 6.8 0 0 0 -3-.2c-4.2 .7-5.2 6-4.3 11.2c1.1 6.1 4 9.4 7.8 8.7a6.4 6.4 0 0 0 2.8-1.2zm20.5-7.2c.1 2 .3 4.3 .7 6l-3.7 .3-.5-2.8h-.2a6.1 6.1 0 0 1 -5.1 3.6c-3.5 .2-6.4-2.5-6.7-7.1c-.4-6.7 4.6-10 10.6-10.4l-.1-.8c-.2-3.5-1.3-5.9-4.5-5.7a7.4 7.4 0 0 0 -4.3 1.7l-1.2-2.9a11.5 11.5 0 0 1 6-2.2c5.3-.4 7.7 2.9 8.2 8.8zm-4.6-7.4c-2.2 .2-7.2 1-6.8 6.7c.2 3.5 2 4.6 3.5 4.5c1.9-.1 3.3-1.6 3.6-4.3a6.4 6.4 0 0 0 .1-1.6zm27 13.1a9.6 9.6 0 0 1 -4.4 .9c-5.8-.2-9.5-5-9.2-13.7c.2-7.6 4.2-13.7 10.8-13.5a9.6 9.6 0 0 1 3.7 1l-.9 3.4a6.8 6.8 0 0 0 -3-.8c-4.3-.1-6.2 4.9-6.4 10.1c-.2 6.2 2 10 5.9 10.1a6.4 6.4 0 0 0 3-.6zm7 1.3l2.8-26.4 4.2 .4-2.8 26.4zm8.1-32.7c-.2 1.7-1.3 2.6-2.8 2.5c-1.3-.2-2.2-1.3-2.1-3s1.4-2.6 2.7-2.5c1.5 .2 2.4 1.3 2.2 3m23.6 24.5c-2 10-7.3 12.5-11.3 11.7c-4.6-.9-7.6-5.9-5.8-15c1.9-9.5 6.9-12.6 11.3-11.7c4.7 1 7.5 6 5.7 15.1m-12.9-2.6c-.8 4.3-1.2 10.3 2.5 11c3.5 .7 5.5-5.2 6.3-9.3c.8-4 1.2-10.3-2.4-11c-3.7-.7-5.6 5.2-6.4 9.2m15.4-21.5-7 6.1-2.7-.5 5.6-6.5zm8.5 20.4c1-3 1.3-4.5 1.9-6.6l3.5 1.1-.8 3.2h.1a6.7 6.7 0 0 1 6.8-1.5c3.5 1.1 5.2 4.5 3.3 10.6l-5.4 17-4-1.3 5.2-16.3c1-3 1.3-6.2-1.5-7.1c-1.7-.5-3.7 .4-5.1 2.9a9.6 9.6 0 0 0 -1 2.2l-5.1 15.8-4-1.3zm38.2 24.5-7.4 8.6-3.6-2 24.8-28.5 4.1 2.2-10.2 36.4-3.6-2 3.1-10.9zm8.3 .6 2.8-9.2c.8-2.6 1.8-5.5 2.7-8.1l-.2-.1a160 160 0 0 1 -5.3 6.7l-6.1 7.3zm17.1 3.8c1.9-2.5 2.7-3.8 3.9-5.6l2.9 2.2-1.8 2.8 .1 .1a6.4 6.4 0 0 1 6.9 .6c2 1.5 2.9 3.6 2 6.6l.1 .1a8 8 0 0 1 3.9-.8q1.9 .1 3.5 1.4c2.9 2.1 3.5 5.9-.5 11.3l-10.5 14.1-3.3-2.5 9.9-13.3c2.1-2.8 3.7-5.8 1.1-7.7c-1.4-1.1-3.5-.8-5.5 .9a15 15 0 0 0 -1.5 1.8l-10.1 13.7-3.3-2.5 10.3-13.9c1.7-2.3 3.2-5.1 .6-7c-1.4-1.1-3.6-.9-5.7 1.1a13.6 13.7 0 0 0 -1.5 1.7l-10 13.5-3.3-2.5zm43.6 11.8 2.9 2.9-10.3 10.3 .1 .1c2.8-.9 4.9-.1 6.5 1.5c2.9 2.9 1.8 8.4-4.4 14.6c-6.7 6.8-12.5 7-15.5 4.2c-2-2-1.8-4.2-1-6.5l-.1-.2-2.6 2.2-2.5-2.5c1.1-1.1 3.4-3.1 4.6-4.4zM465 103.7a7.7 7.7 0 0 0 -1 1.3c-2 3.5-1.3 5.2-.4 6.1c2.4 2.4 6.5 0 10.5-4c3.7-3.8 6.1-8 3.7-10.4c-1.4-1.4-4.2-.8-6.1 .5l-1.4 1.2zm7.8 22 20.3-17 2.7 3.2-20.3 17zm28.4-17.9c-1.3 1.1-2.7 1-3.7-.2c-.9-1.1-.7-2.6 .6-3.6s2.8-.9 3.6 .2c1 1.2 .8 2.6-.5 3.7m-7.8 23.4c-6.7 4.7-6.2 8.3-4.5 10.8c1 1.5 2.2 2.5 3.3 3l-2.1 2.3a12.8 12.8 0 0 1 -4.4-4.1c-3.6-5.2-1.2-10.9 5.4-15.6c7-4.9 13.4-4.9 16.5-.6c3.1 4.4-.3 9.5-5.2 12.9l-2 1.3zm7.3 5.1c4.3-3 5.1-5.9 4-7.6c-1.6-2.3-5.6-1.1-8.7 .8zm10.4 9.6c2.8-1.5 4.1-2.4 5.9-3.4l1.8 3.2-2.8 1.8 .1 .1a6.7 6.7 0 0 1 6 3.6c1.7 3.2 .7 6.9-4.9 10l-15.6 8.4-2-3.7 14.9-8.1c2.8-1.5 5.2-3.5 3.8-6.2c-.8-1.6-2.9-2.3-5.6-1.4a9.6 9.6 0 0 0 -2.2 1l-14.6 7.9-2-3.7zm26.1 23.8-5.7 2.4 2 4.7-2.9 1.2-2-4.7-14.5 6.1c-3.2 1.4-3.6 2.8-3 4.3q.4 1 .8 1.5l-2.9 1.4a9.6 9.6 0 0 1 -1.6-2.7c-.6-1.6-.8-3.1-.1-4.4c.7-1.5 2.1-2.6 5.5-4l14.1-6-1.2-3 2.9-1.2 1.3 3 4.1-1.7zm-15.8 35.5c-1.9 .6-4.1 1.3-5.7 2l-1.1-3.6 2.6-1.1v-.2a6.1 6.1 0 0 1 -4.7-4.2c-1-3.3 1-6.8 5.3-8.2c6.4-2 10.7 2.2 12.5 7.9l.8-.3c3.4-1.1 5.4-2.7 4.4-5.8a7.5 7.6 0 0 0 -2.6-3.8l2.6-1.8c1.1 .8 2.7 2.9 3.5 5.4c1.6 5.1-1.1 8.3-6.7 10zm6.1-6.2c-.6-2.1-2.6-6.8-8-5.1c-3.4 1-4 3.1-3.6 4.5c.5 1.8 2.3 2.8 5 2.6a6.4 6.4 0 0 0 1.5-.3zm-8.8 21.2-.9-4.1 36.9-8 .9 4.1zm20.4 43.3c4.8-.4 10.2-1 14.4-1v-.2a213.3 214.5 0 0 1 -12.9-2.5l-17.4-3.8-.1-2.7 16.3-4.9a165.6 166.6 0 0 1 13.3-3.6v-.2c-4.3 .2-9.4 .2-14.7 .1l-15.6-.1-.2-3.8 36.8 .7 .2 4.6-16.6 4.9a160 160 0 0 1 -12.5 3.5v.2c4.2 .5 7.7 1.2 12.7 2.2l16.9 3.5 .2 4.7-36.6 3.6-.2-3.9zm-10.7 30.2c-2.9-.3-5.2-.4-7.2-.5l.4-3.6 2.8-.1v-.1a6.7 6.7 0 0 1 -2.6-6c.4-4.6 4.2-6.1 10.7-5.4l16.6 1.7-.4 4.2-16-1.6c-4.1-.4-7.2-.1-7.5 2.8c-.3 2.5 1.9 3.8 3.1 4.1a9.6 9.6 0 0 0 2.3 .4l17.3 1.8-.4 4.2zm10.6 12.5c3 .6 4.6 .8 6.7 1.2l-.8 3.6-3.2-.5v.1a6.7 6.7 0 0 1 2.2 6.7c-.8 3.6-4 5.7-10.2 4.3l-17.3-3.8 1-4.2 16.5 3.7c3.1 .7 6.2 .8 6.9-2.2c.4-1.7-.7-3.7-3.3-4.8a9.6 9.6 0 0 0 -2.3-.7l-16.2-3.6 .9-4.1zm-25.3 20.4 25.1 8.1-1.3 4-25.1-8.2zm30.2 14.6c-1.5-.5-2.3-1.8-1.8-3.3c.4-1.3 1.8-2 3.3-1.5c1.6 .5 2.2 1.9 1.9 3.2c-.5 1.5-1.8 2.1-3.4 1.6M505 351.5a9.6 9.6 0 0 1 .8-4.4c2.2-5.4 7.9-7.2 16-3.8c7 2.9 11.3 8.8 8.7 14.9a9.6 9.6 0 0 1 -2.1 3.1l-2.9-2.1a6.4 6.4 0 0 0 1.8-2.5c1.6-4-2.3-7.6-7.1-9.6c-5.7-2.3-10-1.6-11.5 2a6.1 6.2 0 0 0 -.5 3.1zm-3.7 6.1 23.5 12-1.9 3.7-23.5-12zm27.6 19.2c-1.4-.8-2-2.1-1.3-3.6c.6-1.2 2.1-1.7 3.5-.9c1.5 .8 2 2.2 1.3 3.5c-.7 1.4-2.1 1.8-3.6 1m-18.3 2.4c3.4 2.2 5.5 3.3 7.1 4.2l-2 3.2-3-1.6-.1 .1c1.6 2.8 1.3 5 .2 6.8c-2.5 4-8.2 3.9-15.5-.7c-8.3-5.2-9.4-10.8-7.3-14.3a5.1 5.1 0 0 1 5.1-2.3l.1-.1-11.1-7 2.2-3.5zm-9.4-1a9.1 9.1 0 0 0 -2-1c-3.6-1.3-5.2-.1-5.8 .9c-1.9 3 1.6 6.5 6.1 9.3c4.6 2.9 9.2 4.3 11 1.4c1-1.6-.1-4.4-2-5.8a11.4 11.4 0 0 0 -1.6-1.2zM477.5 405a64 64 0 0 0 -4.9-3.5l2.3-3 2.4 1.5 .1-.1a6.1 6.1 0 0 1 .8-6.2c2.2-2.7 6.2-3 9.8-.2c5.2 4.2 4.2 10.1 .5 14.8l.6 .5c2.8 2.2 5.2 3 7.3 .4a7.7 7.7 0 0 0 1.7-4.3l2.9 1.1a11.5 11.5 0 0 1 -2.5 5.9c-3.3 4.2-7.4 3.8-12 .1zm8.6 1.6c1.3-1.7 4.2-6-.3-9.6c-2.7-2.2-4.7-1.6-5.7-.4c-1.2 1.5-1.1 3.5 .7 5.6q.5 .6 1.1 1.1zm-22.4 4.6 2.8-3 27.4 26.1-2.9 3zM406.8 97.9c-1-.4 .2 .9-.8-.1c.3-.2 .6-.3 .8 .1m1.2 .6c0 .4 .5 1.1-.3 1.2c.2-.4 .1-1 .3-1.2m14.1 15c.1-.1 .1 .3 .1 .4c-.2-.1-.6 0-.6-.3c.2 .1 .3 0 .5-.1m3.8 3.4c-.3 .2-1.3-.3-1.9-.6zm2.6 4.2q.1 .7-.5 .2q.2-.2 .5-.2m7.6 7.3c.2 .2 .8 .3 .7 .8c0-.4-1.2-.5-.6-.8m3.7 3c.1 .1 .1 .2 .3 .3c.1 .3-.3 .3-.5 .1zm44.9 73.1h.4l0 .4zm7.9 38c.3 .5-.3 .4-.3 .5c-.1-.4 .4 .1 .3-.5m2.7 20.7V263l.7 .1zM177.2 126.7c-.4 .7 .8 .1-.2 .6c-.1-.3-.2-.5 .2-.6m.6-.8c.4 .2 1-.1 1 .6c-.3-.3-.8-.3-1-.6m14-7.3c-.1-.1 .3 0 .3 0c-.1 .2 0 .5-.3 .4c.1-.1 0-.3-.1-.4m3.1-2.3c.2 .3-.3 1.1-.6 1.4zm3.7-1.1q.6 .1 .1 .5c-.2-.1-.1-.3-.1-.5m6.5-4.6c.1-.1 .3-.6 .6-.4c-.3-.1-.4 .9-.6 .4m2.6-2.5q.1 0 .2-.2c.3 0 .2 .4 .1 .5zm58.3-28.2 0-.4 .4 .1zm28.7-5.2c.4-.3 .3 .3 .4 .4c-.4 .1 .1-.4-.4-.4m15.4-2.6 .1-.8 .1 .7zM205.5 127.3l20.7 25.6-3.7 3-17.6-8.7a254.1 255.6 0 0 1 -6.5-3.4 32.9 33.1 0 0 1 -4-2.6 213.3 214.5 0 0 1 8.1 9.5l10.5 13-2.9 2.3-20.7-25.6 3.9-3.2 19 9.5q5.8 2.9 8.7 5.1a131.6 132.4 0 0 1 -3-3.3l-2.5-2.9-1.5-1.8a179.2 180.3 0 0 1 -1.5-1.9l-10-12.3zm8.7-7.9 2.7 4.2-3.2 2.1-2.7-4.2zm5.8 9.1 13.1 20.3-3 1.9-13.1-20.3zm19.7-11.2 5.3 24.6-3.5 1.9l-17.6-18 3.3-1.8 10 10.5 1.6 1.7 1.3 1.4q.6 .7 1.2 1.6a25.9 26 0 0 1 -1.1-3.8l-3.6-16.3zm11.2 9.8q1.6 3.2 4 4.5t4.7 .4a8.2 8.2 0 0 0 2.6-1.6q1.2-1.1 2.2-2.7l1.5 4q-1.3 1.5-2.4 2.4t-2.6 1.5a8.6 8.7 0 0 1 -4.1 .6 8.6 8.7 0 0 1 -3.8-1.3q-1.8-1.1-3.3-3.1a19.5 19.6 0 0 1 -2.6-4.7q-1.3-3.5-1.3-6.5t1.3-5.2a7.5 7.6 0 0 1 3.8-3.1q2.9-1.1 5.2 0t4.3 3.8 3.2 6.2zm-1.2-3.3 9.4-3.7a15 15 0 0 0 -1.9-3q-1.1-1.2-2.4-1.7t-2.7 .1q-1.9 .8-2.6 3t.1 5.3m15.1-27.5 9.5 34.4-3.4 1-9.5-34.4zm35-3l13.5 32.1-4.2 .3-3.3-8.2-12.5 .9-2.1 8.5-4 .3 8.6-33.8zm4.5 20.4-3.6-9a104.4 105 0 0 1 -1.6-4.1 38.6 38.8 0 0 1 -1-3.2q-.2 1.3-.5 2.7l-1.2 4.9-2.2 9.3zm27.4-10.7-8.6 23.7-4-.3-5.2-24.6 3.8 .3 2.9 14.2 .4 2.3q.2 1 .3 1.9q.2 .9 .2 2q.3-1.6 1.1-3.8l5.6-15.8zm5.2 2.8a11.4 11.4 0 0 1 3.4-1q1.6-.2 3.3 .1q2.6 .5 4.2 2.2q1.5 1.6 1.7 4.1q.2 2-.7 6.7l-1 4.6a217.8 219.1 0 0 0 -.9 4.7 79.4 79.9 0 0 0 -.5 3.4l-3.2-.6 .3-1.9 .5-2.2q-1.5 2.1-3.2 2.8t-3.9 .3q-1.9-.4-3.2-1.6a5.9 5.9 0 0 1 -1.8-2.9q-.5-1.8 0-3.9q.4-1.9 1.3-3.2a6.6 6.6 0 0 1 2.4-2q1.5-.7 3.4-.9t4.3 .3l2.6 .6q.6-3-.3-4.7q-.8-1.7-3.2-2.2a7.3 7.3 0 0 0 -2.9 0q-1.4 .3-3 1.2zm8.2 12.9a15.9 16 0 0 0 -1.8-.5q-6.9-1.4-7.8 3.1q-.2 1.1 0 2t1 1.6 1.8 .8q1.9 .4 3.3-.4t2.2-2.5 1.3-4m16.2-8.7-1.1 3.7q3.4-3.3 7.6-1.8q2.2 .8 3.2 2.4t1 3.5-.5 4.1a56.7 57.1 0 0 1 -1.6 5.1l-3.7 10.6-3.3-1.2 3.6-10.3q.9-2.5 1.2-3.6t.5-2.1q.3-2-.4-3.3t-2.1-1.8q-1.6-.6-3.4 .2t-3 2.8q-.4 .5-.8 1.3a18.1 18.2 0 0 0 -.8 1.7l-1.2 3.4-3 8.4-3.3-1.2 4-11.3 1.2-3.6a406.1 408.5 0 0 0 2.7-8.1zm31.8 14-1.7 3.4-14.6 8.5-1.7 .9-1.4 .8q.7 .1 1.3 .4l9.1 4.7-1.6 3.1-13.7-7 1.7-3.3 14.3-8.4q1.5-.9 3.2-1.7a27.2 27.4 0 0 1 -2.4-1.2l-7.1-3.6 1.6-3.2zm5.2 5.3a11.6 11.6 0 0 1 3.5 .3 10 10 0 0 1 3 1.3q2.2 1.5 3 3.6t.1 4.5q-.6 2-3.2 5.9l-2.6 3.9a211 212.3 0 0 0 -2.6 4q-1.1 1.7-1.8 3l-2.7-1.8 1-1.6 1.3-1.9q-2.2 1.4-4 1.4t-3.7-1.2q-1.6-1.1-2.4-2.7a5.9 5.9 0 0 1 -.5-3.4q.2-1.9 1.4-3.6q1-1.6 2.4-2.5a6.7 6.7 0 0 1 3-1q1.6-.2 3.4 .4q1.8 .6 3.8 1.9q1.2 .8 2.1 1.6q1.7-2.7 1.5-4.5q-.2-1.9-2.1-3.2a7.3 7.3 0 0 0 -2.7-1.1q-1.4-.3-3.3 0zm2.8 15a15.9 16 0 0 0 -1.5-1.2q-5.9-3.8-8.4 0a4.2 4.2 0 0 0 -.7 1.9q-.1 1 .3 1.8t1.3 1.4q1.6 1.1 3.2 .8t3-1.5 2.7-3.2m35.7-2.3-15.7 18.6-3.6 4.4a353.9 356 0 0 0 -3.5 4.4l-2.6-2.2 2.6-3.1q-2.3 1-4.2 .8q-1.9-.2-3.6-1.7a6.9 6.9 0 0 1 -2.4-4q-.5-2.4 .6-5.2t3.4-5.6q1.8-2.2 3.7-3.5a13.2 13.2 0 0 1 3.9-2q2-.6 3.7-.3t3.1 1.5q3.1 2.6 2.1 7.3l.6-.8 .8-1 .6-.8 7.7-9.1zm-16.3 5.6a4 4 0 0 0 -2-1 5.7 5.7 0 0 0 -2.5 .3q-1.3 .4-2.7 1.4t-2.5 2.4q-2.4 2.9-2.8 5.7q-.4 2.8 1.3 4.3q1.2 1 2.9 1q1.7 0 3.5-1.1a12.7 12.8 0 0 0 3.4-2.9 13.2 13.2 0 0 0 2.3-3.8q.8-2 .5-3.7q-.2-1.7-1.4-2.6m13.6 10.3q1.9 .4 3.3 1.1q1.4 .7 2.6 2q1.8 2 2.1 4.2q.3 2.2-.9 4.4q-1 1.8-4.5 5l-3.4 3.3a220.1 221.4 0 0 0 -3.4 3.3l-2.4 2.5-2.2-2.4 1.3-1.3 1.7-1.6q-2.4 .8-4.3 .4t-3.4-2q-1.3-1.4-1.7-3.2a5.9 5.9 0 0 1 .3-3.4q.6-1.7 2.2-3.2q1.4-1.3 2.9-1.9a6.6 6.6 0 0 1 3.1-.3q1.6 .3 3.2 1.2t3.3 2.8q1 1.1 1.8 2q2.2-2.2 2.5-4t-1.4-3.6a7.3 7.3 0 0 0 -2.3-1.7q-1.3-.5-3.2-.8zm-.7 15.3a15.9 16 0 0 0 -1.2-1.5q-4.8-5.1-8.1-2a4.2 4.2 0 0 0 -1.1 1.7 3.2 3.2 0 0 0 -.1 1.9q.2 1 1 1.7q1.3 1.4 2.9 1.5q1.6 .1 3.3-.8t3.4-2.5"/></svg>