<svg fill="currentColor" xmlns="http://www.w3.org/2000/svg" viewBox="0 0 640 512"><path d="M0 141.3c0-8.5 3.4-16.6 9.9-22.1C38.2 95.4 125.9 32 256 32s217.8 63.4 246.1 87.2c6.5 5.5 9.9 13.6 9.9 22.1l0 34.7c0 6.4-1.9 12.3-5.1 17.3c-10.6-2.1-21.6-1.1-31.7 2.9L445.7 208l-8 0c-13.1 0-24.9-8-29.7-20.1l-19.4-48.6c-2.9-7.3-8.4-13.2-15.7-16c-18.6-7-59.5-19.3-116.8-19.3s-98.2 12.3-116.8 19.3c-7.3 2.8-12.8 8.7-15.7 16L104 187.9C99.2 200 87.4 208 74.3 208L32 208c-17.7 0-32-14.3-32-32l0-34.7zM32 401c0-11.1 2.9-22.1 8.4-31.8l101.1-177C153 172.3 174.2 160 197.1 160l117.8 0c23 0 44.2 12.3 55.6 32.2l21.3 37.3-36.6 14.7c-16.9 6.8-29.2 21.2-33.5 38.3c-6.1-13.6-16.4-25.2-29.7-32.9c-22.3-12.9-49.7-12.9-72 0s-36 36.6-36 62.4s13.7 49.5 36 62.4s49.7 12.9 72 0c14.5-8.4 25.3-21.3 31.2-36.4c6.6 44.8 24.8 98.2 65 142L80 480c-26.5 0-48-21.5-48-48l0-31zM352 296c0-9.8 6-18.6 15.1-22.3l120-48c5.7-2.3 12.1-2.3 17.8 0l120 48C634 277.4 640 286.2 640 296c0 63.3-25.9 168.8-134.7 214.2c-5.9 2.5-12.6 2.5-18.5 0C377.9 464.8 352 359.3 352 296zm144-22.2c0 62.6 0 125.3 0 187.9c68.2-33 91.5-99 95.4-149.7L496 273.8z"/></svg>