<svg fill="currentColor" xmlns="http://www.w3.org/2000/svg" viewBox="0 0 640 512"><path d="M544 64v384a32 32 0 0 1 -32 32H128a32 32 0 0 1 -32-32V64a32 32 0 0 1 32-32h384a32 32 0 0 1 32 32M320 432A176.1 176.1 0 0 0 496 256 176.1 176.1 0 0 0 320 80 176.1 176.1 0 0 0 144 256a176.1 176.1 0 0 0 176 176M160.6 266.2h64.1a300.8 300.8 0 0 0 9 65H179a160 160 0 0 1 -18.4-65M446 157.9h-46.8c-8.1-22.2-18.9-40.9-31.6-54.4a160 160 0 0 1 78.4 54.4m33.3 86.6h-64.1a297.6 297.6 0 0 0 -9.3-65h54.3a160 160 0 0 1 19.1 65M461 331.2h-54.7a300.8 300.8 0 0 0 9-65h64.1a160 160 0 0 1 -18.4 65M179.7 179.5H234a297.6 297.6 0 0 0 -9.3 65H160.6a160 160 0 0 1 19.1-65m220 173.3h47.4a160 160 0 0 1 -79.5 55.7c12.9-13.7 23.9-32.9 32.1-55.7m-206.8 0h47.4c8.2 22.8 19.2 42 32.1 55.7a160 160 0 0 1 -79.5-55.7m47.9-194.9H194a160 160 0 0 1 78.4-54.4c-12.7 13.5-23.5 32.2-31.6 54.4m68.3-61.2v45q4.7-.7 9.5-.7q6.2 0 12.2 1.2V96.6q2.5 .2 4.9 .4c18.2 8.2 34 30.3 44.9 60.8h-18.2c6.6 6 12 13.4 15.7 21.7h9c4.9 19.6 8 41.6 8.8 65h-24.8q-3.2 4.4-7 8.1l2.3 13.6h29.6a313.6 313.6 0 0 1 -8.4 65 256 256 0 0 1 -6.3 21.7c-10.9 31.3-26.9 53.9-45.3 62.2l-4.8 .4v-49.7H309.1v49.7l-4.8-.4c-18.5-8.3-34.4-30.9-45.3-62.2a256 256 0 0 1 -6.3-21.6 313.6 313.6 0 0 1 -8.5-65H271l2.4-13.6a64 64 0 0 1 -7-8.1h-22.1c.8-23.4 3.8-45.4 8.7-65h6.3c3.7-8.3 9.1-15.6 15.7-21.7h-15.5c10.9-30.6 26.7-52.7 44.9-60.8q2.4-.3 4.8-.4m-19.4 150.2-21.2 105.3h100.2l-21.2-105.3a50.1 50.1 0 1 0 -57.8 0m18.7-8.6a33.9 33.9 0 1 1 20.3 0l19.6 97.7h-59.5z"/></svg>